<svg width="6" height="3" viewBox="0 0 6 3" fill="none" xmlns="http://www.w3.org/2000/svg">
<path d="M0.132069 2.88528C0.216659 2.95874 0.331371 3 0.450981 3C0.57059 3 0.685303 2.95874 0.769892 2.88528L3.00272 0.945771L5.23555 2.88528C5.32063 2.95665 5.43457 2.99615 5.55284 2.99525C5.67111 2.99436 5.78425 2.95315 5.86788 2.88051C5.95152 2.80786 5.99896 2.70959 5.99998 2.60685C6.00101 2.50412 5.95554 2.40514 5.87338 2.33125L3.32163 0.11472C3.23705 0.0412648 3.12233 0 3.00272 0C2.88311 0 2.7684 0.0412648 2.68381 0.11472L0.132069 2.33125C0.0475054 2.40472 0 2.50437 0 2.60826C0 2.71216 0.0475054 2.8118 0.132069 2.88528Z" fill="black"/>
</svg>
