<svg width="59" height="21" viewBox="0 0 59 21" fill="none" xmlns="http://www.w3.org/2000/svg">
<path d="M6.81999 -1.71661e-05C8.20057 -1.71661e-05 8.63438 0.990215 8.99834 1.9789C9.15123 2.39874 12.7389 12.2235 12.8468 12.5184C12.8755 12.6006 12.8561 12.7357 12.7296 12.7846C12.6023 12.8327 10.7382 13.5575 10.635 13.5963C10.5318 13.6359 10.4162 13.5784 10.3789 13.4752C10.3401 13.3736 9.56641 11.2317 9.47949 10.9927H4.16203C4.07822 11.2317 3.29519 13.3782 3.26027 13.4752C3.22457 13.5738 3.1136 13.6405 3.0034 13.5963C2.8932 13.5528 1.02215 12.828 0.910404 12.7846C0.803309 12.7426 0.754418 12.6208 0.791668 12.5184C0.923596 12.1505 4.45693 2.48333 4.63697 1.9789C4.98774 1.00496 5.4363 -1.71661e-05 6.81999 -1.71661e-05ZM0.507636 17.5797C0.395886 17.5797 0.306641 17.6729 0.306641 17.7862V20.0825C0.306641 20.1958 0.395886 20.2874 0.507636 20.2874H13.1269C13.241 20.2874 13.3302 20.1958 13.3302 20.0825V17.7862C13.3302 17.6729 13.241 17.5797 13.1269 17.5797H0.507636ZM6.80757 3.20815L5.01025 8.60555H8.63438L6.83085 3.20815H6.80757ZM33.7775 12.0582C33.5128 12.1474 33.3382 12.1691 33.1302 12.1691C32.7003 12.1691 32.4621 11.9992 32.4621 11.5584C32.4621 11.099 32.7647 10.9453 33.3592 10.9453C33.5043 10.9453 33.6471 10.9663 33.7138 10.9896V11.3186C33.7138 11.6733 33.7332 11.9061 33.7775 12.0582ZM35.3055 12.5843C34.9881 12.1024 34.9051 11.8184 34.9051 11.2107V9.97682C34.9051 9.31252 34.8274 9.07273 34.6521 8.8306C34.4076 8.48759 34.0002 8.33859 33.2513 8.33859C32.7213 8.33859 32.2067 8.39601 31.7085 8.52329L31.8886 9.40022C32.2254 9.35288 32.5785 9.31252 32.8276 9.31252C33.623 9.31252 33.7138 9.42738 33.7138 10.0242V10.2469C33.5369 10.1995 33.3382 10.1654 33.1077 10.1654C31.9103 10.1654 31.2778 10.7513 31.2778 11.7214C31.2778 12.6309 31.9538 13.1268 32.7771 13.1268C33.0845 13.1268 33.4057 13.0701 33.6603 12.9661C33.8139 12.8994 33.8807 12.8598 34.0793 12.731C34.1989 12.9048 34.4387 13.0826 34.5364 13.1159L35.3055 12.5843ZM47.1503 12.0582C46.8841 12.1474 46.7126 12.1691 46.503 12.1691C46.0716 12.1691 45.8302 11.9992 45.8302 11.5584C45.8302 11.099 46.1368 10.9453 46.7328 10.9453C46.8779 10.9453 47.0214 10.9663 47.0866 10.9896V11.3186C47.0866 11.6733 47.1053 11.9061 47.1503 12.0582ZM48.6799 12.5843C48.3601 12.1024 48.2786 11.8184 48.2786 11.2107V9.97682C48.2786 9.31252 48.1995 9.07273 48.0225 8.8306C47.7812 8.48759 47.373 8.33859 46.6218 8.33859C46.0925 8.33859 45.5749 8.39601 45.0767 8.52329L45.2544 9.40022C45.592 9.35288 45.9458 9.31252 46.2019 9.31252C46.9927 9.31252 47.0866 9.42738 47.0866 10.0242V10.2469C46.9097 10.1995 46.7126 10.1654 46.4774 10.1654C45.2785 10.1654 44.6436 10.7513 44.6436 11.7214C44.6436 12.6309 45.3211 13.1268 46.1484 13.1268C46.4596 13.1268 46.7778 13.0701 47.03 12.9661C47.186 12.8994 47.2504 12.8598 47.4491 12.731C47.5701 12.9048 47.8099 13.0826 47.9085 13.1159L48.6799 12.5843ZM58.0033 13.0236C58.0033 13.0236 57.3467 11.6244 57.1861 11.3062C57.0053 10.9477 56.8376 10.7001 56.4682 10.6108V10.5907C56.7158 10.5433 56.9129 10.3936 57.1287 9.93569C57.3328 9.48946 57.3933 9.39323 57.5136 9.28691C57.6315 9.18137 57.7929 9.2194 57.7929 9.2194L57.8535 8.39446C57.682 8.37118 57.4918 8.37041 57.2955 8.38127C56.9696 8.40067 56.8012 8.49457 56.6405 8.65599C56.5148 8.77938 56.4294 8.96408 56.3239 9.17594C56.2121 9.4072 56.1237 9.59345 56.0073 9.82859C55.8916 10.0699 55.8373 10.1786 55.5261 10.1786H55.3236V6.52419H54.1246V13.0236H55.3236V11.1549L55.4873 11.1518C55.8311 11.1518 55.8916 11.2379 56.0732 11.6003C56.2859 12.0326 56.6933 13.0236 56.6933 13.0236H58.0033ZM24.2267 13.0236H25.6104L23.5174 6.63284C23.297 6.55912 23.0246 6.51333 22.7336 6.51333C22.4162 6.51333 22.3029 6.55523 22.0545 6.63284L19.8397 13.0236H21.1675C21.1675 13.0236 21.3468 12.4633 21.5579 11.7687H23.8518C24.0567 12.4625 24.2267 13.0236 24.2267 13.0236ZM21.8947 10.697C21.8947 10.697 22.278 9.41419 22.3378 9.21474C22.4899 8.6979 22.7211 7.87684 22.7211 7.87684H22.7592C22.7592 7.87684 22.9734 8.72739 23.1131 9.20543C23.1658 9.39556 23.5321 10.697 23.5321 10.697H21.8947ZM37.348 9.96595C36.9251 9.96595 36.5813 10.3113 36.5813 10.7342C36.5813 11.1603 36.9251 11.5033 37.348 11.5033C37.7718 11.5033 38.114 11.1603 38.114 10.7342C38.114 10.3113 37.7718 9.96595 37.348 9.96595ZM27.2533 6.52419H26.0512V13.0228H27.2533V6.52419ZM51.136 9.3715C51.8003 9.38547 51.8826 9.52283 51.8826 10.08V13.0236H53.0738V9.97682C53.0738 9.31252 52.9962 9.07273 52.8193 8.8306C52.5748 8.48759 52.0945 8.33859 51.2819 8.33859C50.4779 8.33859 49.9658 8.42395 49.3069 8.62029V13.0236H50.5105V9.42738C50.8264 9.38159 50.8823 9.3715 51.136 9.3715ZM30.2263 6.40856C29.4751 6.40856 29.0661 6.55756 28.8255 6.8998C28.6486 7.1427 28.5702 7.38793 28.5702 8.05378V8.62029H27.9734V9.5919H28.5702V13.0236H29.7622L29.7591 9.5919H30.9472V8.62029H29.7591L29.7622 8.09957C29.7622 7.50356 29.853 7.38793 30.6492 7.38793C30.7354 7.38793 30.8324 7.39259 30.9356 7.40035L31.1234 6.46677C30.8293 6.42796 30.5282 6.40856 30.2263 6.40856ZM39.7903 6.4691C40.1992 6.44504 41.1134 6.41089 41.6869 6.41089C41.7917 6.41089 41.9003 6.41167 42.009 6.4171C43.1366 6.4171 43.783 7.23816 43.783 8.202C43.783 8.85776 43.4827 9.29312 42.7788 9.55232C43.6068 9.73547 44.0407 10.3819 44.0407 11.1727C44.0407 11.7532 43.8769 12.2142 43.5766 12.5285C43.187 12.9118 42.5972 13.1268 41.8119 13.1268C41.1134 13.1268 40.2365 13.1051 39.7903 13.0787V6.4691ZM41.6869 7.53383C41.4882 7.53383 41.2422 7.53771 40.9986 7.54625V9.10687H41.6877C41.9609 9.10687 42.1805 9.03082 42.3303 8.88415C42.473 8.74601 42.5475 8.55045 42.5475 8.31841C42.5475 7.81941 42.2775 7.53693 41.7754 7.53383H41.6869ZM41.7117 12.0062H41.7637C42.39 12.0062 42.7734 11.6733 42.778 11.0028C42.7718 10.7622 42.6795 10.5402 42.5142 10.3796C42.3334 10.198 42.0773 10.1033 41.7769 10.1033H40.9986V11.9992C41.2182 12.0038 41.4603 12.0046 41.7117 12.0062Z" fill="#DCE0E0"/>
</svg>
