<svg width="6" height="4" viewBox="0 0 6 4" fill="none" xmlns="http://www.w3.org/2000/svg">
<path d="M0.132069 3.01052C0.216659 3.08398 0.331371 3.12524 0.450981 3.12524C0.57059 3.12524 0.685303 3.08398 0.769892 3.01052L3.00272 1.07101L5.23555 3.01052C5.32063 3.0819 5.43457 3.12139 5.55284 3.1205C5.67111 3.11961 5.78425 3.0784 5.86788 3.00575C5.95152 2.9331 5.99896 2.83483 5.99998 2.7321C6.00101 2.62936 5.95554 2.53039 5.87338 2.45649L3.32163 0.239964C3.23705 0.166509 3.12233 0.125244 3.00272 0.125244C2.88311 0.125244 2.7684 0.166509 2.68381 0.239964L0.132069 2.45649C0.0475054 2.52997 0 2.62961 0 2.73351C0 2.8374 0.0475054 2.93705 0.132069 3.01052Z" fill="#0042A4"/>
</svg>
