<svg width="6" height="10" viewBox="0 0 6 10" fill="none" xmlns="http://www.w3.org/2000/svg">
<path d="M0.46959 0.226914C0.328987 0.36756 0.25 0.558291 0.25 0.757164C0.25 0.956037 0.328987 1.14677 0.46959 1.28741L4.18209 4.99991L0.46959 8.71241C0.332971 8.85387 0.257375 9.04332 0.259084 9.23997C0.260793 9.43661 0.33967 9.62472 0.478726 9.76378C0.617782 9.90283 0.805891 9.98171 1.00254 9.98342C1.19919 9.98513 1.38864 9.90953 1.53009 9.77291L5.77284 5.53016C5.91344 5.38952 5.99243 5.19879 5.99243 4.99991C5.99243 4.80104 5.91344 4.61031 5.77284 4.46966L1.53009 0.226914C1.38944 0.0863108 1.19871 0.00732422 0.99984 0.00732422C0.800967 0.00732422 0.610236 0.0863108 0.46959 0.226914Z" fill="white"/>
</svg>
