<svg width="8" height="8" viewBox="0 0 8 8" fill="none" xmlns="http://www.w3.org/2000/svg">
<path fill-rule="evenodd" clip-rule="evenodd" d="M7.0206 0.5C7.09795 0.5 7.17214 0.530727 7.22683 0.585423C7.28153 0.640118 7.31226 0.714301 7.31226 0.791651L7.31226 4.29147C7.31226 4.36882 7.28153 4.443 7.22683 4.4977C7.17214 4.55239 7.09795 4.58312 7.0206 4.58312C6.94325 4.58312 6.86907 4.55239 6.81438 4.4977C6.75968 4.443 6.72895 4.36882 6.72895 4.29147L6.72895 1.4957L0.810765 7.41447C0.783648 7.44159 0.751456 7.4631 0.716027 7.47777C0.680597 7.49245 0.642624 7.5 0.604276 7.5C0.565927 7.5 0.527954 7.49245 0.492524 7.47777C0.457095 7.4631 0.424903 7.44159 0.397786 7.41447C0.37067 7.38735 0.34916 7.35516 0.334485 7.31973C0.319809 7.2843 0.312256 7.24633 0.312256 7.20798C0.312256 7.16963 0.319809 7.13166 0.334485 7.09623C0.34916 7.0608 0.37067 7.02861 0.397786 7.00149L6.31656 1.0833L3.52079 1.0833C3.44344 1.0833 3.36926 1.05258 3.31456 0.99788C3.25986 0.943185 3.22914 0.869002 3.22914 0.791652C3.22914 0.714301 3.25986 0.640118 3.31456 0.585423C3.36926 0.530727 3.44344 0.5 3.52079 0.5L7.0206 0.5Z"/>
</svg>
