<svg width="36" height="19" viewBox="0 0 36 19" fill="none" xmlns="http://www.w3.org/2000/svg">
<path d="M15.3507 13.9767C14.94 13.9767 14.5384 14.0985 14.1969 14.3267C13.8553 14.5549 13.5891 14.8793 13.4319 15.2588C13.2747 15.6383 13.2336 16.0559 13.3137 16.4588C13.3939 16.8617 13.5917 17.2318 13.8821 17.5222C14.1726 17.8127 14.5427 18.0105 14.9456 18.0906C15.3484 18.1708 15.766 18.1297 16.1456 17.9725C16.5251 17.8153 16.8494 17.5491 17.0777 17.2075C17.3059 16.866 17.4277 16.4644 17.4277 16.0536C17.4271 15.503 17.2081 14.9751 16.8187 14.5857C16.4293 14.1963 15.9014 13.9773 15.3507 13.9767ZM15.3507 16.7459C15.2138 16.7459 15.08 16.7053 14.9661 16.6293C14.8523 16.5532 14.7635 16.4451 14.7111 16.3186C14.6587 16.1921 14.645 16.0529 14.6717 15.9186C14.6985 15.7843 14.7644 15.6609 14.8612 15.5641C14.958 15.4673 15.0814 15.4013 15.2157 15.3746C15.35 15.3479 15.4892 15.3616 15.6157 15.414C15.7422 15.4664 15.8503 15.5551 15.9264 15.669C16.0025 15.7828 16.0431 15.9167 16.0431 16.0536C16.0428 16.2372 15.9698 16.4131 15.84 16.5429C15.7102 16.6727 15.5343 16.7457 15.3507 16.7459Z" fill="white"/>
<path d="M11.1969 13.9767H5.65842C5.47481 13.9767 5.29872 13.9038 5.16888 13.7739C5.03905 13.6441 4.96611 13.468 4.96611 13.2844C4.96611 13.1008 5.03905 12.9247 5.16888 12.7948C5.29872 12.665 5.47481 12.5921 5.65842 12.5921H16.7354C16.8992 12.5921 17.0578 12.5339 17.1828 12.428C17.3078 12.3221 17.3912 12.1753 17.4182 12.0137L18.8028 3.70601C18.8194 3.60683 18.8141 3.50523 18.7874 3.40828C18.7607 3.31134 18.7132 3.22137 18.6483 3.14463C18.5833 3.0679 18.5023 3.00624 18.4111 2.96395C18.3199 2.92166 18.2205 2.89975 18.12 2.89975H7.04304C6.85943 2.89975 6.68334 2.97269 6.5535 3.10252C6.42367 3.23235 6.35073 3.40844 6.35073 3.59206C6.35073 3.77567 6.42367 3.95176 6.5535 4.08159C6.68334 4.21142 6.85943 4.28436 7.04304 4.28436H17.3026L16.1488 11.2075H7.52267L3.53753 0.579748C3.488 0.447798 3.3994 0.334096 3.28355 0.253826C3.1677 0.173555 3.03012 0.130534 2.88918 0.130508H1.50457C1.32095 0.130508 1.14486 0.203448 1.01503 0.333281C0.885195 0.463114 0.812256 0.639206 0.812256 0.822818C0.812256 1.00643 0.885195 1.18252 1.01503 1.31235C1.14486 1.44219 1.32095 1.51513 1.50457 1.51513H2.40948L6.04411 11.2075H5.65842C5.15397 11.2039 4.66557 11.3846 4.28499 11.7157C3.9044 12.0468 3.65783 12.5055 3.59159 13.0056C3.52536 13.5057 3.64402 14.0128 3.92528 14.4316C4.20655 14.8503 4.63105 15.152 5.11904 15.2798C4.9889 15.5925 4.93709 15.9323 4.9681 16.2696C4.9991 16.6069 5.112 16.9315 5.29697 17.2152C5.48194 17.499 5.73339 17.7333 6.02949 17.8978C6.32558 18.0622 6.65736 18.1519 6.99599 18.1591C7.33463 18.1662 7.66989 18.0905 7.97264 17.9386C8.27538 17.7868 8.53647 17.5633 8.73321 17.2875C8.92995 17.0118 9.0564 16.6922 9.10156 16.3565C9.14673 16.0209 9.10925 15.6792 8.99237 15.3613H11.1969C11.3805 15.3613 11.5566 15.2884 11.6864 15.1585C11.8163 15.0287 11.8892 14.8526 11.8892 14.669C11.8892 14.4854 11.8163 14.3093 11.6864 14.1795C11.5566 14.0496 11.3805 13.9767 11.1969 13.9767ZM7.73535 16.0536C7.73535 16.1905 7.69475 16.3244 7.61867 16.4382C7.5426 16.5521 7.43448 16.6408 7.30798 16.6932C7.18147 16.7456 7.04227 16.7593 6.90798 16.7326C6.77368 16.7059 6.65032 16.64 6.5535 16.5432C6.45668 16.4463 6.39075 16.323 6.36403 16.1887C6.33732 16.0544 6.35103 15.9152 6.40343 15.7887C6.45583 15.6622 6.54456 15.5541 6.65841 15.478C6.77226 15.4019 6.90611 15.3613 7.04304 15.3613C7.22658 15.3616 7.40253 15.4346 7.53231 15.5644C7.6621 15.6941 7.73511 15.8701 7.73535 16.0536Z" fill="white"/>
<path d="M33.8377 9.97302V8.86702H31.3317V6.13702H30.1137V8.86702H27.5937V9.97302H30.1137V12.815H31.3317V9.97302H33.8377Z" fill="white"/>
</svg>
