<svg width="19" height="19" viewBox="0 0 19 19" fill="none" xmlns="http://www.w3.org/2000/svg">
<path d="M14.851 14.3315C14.4402 14.3315 14.0386 14.4534 13.6971 14.6816C13.3555 14.9098 13.0893 15.2342 12.9321 15.6137C12.7749 15.9932 12.7338 16.4108 12.814 16.8137C12.8941 17.2165 13.0919 17.5866 13.3824 17.8771C13.6728 18.1675 14.0429 18.3654 14.4458 18.4455C14.8487 18.5256 15.2663 18.4845 15.6458 18.3273C16.0253 18.1701 16.3497 17.9039 16.5779 17.5623C16.8061 17.2208 16.9279 16.8192 16.9279 16.4085C16.9273 15.8578 16.7083 15.3299 16.3189 14.9405C15.9296 14.5512 15.4016 14.3321 14.851 14.3315V14.3315ZM14.851 17.1008C14.7141 17.1008 14.5802 17.0602 14.4664 16.9841C14.3525 16.908 14.2638 16.7999 14.2114 16.6734C14.159 16.5469 14.1453 16.4077 14.172 16.2734C14.1987 16.1391 14.2646 16.0158 14.3614 15.9189C14.4583 15.8221 14.5816 15.7562 14.7159 15.7295C14.8502 15.7028 14.9894 15.7165 15.1159 15.7689C15.2424 15.8213 15.3505 15.91 15.4266 16.0238C15.5027 16.1377 15.5433 16.2715 15.5433 16.4085C15.543 16.592 15.47 16.768 15.3403 16.8977C15.2105 17.0275 15.0345 17.1005 14.851 17.1008V17.1008Z" fill="white"/>
<path d="M10.6971 14.3315H5.15867C4.97505 14.3315 4.79896 14.2586 4.66913 14.1288C4.5393 13.9989 4.46636 13.8228 4.46636 13.6392C4.46636 13.4556 4.5393 13.2795 4.66913 13.1497C4.79896 13.0199 4.97505 12.9469 5.15867 12.9469H16.2356C16.3995 12.9469 16.558 12.8888 16.683 12.7829C16.8081 12.677 16.8915 12.5302 16.9184 12.3686L18.3031 4.06085C18.3196 3.96167 18.3144 3.86007 18.2877 3.76313C18.261 3.66618 18.2135 3.57621 18.1485 3.49948C18.0835 3.42274 18.0026 3.36109 17.9114 3.3188C17.8201 3.27651 17.7208 3.25459 17.6202 3.25459H6.54328C6.35967 3.25459 6.18358 3.32753 6.05375 3.45736C5.92391 3.58719 5.85097 3.76329 5.85097 3.9469C5.85097 4.13051 5.92391 4.3066 6.05375 4.43643C6.18358 4.56627 6.35967 4.63921 6.54328 4.63921H16.8028L15.6491 11.5623H7.02292L3.03778 0.934591C2.98825 0.802641 2.89964 0.68894 2.78379 0.608669C2.66795 0.528398 2.53037 0.485378 2.38943 0.485352H1.00481C0.821197 0.485352 0.645106 0.558291 0.515273 0.688124C0.385439 0.817957 0.3125 0.994049 0.3125 1.17766C0.3125 1.36127 0.385439 1.53736 0.515273 1.6672C0.645106 1.79703 0.821197 1.86997 1.00481 1.86997H1.90973L5.54435 11.5623H5.15867C4.65422 11.5587 4.16582 11.7394 3.78523 12.0706C3.40465 12.4017 3.15807 12.8604 3.09184 13.3605C3.0256 13.8606 3.14426 14.3676 3.42553 14.7864C3.70679 15.2052 4.1313 15.5068 4.61929 15.6347C4.48915 15.9474 4.43733 16.2871 4.46834 16.6244C4.49935 16.9617 4.61224 17.2863 4.79721 17.5701C4.98218 17.8538 5.23364 18.0881 5.52973 18.2526C5.82582 18.4171 6.1576 18.5068 6.49624 18.5139C6.83488 18.521 7.17013 18.4454 7.47288 18.2935C7.77563 18.1416 8.03671 17.9181 8.23345 17.6424C8.4302 17.3667 8.55664 17.0471 8.60181 16.7114C8.64697 16.3757 8.60949 16.0341 8.49262 15.7162H10.6971C10.8808 15.7162 11.0568 15.6432 11.1867 15.5134C11.3165 15.3836 11.3894 15.2075 11.3894 15.0238C11.3894 14.8402 11.3165 14.6641 11.1867 14.5343C11.0568 14.4045 10.8808 14.3315 10.6971 14.3315ZM7.23559 16.4085C7.23559 16.5454 7.19499 16.6792 7.11892 16.7931C7.04285 16.9069 6.93472 16.9957 6.80822 17.0481C6.68172 17.1005 6.54252 17.1142 6.40822 17.0875C6.27393 17.0608 6.15057 16.9948 6.05375 16.898C5.95693 16.8012 5.89099 16.6778 5.86428 16.5435C5.83756 16.4092 5.85127 16.27 5.90367 16.1435C5.95607 16.017 6.04481 15.9089 6.15866 15.8328C6.27251 15.7568 6.40636 15.7162 6.54328 15.7162C6.72682 15.7164 6.90278 15.7894 7.03256 15.9192C7.16234 16.049 7.23536 16.2249 7.23559 16.4085Z" fill="white"/>
</svg>
