<svg width="32" height="30" viewBox="0 0 32 30" fill="none" xmlns="http://www.w3.org/2000/svg">
<path d="M30.7431 1.58312C28.9379 -0.222064 25.9581 -0.062627 24.3574 1.93112L15.2318 12.9835L14.635 12.3867C12.807 10.5587 9.83257 10.5587 8.00463 12.3867L5.3522 15.0392C4.98676 15.4046 4.39207 15.4046 4.02638 15.0389C3.65988 14.6724 3.65988 14.0793 4.02638 13.7128C4.39263 13.3467 4.39263 12.753 4.02638 12.3868C3.66032 12.0206 3.06657 12.0206 2.70032 12.3868C2.69926 12.3879 2.6982 12.3889 2.69713 12.3899L1.37426 13.7129C-0.45793 15.545 -0.458242 18.5108 1.37426 20.3432C1.68945 20.6584 8.81382 27.7828 9.3307 28.2997C11.1628 30.1319 14.1286 30.1322 15.961 28.2997L19.9393 24.3214C21.7714 22.4893 21.7718 19.5235 19.9393 17.6911L19.3426 17.0944L30.3953 7.96856C32.3856 6.37037 32.5511 3.39119 30.7431 1.58312ZM14.635 26.9737C13.5357 28.073 11.7563 28.0733 10.6568 26.9737L10.6549 26.9719C11.6266 26.8347 12.5632 26.3934 13.3089 25.6477C13.6751 25.2815 13.6751 24.6878 13.3089 24.3216C12.9428 23.9554 12.3491 23.9554 11.9828 24.3216C10.8861 25.4184 9.10163 25.4184 8.00488 24.3219L6.6767 22.9937C7.64832 22.8565 8.58494 22.4152 9.33063 21.6695C9.69682 21.3033 9.69682 20.7096 9.33063 20.3434C8.96451 19.9772 8.37076 19.9773 8.00457 20.3434C6.90801 21.4401 5.12351 21.4402 4.02663 20.3437L2.70026 19.0174C1.78782 18.1049 1.64738 16.7465 2.20695 15.7022C2.33601 15.9431 2.50145 16.1664 2.70026 16.3652C3.79713 17.4619 5.58163 17.4619 6.67826 16.3654L8.66763 14.376C8.7682 14.4766 17.3798 23.0882 17.9502 23.6586L14.635 26.9737ZM19.1638 22.2197C18.136 21.192 11.0079 14.0639 10.1074 13.1635C11.1528 12.6653 12.4446 12.8484 13.3091 13.7129C14.6466 15.0505 17.3662 17.7701 18.6134 19.0172C19.4947 19.8986 19.6542 21.1951 19.1638 22.2197ZM29.2176 6.50919C29.2138 6.51219 29.2101 6.51525 29.2063 6.51831L18.0106 15.7623L16.5639 14.3157L25.8079 3.11981C25.811 3.11606 25.8141 3.11231 25.817 3.10856C26.7271 1.97094 28.4058 1.898 29.417 2.90919C30.4279 3.92019 30.3554 5.59887 29.2176 6.50919Z" fill="#F56308"/>
</svg>
