<svg width="20" height="20" viewBox="0 0 20 20" fill="none" xmlns="http://www.w3.org/2000/svg">
<g clip-path="url(#clip0_117_15334)">
<path d="M17.0713 2.92862C10.789 -3.34104 0.0102666 1.12395 0.00190805 9.99906C-0.108941 15.3734 4.62614 20.1093 10.001 19.9979C18.8765 19.9891 23.3409 9.2102 17.0713 2.92862ZM16.2427 3.75721C19.5079 6.89241 19.6854 12.4767 16.6431 15.8127L14.0617 13.2313C14.2301 12.8373 14.3427 12.4141 14.3896 11.9714H16.4009V10.7997H14.3583C14.3151 10.5312 14.2477 10.2708 14.1582 10.0207C14.9962 9.70359 15.6768 9.04666 16.0175 8.20795L14.9319 7.76694C14.6968 8.34583 14.2078 8.78868 13.6126 8.96889C13.3662 8.61869 13.0703 8.30571 12.735 8.04039V7.05134C12.735 6.29497 12.4102 5.62027 11.9053 5.18325L12.6904 4.39821L11.8618 3.56965L10.7534 4.67806C10.6367 4.65771 9.59316 4.67095 9.45091 4.66744C9.38263 4.66744 9.31518 4.67134 9.24847 4.67806L8.14006 3.56965L7.31151 4.39821L8.09655 5.18325C7.71912 5.50993 7.44278 5.96938 7.32717 6.49663L4.18728 3.35674C7.5234 0.314347 13.1074 0.492102 16.2427 3.75721ZM9.45087 5.83924H10.5509C11.1091 5.83924 11.5632 6.38301 11.5632 7.05134V7.37502C10.6019 6.99655 9.39986 6.99655 8.43855 7.37502V7.05134C8.43855 6.38301 8.89268 5.83924 9.45087 5.83924ZM8.07217 8.89886L12.6048 13.4315C12.0135 14.2276 11.0665 14.7446 10.0009 14.7446C6.86866 14.7248 5.5914 10.7417 8.07217 8.89886ZM9.1932 8.36278C11.5579 7.74022 13.7634 9.94637 13.1409 12.3104L9.1932 8.36278ZM3.75908 16.2408C0.493891 13.1056 0.316369 7.5213 3.35865 4.18534L7.23741 8.0641C6.9142 8.32435 6.62829 8.62904 6.3891 8.96897C5.79392 8.78875 5.30498 8.34591 5.06981 7.76702L3.98421 8.20803C4.32496 9.04674 5.00552 9.70366 5.84352 10.0208C5.75412 10.2709 5.68667 10.5313 5.64351 10.7998H3.60089V11.9715H5.61214C5.64151 12.2486 5.69674 12.518 5.77517 12.7775C4.96865 13.1039 4.31563 13.7475 3.98421 14.5632L5.06981 15.0042C5.28799 14.4671 5.72455 14.047 6.26177 13.8452C7.82462 16.3975 11.5838 16.6272 13.4395 14.2663L15.8145 16.6413C12.4783 19.6837 6.89432 19.5059 3.75908 16.2408Z" fill="black"/>
</g>
<defs>
<clipPath id="clip0_117_15334">
<rect width="20" height="20" fill="white"/>
</clipPath>
</defs>
</svg>
