<svg width="28" height="28" viewBox="0 0 28 28" fill="none" xmlns="http://www.w3.org/2000/svg">
<g clip-path="url(#clip0_1_1617)">
<path d="M14 0.875C11.4041 0.875 8.86654 1.64477 6.70815 3.08696C4.54975 4.52915 2.86749 6.579 1.87409 8.97728C0.880687 11.3756 0.620768 14.0146 1.1272 16.5606C1.63363 19.1066 2.88367 21.4452 4.71923 23.2808C6.55479 25.1163 8.89344 26.3664 11.4394 26.8728C13.9854 27.3792 16.6244 27.1193 19.0227 26.1259C21.421 25.1325 23.4709 23.4503 24.913 21.2919C26.3552 19.1335 27.125 16.5959 27.125 14C27.125 10.519 25.7422 7.18064 23.2808 4.71922C20.8194 2.25781 17.481 0.875 14 0.875V0.875ZM14.5626 8.93725C15.7557 8.93864 16.8995 9.4132 17.7432 10.2568C18.5868 11.1005 19.0614 12.2443 19.0628 13.4374H17.9375C17.9366 12.5426 17.5807 11.6847 16.948 11.052C16.3153 10.4193 15.4574 10.0634 14.5626 10.0625V8.93725ZM18.207 21.875C18.1729 21.875 14.7945 21.8172 10.4501 17.5499C6.18276 13.2072 6.12501 9.82713 6.12501 9.793C6.12501 9.37213 8.75001 6.125 9.33013 6.125C9.53138 6.125 9.688 6.2615 9.8595 6.46625C10.2725 6.958 12.0986 9.84025 12.0146 10.3206C11.9744 10.5464 11.7828 10.7179 11.2333 11.179C10.9625 11.3919 10.7091 11.6259 10.4755 11.879C10.5874 12.342 10.7536 12.7902 10.9708 13.2143C11.7797 14.8776 13.1238 16.221 14.7875 17.0292C15.2115 17.2464 15.6597 17.4126 16.1228 17.5245C16.3758 17.2909 16.6099 17.0375 16.8228 16.7668C17.2839 16.2173 17.4554 16.0256 17.6811 15.9854C18.1615 15.8979 21.0438 17.7275 21.5355 18.1405C21.7403 18.3155 21.8768 18.4686 21.8768 18.6699C21.875 19.25 18.6279 21.875 18.207 21.875ZM20.7498 13.4374C20.7479 11.797 20.0955 10.2244 18.9355 9.06446C17.7756 7.90455 16.203 7.2521 14.5626 7.25025V6.125C16.5013 6.12732 18.3599 6.89847 19.7307 8.2693C21.1015 9.64014 21.8727 11.4987 21.875 13.4374H20.7498Z" fill="black"/>
</g>
<defs>
<clipPath id="clip0_1_1617">
<rect width="28" height="28" fill="white"/>
</clipPath>
</defs>
</svg>
