<svg width="27" height="23" viewBox="0 0 27 23" fill="none" xmlns="http://www.w3.org/2000/svg">
<path d="M26.572 5.93341C26.138 5.32272 25.4312 4.95757 24.681 4.95757H5.16766L4.63308 3.12004C4.41924 2.38793 3.8611 1.80803 3.13804 1.56792L1.07309 0.880208C0.645419 0.737048 0.184224 0.969004 0.0419696 1.39667C-0.100285 1.82434 0.130765 2.28554 0.558435 2.42779L2.6243 3.11551C2.83813 3.18709 3.00394 3.35924 3.06646 3.5758L3.76777 5.98325C3.77139 5.99503 3.77502 6.00681 3.77864 6.01859L6.67447 15.9773C6.96079 16.9613 7.87684 17.6481 8.90162 17.6481H21.8712C22.8561 17.6481 23.736 17.0238 24.0603 16.0933L26.8719 8.04005C27.1174 7.3324 27.006 6.54502 26.572 5.93341ZM25.3307 7.50275L22.5191 15.5569C22.423 15.8323 22.1612 16.0181 21.8694 16.0181H8.90071C8.59717 16.0181 8.32535 15.8142 8.24018 15.5225L5.64154 6.58942H24.681C24.9066 6.58942 25.1114 6.69543 25.2419 6.87936C25.3732 7.06148 25.405 7.28891 25.3307 7.50275Z" fill="black"/>
<path d="M11.0213 22.2458C11.9446 22.2458 12.693 21.4973 12.693 20.5741C12.693 19.6508 11.9446 18.9023 11.0213 18.9023C10.0981 18.9023 9.34961 19.6508 9.34961 20.5741C9.34961 21.4973 10.0981 22.2458 11.0213 22.2458Z" fill="black"/>
<path d="M20.0955 22.2458C21.0188 22.2458 21.7673 21.4973 21.7673 20.5741C21.7673 19.6508 21.0188 18.9023 20.0955 18.9023C19.1723 18.9023 18.4238 19.6508 18.4238 20.5741C18.4238 21.4973 19.1723 22.2458 20.0955 22.2458Z" fill="black"/>
</svg>
