<svg width="24" height="24" viewBox="0 0 24 24" fill="none" xmlns="http://www.w3.org/2000/svg">
<g clip-path="url(#clip0_308_32)">
<path d="M4.64078 15.7651H4.21411C2.34745 15.7651 0.800781 14.2718 0.800781 12.3998V4.16514C0.800781 2.29847 2.34745 0.799805 4.21945 0.799805H12.5234C14.3954 0.799805 15.9421 2.29847 15.9421 4.16514V4.4638C18.3368 4.4638 19.7608 5.73847 19.7608 8.22914C21.6541 8.22914 23.2008 9.70114 23.2008 11.5945V19.8025C23.2008 21.6745 21.6808 23.1945 19.8088 23.1945H11.4248C9.57945 23.1945 8.05945 21.6745 8.05945 19.8025V19.4025C6.11278 19.2265 4.64078 18.1278 4.64078 16.0585V15.7651ZM18.4861 8.23447V7.83447C18.4861 6.66114 17.5154 5.73847 16.3634 5.73847H8.03278C6.85945 5.73847 5.88878 6.66114 5.88878 7.83447V16.0638C5.88878 17.4131 6.81145 18.0105 8.05945 18.1331V11.5998C8.05945 9.75447 9.57945 8.23447 11.4248 8.23447H18.4861ZM19.8088 9.48247H11.4248C10.2781 9.48247 9.32878 10.4318 9.32878 11.6051V19.8131C9.32878 20.9865 10.2781 21.9358 11.4248 21.9358H19.8034C20.9768 21.9358 21.9261 20.9865 21.9261 19.8131V11.5998C21.9261 10.4265 20.9821 9.48247 19.8088 9.48247ZM14.6674 4.46914V4.17047C14.6674 2.99714 13.6968 2.07447 12.5234 2.07447H4.21945C3.04611 2.07447 2.07545 2.99714 2.07545 4.17047V12.3998C2.07545 13.5731 3.04611 14.4958 4.21945 14.4958H4.64611V7.83447C4.64611 5.96247 6.19278 4.46914 8.03811 4.46914H14.6674Z" fill="#584C3B"/>
</g>
<defs>
<clipPath id="clip0_308_32">
<rect width="24" height="24" fill="white"/>
</clipPath>
</defs>
</svg>
