<svg width="30" height="26" viewBox="0 0 30 26" fill="none" xmlns="http://www.w3.org/2000/svg">
<path d="M14.7656 25.8905C14.5718 25.8905 14.3776 25.8425 14.2017 25.7459C13.8268 25.5401 13.5938 25.1463 13.5938 24.7186V22.375C13.5938 21.7288 13.068 21.2031 12.4219 21.2031H10.5469C4.73133 21.2031 0 16.4718 0 10.6562C0 4.8407 4.73133 0.109375 10.5469 0.109375H19.4531C25.2687 0.109375 30 4.8407 30 10.6562C30 10.7047 29.9997 10.7529 29.9992 10.801C29.9716 13.6418 29.1086 15.7709 27.2011 17.7045C25.4557 19.4738 22.9054 21.0469 19.3754 23.224C18.1866 23.9572 16.8393 24.7882 15.3946 25.7073C15.2032 25.8292 14.9846 25.8905 14.7656 25.8905ZM10.5469 2.45312C6.02367 2.45312 2.34375 6.13305 2.34375 10.6562C2.34375 15.1795 6.02367 18.8594 10.5469 18.8594H12.4219C14.3604 18.8594 15.9375 20.4365 15.9375 22.375V22.5961C16.7189 22.1088 17.4584 21.6527 18.145 21.2292C21.5355 19.138 23.9853 17.627 25.5326 16.0586C27.0186 14.5522 27.6338 13.0224 27.6556 10.7783C27.656 10.7378 27.6562 10.6971 27.6562 10.6562C27.6562 6.13305 23.9763 2.45312 19.4531 2.45312H10.5469Z" fill="#F56308"/>
<path d="M19.4531 9.48438H10.5469C9.89965 9.48438 9.375 8.95973 9.375 8.3125C9.375 7.66527 9.89965 7.14062 10.5469 7.14062H19.4531C20.1004 7.14062 20.625 7.66527 20.625 8.3125C20.625 8.95973 20.1004 9.48438 19.4531 9.48438Z" fill="#F56308"/>
<path d="M19.4531 14.1719H10.5469C9.89965 14.1719 9.375 13.6472 9.375 13C9.375 12.3528 9.89965 11.8281 10.5469 11.8281H19.4531C20.1004 11.8281 20.625 12.3528 20.625 13C20.625 13.6472 20.1004 14.1719 19.4531 14.1719Z" fill="#F56308"/>
</svg>
