<svg width="30" height="30" viewBox="0 0 30 30" fill="none" xmlns="http://www.w3.org/2000/svg">
<g clip-path="url(#clip0_304_322)">
<path d="M29.12 20.7229C27.3366 20.7229 25.6616 20.0349 24.4032 18.7854C23.1453 17.5367 22.4527 15.8734 22.4527 14.1021C22.4527 13.6166 22.059 13.2231 21.5738 13.2231C21.0883 13.2231 20.6949 13.6166 20.6949 14.1021C20.6949 15.8734 20.0021 17.5367 18.7441 18.7854C17.4857 20.0349 15.8108 20.7229 14.0273 20.7229C13.5419 20.7229 13.1484 21.1164 13.1484 21.6018C13.1484 22.0873 13.5419 22.4807 14.0273 22.4807C17.7036 22.4807 20.6949 25.4596 20.6949 29.121C20.6949 29.6065 21.0883 30 21.5738 30C22.059 30 22.4527 29.6065 22.4527 29.121C22.4527 25.4596 25.4437 22.4807 29.12 22.4807C29.6055 22.4807 29.9989 22.0873 29.9989 21.6018C29.9989 21.1164 29.6055 20.7229 29.12 20.7229ZM21.5738 25.3882C20.7576 23.7556 19.4235 22.4233 17.7874 21.6066C18.5896 21.2088 19.3303 20.6806 19.9826 20.0328C20.6379 19.3824 21.1719 18.6431 21.5736 17.842C21.9755 18.6431 22.5095 19.3824 23.1645 20.0328C23.8168 20.6806 24.5577 21.2088 25.3597 21.6066C23.7239 22.4233 22.3898 23.7556 21.5738 25.3882Z" fill="#F56308"/>
<path d="M12.0255 13.8507C9.43703 13.8507 7.33109 11.7603 7.33109 9.19067C7.33109 8.70544 6.93764 8.31177 6.45218 8.31177C5.96672 8.31177 5.57327 8.70544 5.57327 9.19067C5.57327 11.7603 3.46733 13.8507 0.878906 13.8507C0.393448 13.8507 0 14.2444 0 14.7296C0 15.2151 0.393448 15.6085 0.878906 15.6085C3.46733 15.6085 5.57327 17.7055 5.57327 20.283C5.57327 20.7682 5.96672 21.1619 6.45218 21.1619C6.93764 21.1619 7.33109 20.7682 7.33109 20.283C7.33109 17.7055 9.43703 15.6085 12.0255 15.6085C12.5109 15.6085 12.9044 15.2151 12.9044 14.7296C12.9044 14.2444 12.5109 13.8507 12.0255 13.8507ZM6.45218 17.0448C5.89165 16.0896 5.09102 15.2906 4.13361 14.7308C5.09102 14.1721 5.89165 13.3749 6.45218 12.4218C7.01271 13.3749 7.81334 14.1721 8.77075 14.7308C7.81334 15.2906 7.01271 16.0894 6.45218 17.0448Z" fill="#F56308"/>
<path d="M13.457 6.07361C15.3606 6.07361 16.9095 7.61055 16.9095 9.49951C16.9095 9.98474 17.3029 10.3784 17.7884 10.3784C18.2738 10.3784 18.6673 9.98474 18.6673 9.49951C18.6673 7.60437 20.2161 6.06262 22.1198 6.06262C22.6052 6.06262 22.9987 5.66895 22.9987 5.18372C22.9987 4.69826 22.6052 4.30481 22.1198 4.30481C20.2161 4.30481 18.6673 2.76787 18.6673 0.878906C18.6673 0.393448 18.2738 0 17.7884 0C17.3029 0 16.9095 0.393448 16.9095 0.878906C16.9095 2.77405 15.3606 4.3158 13.457 4.3158C12.9716 4.3158 12.5781 4.70924 12.5781 5.1947C12.5781 5.68016 12.9716 6.07361 13.457 6.07361ZM17.7905 3.7603C18.1697 4.32243 18.6565 4.80698 19.2214 5.18463C18.6545 5.56435 18.1663 6.05209 17.7863 6.61812C17.4071 6.05598 16.9202 5.57144 16.3554 5.19379C16.9223 4.81407 17.4107 4.32632 17.7905 3.7603Z" fill="#F56308"/>
</g>
<defs>
<clipPath id="clip0_304_322">
<rect width="30" height="30" fill="white"/>
</clipPath>
</defs>
</svg>
