<svg width="44" height="48" viewBox="0 0 44 48" fill="none" xmlns="http://www.w3.org/2000/svg">
<g clip-path="url(#clip0_4_191)">
<path d="M43.5 14C42.8 11.9 41.7 10.2 39.7 9C35.2 6.4 30.7 3.8 26.1 1.1C24.9 0.400004 23.6 4.44055e-06 22.2 4.44055e-06C20.6 -0.0999956 19.2 0.200004 17.8 1C13.3 3.7 8.7 6.3 4.2 8.9C1.5 10.6 0 13 0 16.2C0 21.4 0 26.7 0 31.9C0 32.7 0.1 33.5 0.4 34.3C1.1 36.3 2.3 38 4.2 39.1C8.7 41.7 13.2 44.3 17.7 46.9C18.9 47.6 20.1 48 21.5 48.1C23.2 48.2 24.7 47.9 26.2 47.1C30.7 44.5 35.2 41.8 39.8 39.2C41.1 38.5 42.1 37.5 42.8 36.2C43.5 35 44 33.7 44 32.3V24V16.2C43.8 15.4 43.7 14.7 43.5 14ZM30.6 24.8H22.7V32.7C22.7 33.1 22.3 33.5 21.9 33.5C21.5 33.5 21.1 33.1 21.1 32.7V24.8H13.2C12.8 24.8 12.4 24.4 12.4 24C12.4 23.6 12.8 23.2 13.2 23.2H21.1V15.3C21.1 14.9 21.5 14.5 21.9 14.5C22.3 14.5 22.7 14.9 22.7 15.3V23.2H30.6C31 23.2 31.4 23.6 31.4 24C31.4 24.5 31 24.8 30.6 24.8Z" fill="#960FF5"/>
</g>
<defs>
<clipPath id="clip0_4_191">
<rect width="43.8" height="48" fill="white"/>
</clipPath>
</defs>
</svg>
