<svg width="185" height="185" viewBox="0 0 185 185" fill="none" xmlns="http://www.w3.org/2000/svg">
<g clip-path="url(#clip0_2_1758)">
<path d="M183.177 1.55579H0.998901V183.734C101.561 183.734 183.177 102.118 183.177 1.55579Z" stroke="#ECEAF4" stroke-miterlimit="10"/>
<path d="M173.886 10.6647C169.149 98.8389 98.282 169.706 10.1078 174.443V10.6647H173.886Z" stroke="#ECEAF4" stroke-miterlimit="10"/>
<path d="M163.866 19.7736C159.676 56.5736 143.28 91.0053 116.864 117.421C90.4484 143.837 56.0167 160.415 19.2167 164.423V19.7736H163.866Z" stroke="#ECEAF4" stroke-miterlimit="10"/>
<path d="M153.482 28.8825C147.835 59.6706 132.896 88.637 110.488 111.045C88.0801 133.453 59.1137 148.391 28.3256 154.039V28.8825H153.482Z" stroke="#ECEAF4" stroke-miterlimit="10"/>
<path d="M142.005 37.9915C135.629 62.9499 122.33 86.2687 103.93 104.487C85.7118 122.704 62.393 136.003 37.4346 142.562V37.9915H142.005Z" stroke="#ECEAF4" stroke-miterlimit="10"/>
<path d="M129.799 47.1003C122.876 66.2291 111.945 83.7182 97.5534 98.1102C83.1613 112.502 65.6722 123.433 46.5435 130.356V47.1003H129.799Z" stroke="#ECEAF4" stroke-miterlimit="10"/>
<path d="M116.136 56.2092C109.759 69.3261 101.379 81.532 91.1771 91.734C80.9751 101.936 68.9514 110.498 55.6523 116.692V56.2092H116.136Z" stroke="#ECEAF4" stroke-miterlimit="10"/>
<path d="M100.65 65.3182C96.0959 72.6053 90.6306 79.1637 84.6187 85.1756C78.6068 91.1875 71.8662 96.6528 64.7613 101.207V65.3182H100.65Z" stroke="#ECEAF4" stroke-miterlimit="10"/>
<path d="M82.4326 74.4271C81.1573 75.8845 79.6999 77.3419 78.2425 78.7993C76.785 80.2568 75.3276 81.532 73.8702 82.9894V74.4271H82.4326V74.4271Z" stroke="#ECEAF4" stroke-miterlimit="10"/>
</g>
<defs>
<clipPath id="clip0_2_1758">
<rect width="184" height="184" fill="white" transform="translate(0.0880127 0.644897)"/>
</clipPath>
</defs>
</svg>
