<svg width="217" height="216" viewBox="0 0 217 216" fill="none" xmlns="http://www.w3.org/2000/svg">
<g clip-path="url(#clip0_4_3928)">
<path d="M215.874 214.547L215.874 1.67554L2.01263 1.67553C2.01262 119.18 97.8225 214.547 215.874 214.547Z" stroke="#8D6A4F" stroke-miterlimit="10"/>
<path d="M205.181 203.69C101.672 198.156 18.4799 115.349 12.9195 12.3191L205.181 12.3191L205.181 203.69Z" stroke="#8D6A4F" stroke-miterlimit="10"/>
<path d="M194.488 191.982C151.288 187.086 110.868 167.928 79.8581 137.062C48.8482 106.195 29.3868 65.9626 24.6819 22.9626L194.488 22.9626L194.488 191.982Z" stroke="#8D6A4F" stroke-miterlimit="10"/>
<path d="M183.795 179.849C147.652 173.25 113.648 155.794 87.3434 129.611C61.0385 103.428 43.5019 69.5814 36.8722 33.6062L183.795 33.6062L183.795 179.849Z" stroke="#8D6A4F" stroke-miterlimit="10"/>
<path d="M173.102 166.438C143.803 158.987 116.429 143.448 95.0424 121.948C73.6563 100.661 58.0444 73.4131 50.3454 44.2498L173.102 44.2498L173.102 166.438Z" stroke="#8D6A4F" stroke-miterlimit="10"/>
<path d="M162.409 152.175C139.953 144.086 119.423 131.314 102.527 114.497C85.6324 97.6804 72.8008 77.2448 64.674 54.8933L162.409 54.8933L162.409 152.175Z" stroke="#8D6A4F" stroke-miterlimit="10"/>
<path d="M151.716 136.21C136.318 128.76 121.989 118.968 110.013 107.047C98.0364 95.126 87.9849 81.0765 80.7136 65.5369L151.716 65.5369L151.716 136.21Z" stroke="#8D6A4F" stroke-miterlimit="10"/>
<path d="M141.022 118.116C132.468 112.794 124.769 106.408 117.712 99.3834C110.654 92.3586 104.238 84.4824 98.8918 76.1804L141.022 76.1804L141.022 118.116Z" stroke="#8D6A4F" stroke-miterlimit="10"/>
<path d="M130.33 96.8289C128.619 95.3388 126.908 93.6359 125.197 91.9329C123.486 90.2299 121.989 88.5269 120.278 86.824L130.33 86.824L130.33 96.8289V96.8289Z" stroke="#8D6A4F" stroke-miterlimit="10"/>
</g>
<defs>
<clipPath id="clip0_4_3928">
<rect width="215" height="216" fill="white" transform="translate(216.943 0.611084) rotate(90)"/>
</clipPath>
</defs>
</svg>
