<svg width="120" height="120" viewBox="0 0 120 120" fill="none" xmlns="http://www.w3.org/2000/svg">
<path d="M9.78241 84.8533C9.06941 83.4563 8.40969 82.0139 7.81972 80.5656C7.74854 80.3878 7.64294 80.2259 7.50897 80.0891C7.375 79.9523 7.21532 79.8433 7.03909 79.7684C6.86286 79.6935 6.67357 79.6541 6.48209 79.6526C6.29062 79.6511 6.10073 79.6875 5.92335 79.7596C5.74597 79.8317 5.5846 79.9382 5.4485 80.0729C5.31241 80.2076 5.20427 80.3679 5.13032 80.5445C5.05637 80.7211 5.01806 80.9106 5.01758 81.1021C5.01711 81.2936 5.05448 81.4833 5.12756 81.6603C5.74756 83.1861 6.44312 84.7041 7.19391 86.1747C7.28067 86.3446 7.40006 86.4958 7.54526 86.6196C7.69046 86.7435 7.85863 86.8375 8.04016 86.8963C8.22169 86.9551 8.41303 86.9776 8.60326 86.9625C8.79349 86.9474 8.97888 86.895 9.14884 86.8082C9.31881 86.7215 9.47002 86.6021 9.59384 86.4569C9.71766 86.3117 9.81167 86.1435 9.8705 85.962C9.92934 85.7804 9.95184 85.5891 9.93672 85.3989C9.9216 85.2086 9.86917 85.0232 9.78241 84.8533Z" fill="black" stroke="white" stroke-width="1.5"/>
<path d="M6.22851 76.1257C5.76157 74.6271 5.35663 73.0926 5.02047 71.5648C4.93355 71.1929 4.70366 70.8701 4.38055 70.6664C4.05744 70.4626 3.6671 70.3943 3.29399 70.4762C2.92089 70.558 2.59503 70.7835 2.38693 71.1039C2.17882 71.4242 2.10522 71.8136 2.18204 72.1877C2.53466 73.7959 2.96188 75.4108 3.45207 76.9889C3.56653 77.357 3.82256 77.6647 4.16384 77.8441C4.50512 78.0235 4.90369 78.06 5.27186 77.9455C5.64004 77.831 5.94767 77.575 6.12708 77.2337C6.30648 76.8925 6.34297 76.4939 6.22851 76.1257Z" fill="black" stroke="white" stroke-width="1.5"/>
<path d="M2.95466 68.5502C3.3367 68.4998 3.68308 68.2998 3.91761 67.994C4.15215 67.6883 4.25564 67.3019 4.20532 66.9198C3.99994 65.3698 3.8585 63.7908 3.78294 62.2185C3.77631 62.0271 3.73143 61.839 3.65097 61.6653C3.5705 61.4915 3.45607 61.3357 3.31442 61.2068C3.17277 61.078 3.00676 60.9788 2.82618 60.9151C2.6456 60.8515 2.4541 60.8246 2.26297 60.8361C2.07233 60.8452 1.88534 60.8917 1.71268 60.973C1.54003 61.0544 1.38509 61.169 1.25671 61.3102C1.12834 61.4514 1.02905 61.6166 0.964508 61.7962C0.899968 61.9758 0.871445 62.1664 0.880567 62.357C0.959036 64.0107 1.10822 65.673 1.32329 67.2976C1.34823 67.4869 1.41023 67.6694 1.50572 67.8347C1.60122 68 1.72835 68.1448 1.87985 68.261C2.03135 68.3771 2.20425 68.4623 2.38867 68.5116C2.57309 68.5609 2.76542 68.5734 2.95466 68.5483V68.5502Z" fill="black" stroke="white" stroke-width="1.5"/>
<path d="M28.3556 105.833C27.0565 104.956 25.7788 104.014 24.5572 103.03C24.4084 102.91 24.2376 102.821 24.0545 102.768C23.8713 102.714 23.6794 102.697 23.4897 102.718C23.3 102.738 23.1161 102.796 22.9488 102.888C22.7814 102.979 22.6337 103.103 22.5141 103.252C22.3945 103.401 22.3054 103.571 22.2518 103.754C22.1982 103.938 22.1813 104.13 22.2019 104.319C22.2225 104.509 22.2802 104.693 22.3719 104.86C22.4635 105.028 22.5872 105.175 22.7359 105.295C24.0205 106.328 25.3632 107.321 26.731 108.242C27.05 108.458 27.4415 108.538 27.8197 108.465C28.1979 108.393 28.5317 108.173 28.748 107.854C28.8552 107.696 28.9302 107.518 28.9685 107.331C29.0068 107.143 29.0078 106.95 28.9713 106.762C28.9349 106.575 28.8617 106.396 28.7561 106.237C28.6504 106.077 28.5143 105.94 28.3556 105.833Z" fill="black" stroke="white" stroke-width="1.5"/>
<path d="M12.1009 88.9657C12.0022 88.7994 11.8713 88.6546 11.7159 88.5396C11.5605 88.4246 11.3837 88.3418 11.1959 88.296C11.008 88.2502 10.813 88.2423 10.6221 88.2729C10.4312 88.3034 10.2483 88.3717 10.0842 88.4738C9.91999 88.5759 9.77785 88.7097 9.66606 88.8674C9.55426 89.0251 9.47506 89.2036 9.43309 89.3923C9.39113 89.581 9.38723 89.7762 9.42164 89.9664C9.45605 90.1567 9.52808 90.3381 9.63349 90.5002C10.5054 91.8981 11.4431 93.2776 12.4293 94.6009C12.5434 94.7539 12.6864 94.883 12.8504 94.9807C13.0143 95.0785 13.1959 95.143 13.3848 95.1706C13.5736 95.1981 13.7661 95.1882 13.9511 95.1414C14.1361 95.0946 14.3102 95.0118 14.4632 94.8978C14.6162 94.7837 14.7453 94.6407 14.8431 94.4767C14.9408 94.3128 15.0053 94.1312 15.0329 93.9423C15.0605 93.7535 15.0506 93.561 15.0038 93.376C14.957 93.191 14.8742 93.0169 14.7601 92.8639C13.8243 91.6007 12.9282 90.2899 12.1009 88.9657Z" fill="black" stroke="white" stroke-width="1.5"/>
<path d="M17.7364 96.5217C17.4809 96.2332 17.1212 96.058 16.7365 96.0347C16.3518 96.0113 15.9736 96.1417 15.6851 96.3973C15.3965 96.6528 15.2213 97.0124 15.198 97.3971C15.1746 97.7818 15.3051 98.1601 15.5606 98.4486C16.6562 99.6847 17.8158 100.887 19.0064 102.023C19.1433 102.161 19.3063 102.27 19.4858 102.343C19.6654 102.417 19.8578 102.454 20.0519 102.452C20.2459 102.45 20.4376 102.409 20.6155 102.331C20.7935 102.254 20.9542 102.142 21.0881 102.001C21.2221 101.861 21.3265 101.695 21.3953 101.514C21.4642 101.332 21.4959 101.139 21.4888 100.945C21.4817 100.751 21.4358 100.561 21.3539 100.385C21.2719 100.209 21.1556 100.051 21.0117 99.9211C19.8793 98.838 18.7778 97.6939 17.7364 96.5217Z" fill="black" stroke="white" stroke-width="1.5"/>
<path d="M59.5341 0.809326C50.116 0.818549 40.8377 3.08845 32.4791 7.42825C24.1205 11.768 16.9257 18.0509 11.4996 25.7488C11.2776 26.0639 11.1899 26.4543 11.2558 26.8341C11.3216 27.2139 11.5356 27.552 11.8508 27.774C12.1659 27.996 12.5563 28.0837 12.9361 28.0178C13.3159 27.952 13.6539 27.7379 13.8759 27.4228C19.9694 18.7686 28.3986 12.0259 38.1796 7.98169C47.9607 3.93744 58.6903 2.75844 69.1162 4.58229C79.5421 6.40613 89.2343 11.1576 97.0616 18.2822C104.889 25.4067 110.528 34.6105 113.322 44.8194C116.116 55.0282 115.948 65.8211 112.839 75.9384C109.73 86.0557 103.808 95.0801 95.7633 101.958C87.7188 108.837 77.8839 113.285 67.4065 114.785C56.929 116.284 46.2411 114.773 36.5902 110.427C35.1662 109.784 33.7479 109.071 32.3762 108.304C32.2095 108.209 32.0257 108.148 31.8354 108.125C31.6451 108.102 31.4521 108.116 31.2675 108.168C31.0828 108.219 30.9102 108.307 30.7596 108.425C30.6089 108.544 30.4832 108.691 30.3897 108.859C30.2962 109.026 30.2368 109.21 30.2148 109.401C30.1928 109.591 30.2087 109.784 30.2616 109.968C30.3145 110.152 30.4034 110.324 30.5231 110.474C30.6427 110.624 30.7908 110.749 30.9589 110.841C32.4033 111.647 33.8952 112.4 35.3948 113.076C43.3805 116.675 52.0702 118.442 60.8274 118.248C69.5846 118.054 78.1874 115.903 86.0057 111.954C93.8241 108.004 100.66 102.355 106.012 95.4216C111.365 88.4879 115.099 80.4446 116.94 71.881C118.781 63.3174 118.684 54.4504 116.654 45.9294C114.625 37.4084 110.715 29.4493 105.211 22.6352C99.7069 15.821 92.7484 10.3243 84.845 6.54783C76.9415 2.77132 68.2934 0.810609 59.5341 0.809326Z" fill="black" stroke="white" stroke-width="1.5"/>
<path d="M11.9369 31.5292C10.9777 31.5275 10.0503 31.185 9.32015 30.5629C8.59 29.9408 8.10459 29.0796 7.9505 28.1328L6.7415 20.626C6.69096 20.2504 6.78912 19.8699 7.01507 19.5657C7.24101 19.2615 7.57686 19.0576 7.95101 18.9974C8.32515 18.9373 8.70799 19.0257 9.0179 19.2438C9.32781 19.4618 9.54026 19.7923 9.60997 20.1648L10.8219 27.6707C10.8714 27.9668 11.0356 28.2315 11.279 28.4072C11.5224 28.583 11.8253 28.6556 12.1219 28.6094L19.6278 27.4004C20.0034 27.3499 20.3838 27.448 20.6881 27.674C20.9923 27.8999 21.1962 28.2358 21.2563 28.6099C21.3165 28.9841 21.2281 29.3669 21.01 29.6768C20.7919 29.9867 20.4614 30.1992 20.0889 30.2689L12.5831 31.4779C12.3694 31.5123 12.1533 31.5295 11.9369 31.5292Z" fill="black" stroke="white" stroke-width="1.5"/>
<path d="M97.0648 34.7097L61.7568 16.1029C61.0871 15.7488 60.341 15.5637 59.5834 15.5637C58.8258 15.5637 58.0797 15.7488 57.41 16.1029L22.1001 34.7097C21.3482 35.1043 20.7188 35.6973 20.2801 36.4243C19.8414 37.1513 19.6101 37.9845 19.6113 38.8336V80.2235C19.6099 81.0728 19.8411 81.9062 20.2799 82.6334C20.7186 83.3606 21.3481 83.9537 22.1001 84.3484L57.41 102.955C58.08 103.308 58.826 103.493 59.5834 103.493C60.3408 103.493 61.0868 103.308 61.7568 102.955L97.0648 84.3484C97.817 83.9538 98.4467 83.3607 98.8856 82.6336C99.3245 81.9064 99.5558 81.0729 99.5545 80.2235V38.8336C99.5557 37.9844 99.3242 37.1511 98.8853 36.4241C98.4464 35.6971 97.8168 35.1042 97.0648 34.7097ZM45.8083 46.6311C45.0374 47.0182 44.3897 47.6125 43.9379 48.3473C43.4862 49.0821 43.2482 49.9283 43.2508 50.7909V67.3953C43.2541 67.4264 43.2462 67.4577 43.2284 67.4835C43.2106 67.5093 43.1842 67.5278 43.1539 67.5358C43.1267 67.551 43.0948 67.5558 43.0643 67.5492C43.0338 67.5426 43.0067 67.5251 42.9882 67.4999L39.8127 64.1849C39.4498 63.8096 38.9976 63.5327 38.4984 63.3802C37.9991 63.2277 37.4693 63.2045 36.9587 63.313L34.8866 63.7596C34.8645 63.7642 34.8417 63.7638 34.8198 63.7585C34.7979 63.7532 34.7774 63.7431 34.7599 63.7289C34.7424 63.7147 34.7282 63.6968 34.7185 63.6765C34.7087 63.6561 34.7036 63.6339 34.7035 63.6114V44.9959C34.7021 44.671 34.7916 44.3522 34.9617 44.0754C35.1318 43.7986 35.3759 43.5749 35.6664 43.4294L72.2464 24.9156L80.3142 29.1675L45.8083 46.6311ZM58.7643 18.673C59.0169 18.54 59.298 18.4706 59.5834 18.4706C59.8688 18.4706 60.1499 18.54 60.4025 18.673L69.0941 23.2532L34.3567 40.8361C34.0044 41.0156 33.6765 41.2396 33.3811 41.5026L24.2313 36.871L58.7643 18.673ZM58.1298 100.048L23.4553 81.7764C23.1725 81.6282 22.9355 81.4054 22.7702 81.1322C22.6049 80.859 22.5176 80.5457 22.5176 80.2264V39.2609L31.9145 44.0155C31.8416 44.3373 31.8033 44.6659 31.8001 44.9959V63.6085C31.8002 64.0646 31.9023 64.5149 32.099 64.9264C32.2956 65.3379 32.5818 65.7003 32.9366 65.9869C33.2914 66.2735 33.7058 66.4772 34.1495 66.5829C34.5931 66.6886 35.0548 66.6938 35.5008 66.598L37.5729 66.1524C37.5984 66.1455 37.6252 66.1459 37.6504 66.1536C37.6756 66.1613 37.6981 66.176 37.7153 66.196L40.8928 69.5111C41.315 69.9517 41.8594 70.256 42.4559 70.3847C43.0525 70.5134 43.6739 70.4606 44.2401 70.2331C44.8064 70.0057 45.2917 69.614 45.6335 69.1084C45.9753 68.6028 46.1579 68.0065 46.158 67.3963V51.2259L57.4798 56.9551C57.6896 57.0598 57.9072 57.1479 58.1308 57.2186L58.1298 100.048ZM58.7915 54.3627L47.8804 48.8408L83.4665 30.8289L94.9355 36.8719L60.3773 54.3637C60.1313 54.4874 59.8597 54.5518 59.5844 54.5518C59.309 54.5518 59.0375 54.4874 58.7915 54.3637V54.3627ZM96.6483 80.2225C96.6481 80.5418 96.5606 80.855 96.3954 81.1282C96.2301 81.4014 95.9933 81.6242 95.7105 81.7725L61.0361 100.05V57.2196C61.2608 57.1484 61.4798 57.06 61.6909 56.9551L96.6483 39.2618V80.2225Z" fill="black" stroke="white" stroke-width="1.5"/>
</svg>
