<svg width="40" height="40" viewBox="0 0 40 40" fill="none" xmlns="http://www.w3.org/2000/svg">
<path d="M37.3875 19.5L34.625 13.25C34.5283 13.0283 34.3693 12.8395 34.1674 12.7064C33.9655 12.5733 33.7293 12.5016 33.4875 12.5H26.8L27.2 8.8875C27.2197 8.71213 27.202 8.53458 27.1482 8.36654C27.0943 8.19849 27.0055 8.04375 26.8875 7.9125C26.7706 7.78301 26.628 7.67941 26.4686 7.60837C26.3093 7.53733 26.1369 7.50041 25.9625 7.5H8.75C8.41848 7.5 8.10054 7.6317 7.86612 7.86612C7.6317 8.10054 7.5 8.41848 7.5 8.75C7.5 9.08152 7.6317 9.39946 7.86612 9.63388C8.10054 9.8683 8.41848 10 8.75 10H15C15.3315 10 15.6495 10.1317 15.8839 10.3661C16.1183 10.6005 16.25 10.9185 16.25 11.25C16.25 11.5815 16.1183 11.8995 15.8839 12.1339C15.6495 12.3683 15.3315 12.5 15 12.5H6.25C5.91848 12.5 5.60054 12.6317 5.36612 12.8661C5.1317 13.1005 5 13.4185 5 13.75C5 14.0815 5.1317 14.3995 5.36612 14.6339C5.60054 14.8683 5.91848 15 6.25 15H18.75C19.0815 15 19.3995 15.1317 19.6339 15.3661C19.8683 15.6005 20 15.9185 20 16.25C20 16.5815 19.8683 16.8995 19.6339 17.1339C19.3995 17.3683 19.0815 17.5 18.75 17.5H10C9.66848 17.5 9.35054 17.6317 9.11612 17.8661C8.8817 18.1005 8.75 18.4185 8.75 18.75C8.75 19.0815 8.8817 19.3995 9.11612 19.6339C9.35054 19.8683 9.66848 20 10 20H15C15.3315 20 15.6495 20.1317 15.8839 20.3661C16.1183 20.6005 16.25 20.9185 16.25 21.25C16.25 21.5815 16.1183 21.8995 15.8839 22.1339C15.6495 22.3683 15.3315 22.5 15 22.5H5C4.66848 22.5 4.35054 22.6317 4.11612 22.8661C3.8817 23.1005 3.75 23.4185 3.75 23.75C3.75 24.0815 3.8817 24.3995 4.11612 24.6339C4.35054 24.8683 4.66848 25 5 25H7.5C7.83152 25 8.14946 25.1317 8.38388 25.3661C8.6183 25.6005 8.75 25.9185 8.75 26.25C8.75 26.5815 8.6183 26.8995 8.38388 27.1339C8.14946 27.3683 7.83152 27.5 7.5 27.5H6.25C5.91848 27.5 5.60054 27.6317 5.36612 27.8661C5.1317 28.1005 5 28.4185 5 28.75C5 29.0815 5.1317 29.3995 5.36612 29.6339C5.60054 29.8683 5.91848 30 6.25 30H9.8125C9.94748 30.5272 10.2044 31.0153 10.5625 31.425C10.866 31.7643 11.2378 32.0355 11.6537 32.2208C12.0695 32.4061 12.5198 32.5012 12.975 32.5C13.7453 32.478 14.492 32.229 15.1213 31.7842C15.7506 31.3395 16.2346 30.7188 16.5125 30H26.0625C26.1975 30.5272 26.4544 31.0153 26.8125 31.425C27.116 31.7643 27.4878 32.0355 27.9037 32.2208C28.3195 32.4061 28.7698 32.5012 29.225 32.5C29.9953 32.478 30.742 32.229 31.3713 31.7842C32.0006 31.3395 32.4846 30.7188 32.7625 30H35.2625C35.5715 30.0019 35.8703 29.8892 36.1011 29.6838C36.332 29.4783 36.4785 29.1947 36.5125 28.8875L37.475 20.1375C37.5093 19.921 37.4788 19.6992 37.3875 19.5ZM12.975 30C12.8713 30.0045 12.768 29.9854 12.6728 29.9443C12.5775 29.9032 12.4928 29.841 12.425 29.7625C12.3269 29.6411 12.2551 29.5006 12.2142 29.35C12.1733 29.1993 12.1642 29.0418 12.1875 28.8875C12.2194 28.5365 12.371 28.2072 12.6167 27.9546C12.8625 27.702 13.1875 27.5415 13.5375 27.5C13.6412 27.4955 13.7445 27.5146 13.8397 27.5557C13.935 27.5968 14.0197 27.659 14.0875 27.7375C14.1856 27.8589 14.2574 27.9994 14.2983 28.15C14.3392 28.3007 14.3483 28.4582 14.325 28.6125C14.2931 28.9635 14.1415 29.2928 13.8958 29.5454C13.65 29.798 13.325 29.9585 12.975 30ZM29.225 30C29.1213 30.0045 29.018 29.9854 28.9228 29.9443C28.8275 29.9032 28.7428 29.841 28.675 29.7625C28.5769 29.6411 28.5051 29.5006 28.4642 29.35C28.4233 29.1993 28.4142 29.0418 28.4375 28.8875C28.4694 28.5365 28.621 28.2072 28.8667 27.9546C29.1125 27.702 29.4375 27.5415 29.7875 27.5C29.8912 27.4955 29.9945 27.5146 30.0897 27.5557C30.185 27.5968 30.2697 27.659 30.3375 27.7375C30.4356 27.8589 30.5074 27.9994 30.5483 28.15C30.5892 28.3007 30.5983 28.4582 30.575 28.6125C30.5431 28.9635 30.3915 29.2928 30.1458 29.5454C29.9 29.798 29.575 29.9585 29.225 30ZM34.85 21.25H29.325C29.1506 21.2496 28.9782 21.2127 28.8189 21.1416C28.6595 21.0706 28.5169 20.967 28.4 20.8375C28.282 20.7063 28.1932 20.5515 28.1393 20.3835C28.0855 20.2154 28.0678 20.0379 28.0875 19.8625L28.5 16.1125C28.5368 15.8076 28.6846 15.527 28.9152 15.3241C29.1457 15.1212 29.4429 15.0103 29.75 15.0125H32.6625L35 20.2L34.85 21.25Z" fill="#F56308"/>
<path d="M5 20C5.33152 20 5.64946 19.8683 5.88388 19.6339C6.1183 19.3995 6.25 19.0815 6.25 18.75C6.25 18.4185 6.1183 18.1005 5.88388 17.8661C5.64946 17.6317 5.33152 17.5 5 17.5H3.75C3.41848 17.5 3.10054 17.6317 2.86612 17.8661C2.6317 18.1005 2.5 18.4185 2.5 18.75C2.5 19.0815 2.6317 19.3995 2.86612 19.6339C3.10054 19.8683 3.41848 20 3.75 20H5Z" fill="#F56308"/>
</svg>
