<svg width="89" height="29" viewBox="0 0 89 29" fill="none" xmlns="http://www.w3.org/2000/svg">
<g clip-path="url(#clip0_315_3314)">
<path d="M15.3931 8.25H13.4933V18.6503H15.3931V8.25ZM2.56972 10.3769H0.669922V20.7772H2.56972V10.3769ZM6.84457 9.66871H4.94477V20.0679H6.84457V9.66871ZM11.1182 8.95935H9.21845V19.3585H11.1182V8.95935Z" fill="#DADADA"/>
<path d="M70.9049 13.9416L67.5853 10.2696H65.6457V18.7701H67.6707V13.347L70.7013 16.5601H71.0758L74.0537 13.347V18.7701H76.0788V10.2696H74.1392L70.9049 13.9416ZM85.7311 10.2696L80.7095 15.7946V10.2696H78.6844V18.7701H80.5397L85.5614 13.2451V18.7701H87.5864V10.2696H85.7311ZM54.7338 13.3797C54.7338 14.7341 55.4771 15.8004 56.6184 16.2476L54.4786 18.7701H56.9578L58.9056 16.4747H61.0126V18.7701H63.0388V10.2696H57.8814C55.9582 10.2696 54.7326 11.5794 54.7326 13.3809L54.7338 13.3797ZM61.015 12.1425V14.6556H58.2571C57.3371 14.6556 56.8443 14.1453 56.8443 13.3973C56.8443 12.6493 57.3547 12.1401 58.2571 12.1401L61.015 12.1425ZM45.3191 11.9704C45.1962 14.8933 44.5758 16.7814 43.3619 16.7814H43.0576V18.8216L43.3818 18.838C45.8165 18.9738 47.1603 16.8481 47.3816 12.208H50.583V18.7701H52.6046V10.2696H45.3893L45.3214 11.9704H45.3191ZM37.6941 10.1514C34.9538 10.1514 32.9826 12.0383 32.9826 14.5199C32.9826 17.0869 35.1271 18.9071 37.6941 18.9071C40.3665 18.9071 42.443 16.985 42.443 14.5199C42.443 12.0547 40.3665 10.1514 37.6941 10.1514ZM37.6941 16.8656C36.1455 16.8656 35.0896 15.8637 35.0896 14.5199C35.0896 13.1421 36.1466 12.1671 37.6941 12.1671C39.2404 12.1671 40.3325 13.1878 40.3325 14.5199C40.3325 15.8519 39.2263 16.8656 37.6941 16.8656ZM30.8335 10.286H23.6838L23.6159 11.9868C23.5141 14.4356 22.8714 16.765 21.6576 16.7977L21.0957 16.8153V20.7776L23.1395 20.7741V18.7725H30.2377V20.7741H32.2979V16.7977H30.8347V10.286H30.8335ZM28.8085 16.7977H24.4833C25.2149 15.6939 25.607 14.0949 25.6749 12.2256H28.8073V16.7977H28.8085Z" fill="#DADADA"/>
</g>
<defs>
<clipPath id="clip0_315_3314">
<rect width="87.7912" height="28.0932" fill="white" transform="translate(0.380859 0.585449)"/>
</clipPath>
</defs>
</svg>
