<svg width="20" height="27" viewBox="0 0 20 27" fill="none" xmlns="http://www.w3.org/2000/svg">
<g clip-path="url(#clip0_4_179)">
<path d="M1.57642 14.3559H3.07745C3.70802 14.3559 4.38657 14.6639 4.35915 15.4444C4.33173 16.1427 3.91364 16.5671 3.07745 16.5671H1.57642V14.3559ZM0 13.0552V20.5924H1.57642V17.8541H3.32419C4.74297 17.8541 5.74366 16.8546 5.74366 15.4923C5.74366 14.0752 4.66758 13.0552 3.32419 13.0552H0Z" fill="white"/>
<path d="M8.43728 14.3559H9.60246C11.1309 14.3559 11.6998 15.3485 11.7066 16.7382C11.7066 18.1553 11.0761 19.3054 9.73954 19.3054H8.43042L8.43728 14.3559ZM6.90198 13.0552V20.5924H10.0617C12.2275 20.5924 13.3585 18.6893 13.3242 16.7451C13.2899 14.6229 11.83 13.0552 9.82864 13.0552H6.90198Z" fill="white"/>
<path d="M14.6265 13.0552V20.5924H16.2029V17.416H19.5202V16.0879H16.2029V14.3764H20V13.062L14.6265 13.0552Z" fill="white"/>
<path d="M5.90817 0L0.00686646 6.79107V11.9528H1.45306V7.79057H8.0192V2.93687H6.57301V6.33925H2.31667L6.57301 1.44447H18.547V11.9528H20V0H5.90817Z" fill="white"/>
<path d="M0.00686646 21.6946V26.9796L20 27.0001V19.1343H18.547V25.542L1.45306 25.5283V21.6878L0.00686646 21.6946Z" fill="white"/>
</g>
<defs>
<clipPath id="clip0_4_179">
<rect width="20" height="27" fill="white"/>
</clipPath>
</defs>
</svg>
