<svg width="57" height="57" viewBox="0 0 57 57" fill="none" xmlns="http://www.w3.org/2000/svg">
<g clip-path="url(#clip0_304_337)">
<path d="M28.5 0C23.1142 0 17.9357 1.50705 13.4707 4.2996V1.66992C13.4707 0.74768 12.723 0 11.8008 0C10.8785 0 10.1309 0.74768 10.1309 1.66992V7.53012C10.1309 8.17237 10.4991 8.75763 11.0782 9.03561C11.6571 9.31349 12.3442 9.23489 12.8454 8.83311C17.3282 5.23944 22.7416 3.33984 28.5 3.33984C42.3734 3.33984 53.6602 14.6266 53.6602 28.5C53.6602 33.8691 51.8422 39.2461 48.5411 43.6406C47.9871 44.3781 48.1358 45.4249 48.8733 45.9787C49.6106 46.5326 50.6574 46.384 51.2114 45.6465C54.9442 40.6773 57 34.5879 57 28.5C57 12.8073 44.1918 0 28.5 0Z" fill="#584C3B"/>
<path d="M28.5 57.0001C33.8858 57.0001 39.0643 55.4931 43.5293 52.7005V55.3302C43.5293 56.2524 44.277 57.0001 45.1992 57.0001C46.1215 57.0001 46.8691 56.2524 46.8691 55.3302V49.47C46.8691 48.8277 46.5009 48.2425 45.9218 47.9645C45.3427 47.6865 44.6557 47.7652 44.1546 48.167C39.6718 51.7608 34.2584 53.6603 28.5 53.6603C14.6266 53.6603 3.33984 42.3735 3.33984 28.5001C3.33984 23.131 5.15783 17.754 8.45893 13.3595C9.0129 12.622 8.86417 11.5752 8.12673 11.0214C7.38918 10.4674 6.34247 10.6162 5.78862 11.3536C2.05579 16.3228 0 22.4122 0 28.5001C0 44.1928 12.8082 57.0001 28.5 57.0001Z" fill="#584C3B"/>
<path d="M28.5 50.3203C29.4222 50.3203 30.1699 49.5726 30.1699 48.6504V43.6213C33.6421 43.5347 36.4765 43.1256 38.7744 41.8142C41.9739 39.9878 43.5293 36.7253 43.5293 31.8398C43.5293 24.0075 34.7503 12.5805 29.7189 7.20827C29.4032 6.87106 28.9619 6.67969 28.5 6.67969C28.0381 6.67969 27.5968 6.87106 27.2811 7.20827C22.3133 12.5126 13.4707 23.9716 13.4707 31.8398C13.4707 36.7253 15.0261 39.9878 18.2256 41.8142C20.5235 43.1256 23.3579 43.5347 26.8301 43.6213V48.6504C26.8301 49.5726 27.5778 50.3203 28.5 50.3203ZM19.8813 38.9135C18.5631 38.1611 16.8105 36.6093 16.8105 31.8398C16.8105 24.9512 25.294 14.5433 28.5066 10.8494C32.6316 15.5651 40.1895 25.5133 40.1895 31.8398C40.1895 36.6093 38.4369 38.1611 37.1187 38.9135C35.3528 39.9215 32.813 40.2107 30.1699 40.2809V35.8715L36.3604 29.681C37.0126 29.0288 37.0126 27.9715 36.3604 27.3194C35.7084 26.6672 34.651 26.6672 33.9988 27.3194L30.1699 31.1482V25.8518L33.0206 23.0012C33.6727 22.349 33.6727 21.2917 33.0206 20.6396C32.3685 19.9874 31.3111 19.9874 30.659 20.6396L28.5 22.7986L26.3409 20.6395C25.6889 19.9873 24.6315 19.9873 23.9793 20.6395C23.3271 21.2916 23.3271 22.3489 23.9793 23.0011L26.8301 25.8518V31.1482L23.0011 27.3191C22.349 26.667 21.2916 26.667 20.6395 27.3191C19.9873 27.9713 19.9873 29.0286 20.6395 29.6807L26.8301 35.8714V40.2807C24.187 40.2107 21.6471 39.9214 19.8813 38.9135Z" fill="#F56308"/>
</g>
<defs>
<clipPath id="clip0_304_337">
<rect width="57" height="57" fill="white"/>
</clipPath>
</defs>
</svg>
