<svg width="30" height="28" viewBox="0 0 30 28" fill="none" xmlns="http://www.w3.org/2000/svg">
<path d="M24.7559 17.1968C21.8642 17.1968 19.5117 19.5584 19.5117 22.4612C19.8001 29.4453 29.7127 29.4433 30 22.4612C29.9999 19.5584 27.6475 17.1968 24.7559 17.1968ZM24.7559 25.9663C22.8343 25.9663 21.271 24.3939 21.271 22.4612C21.4627 17.811 28.0497 17.8123 28.2407 22.4612C28.2406 24.3939 26.6774 25.9663 24.7559 25.9663Z" fill="#F56308" stroke="#F56308" stroke-width="0.4"/>
<path d="M13.6309 18.9562C14.6473 18.9562 15.6108 19.4013 16.2744 20.1773C16.5901 20.5466 17.1454 20.59 17.5145 20.2742C17.8838 19.9585 17.9272 19.4033 17.6114 19.034C14.4632 15.3456 8.38597 17.61 8.38674 22.4615C8.37542 27.1129 14.0723 29.4908 17.3404 26.1825C17.6831 25.8382 17.6818 25.2812 17.3375 24.9385C16.9932 24.5958 16.4362 24.5972 16.0935 24.9414C13.9183 27.1418 10.1382 25.555 10.146 22.4614C10.146 20.5286 11.7093 18.9562 13.6309 18.9562Z" fill="#F56308" stroke="#F56308" stroke-width="0.4"/>
<path d="M6.20256 18.9561C7.36968 18.9096 7.3688 17.2428 6.20256 17.1968H0.879647C0.393847 17.1968 0 17.5906 0 18.0764V26.846C0 27.3318 0.393847 27.7256 0.879647 27.7256H6.20256C7.36968 27.6791 7.3688 26.0124 6.20256 25.9663H1.75929V23.3596H4.74024C5.90736 23.3131 5.90648 21.6464 4.74024 21.6003H1.75929V18.956H6.20256V18.9561Z" fill="#F56308" stroke="#F56308" stroke-width="0.4"/>
<path d="M10.0302 14.6932H17.3634C22.735 14.6932 27.105 10.323 27.105 4.95149V1.15382C27.105 0.668017 26.7112 0.27417 26.2254 0.27417H22.4277C18.2931 0.27417 14.7523 2.86356 13.3406 6.50565C12.0944 4.56397 9.91639 3.27488 7.44282 3.27488H3.90699C3.42119 3.27488 3.02734 3.66873 3.02734 4.15453V7.69035C3.02734 11.5517 6.16886 14.6932 10.0302 14.6932ZM14.4454 10.0158C14.4454 5.61433 18.0263 2.03346 22.4278 2.03346H25.3458V4.95149C25.3458 9.353 21.7649 12.9339 17.3635 12.9339H15.6894L21.7536 6.86964C22.0971 6.52611 22.0971 5.96918 21.7536 5.62565C21.4101 5.28212 20.8531 5.28212 20.5096 5.62565L14.4456 11.6896C14.4457 11.4846 14.4456 10.1448 14.4454 10.0158ZM4.78664 5.03417H7.44288C10.3266 5.03417 12.6738 7.37421 12.686 10.2551V11.6896L8.41547 7.41895C7.55747 6.62651 6.37933 7.80576 7.17148 8.66295L11.4423 12.9339H10.0302C7.13887 12.9339 4.78664 10.5816 4.78664 7.69035V5.03417Z" fill="#F56308" stroke="#F56308" stroke-width="0.4"/>
</svg>
