<svg width="52" height="52" viewBox="0 0 52 52" fill="none" xmlns="http://www.w3.org/2000/svg">
<path d="M0 17.875H17.3672V18.8906H0V17.875Z" fill="#0D0D0D"/>
<path d="M11.4766 12.4922H25.0859V13.5078H11.4766V12.4922Z" fill="#0D0D0D"/>
<path d="M5.78906 23.7656H17.4688V24.7812H5.78906V23.7656Z" fill="#0D0D0D"/>
<path d="M33.9219 26H34.9375V43.875H33.9219V26Z" fill="#0D0D0D"/>
<path d="M34.4296 26.5078C34.3484 26.5078 34.2671 26.4875 34.196 26.4469L17.1335 17.5094L17.6007 16.6055L34.4296 25.4312L51.2585 16.6156L51.7257 17.5195L34.6632 26.457C34.5921 26.4875 34.5109 26.5078 34.4296 26.5078Z" fill="#0D0D0D"/>
<path d="M40.9296 30.0625C40.8382 30.0625 40.7468 30.032 40.6655 29.9812C40.5132 29.8898 40.4218 29.7273 40.4218 29.5547V22.9023L23.2476 14.3203L23.7046 13.4164L41.1632 22.1406C41.3358 22.2219 41.4476 22.4047 41.4476 22.5976V28.7422L45.3069 26.8531V20.4242L30.1741 12.7969L30.6312 11.8929L46.0483 19.6625C46.221 19.7539 46.3226 19.9265 46.3226 20.1195V27.1781C46.3226 27.3711 46.2108 27.5539 46.0382 27.6351L41.1632 30.0218C41.0819 30.0422 41.0108 30.0625 40.9296 30.0625Z" fill="#0D0D0D"/>
<path d="M11.1719 36.8672H22.1406V37.8828H11.1719V36.8672Z" fill="#0D0D0D"/>
<path d="M34.4297 44.3828C34.3484 44.3828 34.2672 44.3625 34.1961 44.3219L29.1688 41.6914L29.6359 40.7875L34.4297 43.2961L50.9844 34.6328V17.3672L34.4297 8.69375L17.875 17.3672V34.6328L27.7469 39.8023L27.2797 40.7062L17.1336 35.3945C16.9711 35.3031 16.8594 35.1305 16.8594 34.9477V17.0625C16.8594 16.8695 16.9609 16.6969 17.1336 16.6156L34.1961 7.67813C34.3484 7.59688 34.5211 7.59688 34.6633 7.67813L51.7258 16.6156C51.8883 16.707 52 16.8797 52 17.0625V34.9375C52 35.1305 51.8984 35.3031 51.7258 35.3844L34.6633 44.3219C34.5922 44.3625 34.5109 44.3828 34.4297 44.3828Z" fill="#0D0D0D"/>
</svg>
