<svg width="12" height="12" viewBox="0 0 12 12" fill="none" xmlns="http://www.w3.org/2000/svg">
<path d="M11 2.875H5.375M7.25 9.125H1.625" stroke="black" stroke-width="1.2" stroke-linecap="round" stroke-linejoin="round"/>
<path d="M9.125 11C10.1605 11 11 10.1605 11 9.125C11 8.08947 10.1605 7.25 9.125 7.25C8.08947 7.25 7.25 8.08947 7.25 9.125C7.25 10.1605 8.08947 11 9.125 11Z" stroke="black" stroke-width="1.2" stroke-linecap="round" stroke-linejoin="round"/>
<path d="M2.875 4.75C3.91053 4.75 4.75 3.91053 4.75 2.875C4.75 1.83947 3.91053 1 2.875 1C1.83947 1 1 1.83947 1 2.875C1 3.91053 1.83947 4.75 2.875 4.75Z" stroke="black" stroke-width="1.2" stroke-linecap="round" stroke-linejoin="round"/>
</svg>
