<svg width="150" height="84" viewBox="0 0 150 84" fill="none" xmlns="http://www.w3.org/2000/svg">
<g clip-path="url(#clip0_5_237)">
<path d="M15.1 73.5999C13.6 75.2999 11.4 76.3999 8.79999 76.3999C3.69999 76.3999 -0.100006 72.2999 -0.100006 66.6999C-0.100006 60.9999 3.59999 56.8999 8.79999 56.8999C11.4 56.8999 13.5 57.9999 15.1 59.6999V57.3999H20.5V83.9999H15.1V73.5999ZM10.3 61.0999C7.29999 61.0999 5.29999 63.2999 5.29999 66.5999C5.29999 69.7999 7.29999 72.0999 10.3 72.0999C13.3 72.0999 15.1 69.8999 15.1 66.5999C15.1 63.2999 13.3 61.0999 10.3 61.0999Z" fill="white"/>
<path d="M43.3 75.8998H38V73.4998C36.6 75.2998 34.6 76.3998 32.3 76.3998C27.8 76.3998 25.6 73.9998 25.6 68.5998V57.2998H30.9V67.2998C30.9 69.8998 32.2 71.4998 34.3 71.4998C36.5 71.4998 38.1 69.7998 38.1 65.6998V57.2998H43.4V75.8998H43.3Z" fill="white"/>
<path d="M48.4 57.1001H53.8V61.2001H48.4V57.1001ZM48.4 63.7001H53.8V75.9001H48.4V63.7001Z" fill="white"/>
<path d="M72.4 64.2999C72 62.2999 70.5 61.0999 68.1 61.0999C65.2 61.0999 63.3 63.2999 63.3 66.5999C63.3 69.7999 65.2 72.0999 68.1 72.0999C70.7 72.0999 72.3 70.5999 72.6 68.2999H77.8C77.4 73.0999 73.6 76.3999 68.1 76.3999C62.2 76.3999 58.1 72.2999 58.1 66.6999C58.1 60.9999 62.2 56.8999 68 56.8999C73.2 56.8999 76.9 59.8999 77.5 64.3999H72.4V64.2999Z" fill="white"/>
<path d="M100.5 75.9001H94.8L90.9 68.2001L87.5 72.0001V75.9001H82.1V50.6001H87.5V65.2001L94.1 57.3001H100.2L94.4 64.1001L100.5 75.9001Z" fill="white"/>
<path d="M103.2 57.5H104.6V61.8C105.5 58.4 107.8 57 110.7 57C114.4 57 117 59.6 117 63.1V75.9H115.6V63.6C115.6 60.4 113.6 58.3 110.2 58.3C107.2 58.3 104.6 60.9 104.6 67.1V76H103.2V57.5Z" fill="white"/>
<path d="M130.2 76.4001C125 76.4001 121.2 72.3001 121.2 66.7001C121.2 61.2001 124.9 57.1001 129.9 57.1001C134.8 57.1001 138.6 61.3001 138.6 66.3001V66.7001H122.6C122.7 71.6001 125.8 75.2001 130.2 75.2001C134 75.2001 136.7 73.0001 137.4 69.7001H138.7C138 73.7001 134.7 76.4001 130.2 76.4001ZM130 58.3001C126.2 58.3001 123.3 61.3001 122.8 65.5001H137.2C136.5 61.0001 133.7 58.3001 130 58.3001Z" fill="white"/>
<path d="M147.6 76.1002C144.5 76.1002 143 73.1002 143 70.0002V58.7002H141V57.5002H143V53.2002H144.4V57.5002H148.4V58.7002H144.4V69.8002C144.4 72.6002 145.8 74.8002 147.8 74.8002C148.5 74.8002 149.4 74.6002 150 74.2002V75.4002C149.5 75.8002 148.5 76.1002 147.6 76.1002Z" fill="white"/>
<path d="M81.1 21.1C81.1 32.7 71.5 42.2 59.7 42.2C47.9 42.2 38.3 32.8 38.3 21.1C38.2 9.4 47.8 0 59.6 0C71.5 0 81.1 9.4 81.1 21.1Z" fill="#A53EF4"/>
<path d="M110.4 2.1998V39.9998H103.3L87.6 18.4998L85 14.8998V19.2998V39.9998H77V2.1998H84.6L99.8 22.8998L102.4 26.4998V22.0998V2.1998H110.4ZM111.8 0.799805H100.9V22.0998L85.3 0.799805H75.5V41.4998H86.4V19.2998L102.5 41.3998H111.7V0.799805H111.8Z" fill="white"/>
<path d="M72.6 26.5H60.8L74.8 41.4H86.6L72.6 26.5Z" fill="white"/>
</g>
<defs>
<clipPath id="clip0_5_237">
<rect width="150" height="84" fill="white"/>
</clipPath>
</defs>
</svg>
