<svg width="54" height="63" viewBox="0 0 54 63" fill="none" xmlns="http://www.w3.org/2000/svg">
<path d="M26.4452 17.2466C26.4452 18.957 26.0146 20.6675 25.1534 21.9503C24.5793 22.8055 23.8616 23.6607 23.144 24.3733L19.9864 21.9503L20.5605 25.9412C19.5558 26.3688 18.5511 26.5113 17.4028 26.5113H17.2593C12.0923 26.5113 7.92993 22.3779 7.92993 17.2466C7.92993 12.1154 12.0923 7.98193 17.2593 7.98193C22.2828 7.98193 26.4452 12.1154 26.4452 17.2466Z" fill="#E0E326"/>
<path d="M19.2702 0.142534C18.6961 0 18.122 0 17.5479 0C17.1173 0 16.6867 0.285068 16.6867 0.71267C16.6867 1.14027 16.9738 1.56787 17.4043 1.56787C17.9785 1.56787 18.409 1.56787 18.8396 1.71041H18.9832C19.4137 1.71041 19.7008 1.42534 19.7008 0.997738C19.9879 0.570136 19.7008 0.142534 19.2702 0.142534ZM12.2373 1.56787C11.9502 1.14027 11.5196 0.855204 11.0891 0.997738C10.6585 1.28281 10.0844 1.42534 9.65377 1.71041C9.22319 1.85294 9.07966 2.42308 9.22319 2.70814C9.36672 2.99321 9.65377 3.13575 9.94083 3.13575C10.0844 3.13575 10.2279 3.13575 10.2279 2.99321C10.6585 2.70814 11.0891 2.56561 11.6632 2.42308C12.0938 2.42308 12.3808 1.99548 12.2373 1.56787ZM26.8772 2.99321C26.4467 2.70814 26.0161 2.42308 25.442 2.13801C25.0114 1.85294 24.5808 1.99548 24.4373 2.42308C24.2937 2.85068 24.4373 3.27828 24.7243 3.42081C25.1549 3.70588 25.5855 3.99095 26.0161 4.13348C26.1596 4.27602 26.3031 4.27602 26.4467 4.27602C26.7337 4.27602 27.0208 4.13348 27.1643 3.99095C27.3078 3.70588 27.3078 3.13575 26.8772 2.99321ZM5.49144 5.55882C5.20438 5.27376 4.63026 5.27376 4.3432 5.55882C4.05615 5.98643 3.62556 6.41403 3.3385 6.84163C3.05144 7.1267 3.05144 7.69683 3.48203 7.9819C3.62556 8.12443 3.76909 8.12443 3.91262 8.12443C4.19968 8.12443 4.3432 7.9819 4.48673 7.83937C4.77379 7.41176 5.06085 7.1267 5.49144 6.69909C5.77849 6.27149 5.77849 5.84389 5.49144 5.55882ZM32.4749 8.97964C32.1878 8.55204 31.9008 7.9819 31.6137 7.5543C31.3266 7.1267 30.8961 7.1267 30.4655 7.41176C30.0349 7.69683 30.0349 8.12443 30.3219 8.55204C30.609 8.97964 30.8961 9.40724 31.0396 9.83484C31.1831 10.1199 31.4702 10.2624 31.7572 10.2624C31.9008 10.2624 32.0443 10.2624 32.1878 10.1199C32.4749 9.83484 32.6184 9.26471 32.4749 8.97964ZM1.3291 12.1154C0.89851 11.9729 0.467923 12.2579 0.467923 12.6855C0.324394 13.2557 0.180865 13.6833 0.0373361 14.2534C-0.106193 14.681 0.180865 15.1086 0.611452 15.1086H0.754981C1.18557 15.1086 1.47263 14.8235 1.47263 14.3959C1.61615 13.9683 1.61615 13.3982 1.75968 12.9706C2.04674 12.6855 1.75968 12.2579 1.3291 12.1154ZM34.6278 16.819C34.6278 16.2489 34.6278 15.6787 34.4843 15.2511C34.4843 14.8235 34.0537 14.5385 33.6231 14.5385C33.1925 14.5385 32.9055 14.9661 32.9055 15.3937C32.9055 15.8213 33.049 16.3914 33.049 16.819C33.049 16.9615 33.049 16.9615 33.049 17.1041C33.049 17.2466 33.049 17.2466 33.049 17.3891C33.049 17.9593 33.049 18.3869 33.049 18.8145C33.049 19.2421 33.336 19.6697 33.7666 19.6697H33.9102C34.3407 19.6697 34.6278 19.3846 34.6278 18.957C34.6278 18.3869 34.6278 17.8167 34.6278 17.3891C34.6278 17.2466 34.6278 17.2466 34.6278 17.1041C34.6278 16.9615 34.6278 16.819 34.6278 16.819ZM2.04674 21.9502C1.90321 21.5226 1.75968 20.9525 1.61615 20.5249C1.47263 20.0973 1.18557 19.8122 0.754981 19.9548C0.324394 19.9548 0.0373361 20.3824 0.180865 20.81C0.324394 21.3801 0.467923 21.8077 0.611452 22.3778C0.754981 22.6629 1.04204 22.948 1.3291 22.948C1.47263 22.948 1.47263 22.948 1.61615 22.948C1.90321 22.8054 2.19027 22.3778 2.04674 21.9502ZM32.3313 24.0882C31.9008 23.9457 31.4702 24.0882 31.3266 24.3733C31.0396 24.8009 30.8961 25.2285 30.609 25.6561C30.609 25.7986 30.4655 25.7986 30.4655 25.9412C30.4655 26.2262 30.4655 26.5113 30.7525 26.7964C30.8961 26.9389 31.0396 26.9389 31.1831 26.9389C31.3266 26.9389 31.4702 26.9389 31.6137 26.7964C31.7572 26.7964 31.9008 26.6538 31.9008 26.5113C32.1878 26.0837 32.4749 25.5136 32.7619 25.086C32.9055 24.8009 32.7619 24.3733 32.3313 24.0882ZM5.92202 28.2217C5.63496 27.7941 5.20438 27.509 4.91732 27.0814C4.63026 26.7964 4.19967 26.6538 3.76909 26.9389C3.48203 27.224 3.3385 27.6516 3.62556 28.0792C4.05615 28.5068 4.3432 28.9344 4.77379 29.362C4.91732 29.5045 5.20438 29.6471 5.34791 29.6471C5.49144 29.6471 5.77849 29.5045 5.92202 29.362C6.20908 29.0769 6.20908 28.5068 5.92202 28.2217ZM12.0938 32.2127C11.6632 32.0701 11.0891 31.9276 10.6585 31.6425C10.2279 31.5 9.7973 31.6425 9.65377 32.0701C9.51025 32.4977 9.65377 32.9253 10.0844 33.0679C10.5149 33.3529 11.0891 33.4955 11.6632 33.638C11.8067 33.638 11.8067 33.638 11.9502 33.638C12.2373 33.638 12.5244 33.4955 12.6679 33.0679C12.8114 32.7828 12.5244 32.3552 12.0938 32.2127ZM19.5573 32.7828C19.1267 32.9253 18.5526 32.9253 18.122 32.9253H17.9785C17.5479 32.9253 17.2608 33.3529 17.2608 33.7805C17.2608 34.2081 17.6914 34.4932 17.9785 34.4932H18.122C18.5526 34.4932 19.1267 34.3507 19.5573 34.3507C19.9879 34.3507 20.2749 33.9231 20.2749 33.4955C20.4184 33.0679 19.9879 32.7828 19.5573 32.7828Z" fill="#E0E326"/>
<path d="M20.9928 17.2466C20.9928 19.3846 19.2704 21.095 17.1175 21.095C14.9645 21.095 13.2422 19.3846 13.2422 17.2466C13.2422 15.1086 14.9645 13.3982 17.1175 13.3982C19.2704 13.3982 20.9928 15.1086 20.9928 17.2466Z" fill="white"/>
<path d="M24.0053 62.9999C23.7183 62.9999 23.5747 62.9999 23.2877 62.8574C22.4265 62.5723 21.7089 61.8596 21.5653 60.8619L16.3983 20.5248C16.2548 19.5271 16.6854 18.6719 17.5465 18.2443C18.4077 17.8167 19.4124 17.8167 20.13 18.3868L52.7111 43.0452C53.4288 43.6153 53.8593 44.4705 53.5723 45.4682C53.4288 46.3234 52.7111 47.0361 51.7064 47.3212L37.21 50.3144C36.4923 50.4569 35.9182 50.742 35.4876 51.3121L25.8712 62.2872C25.2971 62.7148 24.723 62.9999 24.0053 62.9999ZM19.843 21.9501L24.5794 58.8664L33.3347 49.1741C34.1959 48.1764 35.4876 47.4637 36.7794 47.1786L49.697 44.4705L19.843 21.9501Z" fill="#0042A4"/>
</svg>
