<svg width="55" height="54" viewBox="0 0 55 54" fill="none" xmlns="http://www.w3.org/2000/svg">
<g clip-path="url(#clip0_1_815)">
<path d="M54.0086 1.06641H0.429688V53.7372C30.0052 53.7372 54.0086 30.1407 54.0086 1.06641Z" stroke="#EEE2D9" stroke-miterlimit="10"/>
<path d="M51.2758 3.7002C49.8827 29.1928 29.0406 49.6818 3.1084 51.0512V3.7002H51.2758Z" stroke="#EEE2D9" stroke-miterlimit="10"/>
<path d="M48.3287 6.33301C47.0964 16.9725 42.2743 26.9273 34.5054 34.5645C26.7364 42.2018 16.61 46.9948 5.78711 48.1536V6.33301H48.3287Z" stroke="#EEE2D9" stroke-miterlimit="10"/>
<path d="M45.2755 8.9668C43.6145 17.8682 39.2211 26.2428 32.6309 32.7213C26.0407 39.1998 17.5216 43.5188 8.4668 45.1516V8.9668H45.2755Z" stroke="#EEE2D9" stroke-miterlimit="10"/>
<path d="M41.8998 11.6006C40.0245 18.8165 36.1133 25.5583 30.7018 30.8254C25.3439 36.0925 18.4858 39.9374 11.1455 41.8336V11.6006H41.8998Z" stroke="#EEE2D9" stroke-miterlimit="10"/>
<path d="M38.3098 14.2344C36.2738 19.7648 33.059 24.8212 28.8263 28.9822C24.5936 33.1432 19.45 36.3034 13.8242 38.3049V14.2344H38.3098Z" stroke="#EEE2D9" stroke-miterlimit="10"/>
<path d="M34.2911 16.8672C32.4159 20.6595 29.9512 24.1884 26.9508 27.138C23.9504 30.0875 20.4142 32.5631 16.5029 34.3539V16.8672H34.2911Z" stroke="#EEE2D9" stroke-miterlimit="10"/>
<path d="M29.7377 19.501C28.3982 21.6078 26.7908 23.504 25.0227 25.2421C23.2546 26.9802 21.2722 28.5603 19.1826 29.8771V19.501H29.7377Z" stroke="#EEE2D9" stroke-miterlimit="10"/>
<path d="M24.3795 22.1348C24.0045 22.5561 23.5759 22.9775 23.1472 23.3989C22.7186 23.8202 22.29 24.1889 21.8613 24.6103V22.1348H24.3795V22.1348Z" stroke="#EEE2D9" stroke-miterlimit="10"/>
</g>
<defs>
<clipPath id="clip0_1_815">
<rect width="54.1147" height="53.1975" fill="white" transform="translate(0.162109 0.802734)"/>
</clipPath>
</defs>
</svg>
