<svg width="12" height="12" viewBox="0 0 12 12" fill="none" xmlns="http://www.w3.org/2000/svg">
<path d="M10.8141 1.18325V7.78325H4.21406V1.18325H10.8141ZM10.8141 0.083252H4.21406C3.60906 0.083252 3.11406 0.578252 3.11406 1.18325V7.78325C3.11406 8.38825 3.60906 8.88325 4.21406 8.88325H10.8141C11.4191 8.88325 11.9141 8.38825 11.9141 7.78325V1.18325C11.9141 0.578252 11.4191 0.083252 10.8141 0.083252ZM6.13906 5.40175L7.06856 6.64475L8.43256 4.93975L10.2641 7.23325H4.76406L6.13906 5.40175ZM0.914062 2.28325V9.98325C0.914062 10.5883 1.40906 11.0833 2.01406 11.0833H9.71406V9.98325H2.01406V2.28325H0.914062Z" fill="#555557"/>
</svg>
