<svg width="11" height="12" viewBox="0 0 11 12" fill="none" xmlns="http://www.w3.org/2000/svg">
<path d="M4.07777 0.25018C4.6205 0.25018 5.10868 0.488362 5.44141 0.865635C5.73966 0.527411 6.15297 0.312093 6.60107 0.261489C7.04916 0.210885 7.50008 0.328606 7.86625 0.591795C8.23243 0.854984 8.48773 1.24486 8.5826 1.68571C8.67746 2.12657 8.60511 2.58695 8.37959 2.97745H9.53232C9.77342 2.97745 10.0047 3.07323 10.1751 3.24372C10.3456 3.41421 10.4414 3.64544 10.4414 3.88654V5.70473C10.4414 5.94583 10.3456 6.17706 10.1751 6.34755C10.0047 6.51804 9.77342 6.61382 9.53232 6.61382V9.34109C9.53232 9.8233 9.34076 10.2858 8.99978 10.6267C8.65881 10.9677 8.19635 11.1593 7.71413 11.1593H3.16868C2.68647 11.1593 2.22401 10.9677 1.88303 10.6267C1.54206 10.2858 1.3505 9.8233 1.3505 9.34109V6.61382C1.10939 6.61382 0.87816 6.51804 0.707673 6.34755C0.537185 6.17706 0.441406 5.94583 0.441406 5.70473V3.88654C0.441406 3.64544 0.537185 3.41421 0.707673 3.24372C0.87816 3.07323 1.10939 2.97745 1.3505 2.97745H2.50322C2.34365 2.70106 2.25964 2.38753 2.25963 2.06837C2.25963 1.74922 2.34364 1.43569 2.50321 1.15929C2.66279 0.882894 2.8923 0.65337 3.1687 0.493788C3.44509 0.334206 3.75862 0.250188 4.07777 0.25018ZM3.16868 2.06836C3.16868 2.30947 3.26446 2.5407 3.43495 2.71119C3.60543 2.88167 3.83666 2.97745 4.07777 2.97745H4.98686V2.06836C4.98686 1.82726 4.89108 1.59603 4.72059 1.42554C4.55011 1.25505 4.31888 1.15927 4.07777 1.15927C3.83666 1.15927 3.60543 1.25505 3.43495 1.42554C3.26446 1.59603 3.16868 1.82726 3.16868 2.06836ZM5.89595 3.88654V5.70473H9.53232V3.88654H5.89595ZM4.98686 3.88654H1.3505V5.70473H4.98686V3.88654ZM2.25959 6.61382V9.34109C2.25959 9.5822 2.35537 9.81343 2.52585 9.98391C2.69634 10.1544 2.92757 10.2502 3.16868 10.2502H4.98686V6.61382H2.25959ZM5.89595 10.2502H7.71413C7.95524 10.2502 8.18647 10.1544 8.35696 9.98391C8.52745 9.81343 8.62322 9.5822 8.62322 9.34109V6.61382H5.89595V10.2502ZM7.71413 2.06836C7.71413 1.82726 7.61835 1.59603 7.44787 1.42554C7.27738 1.25505 7.04615 1.15927 6.80504 1.15927C6.56394 1.15927 6.33271 1.25505 6.16222 1.42554C5.99173 1.59603 5.89595 1.82726 5.89595 2.06836V2.97745H6.80504C7.04615 2.97745 7.27738 2.88167 7.44787 2.71119C7.61835 2.5407 7.71413 2.30947 7.71413 2.06836Z" fill="black"/>
</svg>
