<svg width="61" height="29" viewBox="0 0 61 29" fill="none" xmlns="http://www.w3.org/2000/svg">
<g clip-path="url(#clip0_315_3305)">
<path d="M43.4713 8.02664C44.2509 7.76092 45.1054 7.64035 45.9201 7.81126C46.798 7.99386 47.594 8.62362 47.8703 9.4828C48.1044 10.1687 47.9651 10.9425 47.5741 11.5441C47.1656 12.1716 46.5534 12.6445 45.885 12.9769C44.8362 13.5095 43.6668 13.7541 42.5045 13.8876L42.4143 14.2481C43.5591 13.877 44.8538 13.8384 45.9728 14.3207C46.6705 14.6157 47.2592 15.1904 47.4945 15.9126C47.7146 16.5939 47.6959 17.3325 47.5542 18.0278C47.3866 18.7979 47.0076 19.5061 46.4598 20.0728C45.7223 20.8418 44.7098 21.3311 43.6575 21.502C42.8837 21.6273 42.0772 21.6167 41.3222 21.3931C40.4891 21.1466 39.7646 20.624 39.2679 19.9112C38.6065 18.9724 38.3783 17.7925 38.4333 16.6641C38.5199 14.6274 39.1064 12.6 40.1891 10.8629C40.964 9.62561 42.0702 8.53348 43.4713 8.02664ZM44.0543 10.2238C43.8319 10.3911 43.6703 10.6253 43.5392 10.8664C43.2536 11.3838 43.0734 11.9491 42.9071 12.5122C43.2782 12.3319 43.6352 12.12 43.9606 11.8672C44.3446 11.5617 44.7262 11.1883 44.8444 10.699C44.8819 10.5258 44.9006 10.2963 44.7367 10.1781C44.6301 10.121 44.5095 10.0951 44.3888 10.1034C44.2681 10.1117 44.1521 10.1538 44.0543 10.2249V10.2238ZM42.1287 15.8518C41.9719 16.691 41.8876 17.5584 42.0035 18.4082C42.0573 18.7407 42.1463 19.0918 42.3944 19.3365C42.6215 19.5671 42.9984 19.5882 43.2817 19.4535C43.5755 19.3189 43.7851 19.0567 43.9419 18.7828C44.3001 18.1437 44.4523 17.3688 44.2603 16.6548C44.2104 16.4654 44.1142 16.2913 43.9804 16.1483C43.8465 16.0053 43.6793 15.8978 43.4936 15.8354C43.0535 15.6633 42.5724 15.7476 42.1287 15.8518ZM10.1598 8.40004C10.7779 7.93416 11.5879 7.79253 12.3488 7.86159C13.0967 7.93416 13.8178 8.338 14.2135 8.97829C14.7203 9.77427 14.7367 10.802 14.4066 11.6659C14.0461 12.6023 13.3437 13.3749 12.5396 13.966C11.8068 14.5068 10.9663 14.8931 10.0931 15.1541C10.861 16.6044 11.6347 18.0501 12.405 19.4992C12.7081 20.0821 13.0359 20.6534 13.3227 21.2457C12.4834 21.2737 11.6441 21.2503 10.8036 21.2574C9.97255 21.2562 9.13912 21.2609 8.30803 21.255C8.19097 21.2632 8.18044 21.1192 8.13713 21.0443C7.49801 19.4898 6.85538 17.9377 6.21274 16.3855C5.75389 16.7074 5.38165 17.1698 5.25289 17.72C5.07848 18.4995 5.31142 19.3353 5.78666 19.9698C5.78901 20.1582 5.6778 20.3244 5.57831 20.4778C5.27865 20.8992 4.85608 21.2363 4.37732 21.4376C3.5556 21.7888 2.55361 21.7115 1.81148 21.2105C1.4929 20.9933 1.22553 20.7092 1.02801 20.3781C0.830497 20.047 0.707586 19.6767 0.66785 19.2932C0.576547 18.5557 0.798952 17.8089 1.19343 17.1862C1.87469 16.0987 2.94574 15.3016 4.09756 14.7514C4.51494 14.5566 4.94704 14.3949 5.38985 14.268C4.41327 12.3381 3.43586 10.4087 2.45762 8.47964C2.40846 8.41643 2.40963 8.27948 2.522 8.29586C4.06244 8.28767 5.60289 8.29235 7.14333 8.29352C7.244 8.27713 7.28263 8.37546 7.31306 8.4492C7.93931 10.033 8.56789 11.6155 9.1953 13.1993C9.55583 12.9827 9.88008 12.6854 10.0545 12.2991C10.3448 11.6987 10.3179 10.9952 10.1458 10.3642C10.0287 9.95687 9.87539 9.54484 9.59212 9.2206C9.63543 8.87528 9.89998 8.6084 10.1598 8.40004ZM16.4949 12.9991C17.0743 12.3284 17.8761 11.8309 18.7622 11.6916C19.413 11.5886 20.1189 11.6366 20.6971 11.9749C21.2426 12.2792 21.6265 12.8013 21.8724 13.3608C21.9239 12.9453 21.9707 12.5286 22.0374 12.1154C22.0397 12.0229 22.1392 11.9983 22.2142 12.0042C23.3999 12.0053 24.5857 12.0018 25.7715 12.0065C25.8803 11.9889 25.8557 12.1271 25.8452 12.1903C25.6088 13.7132 25.377 15.2372 25.1546 16.7624C25.0457 17.5116 24.9205 18.2795 25.0551 19.0357C25.1148 19.3868 25.2857 19.7462 25.6123 19.9253C25.6942 19.9861 25.8616 20.0423 25.8042 20.1746C25.6872 20.4836 25.4261 20.7107 25.1675 20.9074C24.567 21.337 23.8073 21.591 23.0628 21.4856C22.4974 21.4212 21.9484 21.1415 21.6113 20.6814C21.3444 20.3268 21.225 19.8855 21.1934 19.4489C20.7276 20.157 20.1224 20.8032 19.3487 21.1813C18.6463 21.5348 17.7836 21.6027 17.052 21.2983C16.3755 21.0127 15.8745 20.4274 15.5654 19.7801C15.0832 18.7641 14.9568 17.6088 15.0668 16.4991C15.2002 15.2349 15.6497 13.9707 16.4949 12.9991ZM20.2266 14.1275C20.0053 14.1953 19.807 14.3224 19.653 14.4951C19.296 14.879 19.1063 15.3824 18.9776 15.881C18.8301 16.4932 18.7657 17.1335 18.8512 17.7598C18.9132 18.1332 19.0303 18.5288 19.3264 18.7863C19.6448 19.0602 20.1364 19.0462 20.4841 18.8332C20.8938 18.5827 21.1431 18.1484 21.3152 17.7164C21.5644 17.043 21.6701 16.3249 21.6254 15.6083C21.5891 15.16 21.4884 14.6789 21.1618 14.3453C20.9254 14.0994 20.5473 14.0351 20.2266 14.1275ZM50.401 12.6175C50.9735 12.0899 51.6984 11.7572 52.4717 11.667C53.0816 11.5968 53.7312 11.6717 54.2626 11.9948C54.7894 12.3015 55.1605 12.8142 55.4028 13.3597C55.4554 12.9383 55.4987 12.5169 55.5725 12.0978C55.5783 12.0042 55.6895 12.0042 55.7609 12.0042H59.3662C59.3779 12.0662 59.3815 12.1294 59.3744 12.1915C59.1561 13.5921 58.9438 14.9936 58.7377 16.3961C58.6545 16.9907 58.5469 17.5853 58.527 18.187C58.5246 18.6763 58.5351 19.2077 58.8161 19.6303C58.9331 19.8199 59.1438 19.9089 59.3101 20.0447C59.3873 20.1009 59.3182 20.205 59.2937 20.2718C59.1321 20.5702 58.8641 20.795 58.5855 20.9858C58.0236 21.351 57.3388 21.5722 56.6623 21.4938C56.0887 21.4423 55.521 21.1778 55.1686 20.7166C54.883 20.356 54.7554 19.8995 54.7238 19.4489C54.2006 20.2448 53.4936 20.9671 52.5829 21.31C51.8185 21.5945 50.909 21.557 50.2172 21.104C49.5067 20.6534 49.0736 19.8855 48.8301 19.1035C48.4111 17.7153 48.4907 16.1982 48.9706 14.8346C49.2691 14.0011 49.7373 13.2157 50.401 12.6175ZM53.8635 14.1041C53.3613 14.1919 53.0183 14.6239 52.803 15.0523C52.4635 15.7628 52.3312 16.5623 52.3453 17.3454C52.3652 17.8253 52.4483 18.3474 52.7842 18.7173C53.0933 19.0567 53.6458 19.0661 54.0203 18.8296C54.4417 18.5663 54.6934 18.1144 54.8631 17.6638C55.1113 16.9755 55.2084 16.231 55.1452 15.5018C55.1008 15.0921 54.9942 14.659 54.6981 14.3523C54.59 14.2456 54.4574 14.1671 54.3118 14.1238C54.1663 14.0806 54.0123 14.0738 53.8635 14.1041ZM29.6097 12.1704C31.8454 11.6788 34.1725 11.6202 36.434 11.969C36.8261 12.0381 37.2265 12.0791 37.6092 12.1926C37.2253 15.2033 36.8648 18.2174 36.4738 21.2258L36.3895 21.2562C35.2002 21.2562 34.0086 21.2656 32.8193 21.2503C32.8135 21.0701 32.8451 20.8921 32.8673 20.7142C33.1565 18.4199 33.4409 16.1257 33.7253 13.8326H32.2434C32.194 15.0667 32.0516 16.2954 31.8174 17.5081C31.6371 18.3848 31.4428 19.2756 31.0167 20.0716C30.7334 20.6007 30.3319 21.0911 29.7853 21.3686C29.2433 21.6472 28.6019 21.7197 28.006 21.5992C27.3505 21.4587 26.8097 20.9554 26.5686 20.3432C26.482 20.1172 26.3954 19.8726 26.4352 19.6291C26.5054 19.4793 26.6611 19.3974 26.7816 19.292C27.5589 18.7032 28.0856 17.8546 28.4731 16.979C28.8278 16.2123 29.0033 15.38 29.1707 14.5571C29.31 13.8291 29.4329 13.0963 29.5219 12.36C29.5418 12.2956 29.5161 12.1809 29.6109 12.1704H29.6097Z" fill="#DADADA"/>
</g>
<defs>
<clipPath id="clip0_315_3305">
<rect width="59.698" height="28.0932" fill="white" transform="translate(0.651367 0.585449)"/>
</clipPath>
</defs>
</svg>
