<svg width="24" height="24" viewBox="0 0 24 24" fill="none" xmlns="http://www.w3.org/2000/svg">
<g clip-path="url(#clip0_1_33)">
<path d="M16.1 0H7C6.1 0 5.2 0.2 4.3 0.5C3.5 0.9 2.7 1.4 2 2C1.4 2.7 0.9 3.5 0.5 4.3C0.2 5.2 0 6.1 0 7V16.2C0 20.1 3.1 23.2 7 23.2H23.1V7C23.1 3.1 20 0 16.1 0ZM21.4 21.4H7C5.6 21.4 4.3 20.8 3.3 19.9C2.3 18.9 1.8 17.6 1.7 16.2V7C1.7 6.3 1.8 5.6 2.1 5C2.4 4.4 2.8 3.8 3.2 3.3C3.7 2.8 4.3 2.4 5 2.1C5.6 1.8 6.3 1.7 7 1.7H16.1C17.5 1.7 18.8 2.2 19.8 3.2C20.8 4.2 21.3 5.5 21.4 6.9V21.4Z" fill="#A63DF5"/>
<path d="M12.5 10.7H10.8V12.4H12.5V10.7Z" fill="#A63DF5"/>
<path d="M17.2 10.7H15.5V12.4H17.2V10.7Z" fill="#A63DF5"/>
<path d="M7.79998 10.7H6.09998V12.4H7.79998V10.7Z" fill="#A63DF5"/>
</g>
<defs>
<clipPath id="clip0_1_33">
<rect width="23.1" height="23.1" fill="white"/>
</clipPath>
</defs>
</svg>
