<svg width="11" height="12" viewBox="0 0 11 12" fill="none" xmlns="http://www.w3.org/2000/svg">
<g clip-path="url(#clip0_315_1090)">
<path d="M10.4277 11.3852H6.92148C6.6694 11.3852 6.46315 11.179 6.46315 10.9269V8.7498C6.46315 8.1998 6.02773 7.76439 5.47773 7.76439C4.92773 7.76439 4.49232 8.1998 4.49232 8.7498V10.9269C4.49232 11.179 4.28607 11.3852 4.03398 11.3852H0.573568C0.321484 11.3852 0.115234 11.179 0.115234 10.9269V5.06022C0.115234 4.64772 0.321484 4.25814 0.642318 4.02897L5.24857 0.706055C5.40898 0.591471 5.61523 0.591471 5.77565 0.706055L10.3819 4.02897C10.7027 4.25814 10.909 4.64772 10.909 5.06022V10.9498C10.8861 11.179 10.6798 11.3852 10.4277 11.3852ZM7.37982 10.4915H9.99232V5.06022C9.99232 4.94564 9.92357 4.83106 9.8319 4.7623L5.50065 1.62272L1.1694 4.73939C1.07773 4.80814 1.00898 4.92272 1.00898 5.0373V10.4686H3.62148V8.7498C3.62148 7.71855 4.4694 6.87064 5.50065 6.87064C6.5319 6.87064 7.37982 7.71855 7.37982 8.7498V10.4915Z" fill="#584C3B"/>
</g>
<defs>
<clipPath id="clip0_315_1090">
<rect width="11" height="11" fill="white" transform="translate(0 0.5)"/>
</clipPath>
</defs>
</svg>
