<svg width="15" height="16" viewBox="0 0 15 16" fill="none" xmlns="http://www.w3.org/2000/svg">
<path d="M14.8338 6.12424L10.7899 2.86845C10.6266 2.737 10.3939 2.73706 10.2307 2.86845L9.00519 3.85502L7.77978 2.86845C7.61654 2.737 7.38381 2.73706 7.22063 2.86845L5.99508 3.85502L4.76968 2.86845C4.60644 2.737 4.37376 2.73706 4.21052 2.86845L0.16626 6.12424C0.0611426 6.20885 0 6.33656 0 6.47153V13.0743C0 13.3206 0.199629 13.5202 0.44584 13.5202H3.22248C3.46869 13.5202 3.66832 13.3206 3.66832 13.0743V11.0849C3.66832 10.6319 4.03688 10.2633 4.48989 10.2633C4.94291 10.2633 5.31149 10.6319 5.31149 11.0849V13.0743C5.31149 13.3206 5.51112 13.5202 5.75733 13.5202H5.99508H14.5542C14.8004 13.5202 15 13.3206 15 13.0743V6.47153C15 6.33656 14.9389 6.20885 14.8338 6.12424ZM8.08814 12.6285H6.91184V12.6285H6.44089H6.20314V11.0849C6.20314 10.1402 5.43457 9.37163 4.48986 9.37163C3.54513 9.37163 2.77661 10.1402 2.77661 11.0849V12.6285H0.89168V6.68496L4.49007 3.78808L8.08814 6.68493V12.6285ZM11.0982 12.6285H8.97984V6.47153C8.97984 6.33656 8.9187 6.20888 8.81358 6.12424L6.70603 4.42743L7.50018 3.78811L11.0982 6.68496V12.6285V12.6285ZM14.1083 12.6285H11.9899V6.47153C11.9899 6.33656 11.9287 6.20891 11.8237 6.12424L9.7161 4.4274L10.5103 3.78808L14.1083 6.68493V12.6285V12.6285Z" fill="black"/>
</svg>
