<svg width="30" height="30" viewBox="0 0 30 30" fill="none" xmlns="http://www.w3.org/2000/svg">
<g clip-path="url(#clip0_196_23469)">
<path d="M30 25.3033C30 27.8972 27.8972 30 25.3033 30H4.69667C2.10276 30 0 27.8972 0 25.3033V6.10568L6.10568 0H25.3033C27.8972 0 30 2.10276 30 4.69667V25.3033Z" fill="#E24C3F"/>
<path opacity="0.2" d="M0 9.37747V6.10547H3.25638L0 9.37747Z" fill="#5D5D5D"/>
<path d="M0 6.10568H4.07049C5.18982 6.10568 6.10568 5.20544 6.10568 4.08611V0L0 6.10568Z" fill="#FF7063"/>
<path d="M5.0293 20.1791V10.356H9.89141C10.3529 10.356 10.7629 10.4315 11.1211 10.5821C11.4791 10.7329 11.7759 10.9426 12.0115 11.2111C12.247 11.4796 12.4261 11.8001 12.5486 12.1722C12.671 12.5445 12.7323 12.9566 12.7323 13.4089C12.7323 13.8612 12.6734 14.2853 12.5556 14.6809C12.4377 15.0767 12.2634 15.4184 12.0327 15.7057C11.8017 15.9932 11.5074 16.2194 11.1494 16.3841C10.7911 16.5492 10.3719 16.6315 9.89135 16.6315H6.6264V20.1792H5.0293V20.1791ZM6.62646 11.8259V15.1332H9.34026C9.9621 15.1332 10.4166 14.9943 10.7042 14.7163C10.9914 14.4385 11.1352 14.0025 11.1352 13.4089C11.1352 12.8435 10.982 12.4385 10.6759 12.1933C10.3696 11.9484 9.92435 11.8258 9.34026 11.8258H6.62646V11.8259Z" fill="#FF7063"/>
<path d="M18.4841 10.6101L20.0247 10.186V18.5534C20.0247 18.7325 20.0339 18.8926 20.0529 19.034C20.0717 19.1753 20.0954 19.3074 20.1235 19.4297C20.1612 19.5428 20.2036 19.663 20.2508 19.7901C20.2978 19.9174 20.359 20.047 20.4345 20.1789H18.8091C18.7526 20.0847 18.6961 19.9575 18.6395 19.7972C18.6016 19.6276 18.5735 19.477 18.5547 19.345C18.2721 19.6276 17.9492 19.8657 17.5865 20.0587C17.2236 20.2517 16.8349 20.3485 16.4205 20.3485C15.9304 20.3485 15.4994 20.2683 15.1272 20.1082C14.7548 19.9481 14.4417 19.7266 14.1872 19.4439C13.9329 19.1613 13.7421 18.8244 13.6148 18.4333C13.4877 18.0425 13.424 17.6206 13.424 17.1683V16.4899C13.424 15.2933 13.7396 14.3934 14.3711 13.7903C15.0022 13.1873 15.921 12.8857 17.1271 12.8857C17.5887 12.8857 18.041 12.9753 18.4841 13.1542L18.4841 10.6101ZM18.4841 14.5818C18.2767 14.4594 18.0389 14.3746 17.7703 14.3273C17.5018 14.2803 17.2495 14.2567 17.0141 14.2567C16.6372 14.2567 16.3191 14.3086 16.0601 14.4121C15.8008 14.516 15.5888 14.6619 15.4241 14.8503C15.259 15.0389 15.1414 15.265 15.0706 15.5287C15 15.7926 14.9647 16.08 14.9647 16.3909V16.9139C14.9647 17.1778 14.9834 17.4346 15.0212 17.6842C15.0587 17.934 15.1319 18.1531 15.2403 18.3414C15.3484 18.53 15.4969 18.683 15.6854 18.8007C15.8738 18.9187 16.1188 18.9774 16.4205 18.9774C16.6184 18.9774 16.8137 18.9445 17.0071 18.8785C17.2 18.8126 17.3863 18.7255 17.5654 18.617C17.7443 18.5088 17.9116 18.3887 18.067 18.2566C18.2225 18.1247 18.3615 17.988 18.4841 17.8467V14.5818Z" fill="#FF7063"/>
<path d="M21.9899 12.2642C21.9899 12.0006 22.0252 11.7437 22.0959 11.4939C22.1666 11.2444 22.2772 11.0229 22.428 10.8296C22.5786 10.6366 22.7766 10.4811 23.0216 10.3632C23.2665 10.2455 23.5587 10.1865 23.898 10.1865C24.0581 10.1865 24.2393 10.2031 24.4421 10.236C24.6447 10.2691 24.8213 10.3091 24.9722 10.3562V11.5717H24.4068C24.1146 11.5717 23.8956 11.6518 23.7496 11.812C23.6035 11.9723 23.5305 12.1936 23.5305 12.4763V13.0558H24.9016L24.4917 14.3278H23.5306V20.1793H21.99V14.3278H21.0996V13.0558H21.99V12.2642H21.9899Z" fill="#FF7063"/>
<path d="M5.0293 19.8271V10.0039H9.89141C10.3529 10.0039 10.7629 10.0794 11.1211 10.2301C11.4791 10.3809 11.7759 10.5905 12.0115 10.8591C12.247 11.1276 12.4261 11.448 12.5486 11.8202C12.671 12.1925 12.7323 12.6046 12.7323 13.0569C12.7323 13.5092 12.6734 13.9332 12.5556 14.3289C12.4377 14.7247 12.2634 15.0663 12.0327 15.3537C11.8017 15.6411 11.5074 15.8674 11.1494 16.0321C10.7911 16.1971 10.3719 16.2794 9.89135 16.2794H6.6264V19.8271H5.0293V19.8271ZM6.62646 11.4738V14.7812H9.34026C9.9621 14.7812 10.4166 14.6423 10.7042 14.3642C10.9914 14.0864 11.1352 13.6505 11.1352 13.0568C11.1352 12.4914 10.982 12.0864 10.6759 11.8412C10.3696 11.5964 9.92435 11.4738 9.34026 11.4738H6.62646V11.4738Z" fill="white"/>
<path d="M18.4841 10.258L20.0247 9.83398V18.2013C20.0247 18.3805 20.0339 18.5406 20.0529 18.6819C20.0717 18.8232 20.0954 18.9553 20.1235 19.0777C20.1612 19.1908 20.2036 19.3109 20.2508 19.4381C20.2978 19.5653 20.359 19.6949 20.4345 19.8268H18.8091C18.7526 19.7327 18.6961 19.6055 18.6395 19.4452C18.6016 19.2755 18.5735 19.1249 18.5547 18.9929C18.2721 19.2755 17.9492 19.5137 17.5865 19.7067C17.2236 19.8997 16.8349 19.9964 16.4205 19.9964C15.9304 19.9964 15.4994 19.9163 15.1272 19.7561C14.7548 19.596 14.4417 19.3745 14.1872 19.0919C13.9329 18.8092 13.7421 18.4724 13.6148 18.0813C13.4877 17.6904 13.424 17.2685 13.424 16.8162V16.1378C13.424 14.9413 13.7396 14.0413 14.3711 13.4382C15.0022 12.8353 15.921 12.5336 17.1271 12.5336C17.5887 12.5336 18.041 12.6233 18.4841 12.8022L18.4841 10.258ZM18.4841 14.2297C18.2767 14.1074 18.0389 14.0226 17.7703 13.9753C17.5018 13.9283 17.2495 13.9047 17.0141 13.9047C16.6372 13.9047 16.3191 13.9565 16.0601 14.0601C15.8008 14.1639 15.5888 14.3099 15.4241 14.4983C15.259 14.6868 15.1414 14.913 15.0706 15.1767C15 15.4406 14.9647 15.728 14.9647 16.0389V16.5619C14.9647 16.8257 14.9834 17.0826 15.0212 17.3322C15.0587 17.5819 15.1319 17.801 15.2403 17.9893C15.3484 18.178 15.4969 18.331 15.6854 18.4487C15.8738 18.5666 16.1188 18.6254 16.4205 18.6254C16.6184 18.6254 16.8137 18.5925 17.0071 18.5264C17.2 18.4606 17.3863 18.3734 17.5654 18.265C17.7443 18.1567 17.9116 18.0366 18.067 17.9045C18.2225 17.7727 18.3615 17.636 18.4841 17.4947V14.2297Z" fill="white"/>
<path d="M21.9899 11.9117C21.9899 11.648 22.0252 11.3912 22.0959 11.1414C22.1666 10.8919 22.2772 10.6703 22.428 10.4771C22.5786 10.2841 22.7766 10.1286 23.0216 10.0107C23.2665 9.89299 23.5587 9.83398 23.898 9.83398C24.0581 9.83398 24.2393 9.85054 24.4421 9.88348C24.6447 9.91659 24.8213 9.95657 24.9722 10.0037V11.2192H24.4068C24.1146 11.2192 23.8956 11.2993 23.7496 11.4594C23.6035 11.6198 23.5305 11.841 23.5305 12.1237V12.7032H24.9016L24.4917 13.9753H23.5306V19.8268H21.99V13.9753H21.0996V12.7032H21.99V11.9117H21.9899Z" fill="white"/>
</g>
<defs>
<clipPath id="clip0_196_23469">
<rect width="30" height="30" fill="white"/>
</clipPath>
</defs>
</svg>
