<svg width="27" height="27" viewBox="0 0 27 27" fill="none" xmlns="http://www.w3.org/2000/svg">
<g clip-path="url(#clip0_301_69)">
<path d="M13.499 16.2686C15.0281 16.2686 16.2676 15.029 16.2676 13.5C16.2676 11.971 15.0281 10.7314 13.499 10.7314C11.97 10.7314 10.7305 11.971 10.7305 13.5C10.7305 15.029 11.97 16.2686 13.499 16.2686Z" />
<path d="M13.5 0.316406C6.21891 0.316406 0.316406 6.21891 0.316406 13.5C0.316406 20.7811 6.21891 26.6836 13.5 26.6836C20.7811 26.6836 26.6836 20.7811 26.6836 13.5C26.6836 6.21891 20.7811 0.316406 13.5 0.316406ZM21.6452 16.8507C21.582 18.1041 21.2298 19.3401 20.3163 20.2438C19.3941 21.1561 18.1522 21.4961 16.8868 21.5587H10.1133C8.84767 21.4961 7.60598 21.1563 6.68371 20.2438C5.77025 19.3401 5.41809 18.1041 5.35481 16.8507V10.1493C5.41809 8.89587 5.7703 7.65988 6.68371 6.75612C7.60598 5.84381 8.84783 5.50389 10.1133 5.44129H16.8867C18.1523 5.50389 19.394 5.84365 20.3163 6.75612C21.2298 7.65988 21.5819 8.89587 21.6452 10.1493L21.6452 16.8507Z" />
<path d="M16.8007 6.96802C15.1509 6.92277 11.8487 6.92277 10.1988 6.96802C9.34023 6.99159 8.36692 7.20532 7.7552 7.8587C7.11954 8.53787 6.87933 9.35841 6.85497 10.2764C6.81215 11.8875 6.85497 16.7232 6.85497 16.7232C6.88287 17.6411 7.11954 18.4617 7.7552 19.1409C8.36692 19.7945 9.34023 20.008 10.1988 20.0316C11.8487 20.0768 15.1509 20.0768 16.8007 20.0316C17.6593 20.008 18.6326 19.7943 19.2443 19.1409C19.88 18.4617 20.1202 17.6412 20.1446 16.7232V10.2764C20.1202 9.35841 19.88 8.53787 19.2443 7.8587C18.6324 7.20511 17.6591 6.99159 16.8007 6.96802ZM13.4996 17.7911C12.6508 17.7911 11.8212 17.5394 11.1155 17.0679C10.4098 16.5963 9.85974 15.9261 9.53495 15.142C9.21015 14.3579 9.12517 13.495 9.29075 12.6626C9.45633 11.8302 9.86503 11.0656 10.4652 10.4654C11.0653 9.86528 11.8299 9.45658 12.6624 9.291C13.4948 9.12542 14.3576 9.2104 15.1417 9.5352C15.9259 9.85999 16.5961 10.41 17.0676 11.1157C17.5391 11.8214 17.7908 12.6511 17.7908 13.4998C17.7908 14.6379 17.3387 15.7294 16.5339 16.5342C15.7292 17.3389 14.6377 17.7911 13.4996 17.7911ZM17.8091 10.0943C17.6393 10.0943 17.4734 10.0439 17.3323 9.94958C17.1912 9.85525 17.0812 9.72119 17.0163 9.56436C16.9514 9.40753 16.9344 9.23497 16.9675 9.0685C17.0007 8.90203 17.0824 8.74913 17.2025 8.62912C17.3225 8.50911 17.4754 8.42739 17.6419 8.39429C17.8084 8.36119 17.9809 8.3782 18.1378 8.44317C18.2946 8.50813 18.4286 8.61814 18.5229 8.75927C18.6172 8.90041 18.6675 9.06633 18.6675 9.23607C18.6675 9.34879 18.6453 9.46042 18.6022 9.56456C18.559 9.6687 18.4958 9.76332 18.4161 9.84302C18.3364 9.92272 18.2417 9.98593 18.1376 10.0291C18.0334 10.0722 17.9218 10.0943 17.8091 10.0943Z"/>
</g>
<defs>
<clipPath id="clip0_301_69">
<rect width="27" height="27" fill="white"/>
</clipPath>
</defs>
</svg>
