<svg width="72" height="16" viewBox="0 0 72 16" fill="none" xmlns="http://www.w3.org/2000/svg">
<g clip-path="url(#clip0_196_23886)">
<path d="M14.4153 0C10.2896 0 7.00775 3.46783 7.00775 7.71713C7.00775 12.0153 10.3365 15.4343 14.4153 15.4343C18.4941 15.4343 21.8228 11.9664 21.8228 7.71713C21.8697 3.46783 18.4941 0 14.4153 0ZM14.4153 10.5988C12.915 10.5988 11.6492 9.2801 11.6492 7.71713C11.6492 6.15417 12.915 4.83543 14.4153 4.83543C15.9155 4.83543 17.1814 6.15417 17.1814 7.71713C17.1814 9.2801 15.9624 10.5988 14.4153 10.5988Z" fill="#DCE0E0"/>
<path d="M7.00893 2.24658V13.4804H4.33658L0.960999 2.24658H7.00893Z" fill="#DCE0E0"/>
<path d="M69.5049 4.24854L67.864 8.449C67.8172 8.49783 67.8172 8.5955 67.8172 8.64437L67.7701 8.74204L67.7232 8.64437C67.7232 8.5955 67.6764 8.49783 67.6764 8.449L66.0355 4.24854H63.9258L66.6918 11.4284L65.5199 14.1636H67.6296L71.5209 4.24854H69.5049Z" fill="#DCE0E0"/>
<path d="M53.9386 4.63921C53.5634 4.34614 53.0947 4.15077 52.532 4.10194C51.5945 4.00424 50.7038 4.34614 50.0943 4.98111V4.19964H48.1719V11.3795H50.0943V7.61861C50.0943 6.78828 50.2348 6.54407 50.3755 6.34871C50.6099 5.95797 51.0318 5.76261 51.5477 5.76261C52.0633 5.76261 52.532 6.00681 52.7667 6.39754C52.9071 6.69061 52.9539 7.08134 52.9539 7.27671C52.9539 7.91167 52.9539 11.3795 52.9539 11.3795H54.8764V7.03251C54.8764 5.90911 54.548 5.12764 53.9386 4.63921Z" fill="#DCE0E0"/>
<path d="M44.5145 4.29761C43.577 3.95571 42.5456 4.00457 41.6078 4.44414C40.9983 4.73721 40.4359 5.22561 40.1076 5.86057C39.7793 6.39784 39.6389 7.08164 39.6389 7.81427C39.6389 8.54691 39.7793 9.23071 40.1076 9.76797C40.4359 10.3052 40.8578 10.7937 41.4202 11.0867C41.9829 11.3798 42.6392 11.5752 43.2487 11.5752C43.577 11.5752 43.905 11.5263 44.2333 11.4286C44.5145 11.3309 44.796 11.2333 45.0772 11.0867C45.6398 10.7448 46.1086 10.3052 46.3901 9.76797C46.7181 9.23071 46.8588 8.54691 46.8588 7.81427C46.9056 6.20247 46.015 4.83487 44.5145 4.29761ZM45.0772 7.91197C45.0304 8.54691 44.8428 9.08417 44.4677 9.42607C44.1865 9.67031 43.7646 9.81684 43.2487 9.86567C42.7331 9.86567 42.358 9.71914 42.0297 9.42607C41.6549 9.08417 41.4673 8.54691 41.4202 7.91197C41.3734 7.17934 41.6549 6.59321 42.1705 6.20247C42.4516 6.00711 42.8268 5.86057 43.2019 5.86057C43.6238 5.86057 43.9521 6.00711 44.2801 6.20247C44.8428 6.54437 45.124 7.17934 45.0772 7.91197Z" fill="#DCE0E0"/>
<path d="M37.4373 4.64054C37.0622 4.3475 36.5934 4.15214 36.0308 4.10327C35.9371 4.10327 35.7964 4.10327 35.7028 4.10327C34.9525 4.10327 34.2962 4.44517 33.7335 5.12897L33.6399 5.2755H33.4524C33.3116 5.0313 33.124 4.83594 32.9365 4.6894C32.5614 4.39634 32.0926 4.20097 31.5299 4.15214C30.6393 4.05444 29.936 4.3475 29.3266 5.0313V4.29867H27.4044V11.4785H29.3266V7.71764V7.61994C29.3266 6.83847 29.4203 6.6431 29.561 6.3989C29.7954 6.00814 30.2173 5.76394 30.6861 5.81277C31.1551 5.81277 31.5771 6.057 31.8114 6.44774C31.999 6.74077 31.999 7.08267 31.999 7.42457V11.4297H33.9211V7.5711C33.9211 6.83847 34.0147 6.59427 34.1555 6.35004C34.3898 5.9593 34.8118 5.76394 35.2808 5.76394C35.7496 5.76394 36.1247 6.00814 36.3591 6.3989C36.4998 6.6431 36.5466 6.93617 36.5466 7.13154C36.5466 7.2292 36.5466 7.3269 36.5466 7.37574V11.3808H38.4687V6.985C38.4687 6.59427 38.4219 6.20351 38.328 5.86161C38.1407 5.3732 37.8592 4.9336 37.4373 4.64054Z" fill="#DCE0E0"/>
<path d="M62.0977 9.23065C61.8165 9.52372 61.1599 10.061 60.2692 10.1098C59.519 10.1587 58.9566 9.91445 58.5346 9.47489C58.3471 9.27949 58.2063 8.98645 58.1127 8.69339H63.4103V8.64455C63.4574 8.35149 63.5042 8.10729 63.5042 7.81422C63.5042 7.57002 63.4574 7.22812 63.3635 6.78852C63.1291 5.95819 62.6604 5.32325 62.0509 4.83482C61.3474 4.29755 60.6911 4.15102 60.5036 4.15102C59.1441 3.90682 57.5969 4.54175 56.7998 5.86052C56.2371 6.78852 56.2842 7.71652 56.2842 8.00959C56.2842 8.35149 56.331 9.42602 57.1749 10.4029C58.1595 11.5263 59.519 11.5751 59.9409 11.624C61.8165 11.6728 63.0823 10.4517 63.3635 10.2075L62.0977 9.23065ZM58.8158 6.20242C59.097 6.00705 59.4253 5.86052 59.8473 5.86052C60.2692 5.86052 60.5975 6.00705 60.9255 6.20242C61.207 6.44662 61.4414 6.73969 61.5818 7.08159H58.2063C58.2532 6.73969 58.4875 6.39779 58.8158 6.20242Z" fill="#DCE0E0"/>
</g>
<defs>
<clipPath id="clip0_196_23886">
<rect width="70.816" height="15.4343" fill="white" transform="translate(0.960999)"/>
</clipPath>
</defs>
</svg>
