<svg width="11" height="9" viewBox="0 0 11 9" fill="none" xmlns="http://www.w3.org/2000/svg">
<path d="M8.71364 0.614675C8.88645 0.449272 9.11641 0.357831 9.35499 0.359646C9.59358 0.361461 9.82213 0.45639 9.99243 0.624403C10.1627 0.792417 10.2614 1.02037 10.2677 1.26017C10.2741 1.49996 10.1875 1.73285 10.0262 1.90967L5.13164 8.06398C5.04747 8.15512 4.94589 8.22827 4.83297 8.27903C4.72005 8.3298 4.5981 8.35716 4.47442 8.35946C4.35075 8.36176 4.22788 8.33897 4.11316 8.29244C3.99845 8.24591 3.89424 8.1766 3.80678 8.08865L0.560894 4.82526C0.470501 4.74058 0.397999 4.63846 0.347714 4.52499C0.297428 4.41153 0.270389 4.28904 0.26821 4.16484C0.26603 4.04064 0.288755 3.91727 0.335028 3.80209C0.381301 3.68692 0.450174 3.58229 0.537539 3.49445C0.624904 3.40662 0.728971 3.33737 0.843532 3.29085C0.958093 3.24433 1.0808 3.22148 1.20433 3.22367C1.32787 3.22586 1.4497 3.25305 1.56255 3.3036C1.67541 3.35416 1.77698 3.42705 1.86121 3.51793L4.42995 6.09929L8.69034 0.641809C8.69801 0.632313 8.7062 0.623254 8.71487 0.614675H8.71364Z" fill="black"/>
</svg>
