<svg width="38" height="34" viewBox="0 0 38 34" fill="none" xmlns="http://www.w3.org/2000/svg">
<g filter="url(#filter0_d_0_398)">
<path d="M32.6001 16.7C32.6001 16.6 32.5001 16.5 32.4001 16.4L28.8001 12.8C28.4001 12.4 27.9001 12.4 27.5001 12.8C27.1001 13.2 27.1001 13.7 27.5001 14.1L29.6001 16.2H17.5001C17.0001 16.2 16.6001 16.6 16.6001 17.1C16.6001 17.6 17.0001 18 17.5001 18H29.6001L27.5001 20C27.1001 20.4 27.1001 20.9 27.5001 21.3C27.7001 21.5 27.9001 21.6 28.2001 21.6C28.4001 21.6 28.7001 21.5 28.9001 21.3L32.5001 17.7C32.6001 17.6 32.7001 17.5 32.7001 17.4C32.7001 17.1 32.7001 16.9 32.6001 16.7Z" fill="white"/>
</g>
<g filter="url(#filter1_d_0_398)">
<path d="M17 29C20.7 29 24.2 27.3 26.5 24.3C26.8 23.9 26.7 23.3 26.3 23C25.9 22.7 25.3 22.8 25 23.2C23.1 25.7 20.1 27.2 17 27.2C11.4 27.2 6.8 22.6 6.8 17C6.8 11.4 11.4 6.8 17 6.8C20.2 6.8 23.1 8.2 25 10.8C25.3 11.2 25.9 11.3 26.3 11C26.7 10.7 26.8 10.1 26.5 9.7C24.2 6.7 20.7 5 17 5C10.4 5 5 10.4 5 17C5 23.6 10.4 29 17 29Z" fill="white"/>
</g>
<defs>
<filter id="filter0_d_0_398" x="11.6001" y="7.5" width="26.1" height="19.1001" filterUnits="userSpaceOnUse" color-interpolation-filters="sRGB">
<feFlood flood-opacity="0" result="BackgroundImageFix"/>
<feColorMatrix in="SourceAlpha" type="matrix" values="0 0 0 0 0 0 0 0 0 0 0 0 0 0 0 0 0 0 127 0" result="hardAlpha"/>
<feOffset/>
<feGaussianBlur stdDeviation="2.5"/>
<feComposite in2="hardAlpha" operator="out"/>
<feColorMatrix type="matrix" values="0 0 0 0 0.780392 0 0 0 0 0.223529 0 0 0 0 1 0 0 0 1 0"/>
<feBlend mode="normal" in2="BackgroundImageFix" result="effect1_dropShadow_0_398"/>
<feBlend mode="normal" in="SourceGraphic" in2="effect1_dropShadow_0_398" result="shape"/>
</filter>
<filter id="filter1_d_0_398" x="0" y="0" width="31.6744" height="34" filterUnits="userSpaceOnUse" color-interpolation-filters="sRGB">
<feFlood flood-opacity="0" result="BackgroundImageFix"/>
<feColorMatrix in="SourceAlpha" type="matrix" values="0 0 0 0 0 0 0 0 0 0 0 0 0 0 0 0 0 0 127 0" result="hardAlpha"/>
<feOffset/>
<feGaussianBlur stdDeviation="2.5"/>
<feComposite in2="hardAlpha" operator="out"/>
<feColorMatrix type="matrix" values="0 0 0 0 0.780392 0 0 0 0 0.223529 0 0 0 0 1 0 0 0 1 0"/>
<feBlend mode="normal" in2="BackgroundImageFix" result="effect1_dropShadow_0_398"/>
<feBlend mode="normal" in="SourceGraphic" in2="effect1_dropShadow_0_398" result="shape"/>
</filter>
</defs>
</svg>
