<svg width="8" height="16" viewBox="0 0 8 16" fill="none" xmlns="http://www.w3.org/2000/svg">
<path d="M7.7132 15.2951C7.89684 15.0836 8 14.7968 8 14.4978C8 14.1988 7.89684 13.912 7.7132 13.7005L2.86443 8.11844L7.7132 2.53636C7.89163 2.32367 7.99037 2.03881 7.98814 1.74314C7.9859 1.44746 7.88289 1.16462 7.70127 0.955537C7.51965 0.746454 7.27397 0.627857 7.01713 0.625288C6.7603 0.622718 6.51286 0.736383 6.32812 0.941802L0.786799 7.32116C0.603162 7.53263 0.5 7.81941 0.5 8.11844C0.5 8.41746 0.603162 8.70424 0.786799 8.91571L6.32812 15.2951C6.51181 15.5065 6.76092 15.6252 7.02066 15.6252C7.2804 15.6252 7.52951 15.5065 7.7132 15.2951Z" fill="black"/>
</svg>
