<svg width="11" height="12" viewBox="0 0 11 12" fill="none" xmlns="http://www.w3.org/2000/svg">
<path d="M1.61098 1.53151C2.64242 0.550899 4.04136 0 5.50004 0C6.95872 0 8.35766 0.550899 9.3891 1.53151C10.4205 2.51211 11 3.8421 11 5.22889C11 6.61568 10.4205 7.94567 9.3891 8.92627L8.63933 9.63128C8.08664 10.1465 7.36972 10.8095 6.48794 11.6202C6.22292 11.8638 5.86869 12 5.50004 12C5.13139 12 4.77717 11.8638 4.51214 11.6202L2.30706 9.58084C2.02977 9.32201 1.79795 9.10403 1.61098 8.92627C1.10024 8.44074 0.695096 7.86431 0.418682 7.22991C0.142269 6.59551 0 5.91556 0 5.22889C0 4.54222 0.142269 3.86226 0.418682 3.22787C0.695096 2.59347 1.10024 2.01704 1.61098 1.53151ZM8.71892 2.16805C7.86505 1.35643 6.70703 0.900527 5.49959 0.900639C4.29216 0.900752 3.13423 1.35687 2.28053 2.16865C1.42683 2.98044 0.947293 4.08139 0.947411 5.22931C0.94753 6.37724 1.42729 7.4781 2.28116 8.28972L3.21979 9.17128C3.86816 9.77356 4.51834 10.3741 5.17032 10.9728C5.25867 11.0541 5.37679 11.0995 5.49972 11.0995C5.62266 11.0995 5.74078 11.0541 5.82913 10.9728L7.97294 8.99113C8.26982 8.71429 8.51806 8.48069 8.71829 8.28972C9.57196 7.47809 10.0515 6.37729 10.0515 5.22949C10.0515 4.08169 9.57196 2.98089 8.71829 2.16926L8.71892 2.16805ZM5.50004 3.59188C5.74905 3.59188 5.99563 3.63851 6.22569 3.72911C6.45575 3.8197 6.66478 3.95249 6.84086 4.11989C7.01694 4.28729 7.15661 4.48603 7.25191 4.70475C7.3472 4.92347 7.39625 5.15789 7.39625 5.39463C7.39625 5.63137 7.3472 5.8658 7.25191 6.08452C7.15661 6.30324 7.01694 6.50197 6.84086 6.66937C6.66478 6.83677 6.45575 6.96956 6.22569 7.06016C5.99563 7.15075 5.74905 7.19738 5.50004 7.19738C5.00321 7.18876 4.52979 6.99507 4.18165 6.65798C3.8335 6.3209 3.63844 5.86735 3.63844 5.39493C3.63844 4.92251 3.8335 4.46897 4.18165 4.13188C4.52979 3.79479 5.00321 3.6011 5.50004 3.59248V3.59188ZM5.50004 4.49266C5.37545 4.49266 5.25208 4.51599 5.13697 4.56131C5.02187 4.60664 4.91728 4.67308 4.82918 4.75684C4.74108 4.84059 4.6712 4.94003 4.62352 5.04946C4.57584 5.15889 4.5513 5.27618 4.5513 5.39463C4.5513 5.51308 4.57584 5.63037 4.62352 5.7398C4.6712 5.84924 4.74108 5.94867 4.82918 6.03243C4.91728 6.11618 5.02187 6.18262 5.13697 6.22795C5.25208 6.27328 5.37545 6.29661 5.50004 6.29661C5.75158 6.29661 5.99281 6.20161 6.17067 6.03251C6.34854 5.86342 6.44846 5.63407 6.44846 5.39493C6.44846 5.15579 6.34854 4.92645 6.17067 4.75735C5.99281 4.58825 5.75158 4.49326 5.50004 4.49326V4.49266Z" fill="black"/>
</svg>
