<svg width="252" height="38" viewBox="0 0 252 38" fill="none" xmlns="http://www.w3.org/2000/svg">
<path fill-rule="evenodd" clip-rule="evenodd" d="M90.0805 6.61275C88.7806 6.82248 86.6694 7.46183 85.3886 8.03365C84.1078 8.60504 82.3356 9.63137 81.451 10.3142C80.5664 10.9974 79.3293 12.4749 78.7024 13.5978C78.075 14.7208 77.4302 16.608 77.2692 17.7913C77.0687 19.2658 77.1934 20.6702 77.6654 22.2528C78.0901 23.6775 79.0042 25.2824 80.049 26.4395C80.9812 27.4713 82.7067 28.8268 83.8835 29.451C85.0604 30.0755 87.273 30.8731 88.8006 31.2242C90.3277 31.5749 92.7854 31.8648 94.2623 31.8682C95.7388 31.8716 97.9795 31.6627 99.2417 31.4036C100.503 31.1445 102.531 30.4629 103.746 29.8881C104.961 29.3138 106.776 28.068 107.778 27.1198L109.601 25.3955L107.11 24.0197L104.619 22.6435L103.1 23.9438C102.264 24.6591 100.705 25.6212 99.6361 26.0825C98.5671 26.5433 96.4969 27.0139 95.0365 27.1282C93.2461 27.2683 91.5509 27.1008 89.8337 26.6142C88.0892 26.12 86.7828 25.4022 85.6895 24.3366C84.8114 23.4808 83.8523 21.9966 83.5575 21.0382C83.2609 20.0731 83.1483 18.6395 83.3051 17.8251C83.4609 17.0165 84.0221 15.7163 84.5521 14.936C85.108 14.1181 86.5118 13.0256 87.8666 12.3567C89.8254 11.3899 90.7728 11.1962 93.5492 11.1962C95.4071 11.1962 97.6968 11.4768 98.726 11.8304C99.7405 12.1794 101.482 13.1032 102.596 13.8835L104.622 15.3019L106.976 14.4583C108.271 13.9945 109.415 13.5417 109.52 13.4518C109.623 13.3619 108.844 12.4267 107.788 11.3734C106.731 10.3205 104.693 8.91142 103.26 8.24212C101.826 7.57324 99.3906 6.82628 97.8474 6.58236C96.3038 6.33802 94.4567 6.15909 93.7423 6.18441C93.0278 6.21015 91.3799 6.40259 90.0805 6.61275ZM222.557 8.45312V10.7742H237.278H252V8.45312V6.13208H237.278H222.557V8.45312ZM0 19.0033V31.0305H3.03093H6.06186V19.0033V6.9761H3.03093H0V19.0033ZM8.65979 9.24481V11.6182H13.653C17.1806 11.6182 19.1174 11.8098 20.2501 12.2714C21.1325 12.6306 22.3137 13.3425 22.8753 13.854C23.4373 14.365 24.1704 15.296 24.5051 15.9227C24.8398 16.5498 25.1134 18.0462 25.1134 19.2489C25.1134 20.7297 24.8216 21.8957 24.2098 22.8609C23.7127 23.6445 22.4254 24.789 21.349 25.4035C19.5924 26.407 18.8433 26.5421 14.0258 26.7231L8.65979 26.9244V28.9775V31.0305H14.6428C18.7454 31.0305 21.3256 30.828 22.8506 30.3865C24.0742 30.0325 25.9075 29.1239 26.925 28.3677C27.9426 27.611 29.3641 26.0643 30.0837 24.93C31.2748 23.052 31.3913 22.5435 31.3866 19.2472C31.3822 16.3539 31.1943 15.2884 30.4504 13.9392C29.9382 13.0108 28.8687 11.6443 28.0742 10.9025C27.2792 10.1606 25.4598 9.03127 24.0309 8.39277C21.6568 7.33185 20.8822 7.21622 15.0464 7.05163L8.65979 6.87144V9.24481ZM113.876 19.0033V31.0305H116.907H119.938L119.939 27.549L119.939 24.0674L128.878 17.9483C133.794 14.5828 139.377 10.7374 141.285 9.40264L144.752 6.9761H140.568H136.385L132.6 9.62968C130.518 11.089 126.928 13.5577 124.623 15.1158C122.318 16.6734 120.321 17.9483 120.185 17.9483C120.049 17.9483 119.938 15.4795 119.938 12.4622V6.9761H116.907H113.876V19.0033ZM164.969 7.25673C164.969 7.41118 166.622 10.6395 168.642 14.4309L172.314 21.3244H167.126C164.186 21.3244 161.938 21.153 161.938 20.9285C161.938 20.7112 162.701 19.1628 163.633 17.4879L165.328 14.4431L163.974 11.7646C163.228 10.2914 162.503 9.08613 162.362 9.08613C162.22 9.08613 160.531 11.9824 158.608 15.5217C156.685 19.0615 154 23.9986 152.642 26.4939L150.173 31.0305H153.212H156.251L157.679 28.4985L159.107 25.9664H166.992H174.877L176.262 28.4985L177.647 31.0305H180.617C182.251 31.0305 183.588 30.9427 183.588 30.8356C183.588 30.7288 181.133 26.1234 178.132 20.6019C175.132 15.0807 172.201 9.75586 171.619 8.76963L170.562 6.9761H167.765C166.227 6.9761 164.969 7.10228 164.969 7.25673ZM187.918 19.0033V31.0305H190.948H193.979V19.0033V6.9761H190.948H187.918V19.0033ZM196.577 9.2676V11.5587L203.328 11.6941C209.819 11.8241 210.11 11.8676 210.905 12.8255C211.36 13.3733 211.732 14.284 211.732 14.8491C211.732 15.4141 211.254 16.3426 210.669 16.9123C209.635 17.9204 209.431 17.9483 203.092 17.9483H196.577V20.2693V22.5904L201.015 22.6056L205.454 22.6203L208.399 26.8256L211.344 31.0305H214.81H218.275L215.246 26.7049L212.217 22.3794L213.382 21.8016C214.022 21.4839 215.075 20.7432 215.721 20.1554C216.465 19.4785 217.076 18.2981 217.389 16.9329C217.767 15.2888 217.76 14.3296 217.361 12.8821C217.024 11.6612 216.254 10.4433 215.2 9.46467C214.199 8.53626 212.793 7.75554 211.589 7.46014C210.504 7.19385 206.683 6.9761 203.097 6.9761H196.577V9.2676ZM234.247 21.9574V30.6085H237.278H240.309V21.9574V13.3062H237.278H234.247V21.9574ZM130.655 19.9085C129.523 20.7314 128.598 21.5328 128.598 21.6885C128.598 21.8443 130.692 23.9986 133.253 26.4762L137.907 30.9807L141.697 31.1111C143.781 31.1829 145.486 31.144 145.485 31.025C145.485 30.9065 142.611 28.0195 139.098 24.6101L132.711 18.4117L130.655 19.9085Z" fill="#0042A4"/>
<path d="M42.4227 13.9379L48.9278 7.34783C52.5061 3.72338 55.5316 0.763368 55.6519 0.770276C55.7723 0.777184 56.5095 1.37083 57.2906 2.08924L58.7107 3.39525L57.0554 5.20683C56.1449 6.20286 53.1668 9.26994 50.438 12.0223L45.4759 17.0266L43.9495 15.4822L42.4227 13.9379Z" fill="#82746A"/>
<path d="M49.4332 21.0292L56.0668 14.3511C59.7151 10.6783 62.7961 7.67121 62.9134 7.66948C63.0308 7.66732 63.6741 8.3594 64.3434 9.20777L65.5595 10.7495L62.5873 13.8485C60.9529 15.5535 57.9962 18.5459 56.0173 20.4991L52.4198 24.0497L50.9267 22.5395L49.4332 21.0292Z" fill="#82746A"/>
<path d="M56.3669 28.0135L62.9485 21.3232C66.5681 17.644 69.6359 14.6201 69.7661 14.6032C69.8958 14.5868 70.6586 15.2582 71.4611 16.0953L72.9192 17.6176L66.2117 24.402L59.5042 31.1863L57.9356 29.6001L56.3669 28.0135Z" fill="#82746A"/>
<path d="M36.4596 19.9892L38.4508 17.9445L40.4416 15.8997L48.9496 24.5743L57.4571 33.2492L55.4893 35.2395L53.5211 37.2298L44.9906 28.6093L36.4596 19.9892Z" fill="#82746A"/>
</svg>
