<svg width="134" height="26" viewBox="0 0 134 26" fill="none" xmlns="http://www.w3.org/2000/svg">
<g clip-path="url(#clip0_24_42)">
<path d="M52.2488 13.2622C50.5222 13.2622 49.4712 14.536 49.4712 16.3343C49.4712 18.1326 50.5972 19.4063 52.2488 19.4063C53.9003 19.4063 54.9513 18.1326 54.9513 16.3343C54.9513 14.4611 53.9003 13.2622 52.2488 13.2622ZM54.9513 20.2305C54.1255 21.1297 52.9244 21.7291 51.4981 21.7291C48.6454 21.7291 46.5435 19.4813 46.5435 16.3343C46.5435 13.1873 48.6454 10.8646 51.4981 10.8646C52.9244 10.8646 54.1255 11.464 54.9513 12.3631V11.0893H57.9541V26H54.9513V20.2305Z" fill="#0A244A"/>
<path d="M70.6408 21.5043H67.7131V20.1556C66.9624 21.1297 65.8363 21.7291 64.5601 21.7291C62.0828 21.7291 60.8066 20.3804 60.8066 17.3833V11.0893H63.7344V16.634C63.7344 18.0576 64.4851 18.9568 65.6111 18.9568C66.8122 18.9568 67.7131 18.0576 67.7131 15.7349V11.0893H70.6408V21.5043Z" fill="#0A244A"/>
<path d="M73.4937 14.8357H76.4965V21.5792H73.4937V14.8357ZM73.4937 11.1643H76.4965V13.4121H73.4937V11.1643Z" fill="#0A244A"/>
<path d="M86.9312 15.0605C86.706 13.9366 85.8802 13.2622 84.5289 13.2622C82.8774 13.2622 81.9015 14.536 81.9015 16.3343C81.9015 18.1326 82.9525 19.4063 84.5289 19.4063C85.9553 19.4063 86.8561 18.5821 87.0062 17.3084H89.8589C89.6337 20.0058 87.5317 21.804 84.4539 21.804C81.1508 21.804 78.8987 19.5562 78.8987 16.4092C78.8987 13.2622 81.1508 10.9395 84.4539 10.9395C87.3816 10.9395 89.4085 12.5879 89.7838 15.0605H86.9312Z" fill="#0A244A"/>
<path d="M102.546 21.5043H99.3928L97.2157 17.2334L95.339 19.3314V21.5043H92.3362V7.49279H95.339V15.585L99.0174 11.1643H102.396L99.0925 14.9856L102.546 21.5043Z" fill="#0A244A"/>
<path d="M132.799 18.5821C132.799 19.781 131.823 20.755 130.622 20.755C129.421 20.755 128.445 19.781 128.445 18.5821V12.3631H132.649V11.1643H128.445V7.49279H127.244V18.5821C127.244 20.4553 128.745 21.9539 130.622 21.9539C132.499 21.9539 134 20.4553 134 18.5821H132.799Z" fill="#0A244A"/>
<path d="M109.077 10.7896C107.951 10.7896 106.975 11.2392 106.224 11.9885V11.2392H105.023V14.9856V15.9597V21.5793H106.224V15.9597V14.9856C106.224 13.3372 107.575 12.0634 109.077 12.0634C110.578 12.0634 111.929 13.2622 111.929 14.9856V21.5793H113.131V14.9856C113.131 12.5879 111.179 10.7896 109.077 10.7896Z" fill="#0A244A"/>
<path d="M120.187 12.0634C122.214 12.0634 123.866 13.562 124.241 15.5101H116.058C116.509 13.562 118.16 12.0634 120.187 12.0634ZM125.517 16.7089C125.517 16.634 125.517 16.4841 125.517 16.4092C125.517 13.3372 123.115 10.8646 120.112 10.8646C117.184 10.8646 114.707 13.3372 114.707 16.4092C114.707 19.4813 117.109 21.9539 120.112 21.9539C122.589 21.9539 124.616 20.2305 125.292 17.9078H124.016C123.415 19.5562 121.914 20.755 120.112 20.755C117.935 20.755 116.133 18.9568 115.983 16.7089H125.517Z" fill="#0A244A"/>
<path d="M38.3608 0.37464H32.7305V11.464L24.5479 0.37464H19.4431V21.5043H25.0734V10.0403L33.4812 21.5043H38.2857V0.37464H38.3608ZM37.2347 1.49856V19.9308C37.2347 20.1556 37.0095 20.3804 36.7843 20.3804H34.0818L26.0493 9.36599L24.7731 7.64265C24.5479 7.34294 24.0224 7.49279 24.0224 7.86743V10.0403V20.3804H20.6442V1.94813C20.5692 1.72334 20.7944 1.49856 21.0196 1.49856H23.9473L31.7546 12.1383L33.0308 13.8617C33.256 14.1614 33.7815 14.0115 33.7815 13.6369V11.464V1.49856H37.2347Z" fill="#0A244A"/>
<path d="M22.2958 10.9395C22.2958 17.0086 17.2661 21.879 11.1104 21.879C5.02969 21.9539 0 17.0086 0 10.9395C0 4.87032 5.02969 0 11.1854 0C17.3412 0 22.2958 4.87032 22.2958 10.9395Z" fill="#A63DF5"/>
<path d="M17.7915 13.7867H11.6357L18.8425 21.3545C18.9175 21.4294 19.0677 21.5043 19.1427 21.5043H25.1483L17.7915 13.7867Z" fill="#0A244A"/>
</g>
<defs>
<clipPath id="clip0_24_42">
<rect width="134" height="26" fill="white"/>
</clipPath>
</defs>
</svg>
