<svg width="140" height="75" viewBox="0 0 140 75" fill="none" xmlns="http://www.w3.org/2000/svg">
<path d="M9.2 54.5C6.5 54.5 4.7 56.5 4.7 59.4C4.7 62.3 6.5 64.3 9.2 64.3C11.9 64.3 13.5 62.3 13.5 59.4C13.5 56.5 11.8 54.5 9.2 54.5ZM13.5 65.7C12.1 67.2 10.2 68.2 7.9 68.2C3.3 68.2 0 64.6 0 59.5C0 54.4 3.3 50.7 7.9 50.7C10.2 50.7 12.1 51.7 13.5 53.2V51.2H18.3V75H13.5V65.7Z" fill="#0A244A"/>
<path d="M38.6 67.7H33.9V65.5C32.6 67.1 30.9 68.1 28.8 68.1C24.8 68.1 22.8 66 22.8 61.1V51.1H27.5V60C27.5 62.3 28.7 63.7 30.5 63.7C32.4 63.7 33.9 62.2 33.9 58.5V51H38.6V67.7Z" fill="#0A244A"/>
<path d="M43.2 57H48V67.8H43.2V57ZM43.2 51.1H48V54.7H43.2V51.1Z" fill="#0A244A"/>
<path d="M64.6 57.3C64.3 55.5 62.9 54.5 60.8 54.5C58.2 54.5 56.5 56.5 56.5 59.4C56.5 62.3 58.2 64.3 60.8 64.3C63.1 64.3 64.6 63 64.8 60.9H69.4C69.1 65.2 65.6 68.1 60.7 68.1C55.5 68.1 51.8 64.5 51.8 59.4C51.8 54.3 55.5 50.6 60.7 50.6C65.3 50.6 68.6 53.2 69.2 57.2H64.6V57.3Z" fill="#0A244A"/>
<path d="M89.7 67.7H84.6L81.1 60.8L78.1 64.3V67.7H73.3V45.2H78.1V58.2L84 51.1H89.4L84.2 57.2L89.7 67.7Z" fill="#0A244A"/>
<path d="M138.1 63C138.1 64.9 136.5 66.5 134.6 66.5C132.7 66.5 131.1 64.9 131.1 63V53H137.9V51.1H131.1V45.2H129.2V63C129.2 66 131.6 68.4 134.6 68.4C137.6 68.4 140 66 140 63H138.1Z" fill="#0A244A"/>
<path d="M100.1 50.6C98.3 50.6 96.7 51.3 95.5 52.5V51.3H93.6V57.2V58.7V67.7H95.5V58.7V57.2C95.5 54.5 97.7 52.5 100.1 52.5C102.5 52.5 104.7 54.4 104.7 57.2V67.7H106.6V57.2C106.6 53.4 103.5 50.6 100.1 50.6Z" fill="#0A244A"/>
<path d="M117.9 52.5C121.1 52.5 123.8 54.9 124.4 58H111.4C112 54.9 114.7 52.5 117.9 52.5ZM126.5 60C126.5 59.8 126.5 59.7 126.5 59.5C126.5 54.6 122.6 50.6 117.9 50.6C113.2 50.6 109.3 54.6 109.3 59.5C109.3 64.4 113.2 68.4 117.9 68.4C121.8 68.4 125.1 65.6 126.2 61.9H124.2C123.3 64.6 120.8 66.5 118 66.5C114.5 66.5 111.6 63.6 111.4 60H126.5Z" fill="#0A244A"/>
<path d="M100.7 0.700001H91V19.7L77.1 0.700001H68.4V37H78.1V17.3L92.5 37H100.7V0.700001ZM98.8 2.6V34.3C98.8 34.7 98.5 35 98.1 35H93.5L79.6 16.1L77.4 13.1C77 12.5 76.1 12.8 76.1 13.5V17.2V35H70.3V3.3C70.3 2.9 70.6 2.6 71 2.6H76.1L89.5 20.8L91.7 23.8C92.1 24.4 93 24.1 93 23.4V19.7V2.6H98.8Z" fill="#0A244A"/>
<path d="M73.3 18.8C73.3 29.2 64.7 37.6 54.2 37.6C43.7 37.6 35 29.2 35 18.8C35 8.4 43.6 0 54.2 0C64.8 0 73.3 8.4 73.3 18.8Z" fill="#A63DF5"/>
<path d="M65.6 23.7H55L67.3 36.7C67.4 36.8 67.6 36.9 67.8 36.9H78L65.6 23.7Z" fill="#0A244A"/>
</svg>
