<svg width="277" height="50" viewBox="0 0 277 50" fill="none" xmlns="http://www.w3.org/2000/svg">
<path d="M261.926 38.6547V16.2328L266.613 11.5459H276.999V38.6547H271.749V32.1306H267.175V38.6547H261.926ZM267.175 17.6576V27.7812H271.749V16.2328H268.625L267.175 17.6576Z" fill="#584C3B"/>
<path d="M227.09 38.6547V16.2328L231.777 11.5459H242.163V38.6547H236.914V32.1306H232.339V38.6547H227.09ZM232.339 17.6576V27.7812H236.914V16.2328H233.789L232.339 17.6576Z" fill="#584C3B"/>
<path d="M215.718 38.6547H210.469V11.5459H220.442L224.679 15.2204V25.6815L220.442 29.3934H215.718V38.6547ZM215.718 24.8192H219.43V16.3078H215.718V24.8192Z" fill="#584C3B"/>
<path d="M198.995 38.6547H193.746V11.5459H203.72L207.957 15.2204V25.6815L203.72 29.3934H198.995V38.6547ZM198.995 24.8192H202.707V16.3078H198.995V24.8192Z" fill="#584C3B"/>
<path d="M126.41 38.6547V16.2328L131.097 11.5459H141.483V38.6547H136.234V32.1306H131.659V38.6547H126.41ZM131.659 17.6576V27.7812H136.234V16.2328H133.109L131.659 17.6576Z" fill="#584C3B"/>
<path d="M83.6016 38.6547V16.2328L88.2885 11.5459H98.6745V38.6547H93.4252V32.1306H88.8508V38.6547H83.6016ZM88.8508 17.6576V27.7812H93.4252V16.2328H90.3007L88.8508 17.6576Z" fill="#584C3B"/>
<path d="M77.3336 38.6547H66.5352V11.5459H77.0338L80.7458 15.0704V22.0819L78.271 24.4067L81.1582 26.8813V34.9427L77.3336 38.6547ZM71.7844 22.7194H75.9088V16.3078H71.7844V22.7194ZM71.7844 26.8813V33.8928H75.9088V26.8813H71.7844Z" fill="#584C3B"/>
<path d="M33.4804 27.5163L40.3856 34.4239V34.4149L49.4152 43.4476V49.8079H0V0.392578H6.37507L15.4016 9.42231H15.3925L22.2915 16.3237V27.5163H33.4804ZM24.6481 31.4165L15.2896 40.7782H34.0064L24.6481 31.4165ZM9.02966 34.3047L18.2824 25.0488L9.02966 15.7929V34.3047Z" fill="#584C3B"/>
<path d="M49.4139 39.91L40.3843 30.8772V15.6736L31.053 25.0083H24.7983V18.5294L33.9023 9.42231H18.9367L9.91016 0.392578H49.4139V39.91Z" fill="#F56308"/>
<path d="M249.4 11.5459H254.724L259.449 16.3078V20.2448H254.199V16.3078H249.925V33.8928H254.199V29.8433H259.449V33.8928L254.724 38.6547H249.4L244.676 33.8928V16.3078L249.4 11.5459Z" fill="#584C3B"/>
<path d="M191.275 38.6547H179.727V11.5459H191.275V16.3078H184.976V22.4194H190.225V26.7688H184.976V33.8928H191.275V38.6547Z" fill="#584C3B"/>
<path d="M173.197 38.6547H167.948V16.3078H163.898V11.5459H177.209V16.3078H173.197V38.6547Z" fill="#584C3B"/>
<path d="M101.18 11.5459H106.429V34.3052H110.178V17.6576H114.715V34.3052H118.54V11.5459H123.789V38.6547H101.18V11.5459Z" fill="#584C3B"/>
<path d="M154.715 19.9321L149.547 25.1001L154.715 30.2681L159.883 25.1001L154.715 19.9321Z" fill="#F56308"/>
</svg>
