<svg width="38" height="30" viewBox="0 0 38 30" fill="none" xmlns="http://www.w3.org/2000/svg">
<g clip-path="url(#clip0_315_3308)">
<path fill-rule="evenodd" clip-rule="evenodd" d="M13.4824 23.3409H23.2179V5.85059H13.4824V23.3409Z" fill="#E9E9E9"/>
<path fill-rule="evenodd" clip-rule="evenodd" d="M14.0989 14.5946C14.0972 12.9099 14.4789 11.247 15.2151 9.73161C15.9513 8.21627 17.0226 6.88831 18.348 5.84829C16.3895 4.3043 13.9673 3.46625 11.4733 3.46974C5.32913 3.46974 0.349609 8.4516 0.349609 14.5946C0.349609 20.7377 5.32913 25.7207 11.4733 25.7207C13.9679 25.7246 16.3907 24.8861 18.3492 23.341C17.0237 22.301 15.9523 20.9731 15.2162 19.4577C14.48 17.9424 14.0983 16.2794 14.1001 14.5946H14.0989Z" fill="#DADADA"/>
<path fill-rule="evenodd" clip-rule="evenodd" d="M36.3519 14.5942C36.3519 20.7384 31.3712 25.7202 25.2282 25.7202C22.7339 25.7243 20.3114 24.8857 18.3535 23.3405C19.6786 22.3003 20.7498 20.9722 21.4859 19.457C22.2221 17.9417 22.6039 16.2788 22.6026 14.5942C22.6039 12.9095 22.2221 11.2466 21.4859 9.73136C20.7498 8.21607 19.6786 6.88806 18.3535 5.84781C20.3118 4.30341 22.7341 3.46531 25.2282 3.46925C31.3712 3.46925 36.3519 8.44994 36.3519 14.5942Z" fill="#E2E4E8"/>
</g>
<defs>
<clipPath id="clip0_315_3308">
<rect width="37.4576" height="29.2637" fill="white" transform="translate(0.349609)"/>
</clipPath>
</defs>
</svg>
