<svg width="50" height="50" viewBox="0 0 50 50" fill="none" xmlns="http://www.w3.org/2000/svg">
<g clip-path="url(#clip0_1_1497)">
<path fill-rule="evenodd" clip-rule="evenodd" d="M14.6767 11.2102C7.07372 11.2102 0.88779 17.3963 0.88779 24.9999C0.887906 28.8245 2.42173 32.3804 5.20782 35.0122C7.8043 37.4645 11.137 38.7895 14.6664 38.7896C14.9345 38.7895 15.2039 38.782 15.4743 38.7665C15.4825 38.7661 15.4906 38.7658 15.4998 38.7658H28.3651V23.3215C27.5272 16.4152 21.6476 11.2103 14.6767 11.2102V11.2102ZM14.6641 39.6774C10.9082 39.6774 7.3615 38.2677 4.59859 35.6576C1.63233 32.8561 0 29.0713 0 24.9999C0 16.9066 6.5834 10.3225 14.6767 10.3225C22.1054 10.3225 28.3697 15.8767 29.2494 23.2422C29.2519 23.2595 29.253 23.2772 29.253 23.2947V39.2097C29.253 39.4548 29.0542 39.6536 28.8091 39.6536L15.5115 39.6535C15.2282 39.6695 14.9461 39.6774 14.6641 39.6774V39.6774Z" fill="black"/>
<path fill-rule="evenodd" clip-rule="evenodd" d="M14.626 18.2061C10.8804 18.2061 7.8331 21.2537 7.8331 24.9996C7.8331 28.7454 10.8803 31.793 14.6258 31.793C18.3726 31.7929 21.4197 28.7454 21.4197 24.9996C21.4199 21.2536 18.3725 18.2061 14.626 18.2061V18.2061ZM14.626 32.6807C10.3902 32.6807 6.94519 29.235 6.94519 24.9996C6.94531 20.7641 10.3902 17.3184 14.6258 17.3184C18.8616 17.3184 22.3075 20.7641 22.3075 24.9996C22.3076 29.235 18.8614 32.6807 14.626 32.6807V32.6807Z" fill="black"/>
<path fill-rule="evenodd" clip-rule="evenodd" d="M30.6623 39.6534H28.8092C28.564 39.6534 28.3651 39.4548 28.3651 39.2096C28.3651 38.9645 28.564 38.7657 28.8091 38.7657H30.6623C31.1501 38.7657 31.5465 38.3691 31.5465 37.8816L31.5466 34.0915C31.5466 33.6039 31.1501 33.2074 30.6622 33.2074H28.8092C28.564 33.2074 28.3651 33.0086 28.3651 32.7635C28.3651 32.5182 28.564 32.3196 28.8091 32.3196H30.6623C31.6403 32.3196 32.4344 33.1144 32.4344 34.0916V37.8816C32.4344 38.8586 31.6401 39.6535 30.6623 39.6534V39.6534Z" fill="black"/>
<path fill-rule="evenodd" clip-rule="evenodd" d="M32.4344 37.3505H49.1076V34.3549H32.4344V37.3505ZM49.5516 38.2383H31.9905C31.7455 38.2383 31.5465 38.0394 31.5465 37.7945L31.5466 33.9109C31.5466 33.6658 31.7454 33.467 31.9905 33.467H49.5516C49.7967 33.467 49.9954 33.6658 49.9954 33.911V37.7943C49.9954 38.0393 49.7966 38.2383 49.5516 38.2383V38.2383Z" fill="black"/>
<path fill-rule="evenodd" clip-rule="evenodd" d="M49.5516 34.3597C49.3042 34.3597 49.103 34.159 49.103 33.9112V31.3737C49.103 31.126 49.3042 30.9253 49.5516 30.9253C49.7989 30.9252 50 31.1261 50 31.3739L50.0002 33.911C50.0002 34.1589 49.7989 34.3598 49.5516 34.3597V34.3597Z" fill="black"/>
<path fill-rule="evenodd" clip-rule="evenodd" d="M34.4551 35.7286C34.2101 35.7286 34.0111 35.5297 34.0111 35.2846L34.0112 33.9109C34.0112 33.6658 34.21 33.467 34.4551 33.467C34.7002 33.467 34.899 33.6658 34.899 33.911V35.2845C34.899 35.5297 34.7002 35.7286 34.4551 35.7286V35.7286Z" fill="black"/>
<path fill-rule="evenodd" clip-rule="evenodd" d="M36.9197 36.2185C36.6747 36.2185 36.4757 36.0199 36.4757 35.7748L36.4758 33.9109C36.4758 33.6658 36.6746 33.467 36.9197 33.467C37.1648 33.467 37.3635 33.6658 37.3635 33.911L37.3636 35.7748C37.3636 36.0198 37.1646 36.2186 36.9197 36.2185Z" fill="black"/>
<path fill-rule="evenodd" clip-rule="evenodd" d="M39.3844 35.7286C39.1394 35.7286 38.9404 35.5297 38.9404 35.2846V33.9109C38.9404 33.6658 39.1393 33.467 39.3844 33.467C39.6295 33.467 39.8282 33.6658 39.8282 33.911L39.8283 35.2845C39.8283 35.5297 39.6294 35.7286 39.3844 35.7286V35.7286Z" fill="black"/>
<path fill-rule="evenodd" clip-rule="evenodd" d="M42.1577 36.2185C41.9126 36.2185 41.7137 36.0199 41.7137 35.7748V33.9109C41.7137 33.6658 41.9126 33.467 42.1577 33.467C42.4028 33.467 42.6015 33.6658 42.6015 33.911L42.6016 35.7748C42.6016 36.0198 42.4028 36.2186 42.1577 36.2185Z" fill="black"/>
<path fill-rule="evenodd" clip-rule="evenodd" d="M44.6223 35.7286C44.3772 35.7286 44.1783 35.5297 44.1783 35.2846L44.1785 33.9109C44.1785 33.6658 44.3772 33.467 44.6223 33.467C44.8673 33.467 45.0661 33.6658 45.0661 33.911V35.2845C45.0661 35.5297 44.8673 35.7286 44.6223 35.7286V35.7286Z" fill="black"/>
<path fill-rule="evenodd" clip-rule="evenodd" d="M47.0869 36.2185C46.8419 36.2185 46.6429 36.0199 46.6429 35.7748L46.6431 33.9109C46.6431 33.6658 46.8418 33.467 47.0868 33.467C47.332 33.467 47.5307 33.6658 47.5307 33.911V35.7748C47.5307 36.0198 47.3319 36.2186 47.0869 36.2185V36.2185Z" fill="black"/>
<path fill-rule="evenodd" clip-rule="evenodd" d="M26.993 18.3038C26.8393 18.3038 26.6901 18.2242 26.608 18.0817C26.4855 17.8695 26.5583 17.598 26.7698 17.4754L28.1028 16.7061C26.8404 14.7043 25.0196 12.9969 22.7978 11.7326L22.1412 12.8712C22.0186 13.0834 21.7469 13.1561 21.5342 13.0337C21.3227 12.9111 21.2499 12.6395 21.3724 12.4273L22.2475 10.9115C22.3678 10.7038 22.6302 10.629 22.8417 10.7422C25.5203 12.1783 27.6854 14.2177 29.1004 16.6397C29.1605 16.7417 29.1767 16.8632 29.1466 16.9775C29.1166 17.0915 29.0414 17.1891 28.9396 17.2482L27.2138 18.2443C27.1445 18.2846 27.0681 18.3038 26.993 18.3038V18.3038Z" fill="black"/>
</g>
<defs>
<clipPath id="clip0_1_1497">
<rect width="50" height="50" fill="white"/>
</clipPath>
</defs>
</svg>
