<svg width="46" height="29" viewBox="0 0 46 29" fill="none" xmlns="http://www.w3.org/2000/svg">
<g clip-path="url(#clip0_315_3303)">
<path fill-rule="evenodd" clip-rule="evenodd" d="M32.944 14.1616V21.2165H37.1802V17.4544H40.9447C43.0165 17.4544 44.804 16.0427 45.3693 14.1616H32.944ZM45.6514 12.757C45.6514 13.0402 45.6514 13.4172 45.5578 13.7004H38.593C35.4864 13.7004 32.6618 10.9672 32.1913 8.04785H40.9447C43.5807 8.04785 45.6514 10.1197 45.6514 12.7581V12.757ZM17.8837 8.04902V21.2177H21.6493C21.6493 21.2177 22.5904 21.2177 23.0598 20.2778L26.3549 13.6934H26.8255V21.2177H31.0629V8.04785H27.2972C27.2972 8.04785 26.3549 8.1415 25.8844 8.9878L22.5916 15.5721H22.121V8.04785H17.8848L17.8837 8.04902ZM4.23505 21.2177V14.1628H4.70561L7.05842 21.2177H8.943L11.2958 14.1628H11.7675V21.2177H16.0026V8.04785H11.7675C11.7675 8.04785 10.5431 8.04785 9.88529 9.92892C8.37879 14.3501 8.00071 15.5721 8.00071 15.5721C8.00071 15.5721 7.81342 14.9143 6.11963 9.9301C5.46061 8.04785 4.23739 8.04785 4.23739 8.04785H0V21.2165H4.23739L4.23505 21.2177Z" fill="#DADADA"/>
</g>
<defs>
<clipPath id="clip0_315_3303">
<rect width="45.6514" height="28.0932" fill="white" transform="translate(0 0.585449)"/>
</clipPath>
</defs>
</svg>
