<svg width="20" height="20" viewBox="0 0 20 20" fill="none" xmlns="http://www.w3.org/2000/svg">
<g clip-path="url(#clip0_117_15350)">
<path d="M13.8703 8.35168C13.7865 8.11172 13.6807 7.8793 13.5531 7.6582L9.99902 1.50391L6.445 7.65824L6.44496 7.65832C6.31734 7.87938 6.21156 8.1118 6.12777 8.35172C2.39207 9.16453 -0.000976562 11.0553 -0.000976562 13.2224C-0.000976562 14.7074 1.0966 16.0709 3.08953 17.0617C4.94988 17.9865 7.40371 18.4959 9.99902 18.4959C12.5943 18.4959 15.0482 17.9865 16.9085 17.0617C18.9014 16.0709 19.999 14.7074 19.999 13.2224C19.999 11.0553 17.606 9.16449 13.8703 8.35168ZM7.45977 8.24426L9.99902 3.84723L12.5382 8.24422C12.7937 8.68672 12.9287 9.19246 12.9287 9.7068C12.9287 11.3222 11.6145 12.6365 9.99902 12.6365C8.38359 12.6365 7.06934 11.3222 7.06934 9.7068C7.06934 9.1925 7.20434 8.68676 7.45977 8.24426ZM6.55844 11.937C7.29051 13.0625 8.55922 13.8084 9.99902 13.8084C11.4388 13.8084 12.7075 13.0625 13.4396 11.937C14.6954 12.3303 15.2725 12.8628 15.2725 13.2224C15.2725 13.5712 14.7434 14.0082 13.9246 14.3357C12.8855 14.7513 11.4914 14.9802 9.99902 14.9802C8.50668 14.9802 7.11254 14.7513 6.07344 14.3357C5.25465 14.0082 4.72559 13.5712 4.72559 13.2224C4.72559 12.8628 5.3027 12.3303 6.55844 11.937ZM16.3868 16.0123C14.6854 16.8582 12.4168 17.324 9.99902 17.324C7.58121 17.324 5.31262 16.8582 3.61121 16.0123C2.06035 15.2413 1.1709 14.2245 1.1709 13.2224C1.1709 12.2592 1.95738 11.4967 2.61711 11.0266C3.44742 10.4351 4.59305 9.94285 5.89902 9.61008C5.89828 9.64231 5.89742 9.67453 5.89742 9.70684C5.89742 10.1092 5.95594 10.498 6.06437 10.8657C4.45988 11.4 3.55371 12.2412 3.55371 13.2224C3.55371 14.1043 4.29398 14.8861 5.6382 15.4238C6.81246 15.8934 8.36113 16.1521 9.99902 16.1521C11.6369 16.1521 13.1856 15.8934 14.3598 15.4238C15.7041 14.8861 16.4443 14.1043 16.4443 13.2224C16.4443 12.2412 15.5382 11.4 13.9336 10.8656C14.0421 10.498 14.1006 10.1091 14.1006 9.7068C14.1006 9.67453 14.0998 9.64231 14.099 9.61004C15.405 9.94281 16.5506 10.435 17.3809 11.0266C18.0407 11.4967 18.8271 12.2592 18.8271 13.2224C18.8271 14.2245 17.9377 15.2413 16.3868 16.0123Z" fill="black"/>
</g>
<defs>
<clipPath id="clip0_117_15350">
<rect width="20" height="20" fill="white" transform="translate(-0.000976562)"/>
</clipPath>
</defs>
</svg>
