<svg width="130" height="115" viewBox="0 0 130 115" fill="none" xmlns="http://www.w3.org/2000/svg">
<path fill-rule="evenodd" clip-rule="evenodd" d="M2.125 15.5469C2.125 8.47737 7.75074 2.64673 14.812 2.64673H104.367C111.429 2.64673 117.054 8.47737 117.054 15.5469V43.6929C117.054 45.204 115.829 46.4293 114.318 46.4293C112.807 46.4293 111.582 45.204 111.582 43.6929V15.5469C111.582 11.39 108.297 8.11956 104.367 8.11956H14.812C10.8821 8.11956 7.59783 11.39 7.59783 15.5469V66.3663C7.59783 70.5229 10.8821 73.7935 14.812 73.7935H54.1168C55.6279 73.7935 56.8533 75.0188 56.8533 76.5299C56.8533 78.0409 55.6279 79.2663 54.1168 79.2663H14.812C7.75074 79.2663 2.125 73.4356 2.125 66.3663V15.5469Z" fill="black" stroke="white" stroke-width="4"/>
<path fill-rule="evenodd" clip-rule="evenodd" d="M2.125 21.8016C2.125 20.2903 3.35014 19.0652 4.86141 19.0652H114.318C115.829 19.0652 117.054 20.2903 117.054 21.8016C117.054 23.3129 115.829 24.538 114.318 24.538H4.86141C3.35014 24.538 2.125 23.3129 2.125 21.8016Z" fill="black" stroke="white" stroke-width="4"/>
<path fill-rule="evenodd" clip-rule="evenodd" d="M13.0703 49.1656C13.0703 47.6546 14.2955 46.4292 15.8067 46.4292H26.7524C28.2636 46.4292 29.4888 47.6546 29.4888 49.1656C29.4888 50.6767 28.2636 51.902 26.7524 51.902H15.8067C14.2955 51.902 13.0703 50.6767 13.0703 49.1656Z" fill="black" stroke="white" stroke-width="4"/>
<path fill-rule="evenodd" clip-rule="evenodd" d="M13.0703 62.8477C13.0703 61.3367 14.2955 60.1113 15.8067 60.1113H37.698C39.2093 60.1113 40.4344 61.3367 40.4344 62.8477C40.4344 64.3588 39.2093 65.5842 37.698 65.5842H15.8067C14.2955 65.5842 13.0703 64.3588 13.0703 62.8477Z" fill="black" stroke="white" stroke-width="4"/>
<path fill-rule="evenodd" clip-rule="evenodd" d="M97.8995 57.3749C84.2978 57.3749 73.2717 68.401 73.2717 82.0026C73.2717 95.6043 84.2978 106.63 97.8995 106.63C111.501 106.63 122.527 95.6043 122.527 82.0026C122.527 68.401 111.501 57.3749 97.8995 57.3749ZM67.7989 82.0026C67.7989 65.3784 81.2752 51.9021 97.8995 51.9021C114.524 51.9021 128 65.3784 128 82.0026C128 98.6269 114.524 112.103 97.8995 112.103C81.2752 112.103 67.7989 98.6269 67.7989 82.0026Z" fill="black" stroke="white" stroke-width="4"/>
<path fill-rule="evenodd" clip-rule="evenodd" d="M106.909 77.331C107.978 76.2627 109.711 76.2627 110.78 77.331C111.848 78.3999 111.848 80.1325 110.78 81.2014L99.834 92.147C98.7651 93.2153 97.0324 93.2153 95.9636 92.147L87.7543 83.9378C86.6861 82.869 86.6861 81.1363 87.7543 80.0674C88.8232 78.9991 90.5559 78.9991 91.6247 80.0674L97.8988 86.342L106.909 77.331Z" fill="black" stroke="white" stroke-width="4"/>
</svg>
