<svg width="48" height="48" viewBox="0 0 48 48" fill="none" xmlns="http://www.w3.org/2000/svg">
<path d="M42.8996 3.52585V44.4741C42.8996 45.6436 41.9515 46.5917 40.782 46.5917H7.21726C6.04771 46.5917 5.09961 45.6436 5.09961 44.4741V9.90701H11.4878C12.6574 9.90701 13.6055 8.95891 13.6055 7.78936V1.4082H40.782C41.9515 1.4082 42.8996 2.35631 42.8996 3.52585Z" fill="#E9EDF4"/>
<path d="M5.09961 9.90701H11.4878C12.6574 9.90701 13.6055 8.95891 13.6055 7.78936V1.4082L5.09961 9.90701Z" fill="#D2DBEA"/>
<path d="M45.1762 27.6621V37.4879C45.1762 38.6575 44.2281 39.6056 43.0585 39.6056H4.94089C3.77135 39.6056 2.82324 38.6575 2.82324 37.4879V27.6621C2.82324 26.4925 3.77135 25.5444 4.94089 25.5444H43.0585C44.2281 25.5444 45.1762 26.4925 45.1762 27.6621Z" fill="#F14F4A"/>
<path d="M37.0818 15.8802C37.0818 16.3868 36.6779 16.7907 36.1713 16.7907H11.8284C11.3287 16.7907 10.918 16.3868 10.918 15.8802C10.918 15.3736 11.3287 14.9697 11.8284 14.9697H36.1713C36.6779 14.9697 37.0818 15.3736 37.0818 15.8802Z" fill="#D2DBEA"/>
<path d="M37.0818 20.5462C37.0818 21.0528 36.6779 21.4567 36.1713 21.4567H11.8284C11.3287 21.4567 10.918 21.0528 10.918 20.5462C10.918 20.0396 11.3287 19.6357 11.8284 19.6357H36.1713C36.6779 19.6357 37.0818 20.0396 37.0818 20.5462Z" fill="#D2DBEA"/>
<path d="M15.0195 35.9339C14.9334 35.8481 14.8906 35.7422 14.8906 35.6164V29.5468C14.8906 29.4214 14.9334 29.3138 15.0195 29.2246C15.105 29.1353 15.2112 29.0908 15.3366 29.0908H17.5977C18.2256 29.0908 18.7385 29.1966 19.1349 29.4079C19.5319 29.6195 19.8159 29.8908 19.9883 30.2213C20.1599 30.5519 20.2461 30.9089 20.2461 31.2922C20.2461 31.6758 20.1599 32.0329 19.9883 32.3635C19.8159 32.6943 19.5319 32.9652 19.1349 33.1769C18.7385 33.3885 18.2256 33.494 17.5977 33.494H15.793V35.6164C15.793 35.7422 15.7482 35.8481 15.6592 35.9339C15.5696 36.0197 15.4621 36.0628 15.3366 36.0628C15.2112 36.0628 15.105 36.0197 15.0195 35.9339ZM17.5087 32.6413C18.1829 32.6413 18.6572 32.5124 18.9315 32.2545C19.2059 31.9964 19.3431 31.6758 19.3431 31.2922C19.3431 30.9089 19.2059 30.5881 18.9315 30.3303C18.6572 30.0724 18.1829 29.9435 17.5087 29.9435H15.793V32.6413H17.5087Z" fill="white"/>
<path d="M15.3363 36.2395C15.1654 36.2395 15.0124 36.1771 14.8945 36.0589C14.7745 35.9393 14.7139 35.7907 14.7139 35.6166V29.547C14.7139 29.3743 14.7738 29.2248 14.8924 29.1021C15.0096 28.9797 15.1633 28.9146 15.3363 28.9146H17.5974C18.2522 28.9146 18.7968 29.0283 19.2173 29.2523C19.644 29.4798 19.9556 29.7783 20.1445 30.1398C20.3285 30.4949 20.4223 30.8826 20.4223 31.2924C20.4223 31.7022 20.3285 32.0903 20.1445 32.445C19.9563 32.8066 19.644 33.1054 19.2173 33.3329C18.7975 33.5569 18.2529 33.6706 17.5974 33.6706H15.9692V35.6166C15.9692 35.789 15.9044 35.9427 15.7817 36.0609C15.6576 36.1795 15.508 36.2395 15.3363 36.2395ZM15.3363 29.2675C15.2584 29.2675 15.1985 29.2927 15.1468 29.3468C15.0923 29.4033 15.0668 29.4671 15.0668 29.547V35.6166C15.0668 35.6956 15.0909 35.7569 15.144 35.809V35.8097C15.2502 35.9158 15.4239 35.9148 15.5369 35.8066C15.5907 35.7545 15.6162 35.6942 15.6162 35.6166V33.3177H17.5974C18.1943 33.3177 18.6831 33.2181 19.0512 33.0213C19.4145 32.8279 19.6764 32.5794 19.8315 32.282C19.9894 31.9783 20.0693 31.6454 20.0693 31.2924C20.0693 30.9398 19.9894 30.6069 19.8315 30.3029C19.6764 30.0058 19.4138 29.7569 19.0519 29.5639C18.6824 29.3671 18.1936 29.2675 17.5974 29.2675H15.3363ZM17.5084 32.8179H15.6162V29.7673H17.5084C18.2357 29.7673 18.741 29.9093 19.0519 30.2019C19.3621 30.4931 19.5192 30.8602 19.5192 31.2924C19.5192 31.7246 19.3621 32.0917 19.0519 32.3833C18.741 32.6759 18.2357 32.8179 17.5084 32.8179ZM15.9692 32.465H17.5084C18.133 32.465 18.5714 32.3509 18.8106 32.1262C19.0498 31.9008 19.1663 31.6281 19.1663 31.2924C19.1663 30.9567 19.0498 30.6841 18.8106 30.459C18.5714 30.2343 18.133 30.1202 17.5084 30.1202H15.9692V32.465Z" fill="white"/>
<path d="M21.6836 35.8842C21.5974 35.7984 21.5547 35.6926 21.5547 35.5668V29.5468C21.5547 29.4214 21.5974 29.3138 21.6836 29.2246C21.7691 29.1353 21.8752 29.0908 22.0007 29.0908H23.9943C24.7477 29.0908 25.3874 29.2576 25.9134 29.5916C26.4386 29.9256 26.8336 30.3568 27.0983 30.8859C27.3624 31.4149 27.4947 31.9702 27.4947 32.552C27.4947 33.1338 27.3624 33.6891 27.0983 34.2181C26.8336 34.7472 26.4386 35.1784 25.9134 35.5124C25.3874 35.8463 24.7477 36.0132 23.9943 36.0132H22.0007C21.8752 36.0132 21.7691 35.9701 21.6836 35.8842ZM23.8853 35.1701C24.4272 35.1701 24.9028 35.0595 25.313 34.8378C25.7231 34.6166 26.0402 34.3091 26.2649 33.9155C26.4897 33.5222 26.6027 33.0676 26.6027 32.552C26.6027 32.0364 26.4897 31.5817 26.2649 31.1881C26.0402 30.7949 25.7231 30.4874 25.313 30.2658C24.9028 30.0445 24.4272 29.9335 23.8853 29.9335H22.457V35.1701H23.8853Z" fill="white"/>
<path d="M23.994 36.1898H22.0004C21.8294 36.1898 21.6764 36.1274 21.5585 36.0092C21.4386 35.8896 21.3779 35.7411 21.3779 35.567V29.547C21.3779 29.3743 21.4379 29.2248 21.5565 29.1021C21.6737 28.9797 21.8274 28.9146 22.0004 28.9146H23.994C24.7784 28.9146 25.4554 29.0924 26.0075 29.4429C26.5583 29.7928 26.9781 30.2519 27.2559 30.8071C27.531 31.3589 27.6709 31.9459 27.6709 32.5522C27.6709 33.1585 27.531 33.7454 27.2559 34.2972C26.9781 34.8525 26.5583 35.3116 26.0075 35.6614C25.4554 36.012 24.7784 36.1898 23.994 36.1898ZM22.0004 29.2675C21.9225 29.2675 21.8625 29.2927 21.8108 29.3468C21.7564 29.4033 21.7309 29.4671 21.7309 29.547V35.567C21.7309 35.6459 21.755 35.7069 21.8081 35.7593V35.76C21.8605 35.8124 21.9218 35.8369 22.0004 35.8369H23.994C24.7102 35.8369 25.3237 35.6776 25.8186 35.3637C26.3143 35.0486 26.6913 34.6367 26.9402 34.1394C27.1911 33.6372 27.318 33.103 27.318 32.5522C27.318 32.0014 27.1911 31.4672 26.9402 30.965C26.6913 30.4676 26.3143 30.0558 25.8186 29.7407C25.3237 29.4267 24.7102 29.2675 23.994 29.2675H22.0004ZM23.8851 35.3468H22.2803V29.7573H23.8851C24.4531 29.7573 24.9618 29.8762 25.3968 30.1106C25.8338 30.347 26.1778 30.6803 26.4177 31.1008C26.6576 31.5202 26.7789 32.0086 26.7789 32.5522C26.7789 33.0957 26.6576 33.5841 26.4177 34.0032C26.1778 34.4241 25.8338 34.7574 25.3968 34.9935C24.9625 35.2279 24.4538 35.3468 23.8851 35.3468ZM22.6332 34.9938H23.8851C24.3945 34.9938 24.8467 34.889 25.2286 34.6829C25.607 34.4785 25.9041 34.1911 26.1116 33.8282C26.3198 33.4628 26.426 33.0337 26.426 32.5522C26.426 32.0707 26.3198 31.6416 26.1116 31.2759C25.9041 30.9133 25.607 30.6258 25.2286 30.4211C24.846 30.215 24.3938 30.1102 23.8851 30.1102H22.6332V34.9938Z" fill="white"/>
<path d="M29.1328 35.9339C29.0466 35.8481 29.0039 35.7422 29.0039 35.6164V29.5468C29.0039 29.4214 29.0466 29.3138 29.1328 29.2246C29.2183 29.1353 29.3244 29.0908 29.4499 29.0908H33.3081C33.4267 29.0908 33.5273 29.1322 33.6101 29.2146C33.6928 29.2973 33.7341 29.3983 33.7341 29.5172C33.7341 29.6361 33.6928 29.7354 33.6101 29.8146C33.5273 29.8939 33.4267 29.9335 33.3081 29.9335H29.9062V32.1253H32.9607C33.08 32.1253 33.1806 32.167 33.2633 32.2494C33.346 32.3321 33.3874 32.4327 33.3874 32.552C33.3874 32.6709 33.346 32.7702 33.2633 32.8494C33.1806 32.9287 33.08 32.9683 32.9607 32.9683H29.9062V35.6164C29.9062 35.7422 29.8614 35.8481 29.7725 35.9339C29.6829 36.0197 29.5754 36.0628 29.4499 36.0628C29.3244 36.0628 29.2183 36.0197 29.1328 35.9339Z" fill="white"/>
<path d="M29.4496 36.2395C29.2787 36.2395 29.1256 36.1771 29.0078 36.0589C28.8878 35.9393 28.8271 35.7907 28.8271 35.6166V29.547C28.8271 29.3743 28.8871 29.2248 29.0057 29.1021C29.1229 28.9797 29.2766 28.9146 29.4496 28.9146H33.3078C33.474 28.9146 33.6174 28.9735 33.7345 29.0896C33.8497 29.2051 33.9103 29.3526 33.9103 29.5174C33.9103 29.6835 33.8483 29.8303 33.7318 29.9424C33.6153 30.0537 33.4726 30.1102 33.3078 30.1102H30.0824V31.949H32.9604C33.1272 31.949 33.2706 32.008 33.3878 32.1245C33.5043 32.2413 33.5636 32.3854 33.5636 32.5522C33.5636 32.7183 33.5016 32.8651 33.3851 32.9772C33.2686 33.0885 33.1259 33.145 32.9604 33.145H30.0824V35.6166C30.0824 35.789 30.0176 35.9427 29.8949 36.0609C29.7709 36.1795 29.6213 36.2395 29.4496 36.2395ZM29.4496 29.2675C29.3717 29.2675 29.3118 29.2927 29.2601 29.3468C29.2056 29.4033 29.1801 29.4671 29.1801 29.547V35.6166C29.1801 35.6956 29.2042 35.7569 29.2573 35.809V35.8097C29.3635 35.9158 29.5372 35.9148 29.6502 35.8066C29.704 35.7545 29.7295 35.6942 29.7295 35.6166V32.7921H32.9604C33.0342 32.7921 33.0914 32.77 33.141 32.7221C33.1886 32.6766 33.2106 32.6225 33.2106 32.5522C33.2106 32.4802 33.1879 32.4236 33.1383 32.3743C33.0886 32.3251 33.0321 32.302 32.9604 32.302H29.7295V29.7573H33.3078C33.3809 29.7573 33.4381 29.7352 33.4878 29.6873C33.5353 29.6418 33.5574 29.5877 33.5574 29.5174C33.5574 29.4453 33.5346 29.3888 33.485 29.3395C33.4354 29.2906 33.3795 29.2675 33.3078 29.2675H29.4496Z" fill="white"/>
</svg>
