<svg width="20" height="20" viewBox="0 0 20 20" fill="none" xmlns="http://www.w3.org/2000/svg">
<path d="M4.0832 4.54563C5.33839 4.54563 6.3559 3.52812 6.3559 2.27294C6.3559 1.01775 5.33839 0.000244141 4.0832 0.000244141C2.82802 0.000244141 1.81055 1.01775 1.81055 2.27294C1.81055 3.52812 2.82806 4.54563 4.0832 4.54563ZM4.0832 1.81842C4.33424 1.81842 4.53772 2.0219 4.53772 2.27294C4.53772 2.52398 4.33424 2.72746 4.0832 2.72746C3.83216 2.72746 3.62868 2.52398 3.62868 2.27294C3.62868 2.0219 3.83216 1.81842 4.0832 1.81842Z" fill="black"/>
<path d="M18.679 9.24378L15.9518 7.42565C15.7184 7.26992 15.4262 7.23067 15.1599 7.31929L10.1164 9.00018L9.84366 8.58657C9.8105 8.53684 9.77243 8.49052 9.73002 8.44838L7.64188 6.36384H9.99276C10.4248 6.36391 10.7973 6.05991 10.8837 5.63657L11.7927 1.09123C11.8931 0.599193 11.5757 0.118938 11.0836 0.0185385C10.5916 -0.0818605 10.1113 0.235582 10.0109 0.727616L9.24731 4.54574H5.44737C5.35286 4.54634 5.25898 4.56167 5.16918 4.5912H5.16009L2.43287 5.50029C2.16167 5.5908 1.94886 5.80362 1.85834 6.07481L0.949256 8.80203C0.790357 9.279 1.04819 9.79448 1.52517 9.95338C2.00214 10.1123 2.51761 9.85444 2.67651 9.37747L3.44196 7.08113L5.20554 6.49388L8.38092 9.66926L10.0973 12.2428L11.8799 16.6973C12.0589 17.1664 12.5842 17.4016 13.0533 17.2227C13.5225 17.0437 13.7576 16.5184 13.5787 16.0493C13.5753 16.0404 13.5718 16.0315 13.5681 16.0228L11.75 11.4774C11.7256 11.4186 11.6952 11.3626 11.6591 11.3101L11.1618 10.5647L15.3126 9.182L17.6699 10.7538C18.0827 11.0395 18.649 10.9365 18.9347 10.5236C19.2204 10.1107 19.1174 9.54447 18.7045 9.25877C18.6958 9.25272 18.687 9.24683 18.678 9.2411L18.679 9.24378Z" fill="black"/>
<path d="M13.6296 20.0001H3.62979C3.12771 20.0001 2.7207 19.593 2.7207 19.091C2.7207 18.5889 3.12771 18.1819 3.62979 18.1819H13.6296C14.1317 18.1819 14.5387 18.5889 14.5387 19.091C14.5387 19.593 14.1317 20.0001 13.6296 20.0001Z" fill="black"/>
</svg>
