<svg width="18" height="24" viewBox="0 0 18 24" fill="none" xmlns="http://www.w3.org/2000/svg">
<g clip-path="url(#clip0_1_24)">
<path d="M16.7 1.2C15.9 0.4 14.9 0 13.7 0H4.2C3.1 0 2 0.4 1.2 1.2C0.4 2 0 3.1 0 4.2V19.6C0 20.7 0.4 21.8 1.2 22.6C2 23.4 3 23.8 4.2 23.8H13.8C14.9 23.8 16 23.4 16.8 22.6C17.6 21.8 18 20.8 18 19.6V4.2C17.9 3.1 17.5 2 16.7 1.2ZM1.7 16.5V4.2C1.7 3.5 2 2.9 2.4 2.5C2.9 2 3.5 1.7 4.2 1.7H13.8C14.5 1.7 15.1 2 15.5 2.4C16 2.9 16.2 3.5 16.2 4.1V16.4H1.7V16.5ZM16.2 19.6C16.2 20.3 15.9 20.9 15.5 21.3C15 21.8 14.4 22 13.7 22H4.2C3.5 22 2.9 21.7 2.5 21.3C2 20.8 1.8 20.2 1.8 19.6V18.3H16.3V19.6H16.2Z" fill="#A63DF5"/>
<path d="M7.10001 21H10.9C11.4 21 11.8 20.6 11.8 20.1C11.8 19.6 11.4 19.2 10.9 19.2H7.10001C6.60001 19.2 6.20001 19.6 6.20001 20.1C6.20001 20.6 6.60001 21 7.10001 21Z" fill="#A63DF5"/>
</g>
<defs>
<clipPath id="clip0_1_24">
<rect width="17.9" height="23.8" fill="white"/>
</clipPath>
</defs>
</svg>
