<svg width="27" height="27" viewBox="0 0 27 27" fill="none" xmlns="http://www.w3.org/2000/svg">
<path d="M19.125 13.5C19.1249 13.6991 19.0719 13.8946 18.9715 14.0666C18.8711 14.2386 18.7269 14.3808 18.5535 14.4788L12.645 17.829C12.388 17.9747 12.0973 18.0505 11.8019 18.0486C11.5064 18.0468 11.2167 17.9674 10.9616 17.8184C10.7064 17.6694 10.4949 17.4561 10.3481 17.1997C10.2013 16.9433 10.1244 16.6529 10.125 16.3575V10.6403C10.1251 10.3452 10.2027 10.0554 10.3498 9.79961C10.4969 9.54386 10.7085 9.33116 10.9635 9.18272C11.2185 9.03428 11.5079 8.95529 11.803 8.95363C12.098 8.95197 12.3884 9.02769 12.645 9.17325L18.5535 12.5212C18.7269 12.6192 18.8711 12.7614 18.9715 12.9334C19.0719 13.1054 19.1249 13.3009 19.125 13.5ZM13.5 0C11.7272 -2.64175e-08 9.97167 0.349188 8.33377 1.02763C6.69588 1.70606 5.20765 2.70047 3.95406 3.95406C2.70047 5.20765 1.70606 6.69588 1.02763 8.33377C0.349188 9.97167 0 11.7272 0 13.5C0 15.2728 0.349188 17.0283 1.02763 18.6662C1.70606 20.3041 2.70047 21.7924 3.95406 23.0459C5.20765 24.2995 6.69588 25.2939 8.33377 25.9724C9.97167 26.6508 11.7272 27 13.5 27C17.0804 27 20.5142 25.5777 23.0459 23.0459C25.5777 20.5142 27 17.0804 27 13.5C27 9.91958 25.5777 6.4858 23.0459 3.95406C20.5142 1.42232 17.0804 5.33525e-08 13.5 0ZM2.25 13.5C2.25 10.5163 3.43526 7.65483 5.54505 5.54505C7.65483 3.43526 10.5163 2.25 13.5 2.25C16.4837 2.25 19.3452 3.43526 21.455 5.54505C23.5647 7.65483 24.75 10.5163 24.75 13.5C24.75 16.4837 23.5647 19.3452 21.455 21.455C19.3452 23.5647 16.4837 24.75 13.5 24.75C10.5163 24.75 7.65483 23.5647 5.54505 21.455C3.43526 19.3452 2.25 16.4837 2.25 13.5Z" fill="#F56308"/>
</svg>
