<svg width="46" height="46" viewBox="0 0 46 46" fill="none" xmlns="http://www.w3.org/2000/svg">
<path d="M23.6073 10.7975C23.8391 10.7975 24.0365 10.6127 24.0573 10.3674L24.2658 7.90771C24.2878 7.64825 24.1039 7.41935 23.8551 7.39643C23.6058 7.37323 23.3867 7.56525 23.3647 7.82462L23.1562 10.2843C23.1342 10.5438 23.3181 10.7727 23.5669 10.7956C23.5804 10.7969 23.5939 10.7975 23.6073 10.7975Z" fill="black"/>
<path d="M31.3556 10.8183C31.1511 10.6687 30.869 10.7201 30.7255 10.9332L29.3633 12.9549C29.2198 13.168 29.2691 13.4621 29.4734 13.6119C29.6755 13.7603 29.9591 13.7117 30.1035 13.497L31.4657 11.4753C31.6092 11.2621 31.5599 10.9681 31.3556 10.8183V10.8183Z" fill="black"/>
<path d="M35.6064 17.4563L33.4557 18.4982C33.2291 18.6078 33.1308 18.8883 33.2361 19.1245C33.3416 19.3631 33.6156 19.4623 33.8369 19.3535L35.9876 18.3116C36.2141 18.2019 36.3124 17.9214 36.2071 17.6853C36.1018 17.449 35.8329 17.3462 35.6064 17.4563Z" fill="black"/>
<path d="M33.8461 25.8576C33.8242 26.117 34.0082 26.3459 34.257 26.3687L36.6201 26.5857C36.6336 26.587 36.647 26.5876 36.6603 26.5876C36.8922 26.5876 37.0896 26.4027 37.1104 26.1573C37.1323 25.8979 36.9482 25.6691 36.6995 25.6462L34.3364 25.4292C34.088 25.4055 33.8681 25.5981 33.8461 25.8576V25.8576Z" fill="black"/>
<path d="M31.1401 32.0056C30.9968 32.219 31.0465 32.513 31.2512 32.6624L33.1934 34.0802C33.3956 34.2284 33.6792 34.1791 33.8233 33.9644C33.9666 33.7509 33.9169 33.457 33.7122 33.3076L31.77 31.8897C31.5654 31.7403 31.2835 31.7923 31.1401 32.0056V32.0056Z" fill="black"/>
<path d="M18.4011 37.7318H23.3882C24.8427 37.7318 26.026 36.5046 26.026 34.9961C26.026 34.3073 25.7793 33.6773 25.3727 33.1959C26.7339 33.0892 27.81 31.9065 27.81 30.468C27.81 29.7792 27.5633 29.1492 27.1568 28.6677C28.5179 28.5611 29.5941 27.3784 29.5941 25.9399C29.5941 25.2511 29.3474 24.621 28.9408 24.1395C30.302 24.0329 31.3781 22.8502 31.3781 21.4117C31.3781 19.9033 30.1948 18.6761 28.7402 18.6761L20.1993 18.6793C22.1369 15.5749 21.3707 12.6157 21.2911 12.3339C21.2351 12.0906 20.6379 9.65081 19.0414 8.76077C17.4535 7.84479 14.9939 8.9246 15.4783 11.1129C15.8489 12.8661 15.2976 14.7484 14.0397 16.0251L10.363 19.7569C10.1141 19.4351 9.73348 19.2286 9.30703 19.2286H4.17325C3.42502 19.2286 2.81628 19.8632 2.81628 20.6433V35.853C2.81628 36.633 3.42502 37.2677 4.17325 37.2677H9.30703C9.84204 37.2677 10.3044 36.9424 10.5252 36.4722C13.076 37.308 15.723 37.7318 18.4011 37.7318V37.7318ZM14.6708 16.7011C16.1512 15.1984 16.7992 12.9793 16.3616 10.9091C16.0044 9.58027 17.7738 9.04051 18.613 9.59149C19.8955 10.3046 20.4084 12.54 20.4133 12.562C20.4155 12.5723 20.4185 12.5837 20.4214 12.5939C20.4589 12.7227 21.3035 15.7598 19.0135 18.7854C18.6479 19.0738 18.9432 19.7184 19.3832 19.6228L28.7404 19.6192C29.6959 19.6192 30.4735 20.4233 30.4735 21.4117C30.4735 22.4001 29.696 23.2042 28.7404 23.2042H25.0391C24.7893 23.2042 24.5868 23.4153 24.5868 23.6758C24.5868 23.9363 24.7893 24.1474 25.0391 24.1474H26.9562C27.9119 24.1474 28.6893 24.9515 28.6893 25.9399C28.6893 26.9282 27.9119 27.7324 26.9562 27.7324L23.2549 27.7323C23.0052 27.7323 22.8026 27.9434 22.8026 28.2039C22.8026 28.4644 23.0052 28.6755 23.2549 28.6755H25.1713C25.1715 28.6755 25.1718 28.6756 25.1722 28.6756C26.1278 28.6756 26.9053 29.4796 26.9053 30.468C26.9053 31.4564 26.1278 32.2605 25.1722 32.2605H21.471C21.2212 32.2605 21.0187 32.4716 21.0187 32.7321C21.0187 32.9926 21.2212 33.2037 21.471 33.2037H23.3881C24.3438 33.2037 25.1212 34.0077 25.1212 34.9961C25.1212 35.9845 24.3438 36.7887 23.3881 36.7887H18.401C15.7687 36.7887 13.1677 36.3639 10.6639 35.5281V20.8693C10.6666 20.8644 10.7089 20.762 10.7169 20.714L14.6708 16.7011ZM9.30703 36.3246H4.17325C3.92384 36.3246 3.72093 36.1131 3.72093 35.8531V20.6434C3.72093 20.3834 3.92384 20.1718 4.17325 20.1718H9.30703C9.50596 20.1718 9.67341 20.3074 9.73384 20.4938C9.70878 20.5963 9.75935 35.8531 9.75935 35.8531C9.75935 36.1131 9.55635 36.3246 9.30703 36.3246Z" fill="black"/>
<path d="M6.7401 34.0145C7.42168 34.0145 7.97422 33.4403 7.97422 32.7321C7.97422 32.0239 7.42168 31.4497 6.7401 31.4497C6.05852 31.4497 5.50598 32.0239 5.50598 32.7321C5.50598 33.4403 6.05852 34.0145 6.7401 34.0145Z" fill="black"/>
<path d="M44.3963 21.0219L42.2522 19.091C41.7173 18.6195 41.5008 17.7788 41.739 17.0872L42.6641 14.309C43.2063 12.7954 42.2113 11.0038 40.6833 10.7362L37.8669 10.1718C37.1942 10.0429 36.6159 9.44136 36.491 8.73787L35.9491 5.81725C35.6903 4.22645 33.9711 3.19419 32.5206 3.75592L29.8343 4.72179C29.1623 4.97144 28.3697 4.75084 27.9043 4.18118L26.0474 1.9549C25.059 0.712593 23.076 0.712688 22.0877 1.9548L20.4472 3.92163C20.4425 3.92729 20.438 3.93295 20.4337 3.9388C19.9647 4.55778 18.965 5.00954 18.0358 4.62701C18.0297 4.62455 18.0235 4.6221 18.0172 4.61993L15.6143 3.75602C14.1637 3.19447 12.4446 4.22674 12.1859 5.81744L11.6439 8.73854C11.642 8.74844 11.6404 8.75853 11.6392 8.76862C11.5559 9.45353 10.9921 10.0304 10.2661 10.1721L7.44946 10.7368C5.92242 11.0042 4.92867 12.7949 5.47046 14.3073L6.11656 16.2477C6.18142 16.4426 6.35656 16.5647 6.54391 16.5647C6.59312 16.5647 6.64315 16.5563 6.69227 16.5386C6.9283 16.4532 7.05314 16.1844 6.97127 15.9385L6.32517 13.9981C5.97073 13.0084 6.62144 11.8378 7.62035 11.6629L10.435 11.0987C11.5348 10.8842 12.3961 9.98263 12.5348 8.90349L13.0742 5.99664C13.2436 4.95503 14.3699 4.28002 15.3195 4.64757L17.7135 5.50837C19.0412 6.0486 20.4643 5.41123 21.1365 4.53269L22.7704 2.57369C23.418 1.75986 24.7172 1.75986 25.3647 2.57379L27.2186 4.79649C27.9192 5.65399 29.1196 5.98862 30.1336 5.61193L32.8156 4.64757C33.7653 4.28002 34.8915 4.95503 35.0609 5.99654L35.6021 8.9133C35.795 10.0004 36.6591 10.8995 37.6997 11.0989L40.5126 11.6626C41.5125 11.8376 42.1642 13.0095 41.8094 13.9999L40.8859 16.7734C40.5206 17.8342 40.8423 19.0835 41.6644 19.8083L43.8049 21.7359C44.5867 22.4073 44.5869 23.7613 43.8051 24.4328L41.7447 26.2883C40.8882 27.0578 40.5335 28.2961 40.8843 29.3909L41.8099 32.1708C42.1643 33.1605 41.5136 34.3309 40.5147 34.5059L37.5068 35.1088C36.4571 35.3129 35.6874 36.2121 35.5844 37.3507L35.0607 40.1724C34.8914 41.214 33.7651 41.889 32.8155 41.5215L30.1136 40.55C29.5187 40.3358 28.0502 40.4185 27.2421 41.3443C27.2399 41.347 27.2376 41.3496 27.2353 41.3523L25.3645 43.5953C24.7169 44.4092 23.4177 44.4092 22.7702 43.5952L20.9163 41.3725C20.2159 40.5151 19.0156 40.1803 18.0013 40.5571L15.3192 41.5215C14.3696 41.8891 13.2434 41.214 13.074 40.1725L12.8204 38.8062C12.7729 38.5505 12.5358 38.3837 12.2904 38.4327C12.0452 38.4821 11.8848 38.7295 11.9323 38.9852L12.1858 40.3516C12.4446 41.9424 14.1636 42.9744 15.6143 42.4129L18.3006 41.447C18.973 41.1973 19.7653 41.4181 20.2306 41.9877L22.0875 44.2139C23.0759 45.4562 25.0588 45.4561 26.0472 44.214L27.9143 41.9755C28.4486 41.368 29.5377 41.3407 29.8187 41.4415L32.5205 42.4129C33.9711 42.9746 35.6902 41.9422 35.9489 40.3516L36.4768 37.5062C36.4799 37.4898 36.4821 37.4732 36.4834 37.4565C36.5431 36.7225 37.0098 36.1649 37.675 36.0355L40.6853 35.4323C42.2125 35.1649 43.2061 33.3742 42.6643 31.8617L41.7407 29.0878C41.5093 28.3529 41.7553 27.5248 42.3359 27.0024L44.3963 25.1467C45.5921 24.1194 45.5918 22.0486 44.3963 21.0219V21.0219Z" fill="black"/>
</svg>
