<svg width="24" height="24" viewBox="0 0 24 24" fill="none" xmlns="http://www.w3.org/2000/svg">
<path d="M21.6 0H2.4C1.764 0 1.152 0.252 0.708 0.708C0.252 1.152 0 1.764 0 2.4V16.8C0 17.436 0.252 18.048 0.708 18.492C1.152 18.948 1.764 19.2 2.4 19.2H7.2L12 24L16.8 19.2H21.6C22.236 19.2 22.848 18.948 23.292 18.492C23.736 18.036 24 17.436 24 16.8V2.4C24 1.764 23.748 1.152 23.292 0.708C22.848 0.252 22.236 0 21.6 0ZM9.66 4.848C10.308 4.416 11.16 4.2 12.228 4.2C13.356 4.2 14.256 4.452 14.904 4.944C15.552 5.448 15.876 6.12 15.876 6.96C15.876 7.488 15.696 7.956 15.348 8.4C15 8.832 14.544 9.168 13.992 9.42C13.68 9.6 13.476 9.78 13.368 9.984C13.26 10.2 13.2 10.464 13.2 10.8H10.8C10.8 10.2 10.92 9.792 11.148 9.504C11.4 9.216 11.808 8.88 12.432 8.496C12.744 8.328 12.996 8.112 13.2 7.848C13.368 7.596 13.464 7.296 13.464 6.96C13.464 6.6 13.356 6.336 13.14 6.132C12.924 5.916 12.6 5.82 12.228 5.82C11.904 5.82 11.64 5.904 11.4 6.072C11.208 6.24 11.088 6.492 11.088 6.828H8.724C8.664 6 9 5.28 9.66 4.848ZM10.8 14.4V12H13.2V14.4H10.8Z" fill="#D6D61E"/>
</svg>
