<svg width="23" height="22" viewBox="0 0 23 22" fill="none" xmlns="http://www.w3.org/2000/svg">
<path d="M13.6 17.8C17.5595 17.8 19.5398 17.8 20.7694 16.5694C22 15.3399 22 13.3596 22 9.4C22 5.44045 22 3.46015 20.7694 2.2306C19.5398 1 17.5595 1 13.6 1H9.4C5.44045 1 3.46015 1 2.2306 2.2306C1 3.46015 1 5.44045 1 9.4C1 13.3596 1 15.3399 2.2306 16.5694C2.91625 17.2561 3.835 17.5596 5.2 17.6929" stroke="#584C3B" stroke-width="2" stroke-linecap="round" stroke-linejoin="round"/>
<path d="M9.39874 6.75791C9.92374 5.71841 10.4487 5.19971 11.4987 5.19971C12.807 5.19971 13.5987 6.23816 13.5987 7.27661C13.5987 8.31506 13.0737 8.36126 11.4987 9.39971V10.4497M11.4987 13.0747V13.5997M13.5987 17.7997C12.3009 17.7997 10.8708 18.3247 9.56569 19.002C7.46779 20.0908 6.41884 20.6358 5.90224 20.2882C5.38564 19.9417 5.48329 18.8655 5.67964 16.714L5.72374 16.2247" stroke="#584C3B" stroke-width="2" stroke-linecap="round"/>
</svg>
