<svg width="27" height="28" viewBox="0 0 27 28" fill="none" xmlns="http://www.w3.org/2000/svg">
<path d="M6.52127 4.891C6.52127 3.09299 5.05823 1.63037 3.26063 1.63037C1.46262 1.63037 0 3.09299 0 4.891C0 6.68902 1.46262 8.15164 3.26063 8.15164C5.05823 8.15164 6.52127 6.68902 6.52127 4.891Z" fill="#F56308"/>
<path d="M14.6696 13.9974L10.4596 9.78784L14.0175 6.25719V0H10.7568V4.89944L1.95312 13.7227V19.5638H5.21376V15.0634L8.15385 12.0932L13.0393 16.9786V21.8169L7.41893 24.6267L8.8773 27.5434L16.2999 23.8319V16.9786L19.4807 13.7974L25.1669 17.6524L26.9967 14.9539L19.0804 9.5866L14.6696 13.9974Z" fill="#F56308"/>
</svg>
