<svg width="55" height="15" viewBox="0 0 55 15" fill="none" xmlns="http://www.w3.org/2000/svg">
<path d="M13.8805 2.89917C14.2303 3.35751 14.5265 3.85545 14.7629 4.38301L8.05518 9.3942L5.25183 7.61325V5.47068L8.05518 7.25163L13.8805 2.89917Z" fill="#DCE0E0"/>
<path d="M2.38872 7.46204C2.38872 7.3659 2.39103 7.27039 2.39566 7.17543L0.696753 7.09106C0.69097 7.21413 0.687502 7.33838 0.687502 7.46377C0.686779 8.44355 0.876936 9.41378 1.24707 10.3189C1.6172 11.224 2.16002 12.0461 2.84438 12.7381L4.04946 11.5174C3.52266 10.9857 3.10475 10.3536 2.81974 9.65768C2.53473 8.96172 2.38826 8.21553 2.38872 7.46204Z" fill="#DCE0E0"/>
<path d="M8.05094 1.72295C8.14576 1.72295 8.23998 1.72646 8.33366 1.73115L8.41867 0.00879569C8.29688 0.00293535 8.17428 5.5349e-06 8.05094 5.5349e-06C7.08371 -0.00118983 6.12584 0.191248 5.23224 0.566269C4.33864 0.94129 3.52694 1.49151 2.84375 2.18533L4.04883 3.40663C4.57353 2.87256 5.19722 2.44887 5.88405 2.15992C6.57087 1.87098 7.30725 1.72247 8.05094 1.72295Z" fill="#DCE0E0"/>
<path d="M8.05387 13.2021C7.95906 13.2021 7.86478 13.2021 7.77056 13.1945L7.68555 14.9163C7.80774 14.9225 7.93054 14.9257 8.05387 14.9257C9.02069 14.9267 9.9781 14.7341 10.8712 14.359C11.7643 13.9839 12.5755 13.4336 13.2582 12.7397L12.0554 11.519C11.5306 12.0528 10.907 12.4763 10.2203 12.7651C9.53362 13.054 8.79737 13.2025 8.05387 13.2021Z" fill="#DCE0E0"/>
<path d="M11.2451 2.72507L12.6768 1.65556C11.3682 0.581626 9.73468 -0.00298112 8.05078 1.1432e-05V1.72354C9.19104 1.72211 10.3048 2.07133 11.2451 2.72507Z" fill="#DCE0E0"/>
<path d="M15.4179 7.46209C15.4188 7.01372 15.3801 6.56614 15.3022 6.12476L13.7173 7.30854C13.7173 7.35956 13.7173 7.41053 13.7173 7.46209C13.7177 8.26395 13.5518 9.05696 13.2305 9.78969C12.9091 10.5224 12.4394 11.1785 11.8518 11.7155L12.995 12.996C13.7589 12.2971 14.3694 11.4433 14.7867 10.49C15.2042 9.53667 15.4192 8.50506 15.4179 7.46209Z" fill="#DCE0E0"/>
<path d="M8.05243 13.2021C7.26115 13.2024 6.47864 13.0342 5.75554 12.7085C5.03247 12.3829 4.38494 11.9069 3.85488 11.3115L2.59198 12.4695C3.28152 13.2438 4.12395 13.8626 5.06464 14.2857C6.00532 14.7088 7.02324 14.9268 8.05243 14.9256V13.2021Z" fill="#DCE0E0"/>
<path d="M4.25417 3.20969L3.11154 1.9292C2.34742 2.62797 1.73676 3.48171 1.31916 4.43506C0.901566 5.38839 0.686361 6.42005 0.687505 7.46311H2.38872C2.38837 6.6613 2.55425 5.86829 2.8756 5.13556C3.19696 4.40285 3.66662 3.74671 4.25417 3.20969Z" fill="#DCE0E0"/>
<path d="M43.1829 4.26849L45.2899 2.71313H38.2383V12.0595H45.2899V10.5041H40.2504V8.11005H44.5493V6.5547H40.2504V4.26849H43.1829Z" fill="#DCE0E0"/>
<path d="M33.4942 6.35413H31.0461V4.26785H34.9533L37.059 2.70776H29.0352V12.0541H33.2353C35.5901 12.0541 36.9415 10.9847 36.9415 9.11973C36.9415 7.33554 35.7174 6.35413 33.4942 6.35413ZM33.1447 10.4983H31.0461V7.90852H33.1447C34.4183 7.90852 35.0155 8.34251 35.0155 9.20342C35.0155 10.0643 34.3801 10.4983 33.1447 10.4983Z" fill="#DCE0E0"/>
<path d="M50.4712 2.71143H46.6328V12.0577H48.6447V9.4101H50.4712C52.9202 9.4101 54.4351 8.1189 54.4351 6.05577C54.4351 3.9927 52.9202 2.71143 50.4712 2.71143ZM50.4288 7.85356H48.6447V4.26797H50.4288C51.7169 4.26797 52.4279 4.90507 52.4279 6.06147C52.4279 7.21788 51.7169 7.85356 50.4288 7.85356Z" fill="#DCE0E0"/>
<path d="M26.0151 9.85238C25.4954 10.1344 24.9131 10.2804 24.3221 10.2769C22.5533 10.2769 21.2701 9.01164 21.2701 7.26934C21.2701 5.52699 22.5533 4.25897 24.3221 4.25897C24.96 4.24811 25.5846 4.44192 26.1048 4.8121L27.5121 3.7736L27.4169 3.70585C26.596 2.98264 25.4991 2.59961 24.2435 2.59961C22.8817 2.59961 21.6468 3.0587 20.7651 3.89391C20.3193 4.32395 19.9668 4.84144 19.7294 5.4141C19.492 5.98676 19.3749 6.60227 19.3854 7.22229C19.376 7.84862 19.4926 8.47042 19.7282 9.05061C19.9638 9.6308 20.3137 10.1574 20.7569 10.5991C21.6427 11.4675 22.8748 11.9459 24.2269 11.9459C25.6398 11.9459 26.8747 11.4523 27.7108 10.5535L26.4511 9.61319L26.0151 9.85238Z" fill="#DCE0E0"/>
</svg>
