<svg width="24" height="24" viewBox="0 0 24 24" fill="none" xmlns="http://www.w3.org/2000/svg">
<g clip-path="url(#clip0_308_23)">
<path d="M10.609 0.000488281H3.10934C2.69512 0.000488281 2.35938 0.336237 2.35938 0.750452V23.2494C2.35938 23.6636 2.69512 23.9993 3.10934 23.9993H10.609C11.0232 23.9993 11.3589 23.6636 11.3589 23.2494V0.750452C11.3589 0.336237 11.0231 0.000488281 10.609 0.000488281ZM9.85901 22.4994H3.8593V20.2495H7.60912V18.7496H3.8593V16.4997H6.10919V14.9998H3.8593V12.7499H7.60912V11.2499H3.8593V9.00005H6.10919V7.50012H3.8593V5.25023H7.60912V3.7503H3.8593V1.50041H9.85901V22.4994Z" fill="#584C3B" stroke="white" stroke-width="0.2"/>
<path d="M20.5853 18.9747L18.1104 21.4421V2.55798L20.5778 5.02536L21.6352 3.96792L17.8854 0.218099C17.5929 -0.0726996 17.1205 -0.0726996 16.8279 0.218099L13.0781 3.96792L14.1356 5.02536L16.6105 2.55798V21.4421L14.1431 18.9747L13.0856 20.0321L16.8354 23.7819C17.128 24.0727 17.6004 24.0727 17.8929 23.7819L21.6427 20.0321L20.5853 18.9747Z" fill="#584C3B" stroke="white" stroke-width="0.2"/>
</g>
<defs>
<clipPath id="clip0_308_23">
<rect width="24" height="24" fill="white"/>
</clipPath>
</defs>
</svg>
