<svg width="14" height="15" viewBox="0 0 14 15" fill="none" xmlns="http://www.w3.org/2000/svg">
<path d="M13.4979 13.5709L11.588 11.5888C12.461 10.4298 12.9347 8.99853 12.9329 7.52508C12.9329 6.21286 12.5595 4.93011 11.86 3.83904C11.1604 2.74797 10.1661 1.89758 9.00281 1.39542C7.83949 0.893256 6.55941 0.761866 5.32444 1.01787C4.08947 1.27387 2.95507 1.90576 2.06471 2.83364C1.17434 3.76152 0.567996 4.94371 0.322345 6.23071C0.0766937 7.51772 0.202771 8.85174 0.684633 10.0641C1.16649 11.2764 1.9825 12.3126 3.02946 13.0416C4.07642 13.7707 5.3073 14.1598 6.56647 14.1598C7.98034 14.1616 9.35375 13.668 10.4659 12.7582L12.3679 14.7486C12.4419 14.8263 12.5299 14.888 12.6269 14.9301C12.7239 14.9722 12.8279 14.9939 12.9329 14.9939C13.038 14.9939 13.142 14.9722 13.239 14.9301C13.3359 14.888 13.424 14.8263 13.4979 14.7486C13.5725 14.6715 13.6317 14.5798 13.6721 14.4787C13.7125 14.3777 13.7333 14.2693 13.7333 14.1598C13.7333 14.0503 13.7125 13.9419 13.6721 13.8408C13.6317 13.7398 13.5725 13.648 13.4979 13.5709ZM1.79163 7.52508C1.79163 6.54092 2.07167 5.57885 2.59633 4.76055C3.121 3.94225 3.86673 3.30446 4.73922 2.92783C5.61171 2.55121 6.57177 2.45267 7.49799 2.64467C8.42422 2.83667 9.27502 3.31059 9.94279 4.0065C10.6106 4.70241 11.0653 5.58905 11.2496 6.55431C11.4338 7.51956 11.3392 8.52007 10.9778 9.42932C10.6165 10.3386 10.0044 11.1157 9.21923 11.6625C8.43401 12.2093 7.51084 12.5011 6.56647 12.5011C5.3001 12.5011 4.0856 11.9768 3.19015 11.0437C2.29469 10.1105 1.79163 8.8448 1.79163 7.52508Z" fill="black"/>
</svg>
