<svg width="26" height="28" viewBox="0 0 26 28" fill="none" xmlns="http://www.w3.org/2000/svg">
<path d="M24.9991 5.5625C24.9991 5.1875 24.7178 4.8125 24.3428 4.71875L13.2803 0.875C13.0928 0.875 12.9053 0.875 12.7178 0.875L1.56158 4.625C1.28033 4.8125 0.99908 5.09375 0.99908 5.5625C0.71783 14.8437 4.46783 21.7812 12.5303 27.0312C12.8116 27.2187 13.1866 27.3125 13.5616 27.0312C21.5303 21.7812 25.3741 14.75 24.9991 5.5625ZM12.9991 25.0625C9.24908 22.5312 6.53033 19.5312 4.84283 16.0625L8.03033 17.0937C8.49908 17.2812 9.06158 17 9.24908 16.5312C9.43658 16.0625 9.15533 15.5 8.68658 15.3125L3.99908 13.8125C3.71783 13.0625 3.53033 12.3125 3.34283 11.5625L8.03033 13.0625C8.49908 13.25 9.06158 12.9687 9.24908 12.5C9.43658 12.0312 9.15533 11.4687 8.68658 11.2812L3.06158 9.5C2.96783 8.84375 2.96783 8.1875 2.87408 7.4375L8.12408 9.125C8.68658 9.3125 9.15533 8.9375 9.34283 8.5625C9.53033 8.09375 9.24908 7.53125 8.78033 7.34375L3.90533 5.84375L12.9991 2.84375L23.1241 6.3125C23.2178 14.2812 19.9366 20.4687 12.9991 25.0625V25.0625Z" fill="#F56308"/>
</svg>
