<svg width="29" height="30" viewBox="0 0 29 30" fill="none" xmlns="http://www.w3.org/2000/svg">
<path d="M28.7067 0.841956C28.5754 0.710626 28.4102 0.618428 28.2296 0.575686C28.0489 0.532945 27.8599 0.541348 27.6837 0.599956L0.683693 9.59995C0.499551 9.66135 0.337259 9.77502 0.216614 9.92708C0.0959696 10.0791 0.0221879 10.263 0.00427015 10.4563C-0.0136476 10.6496 0.0250731 10.8439 0.115709 11.0155C0.206344 11.1872 0.344976 11.3288 0.514693 11.423L9.51469 16.423C9.65666 16.5019 9.81571 16.545 9.9781 16.5487C10.1405 16.5524 10.3013 16.5164 10.4467 16.444L15.7637 13.785L13.1047 19.102C13.0321 19.2475 12.996 19.4085 12.9997 19.5711C13.0033 19.7336 13.0466 19.8929 13.1257 20.035L18.1257 29.035C18.2123 29.1908 18.339 29.3206 18.4927 29.4109C18.6464 29.5013 18.8214 29.549 18.9997 29.549H19.0927C19.2858 29.5307 19.4694 29.4568 19.6213 29.336C19.7731 29.2153 19.8865 29.053 19.9477 28.869L28.9477 1.86896C29.0072 1.69232 29.0162 1.50256 28.9736 1.32109C28.931 1.13962 28.8386 0.973668 28.7067 0.841956ZM18.7707 26.076L15.1297 19.525L18.8997 11.996C18.9938 11.8082 19.0263 11.5956 18.9928 11.3882C18.9592 11.1809 18.8612 10.9894 18.7127 10.8409C18.5642 10.6924 18.3727 10.5944 18.1654 10.5609C17.9581 10.5273 17.7455 10.5599 17.5577 10.654L10.0237 14.419L3.47269 10.779L26.4187 3.12996L18.7707 26.076Z" fill="#0042A4"/>
<path d="M10.7066 18.842C10.5191 18.6545 10.2648 18.5492 9.99959 18.5492C9.73443 18.5492 9.48012 18.6545 9.29259 18.842L3.29259 24.842C3.19708 24.9342 3.1209 25.0446 3.06849 25.1666C3.01608 25.2886 2.9885 25.4198 2.98734 25.5526C2.98619 25.6854 3.01149 25.817 3.06177 25.9399C3.11205 26.0628 3.18631 26.1745 3.2802 26.2684C3.37409 26.3623 3.48574 26.4365 3.60864 26.4868C3.73154 26.5371 3.86321 26.5624 3.99599 26.5612C4.12877 26.5601 4.25999 26.5325 4.382 26.4801C4.504 26.4277 4.61435 26.3515 4.70659 26.256L10.7066 20.256C10.8941 20.0685 10.9994 19.8141 10.9994 19.549C10.9994 19.2838 10.8941 19.0295 10.7066 18.842Z" fill="#D6D61E"/>
<path d="M3.70659 21.256L6.70659 18.256C6.88875 18.0674 6.98955 17.8148 6.98727 17.5526C6.98499 17.2904 6.87982 17.0396 6.69441 16.8542C6.509 16.6688 6.25819 16.5636 5.99599 16.5613C5.7338 16.559 5.4812 16.6598 5.29259 16.842L2.29259 19.842C2.19708 19.9342 2.1209 20.0446 2.06849 20.1666C2.01608 20.2886 1.9885 20.4198 1.98734 20.5526C1.98619 20.6854 2.01149 20.817 2.06177 20.9399C2.11205 21.0628 2.18631 21.1745 2.2802 21.2684C2.37409 21.3623 2.48574 21.4365 2.60864 21.4868C2.73154 21.5371 2.86321 21.5624 2.99599 21.5612C3.12877 21.5601 3.25999 21.5325 3.382 21.4801C3.504 21.4277 3.61435 21.3515 3.70659 21.256Z" fill="#D6D61E"/>
<path d="M11.2926 22.842L8.29259 25.842C8.19708 25.9342 8.1209 26.0446 8.06849 26.1666C8.01608 26.2886 7.9885 26.4198 7.98734 26.5526C7.98619 26.6854 8.01149 26.817 8.06177 26.9399C8.11205 27.0628 8.18631 27.1745 8.2802 27.2684C8.37409 27.3623 8.48574 27.4365 8.60864 27.4868C8.73154 27.5371 8.86321 27.5624 8.99599 27.5612C9.12877 27.5601 9.25999 27.5325 9.382 27.4801C9.504 27.4277 9.61435 27.3515 9.70659 27.256L12.7066 24.256C12.8888 24.0674 12.9895 23.8148 12.9873 23.5526C12.985 23.2904 12.8798 23.0396 12.6944 22.8542C12.509 22.6688 12.2582 22.5636 11.996 22.5613C11.7338 22.559 11.4812 22.6598 11.2926 22.842Z" fill="#D6D61E"/>
</svg>
