<svg width="14" height="20" viewBox="0 0 14 20" fill="none" xmlns="http://www.w3.org/2000/svg">
<path d="M6.99969 0C3.31824 0 0.323242 2.995 0.323242 6.67645C0.323242 10.3577 3.31824 13.3529 6.99969 13.3529C10.6809 13.3529 13.6761 10.3577 13.6761 6.67645C13.6761 2.995 10.6809 0 6.99969 0ZM6.99969 12.0395C4.04258 12.0395 1.63664 9.63356 1.63664 6.67645C1.63664 3.71934 4.04258 1.3134 6.99969 1.3134C9.95703 1.3134 12.3627 3.71934 12.3627 6.67645C12.3627 9.63356 9.95703 12.0395 6.99969 12.0395Z" fill="black"/>
<path d="M11.6621 19.0824L11.3338 11.2896L10.0217 11.3447L10.308 18.1372L7.5952 15.7997C7.25613 15.483 6.74457 15.4826 6.40527 15.7997L3.69266 18.1369L3.97898 11.3447L2.66668 11.2896L2.33832 19.0824C2.33809 19.0916 2.33789 19.1008 2.33789 19.11C2.33789 19.4578 2.53992 19.7754 2.85273 19.919C3.16707 20.064 3.52824 20.0121 3.79531 19.7824L7.00043 17.021L10.2064 19.7835C10.3728 19.926 10.5762 19.9998 10.7819 19.9998C10.9058 19.9998 11.0304 19.9733 11.1481 19.919C11.4607 19.7754 11.6628 19.4578 11.6628 19.1099C11.6628 19.1008 11.6626 19.0916 11.6621 19.0824Z" fill="black"/>
<path d="M9.91633 4.67973C9.65976 4.42316 9.24429 4.42316 8.98777 4.67973L6.12761 7.53988L4.79691 6.19301C4.54191 5.93492 4.12621 5.9323 3.86812 6.1873C3.61004 6.4423 3.60742 6.85801 3.86242 7.11609L5.65738 8.93297C5.78039 9.05754 5.94765 9.12777 6.12254 9.12824C6.1232 9.12824 6.12386 9.12824 6.12449 9.12824C6.29851 9.12824 6.46574 9.05906 6.58898 8.93563L9.91625 5.60836C10.1729 5.35195 10.1729 4.93605 9.91633 4.67973Z" fill="black"/>
</svg>
