<svg width="26" height="26" viewBox="0 0 26 26" fill="none" xmlns="http://www.w3.org/2000/svg">
<path fill-rule="evenodd" clip-rule="evenodd" d="M17.0353 10.1198C17.3701 10.4469 17.3701 10.9772 17.0353 11.3042L12.4627 15.771C12.1279 16.0981 11.5851 16.0981 11.2503 15.771L8.964 13.5376C8.62919 13.2106 8.62919 12.6803 8.964 12.3532C9.29882 12.0262 9.84165 12.0262 10.1765 12.3532L11.8565 13.9944L15.8228 10.1198C16.1575 9.79274 16.7004 9.79274 17.0353 10.1198Z" fill="#584C3B"/>
<path fill-rule="evenodd" clip-rule="evenodd" d="M13.4296 3.90633C13.1496 3.81993 12.8491 3.81993 12.569 3.90633L4.87968 6.27838C4.19632 6.48919 3.7785 7.16185 3.90266 7.8513L5.10738 14.5408C5.54939 16.9952 6.8322 19.1954 8.89916 20.4598C9.65848 20.9242 10.4497 21.3578 11.1869 21.6727C11.942 21.9952 12.5609 22.1581 12.9993 22.1581C13.4378 22.1581 14.0567 21.9952 14.8118 21.6727C15.549 21.3578 16.3402 20.9242 17.0995 20.4598C19.1665 19.1954 20.4493 16.9952 20.8913 14.5408L22.096 7.8513C22.2202 7.16185 21.8024 6.48919 21.119 6.27838L13.4296 3.90633ZM12.0527 2.30905C12.6688 2.11899 13.3299 2.11899 13.946 2.30905L21.6354 4.6811C23.1387 5.14487 24.0579 6.62472 23.7848 8.14152L22.58 14.831C22.0743 17.6391 20.5785 20.308 18.0095 21.8795C17.2109 22.368 16.3413 22.8474 15.4987 23.2073C14.6741 23.5596 13.7944 23.8332 12.9993 23.8332C12.2043 23.8332 11.3246 23.5596 10.5 23.2073C9.65737 22.8474 8.78775 22.368 7.98912 21.8795C5.42022 20.308 3.92434 17.6391 3.41863 14.831L2.21391 8.14152C1.94074 6.62472 2.85995 5.14487 4.36333 4.6811L12.0527 2.30905Z" fill="#584C3B"/>
</svg>
