<svg width="21" height="20" viewBox="0 0 21 20" fill="none" xmlns="http://www.w3.org/2000/svg">
<g clip-path="url(#clip0_117_15306)">
<path d="M18.8987 14.5876H2.61961C2.2693 14.5876 1.98535 14.8716 1.98535 15.2219C1.98535 15.5722 2.2693 15.8562 2.61961 15.8562H18.8987C19.249 15.8562 19.5329 15.5722 19.5329 15.2219C19.5329 14.8716 19.249 14.5876 18.8987 14.5876Z" fill="black"/>
<path d="M13.8239 17.1035H7.69285C7.34254 17.1035 7.05859 17.3875 7.05859 17.7378C7.05859 18.0881 7.34254 18.372 7.69285 18.372H13.8239C14.1743 18.372 14.4582 18.0881 14.4582 17.7378C14.4582 17.3875 14.1743 17.1035 13.8239 17.1035Z" fill="black"/>
<path d="M10.7587 6.91309C8.0657 6.91309 5.875 9.10398 5.875 11.7968C5.875 13.3389 6.59105 14.764 7.83949 15.707C8.11898 15.9177 8.51644 15.8621 8.72785 15.5829C8.93883 15.3034 8.88344 14.9057 8.60395 14.6945C7.67582 13.9939 7.14348 12.9376 7.14348 11.7968C7.14348 9.8034 8.76523 8.1816 10.7587 8.1816C12.7524 8.1816 14.3741 9.80336 14.3741 11.7968C14.3741 12.9395 13.8306 14.0209 12.9202 14.6896C12.638 14.897 12.5773 15.2941 12.7845 15.5763C12.9088 15.7455 13.1012 15.8351 13.2961 15.8351C13.4266 15.8351 13.5581 15.795 13.6712 15.7121C14.9056 14.8051 15.6424 13.3414 15.6424 11.7968C15.6424 9.10398 13.4517 6.91309 10.7587 6.91309Z" fill="black"/>
<path d="M10.7593 1.62793C10.4089 1.62793 10.125 1.91187 10.125 2.26219V5.64484C10.125 5.99516 10.4089 6.2791 10.7593 6.2791C11.1096 6.2791 11.3935 5.99496 11.3935 5.64484V2.26219C11.3935 1.91187 11.1096 1.62793 10.7593 1.62793Z" fill="black"/>
<path d="M20.1243 10.9937H16.7417C16.3914 10.9937 16.1074 11.2776 16.1074 11.6279C16.1074 11.9782 16.3914 12.2622 16.7417 12.2622H20.1243C20.4746 12.2622 20.7586 11.9782 20.7586 11.6279C20.7586 11.2776 20.4746 10.9937 20.1243 10.9937Z" fill="black"/>
<path d="M4.7757 10.9937H1.39305C1.04273 10.9937 0.758789 11.2776 0.758789 11.6279C0.758789 11.9782 1.04273 12.2621 1.39305 12.2621H4.7757C5.12602 12.2621 5.40996 11.9782 5.40996 11.6279C5.40996 11.2776 5.12602 10.9937 4.7757 10.9937Z" fill="black"/>
<path d="M17.8457 4.54098C17.5979 4.2934 17.1967 4.29321 16.9489 4.54098L14.5599 6.93C14.3121 7.17778 14.3121 7.57926 14.5599 7.82704C14.6838 7.95071 14.8459 8.01266 15.0083 8.01266C15.1706 8.01266 15.333 7.95071 15.4567 7.82704L17.8457 5.43801C18.0935 5.19024 18.0935 4.78875 17.8457 4.54098Z" fill="black"/>
<path d="M6.95802 6.93008L4.56899 4.54105C4.32142 4.29328 3.91974 4.29328 3.67216 4.54105C3.42438 4.78863 3.42438 5.19031 3.67216 5.43789L6.06118 7.82691C6.18485 7.95082 6.34724 8.01273 6.50958 8.01273C6.67192 8.01273 6.83431 7.95078 6.95798 7.82691C7.20579 7.57934 7.20579 7.17762 6.95802 6.93008Z" fill="black"/>
</g>
<defs>
<clipPath id="clip0_117_15306">
<rect width="20" height="20" fill="white" transform="translate(0.758789)"/>
</clipPath>
</defs>
</svg>
