<svg width="30" height="30" viewBox="0 0 30 30" fill="none" xmlns="http://www.w3.org/2000/svg">
<g clip-path="url(#clip0_304_238)">
<path d="M7.92844 6.16118L6.16094 4.39368C5.67344 3.90556 4.88094 3.90556 4.39344 4.39368C3.90531 4.88181 3.90531 5.67306 4.39344 6.16118L6.16094 7.92868C6.40469 8.17306 6.72469 8.29493 7.04469 8.29493C7.36469 8.29493 7.68469 8.17306 7.92844 7.92868C8.41656 7.44056 8.41656 6.64931 7.92844 6.16118Z" fill="#F56308"/>
<path d="M3.75 13.75H1.25C0.56 13.75 0 14.31 0 15C0 15.69 0.56 16.25 1.25 16.25H3.75C4.44 16.25 5 15.69 5 15C5 14.31 4.44 13.75 3.75 13.75Z" fill="#F56308"/>
<path d="M7.92844 22.0712C7.44094 21.583 6.64844 21.583 6.16094 22.0712L4.39344 23.8387C3.90531 24.3268 3.90531 25.118 4.39344 25.6062C4.63719 25.8505 4.95719 25.9724 5.27719 25.9724C5.59719 25.9724 5.91719 25.8505 6.16094 25.6062L7.92844 23.8387C8.41656 23.3505 8.41656 22.5593 7.92844 22.0712Z" fill="#F56308"/>
<path d="M15 25C14.31 25 13.75 25.56 13.75 26.25V28.75C13.75 29.44 14.31 30 15 30C15.69 30 16.25 29.44 16.25 28.75V26.25C16.25 25.56 15.69 25 15 25Z" fill="#F56308"/>
<path d="M25.6081 23.8387L23.8406 22.0712C23.3531 21.583 22.5606 21.583 22.0731 22.0712C21.585 22.5593 21.585 23.3505 22.0731 23.8387L23.8406 25.6062C24.0844 25.8505 24.4044 25.9724 24.7244 25.9724C25.0444 25.9724 25.3644 25.8505 25.6081 25.6062C26.0963 25.118 26.0963 24.3268 25.6081 23.8387Z" fill="#F56308"/>
<path d="M28.75 13.75H26.25C25.56 13.75 25 14.31 25 15C25 15.69 25.56 16.25 26.25 16.25H28.75C29.44 16.25 30 15.69 30 15C30 14.31 29.44 13.75 28.75 13.75Z" fill="#F56308"/>
<path d="M25.6081 4.39368C25.1206 3.90556 24.3281 3.90556 23.8406 4.39368L22.0731 6.16118C21.585 6.64931 21.585 7.44056 22.0731 7.92868C22.3169 8.17306 22.6369 8.29493 22.9569 8.29493C23.2769 8.29493 23.5969 8.17306 23.8406 7.92868L25.6081 6.16118C26.0963 5.67306 26.0963 4.88181 25.6081 4.39368Z" fill="#F56308"/>
<path d="M15 0C14.31 0 13.75 0.56 13.75 1.25V3.75C13.75 4.44 14.31 5 15 5C15.69 5 16.25 4.44 16.25 3.75V1.25C16.25 0.56 15.69 0 15 0Z" fill="#F56308"/>
<path d="M15 6.875C10.52 6.875 6.875 10.52 6.875 15C6.875 19.48 10.52 23.125 15 23.125C19.48 23.125 23.125 19.48 23.125 15C23.125 10.52 19.48 6.875 15 6.875ZM15 20.625C11.8988 20.625 9.375 18.1012 9.375 15C9.375 11.8988 11.8988 9.375 15 9.375C18.1012 9.375 20.625 11.8988 20.625 15C20.625 18.1012 18.1012 20.625 15 20.625Z" fill="#F56308"/>
</g>
<defs>
<clipPath id="clip0_304_238">
<rect width="30" height="30" fill="white"/>
</clipPath>
</defs>
</svg>
