<svg width="74" height="29" viewBox="0 0 74 29" fill="none" xmlns="http://www.w3.org/2000/svg">
<path d="M9.14129 16.7417L10.4535 18.1394C10.0262 18.789 9.41754 19.2935 8.62859 19.6505C7.86716 19.9947 7.04114 20.1727 6.20555 20.1726C4.65457 20.1726 3.41379 19.6974 2.4832 18.7469C1.56081 17.7964 1.09961 16.5673 1.09961 15.062C1.09961 13.5929 1.59358 12.3744 2.5827 11.404C3.57181 10.4348 4.79738 9.9502 6.26173 9.9502C7.06005 9.9502 7.83495 10.1106 8.58528 10.4301C9.34613 10.7509 9.91619 11.2167 10.2966 11.8278L8.79949 13.1833C8.51124 12.8351 8.14514 12.5596 7.73077 12.3791C7.32292 12.1764 6.87403 12.0699 6.41859 12.0677C5.51492 12.0677 4.78333 12.3463 4.22264 12.9012C3.67131 13.4466 3.39506 14.1677 3.39506 15.062C3.39506 15.9282 3.67599 16.6422 4.23668 17.2076C4.79855 17.773 5.51492 18.0551 6.39049 18.0551C7.52125 18.0551 8.43896 17.6173 9.14129 16.7417ZM15.8766 20.004H11.5269V10.1199H15.9902C17.0835 10.1199 17.9099 10.299 18.4717 10.656C19.1179 11.1172 19.441 11.7809 19.441 12.6471C19.441 13.504 19.1179 14.2098 18.4717 14.7658C19.3368 15.1697 19.7687 15.9364 19.7687 17.0671C19.7687 17.7812 19.5697 18.37 19.1706 18.8323C18.7991 19.2719 18.3091 19.5954 17.7589 19.7641C17.1459 19.9322 16.5122 20.013 15.8766 20.004ZM15.7619 15.9516H13.7369V17.9568H15.6484C15.886 17.9568 16.085 17.9474 16.2465 17.9275C16.4186 17.9088 16.6094 17.8713 16.8178 17.8151C17.007 17.7721 17.1742 17.6619 17.2883 17.5049C17.4066 17.3407 17.4667 17.1418 17.4592 16.9395C17.4681 16.744 17.413 16.5509 17.3024 16.3894C17.1996 16.2423 17.0477 16.1369 16.8739 16.0921C16.7043 16.0307 16.5271 15.9929 16.3472 15.9797C16.1528 15.9587 15.9574 15.9493 15.7619 15.9516ZM15.6203 12.1672H13.738V13.9745H15.8052C16.1564 13.9745 16.4654 13.9137 16.7323 13.7908C17.0074 13.669 17.1455 13.4513 17.1455 13.1411C17.1526 12.954 17.108 12.7685 17.0167 12.605C16.9377 12.4608 16.8047 12.3538 16.6469 12.3077C16.4944 12.2536 16.3367 12.2159 16.1763 12.1953C15.9913 12.1742 15.8052 12.1648 15.6191 12.1672H15.6203ZM20.6923 15.062C20.6923 13.6304 21.1909 12.4212 22.1906 11.4333C23.1972 10.4442 24.4146 9.9502 25.8403 9.9502C26.847 9.9502 27.7788 10.2194 28.6345 10.7555C29.4723 11.2608 30.1306 12.0162 30.5167 12.9152C30.821 13.6491 30.9732 14.3655 30.9732 15.062C30.9732 16.483 30.4746 17.6922 29.4749 18.6907C28.4776 19.6786 27.2661 20.1726 25.8403 20.1726C24.3947 20.1726 23.1738 19.6786 22.1754 18.6907C21.1862 17.6922 20.6923 16.483 20.6923 15.062ZM23.786 12.9433C23.2546 13.5274 22.9877 14.2332 22.9877 15.062C22.9877 15.8896 23.2593 16.5954 23.8013 17.1807C24.3432 17.7636 25.0221 18.0551 25.8403 18.0551C26.6948 18.0551 27.3796 17.7683 27.8935 17.1936C28.4156 16.62 28.6778 15.9083 28.6778 15.062C28.6778 14.2426 28.4062 13.5414 27.8642 12.9573C27.6115 12.6709 27.2995 12.4429 26.9498 12.2893C26.6 12.1357 26.2211 12.0601 25.8392 12.0677C25.0034 12.0677 24.3186 12.3604 23.786 12.9433ZM32.331 10.1199H39.846V12.1672H34.5422V13.7767H37.0507C38.1346 13.7767 38.9856 14.0261 39.6037 14.5259C40.2217 15.014 40.5308 15.7819 40.5308 16.826C40.5308 18.9447 39.1472 20.004 36.3811 20.004H32.331V10.1199ZM36.5521 15.824H34.5422V17.9568H36.4666C36.7042 17.9568 36.9091 17.9474 37.08 17.9275C37.2602 17.8994 37.4464 17.8526 37.636 17.787C37.8172 17.7191 37.9722 17.5953 38.0784 17.4335C38.1878 17.2558 38.2424 17.0498 38.2353 16.8412C38.2441 16.6457 38.1891 16.4526 38.0784 16.2911C37.9796 16.1373 37.8268 16.0262 37.65 15.9797C37.4847 15.9174 37.3126 15.8746 37.1373 15.8521C36.9429 15.8316 36.7475 15.8223 36.5521 15.824ZM41.315 15.062C41.315 13.6304 41.8148 12.4212 42.8133 11.4333C43.82 10.4442 45.0374 9.9502 46.4631 9.9502C47.4698 9.9502 48.4027 10.2194 49.2584 10.7555C50.0958 11.261 50.7537 12.0163 51.1394 12.9152C51.4438 13.6491 51.596 14.3655 51.596 15.062C51.596 16.483 51.0973 17.6922 50.0988 18.6907C49.1015 19.6786 47.8888 20.1726 46.4631 20.1726C45.0186 20.1726 43.7966 19.6786 42.7993 18.6907C41.8102 17.6922 41.315 16.483 41.315 15.062ZM44.41 12.9433C43.8773 13.5274 43.6116 14.2332 43.6116 15.062C43.6116 15.8896 43.882 16.5954 44.424 17.1807C44.966 17.7636 45.6461 18.0551 46.4631 18.0551C47.3176 18.0551 48.0035 17.7683 48.5162 17.1936C49.0395 16.62 49.3005 15.9083 49.3005 15.062C49.3005 14.2426 49.0301 13.5414 48.4881 12.9573C48.2354 12.6709 47.9234 12.4429 47.5737 12.2893C47.224 12.1357 46.845 12.0601 46.4631 12.0677C45.6262 12.0677 44.9414 12.3604 44.41 12.9433ZM53.5519 21.6557H51.4848V17.9568H52.5687C53.2628 16.5252 53.6105 14.3082 53.6105 11.3057V10.1199H60.8679V17.9568H62.0232V21.6557H59.9548V20.004H53.5519V21.6557ZM58.6579 12.1672H55.7198L55.7058 12.7174C55.6496 14.9765 55.364 16.723 54.8513 17.9568H58.6579V12.1672ZM64.3901 20.004H62.1075L66.4854 10.1199H68.1253L72.5031 20.004H70.1936L69.3801 18.1686H65.2024L64.3901 20.004ZM68.5678 16.318L67.2848 13.3682L65.9726 16.318H68.5678Z" fill="#DADADA"/>
</svg>
