<svg width="15" height="16" viewBox="0 0 15 16" fill="none" xmlns="http://www.w3.org/2000/svg">
<g clip-path="url(#clip0_2_2066)">
<path d="M1.02951 11.2589C2.07184 10.2165 3.76763 10.2165 4.80996 11.2587C4.81007 11.2589 4.81007 11.2589 4.81019 11.259C6.31257 12.7612 8.74456 12.7617 10.2475 11.2591C10.2476 11.259 10.2477 11.2589 10.248 11.2586C11.2902 10.2165 12.986 10.2165 14.0282 11.2589C14.2571 11.4876 14.6281 11.4876 14.8569 11.2589C15.0856 11.03 15.0856 10.6591 14.8569 10.4302C13.6583 9.23165 11.859 8.99155 10.4194 9.70932V2.38315C10.4194 2.07084 10.6735 1.81678 10.9858 1.81678C11.2981 1.81678 11.5521 2.07096 11.5521 2.38315C11.5521 2.70679 11.8144 2.96909 12.1381 2.96909C12.4616 2.96909 12.7239 2.70679 12.7239 2.38315C12.7239 1.42482 11.9442 0.64502 10.9858 0.64502C10.0273 0.64502 9.24752 1.42482 9.24752 2.38315V4.10183H5.81029V2.38315C5.81029 2.07084 6.06435 1.81678 6.37654 1.81678C6.68897 1.81678 6.94291 2.07096 6.94291 2.38315C6.94291 2.70679 7.20532 2.96909 7.52885 2.96909C7.85249 2.96909 8.11479 2.70679 8.11479 2.38315C8.11479 1.42482 7.3351 0.64502 6.37654 0.64502C5.41821 0.64502 4.63841 1.42482 4.63841 2.38315V9.70932C3.19886 8.99155 1.3995 9.23176 0.200958 10.4302C-0.0279237 10.6591 -0.0279237 11.03 0.200958 11.2589C0.429726 11.4876 0.800744 11.4876 1.02951 11.2589ZM5.81029 10.587V8.73051H9.24752V10.587C8.27123 11.4096 6.81645 11.4346 5.81029 10.587ZM9.24752 5.2737V7.55863H5.81029V5.2737H9.24752ZM14.8569 13.6894C15.0856 13.9182 15.0856 14.2891 14.8569 14.5179C14.6281 14.7468 14.2571 14.7468 14.0282 14.5179C12.986 13.4757 11.29 13.4757 10.2477 14.5179C8.7449 16.0209 6.31268 16.0206 4.81007 14.5179C3.76774 13.4757 2.07184 13.4757 1.02951 14.5179C0.800744 14.7468 0.429726 14.7468 0.200958 14.5179C-0.0278092 14.2891 -0.0279237 13.9181 0.200958 13.6894C1.70014 12.1902 4.13945 12.1902 5.63863 13.6894C6.68347 14.7342 8.37457 14.7341 9.41919 13.6894C10.9184 12.1902 13.3577 12.1902 14.8569 13.6894Z" fill="black"/>
</g>
<defs>
<clipPath id="clip0_2_2066">
<rect width="15" height="15" fill="white" transform="translate(0 0.64502)"/>
</clipPath>
</defs>
</svg>
