<svg width="13" height="14" viewBox="0 0 13 14" fill="none" xmlns="http://www.w3.org/2000/svg">
<g clip-path="url(#clip0_315_1098)">
<path d="M0.892244 9.69866C1.7956 8.79531 3.26528 8.79531 4.16863 9.69856C4.16873 9.69866 4.16873 9.69866 4.16883 9.69876C5.47089 11.0007 7.57862 11.0011 8.88118 9.69886C8.88128 9.69876 8.88137 9.69866 8.88157 9.69846C9.78483 8.79531 11.2545 8.79531 12.1578 9.69866C12.3561 9.89692 12.6777 9.89692 12.8759 9.69866C13.0742 9.50029 13.0742 9.17884 12.8759 8.98048C11.8372 7.94174 10.2778 7.73366 9.03015 8.35573V2.00638C9.03015 1.73571 9.25033 1.51553 9.521 1.51553C9.79167 1.51553 10.0119 1.73581 10.0119 2.00638C10.0119 2.28687 10.2392 2.51419 10.5197 2.51419C10.8001 2.51419 11.0274 2.28687 11.0274 2.00638C11.0274 1.17583 10.3517 0.5 9.521 0.5C8.69035 0.5 8.01452 1.17583 8.01452 2.00638V3.4959H5.03558V2.00638C5.03558 1.73571 5.25577 1.51553 5.52634 1.51553C5.7971 1.51553 6.01719 1.73581 6.01719 2.00638C6.01719 2.28687 6.24461 2.51419 6.525 2.51419C6.80549 2.51419 7.03281 2.28687 7.03281 2.00638C7.03281 1.17583 6.35709 0.5 5.52634 0.5C4.69578 0.5 4.01996 1.17583 4.01996 2.00638V8.35573C2.77234 7.73366 1.2129 7.94184 0.174164 8.98048C-0.0242005 9.17884 -0.0242005 9.50029 0.174164 9.69866C0.372429 9.89692 0.693978 9.89692 0.892244 9.69866ZM5.03558 9.11636V7.50742H8.01452V9.11636C7.1684 9.82928 5.90759 9.851 5.03558 9.11636ZM8.01452 4.51153V6.4918H5.03558V4.51153H8.01452ZM12.8759 11.8051C13.0742 12.0035 13.0742 12.3249 12.8759 12.5232C12.6777 12.7215 12.3561 12.7215 12.1578 12.5232C11.2545 11.6199 9.78463 11.6199 8.88137 12.5232C7.57891 13.8257 5.47099 13.8255 4.16873 12.5232C3.26538 11.6199 1.7956 11.6199 0.892244 12.5232C0.693978 12.7215 0.372429 12.7215 0.174164 12.5232C-0.0241013 12.3249 -0.0242005 12.0034 0.174164 11.8051C1.47345 10.5058 3.58752 10.5058 4.88681 11.8051C5.79234 12.7106 7.25796 12.7105 8.16329 11.8051C9.46258 10.5058 11.5767 10.5058 12.8759 11.8051Z" fill="#584C3B"/>
</g>
<defs>
<clipPath id="clip0_315_1098">
<rect width="13" height="13" fill="white" transform="translate(0 0.5)"/>
</clipPath>
</defs>
</svg>
