<svg width="21" height="20" viewBox="0 0 21 20" fill="none" xmlns="http://www.w3.org/2000/svg">
<path d="M10.5996 20C16.1238 20 20.5996 15.5242 20.5996 10C20.5996 4.47583 16.1238 0 10.5996 0C5.07544 0 0.599609 4.47583 0.599609 10C0.599609 15.5242 5.07544 20 10.5996 20ZM5.17544 9.78333L14.8171 6.06583C15.2646 5.90417 15.6554 6.175 15.5104 6.85167L15.5113 6.85083L13.8696 14.585C13.7479 15.1333 13.4221 15.2667 12.9663 15.0083L10.4663 13.1658L9.26044 14.3275C9.12711 14.4608 9.01461 14.5733 8.75628 14.5733L8.93378 12.0292L13.5671 7.84333C13.7688 7.66583 13.5221 7.56583 13.2563 7.7425L7.53044 11.3475L5.06211 10.5775C4.52628 10.4075 4.51461 10.0417 5.17544 9.78333Z"/>
</svg>
