<svg width="40" height="28" viewBox="0 0 40 28" fill="none" xmlns="http://www.w3.org/2000/svg">
<path d="M31.0489 21.49H38.951V25.55C38.951 26.32 38.3217 26.95 37.5524 26.95H32.3776C31.6084 26.95 30.979 26.32 30.979 25.55L31.0489 21.49ZM32.3776 1.05H37.5524C38.3217 1.05 38.951 1.68 38.951 2.45V20.51H31.0489V2.45C31.0489 1.68 31.6084 1.05 32.3776 1.05ZM32.3776 0C31.0489 0 29.9301 1.12 29.9301 2.45V25.55C29.9301 26.88 31.0489 28 32.3776 28H37.5524C38.8811 28 40 26.88 40 25.55V2.45C40 1.12 38.8811 0 37.5524 0H32.3776Z" fill="white"/>
<path d="M34.965 13.2299C36.014 13.2299 36.7832 14.0699 36.7832 15.0499C36.7832 16.0999 35.9441 16.8699 34.965 16.8699C33.9161 16.8699 33.1469 16.0299 33.1469 15.0499C33.1469 13.9999 33.986 13.2299 34.965 13.2299ZM34.965 12.1799C33.3566 12.1799 32.0979 13.5099 32.0979 15.0499C32.0979 16.6599 33.4266 17.9199 34.965 17.9199C36.5734 17.9199 37.8322 16.5899 37.8322 15.0499C37.8322 13.4399 36.5734 12.1799 34.965 12.1799Z" fill="white"/>
<path d="M32.937 3.8501C32.6573 3.8501 32.3776 4.0601 32.3776 4.4101C32.3776 4.6901 32.5874 4.9701 32.937 4.9701H33.8461C34.1258 4.9701 34.4055 4.7601 34.4055 4.4101C34.4055 4.1301 34.1957 3.8501 33.8461 3.8501H32.937Z" fill="white"/>
<path d="M36.0839 3.8501C35.8041 3.8501 35.5244 4.0601 35.5244 4.4101C35.5244 4.6901 35.7342 4.9701 36.0839 4.9701H37.0629C37.3426 4.9701 37.6223 4.7601 37.6223 4.4101C37.6223 4.1301 37.4125 3.8501 37.0629 3.8501H36.0839Z" fill="white"/>
<path d="M32.8672 6.22991C32.1679 6.29991 32.2378 7.34991 32.9371 7.27991H33.8462C34.1259 7.27991 34.4056 7.06991 34.4056 6.71991C34.4056 6.36991 34.1958 6.15991 33.8462 6.15991L32.8672 6.22991Z" fill="white"/>
<path d="M36.084 6.22998C35.3847 6.29998 35.4546 7.34998 36.1539 7.27998H37.063C37.3427 7.27998 37.6224 7.06998 37.6224 6.71998C37.6224 6.36998 37.3427 6.22998 37.063 6.22998H36.084Z" fill="white"/>
<path d="M32.8672 8.61004C32.1679 8.68004 32.2378 9.66004 32.9371 9.66004H33.8462C34.1259 9.66004 34.4056 9.45004 34.4056 9.10004C34.4056 8.82004 34.1259 8.54004 33.8462 8.54004L32.8672 8.61004Z" fill="white"/>
<path d="M36.084 8.61004C35.3847 8.68004 35.4546 9.66004 36.1539 9.66004H37.063C37.3427 9.66004 37.6224 9.45004 37.6224 9.10004C37.6224 8.82004 37.3427 8.54004 37.063 8.54004L36.084 8.61004Z" fill="white"/>
<path d="M2.93706 18.9699H24.8252C25.8741 18.9699 26.7133 19.8099 26.7133 20.8599V25.0599C26.7133 26.1099 25.8741 26.9499 24.8252 26.9499H2.93706C1.88811 26.9499 1.04895 26.1099 1.04895 25.0599V20.8599C1.04895 19.8099 1.88811 18.9699 2.93706 18.9699ZM5.03497 12.0399H22.7273C23.2168 12.0399 23.4965 12.1799 23.7762 12.5299C24.0559 12.8799 24.2657 13.3699 24.4755 13.9299L25.9441 18.1299C25.5944 17.9899 25.2448 17.9199 24.8951 17.9199H3.00699C2.65734 17.9199 2.23776 17.9899 1.95804 18.1299L3.42657 13.9299C3.63636 13.3699 3.84615 12.8799 4.12587 12.5299C4.33566 12.1799 4.61538 12.0399 5.03497 12.0399ZM5.03497 10.9899C4.26573 10.9899 3.63636 11.3399 3.21678 11.8299C2.7972 12.3199 2.51748 12.9499 2.30769 13.5799L0.13986 19.8099C0.13986 19.8799 0.0699301 19.9499 0.13986 20.0199C0.0699301 20.2299 0 20.5799 0 20.8599V25.0599C0 26.6699 1.32867 27.9999 2.93706 27.9999H24.8252C26.4336 27.9999 27.7622 26.6699 27.7622 25.0599V20.8599C27.7622 20.5799 27.6923 20.2299 27.6224 19.9499C27.6224 19.8799 27.6224 19.8099 27.6224 19.7399L25.4545 13.5099C25.2448 12.8799 24.965 12.2499 24.5455 11.7599C24.1259 11.2699 23.4965 10.9199 22.7273 10.9199L5.03497 10.9899Z" fill="white"/>
<path d="M18.6014 20.9301C18.4615 20.9301 18.3217 21.0001 18.2518 21.0701C17.4825 21.8401 17.2028 23.1001 17.6224 24.0801C18.042 25.1301 19.0909 25.8301 20.2098 25.8301C21.3287 25.8301 22.3077 25.1301 22.7972 24.0801C23.2168 23.0301 23.007 21.8401 22.1678 21.0701C21.9581 20.8601 21.6084 20.8601 21.3986 21.0701C21.1888 21.2801 21.1888 21.6301 21.3986 21.8401C21.8881 22.3301 22.028 23.1001 21.7483 23.7301C21.4685 24.3601 20.8392 24.7801 20.1399 24.7801C19.4406 24.7801 18.8112 24.3601 18.5315 23.7301C18.2518 23.1001 18.3916 22.3301 18.8811 21.8401C19.3007 21.4901 19.0909 20.8601 18.6014 20.9301Z" fill="white"/>
<path d="M20.2098 20.1599C19.9301 20.1599 19.7203 20.4399 19.7203 20.7199V22.9599C19.7203 23.2399 19.9301 23.5199 20.2798 23.5199C20.5595 23.5199 20.8392 23.3099 20.8392 22.9599V20.7199C20.6994 20.4399 20.4896 20.1599 20.2098 20.1599Z" fill="white"/>
<path d="M6.01404 22.9599C6.01404 23.5199 5.52453 24.0099 4.96509 24.0099C4.40565 24.0099 3.91614 23.5199 3.91614 22.9599C3.91614 22.3999 4.40565 21.9099 4.96509 21.9099C5.52453 21.9099 6.01404 22.3999 6.01404 22.9599Z" fill="white"/>
<path d="M9.86011 22.9599C9.86011 23.5199 9.3706 24.0099 8.81116 24.0099C8.25172 24.0099 7.76221 23.5199 7.76221 22.9599C7.76221 22.3999 8.25172 21.9099 8.81116 21.9099C9.3706 21.9099 9.86011 22.3999 9.86011 22.9599Z" fill="white"/>
</svg>
