<svg width="45" height="38" viewBox="0 0 45 38" fill="none" xmlns="http://www.w3.org/2000/svg">
<g clip-path="url(#clip0_5_364)">
<path d="M19.8999 14.7C19.0999 14.7 18.3999 15.4 18.3999 16.2C18.3999 17 19.0999 17.7 19.8999 17.7C20.6999 17.7 21.3999 17 21.3999 16.2C21.3999 15.4 20.7999 14.7 19.8999 14.7Z" fill="#0A244A"/>
<path d="M19.9001 11.5C18.3001 11.5 16.9001 12.3 16.0001 13.6C15.9001 13.8 15.8001 14.1 15.9001 14.4C16.0001 14.7 16.1001 14.9 16.3001 15C16.8001 15.3 17.4001 15.2 17.7001 14.7C18.2001 14 19.0001 13.5 19.9001 13.5C20.8001 13.5 21.6001 14 22.2001 14.7C22.4001 15 22.7001 15.1 23.0001 15.1C23.2001 15.1 23.4001 15 23.5001 14.9C23.7001 14.8 23.9001 14.5 23.9001 14.3C24.0001 14 23.9001 13.8 23.8001 13.6C23.0001 12.2 21.5001 11.5 19.9001 11.5Z" fill="#0A244A"/>
<path d="M19.9 7.80005C17.1 7.80005 14.5 9.20005 13 11.5C12.7 12 12.8 12.6 13.3 12.9C13.5 13.1 13.8 13.1 14.1 13.1C14.4 13.1 14.6 12.9 14.7 12.7C15.9 11 17.8 9.90005 19.9 9.90005C22 9.90005 24 11 25.2 12.7C25.4 13 25.7 13.1 26 13.1C26.2 13.1 26.4 13 26.6 12.9C26.8 12.8 27 12.5 27 12.3C27.1 12 27 11.8 26.9 11.6C25.3 9.20005 22.7 7.80005 19.9 7.80005Z" fill="#0A244A"/>
<path d="M42.7 10.8H39.9V2.3C39.9 1.1 38.9 0 37.6 0H2.3C1 0 0 1 0 2.3V23.2C0 24.4 1 25.5 2.3 25.5H19V28.5H12.9C12.3 28.5 11.9 29 11.9 29.5C11.9 30 12.3 30.5 12.9 30.5H27.1C27.7 30.5 28.1 30 28.1 29.5C28.1 28.9 27.6 28.5 27.1 28.5H21V25.5H32V35.1C32 36.2 32.9 37.1 34 37.1H42.7C43.8 37.1 44.7 36.2 44.7 35.1V12.8C44.7 11.7 43.8 10.8 42.7 10.8ZM34 10.8C32.9 10.8 32 11.7 32 12.8V23.4H2.3C2.2 23.4 2 23.3 2 23.1V2.3C2 2.1 2.1 2 2.3 2H37.7C37.8 2 38 2.1 38 2.3V10.8H34ZM42.7 12.8V35.1H34V12.8H42.7Z" fill="#0A244A"/>
<path d="M38.2999 30.9C40.2999 30.9 41.9 29.2999 41.9 27.2999C41.9 25.2999 40.2999 23.7 38.2999 23.7C36.2999 23.7 34.7 25.2999 34.7 27.2999C34.7 29.2999 36.2999 30.9 38.2999 30.9ZM36.2 27.2999C36.2 26.0999 37.0999 25.2 38.2999 25.2C39.4999 25.2 40.4 26.0999 40.4 27.2999C40.4 27.8999 40.1999 28.3999 39.7999 28.7999C39.3999 29.1999 38.8999 29.4 38.2999 29.4C37.1999 29.4 36.2 28.4999 36.2 27.2999Z" fill="#0A244A"/>
<path d="M35.5 19.5H36.5C36.9 19.5 37.2999 19.2 37.2999 18.7V17.7C37.2999 17.3 37 16.9 36.5 16.9H35.5C35.1 16.9 34.7 17.2 34.7 17.7V18.7C34.8 19.1 35.1 19.5 35.5 19.5Z" fill="#0A244A"/>
<path d="M40.1 19.5H41.1C41.5 19.5 41.9001 19.2 41.9001 18.7V17.7C41.9001 17.3 41.6 16.9 41.1 16.9H40.1C39.7 16.9 39.3 17.2 39.3 17.7V18.7C39.3 19.1 39.7 19.5 40.1 19.5Z" fill="#0A244A"/>
<path d="M36.5 31.7H35.5C35.1 31.7 34.7 32 34.7 32.5V33.5C34.7 33.9 35 34.2999 35.5 34.2999H36.5C36.9 34.2999 37.2999 34 37.2999 33.5V32.5C37.2999 32.1 37 31.7 36.5 31.7Z" fill="#0A244A"/>
<path d="M41.1 31.7H40.1C39.7 31.7 39.3 32 39.3 32.5V33.5C39.3 33.9 39.6 34.2999 40.1 34.2999H41.1C41.5 34.2999 41.9001 34 41.9001 33.5V32.5C41.9001 32.1 41.5 31.7 41.1 31.7Z" fill="#0A244A"/>
<path d="M35.5 15.9H36.5C36.9 15.9 37.2999 15.6 37.2999 15.1V14.1C37.2999 13.7 37 13.3 36.5 13.3H35.5C35.1 13.3 34.7 13.6 34.7 14.1V15.1C34.8 15.6 35.1 15.9 35.5 15.9Z" fill="#0A244A"/>
<path d="M40.1 15.9H41.1C41.5 15.9 41.9001 15.6 41.9001 15.1V14.1C41.9001 13.7 41.6 13.3 41.1 13.3H40.1C39.7 13.3 39.3 13.6 39.3 14.1V15.1C39.3 15.6 39.7 15.9 40.1 15.9Z" fill="#0A244A"/>
<path d="M35.5 23H36.5C36.9 23 37.2999 22.7 37.2999 22.2V21.2C37.2999 20.8 37 20.4 36.5 20.4H35.5C35.1 20.4 34.7 20.7 34.7 21.2V22.2C34.8 22.7 35.1 23 35.5 23Z" fill="#0A244A"/>
<path d="M40.1 23H41.1C41.5 23 41.9001 22.7 41.9001 22.2V21.2C41.9001 20.8 41.6 20.4 41.1 20.4H40.1C39.7 20.4 39.3 20.7 39.3 21.2V22.2C39.3 22.7 39.7 23 40.1 23Z" fill="#0A244A"/>
<path d="M4.1001 19.8C3.5001 19.8 3.1001 20.3 3.1001 20.8V21.2001C3.1001 21.8001 3.6001 22.2001 4.1001 22.2001C4.7001 22.2001 5.1001 21.8001 5.1001 21.2001V20.8C5.1001 20.2 4.6001 19.8 4.1001 19.8Z" fill="#0A244A"/>
<path d="M6.3999 19.8C5.7999 19.8 5.3999 20.3 5.3999 20.8V21.2001C5.3999 21.8001 5.8999 22.2001 6.3999 22.2001C6.9999 22.2001 7.3999 21.8001 7.3999 21.2001V20.8C7.3999 20.2 6.9999 19.8 6.3999 19.8Z" fill="#0A244A"/>
<path d="M7.2001 2.59998H3.6001C3.0001 2.59998 2.6001 2.99998 2.6001 3.59998V6.79998C2.6001 7.39998 3.0001 7.79998 3.6001 7.79998C4.2001 7.79998 4.6001 7.39998 4.6001 6.79998V4.69998H7.2001C7.8001 4.69998 8.2001 4.29998 8.2001 3.69998C8.2001 3.09998 7.7001 2.59998 7.2001 2.59998Z" fill="#0A244A"/>
<path d="M22.7001 33.2C22.7001 32.6 22.3001 32.2 21.7001 32.2H3.6001C3.0001 32.2 2.6001 32.7 2.6001 33.2C2.6001 33.8 3.0001 34.2 3.6001 34.2H21.7001C22.2001 34.2 22.7001 33.7 22.7001 33.2Z" fill="#0A244A"/>
<path d="M29.4999 35.5H11.3999C10.7999 35.5 10.3999 36 10.3999 36.5C10.3999 37.1 10.7999 37.5 11.3999 37.5H29.4999C30.0999 37.5 30.4999 37.1 30.4999 36.5C30.4999 36 29.9999 35.5 29.4999 35.5Z" fill="#0A244A"/>
</g>
<defs>
<clipPath id="clip0_5_364">
<rect width="44.7" height="37.5" fill="white"/>
</clipPath>
</defs>
</svg>
