<svg width="34" height="35" viewBox="0 0 34 35" fill="none" xmlns="http://www.w3.org/2000/svg">
<path fill-rule="evenodd" clip-rule="evenodd" d="M31.4375 17.0312C31.4375 13.2022 29.9164 9.52995 27.2089 6.8224C24.5013 4.11484 20.8291 2.59375 17 2.59375C13.1709 2.59375 9.49871 4.11484 6.79115 6.82239C4.08359 9.52995 2.5625 13.2022 2.5625 17.0312C2.5625 20.8603 4.08359 24.5325 6.79115 27.2401C9.4987 29.9477 13.1709 31.4687 17 31.4687C20.8291 31.4687 24.5013 29.9477 27.2089 27.2401C29.9164 24.5325 31.4375 20.8603 31.4375 17.0312ZM0.500001 17.0312C0.500002 12.6552 2.23839 8.45834 5.33274 5.36398C8.42709 2.26964 12.6239 0.531248 17 0.531249C21.3761 0.531249 25.5729 2.26964 28.6673 5.36399C31.7616 8.45834 33.5 12.6552 33.5 17.0312C33.5 21.4073 31.7616 25.6042 28.6673 28.6985C25.5729 31.7929 21.3761 33.5312 17 33.5312C12.6239 33.5312 8.42709 31.7929 5.33274 28.6985C2.23839 25.6042 0.500001 21.4073 0.500001 17.0312ZM15.9688 24.25C15.9688 24.5235 16.0774 24.7858 16.2708 24.9792C16.4642 25.1726 16.7265 25.2812 17 25.2812C17.2735 25.2812 17.5358 25.1726 17.7292 24.9792C17.9226 24.7858 18.0313 24.5235 18.0313 24.25L18.0313 12.3019L22.4574 16.7301C22.651 16.9238 22.9137 17.0326 23.1875 17.0326C23.4614 17.0326 23.724 16.9238 23.9176 16.7301C24.1113 16.5365 24.2201 16.2738 24.2201 16C24.2201 15.7261 24.1113 15.4635 23.9176 15.2699L17.7301 9.08237C17.6343 8.98634 17.5205 8.91014 17.3952 8.85815C17.27 8.80617 17.1356 8.77941 17 8.77941C16.8644 8.77941 16.73 8.80617 16.6048 8.85815C16.4795 8.91014 16.3657 8.98634 16.2699 9.08237L10.0824 15.2699C9.88873 15.4635 9.77995 15.7261 9.77995 16C9.77995 16.2738 9.88873 16.5365 10.0824 16.7301C10.276 16.9238 10.5387 17.0326 10.8125 17.0326C11.0864 17.0326 11.349 16.9238 11.5426 16.7301L15.9688 12.3019L15.9688 24.25Z" fill="white" stroke="white"/>
</svg>
