<svg width="25" height="24" viewBox="0 0 25 24" fill="none" xmlns="http://www.w3.org/2000/svg">
<path d="M24.5 12C24.5 8.8174 23.2357 5.76516 20.9853 3.51472C18.7348 1.26428 15.6826 0 12.5 0C9.3174 0 6.26516 1.26428 4.01472 3.51472C1.76428 5.76516 0.5 8.8174 0.5 12C0.5 15.1826 1.76428 18.2348 4.01472 20.4853C6.26516 22.7357 9.3174 24 12.5 24C15.6826 24 18.7348 22.7357 20.9853 20.4853C23.2357 18.2348 24.5 15.1826 24.5 12ZM13.25 17.25C13.25 17.4489 13.171 17.6397 13.0303 17.7803C12.8897 17.921 12.6989 18 12.5 18C12.3011 18 12.1103 17.921 11.9697 17.7803C11.829 17.6397 11.75 17.4489 11.75 17.25V8.5605L8.531 11.781C8.39017 11.9218 8.19916 12.0009 8 12.0009C7.80084 12.0009 7.60983 11.9218 7.469 11.781C7.32817 11.6402 7.24905 11.4492 7.24905 11.25C7.24905 11.0508 7.32817 10.8598 7.469 10.719L11.969 6.219C12.0387 6.14916 12.1214 6.09374 12.2126 6.05593C12.3037 6.01812 12.4014 5.99866 12.5 5.99866C12.5987 5.99866 12.6963 6.01812 12.7874 6.05593C12.8786 6.09374 12.9613 6.14916 13.031 6.219L17.531 10.719C17.6718 10.8598 17.7509 11.0508 17.7509 11.25C17.7509 11.4492 17.6718 11.6402 17.531 11.781C17.3902 11.9218 17.1992 12.0009 17 12.0009C16.8008 12.0009 16.6098 11.9218 16.469 11.781L13.25 8.5605V17.25Z" />
</svg>
