<svg width="38" height="12" viewBox="0 0 38 12" fill="none" xmlns="http://www.w3.org/2000/svg">
<path fill-rule="evenodd" clip-rule="evenodd" d="M9.32045 11.8069H6.09408L3.6747 2.57682C3.55986 2.15224 3.31604 1.77688 2.95737 1.59997C2.0623 1.15539 1.07598 0.801566 0 0.623117V0.267759H5.19743C5.91475 0.267759 6.45274 0.801566 6.54241 1.42152L7.79772 8.07949L11.0225 0.267759H14.1592L9.32045 11.8069ZM15.9533 11.8051H12.9062L15.4153 0.265961H18.4623L15.9533 11.8051ZM22.404 3.46282C22.4937 2.84133 23.0317 2.48597 23.6593 2.48597C24.6456 2.39675 25.72 2.57519 26.6167 3.01824L27.1547 0.533807C26.258 0.178448 25.2717 0 24.3766 0C21.4193 0 19.2673 1.59834 19.2673 3.81664C19.2673 5.50421 20.7916 6.3903 21.8676 6.9241C23.0317 7.45637 23.48 7.81173 23.3903 8.344C23.3903 9.1424 22.4937 9.49776 21.5986 9.49776C20.5226 9.49776 19.4466 9.23163 18.4619 8.78704L17.9239 11.273C18.9999 11.7161 20.1639 11.8945 21.2399 11.8945C24.556 11.9822 26.6167 10.3854 26.6167 7.98864C26.6167 4.9704 22.404 4.79349 22.404 3.46282ZM37.2809 11.8051L34.8615 0.265961H32.2628C31.7248 0.265961 31.1868 0.62132 31.0075 1.15359L26.5273 11.8051H29.664L30.2901 10.1191H34.1442L34.5028 11.8051H37.2809ZM32.7136 3.37448L33.6087 7.72339H31.0996L32.7136 3.37448Z" fill="#DCE0E0"/>
</svg>
