<svg width="42" height="29" viewBox="0 0 42 29" fill="none" xmlns="http://www.w3.org/2000/svg">
<g clip-path="url(#clip0_315_3318)">
<path fill-rule="evenodd" clip-rule="evenodd" d="M37.1306 16.4416L36.1286 11.7653L34.3868 16.4416H37.1318H37.1306ZM37.6796 18.9934H33.4328L32.7446 20.8546H29.268L34.2347 9.31297C34.3527 9.03796 34.5498 8.80424 34.801 8.64147C35.0521 8.47869 35.346 8.39422 35.6452 8.39877H38.4674L41.1421 20.8534H38.0823L37.6796 18.9922V18.9934ZM17.1482 8.39877L14.4102 20.8534H17.7229L20.4596 8.39877H17.147H17.1482ZM12.2506 8.39877L8.80683 16.8759L7.41387 9.66998C7.24882 8.86465 6.60268 8.39877 5.88513 8.39877H0.251278L0.172852 8.76164C1.32935 9.00511 2.64271 9.39842 3.43986 9.81981C3.9268 10.0797 4.0661 10.3033 4.22529 10.9143L6.86488 20.8534H10.3648L15.7283 8.39877H12.2506ZM29.4389 16.7881C29.4296 19.375 27.1529 21.0489 23.6751 21.0489C22.1979 21.0337 20.7687 20.7328 19.9961 20.3875L20.5954 17.6602C21.3657 18.0066 22.3278 18.469 23.9959 18.4444C24.9464 18.4315 25.9683 18.0617 25.9765 17.2259C25.9823 16.6816 25.548 16.2894 24.2557 15.6772C23.0056 15.0803 21.3387 14.0806 21.361 12.2908C21.3797 9.86547 23.6822 8.17285 26.955 8.17285C28.2309 8.17285 29.2552 8.44208 30.0511 8.72184L29.4717 11.3649C27.9898 10.7001 26.6811 10.7492 26.2059 10.8078C25.2495 10.9295 24.8129 11.4047 24.8012 11.8495C24.7708 13.3186 29.4542 13.5024 29.4389 16.7881Z" fill="#DADADA"/>
</g>
<defs>
<clipPath id="clip0_315_3318">
<rect width="40.9692" height="28.0932" fill="white" transform="translate(0.172852 0.585449)"/>
</clipPath>
</defs>
</svg>
