<svg width="36" height="36" viewBox="0 0 36 36" fill="none" xmlns="http://www.w3.org/2000/svg">
<path fill-rule="evenodd" clip-rule="evenodd" d="M29.2511 3.375H6.74888C5.19588 3.375 3.87033 3.92407 2.77219 5.02219C1.67407 6.12033 1.125 7.44588 1.125 8.99888V27.0011C1.125 28.5541 1.67407 29.8797 2.77219 30.9778C3.87033 32.0759 5.19588 32.625 6.74888 32.625H29.2511C30.8041 32.625 32.1297 32.0759 33.2278 30.9778C34.3259 29.8797 34.875 28.5541 34.875 27.0011V27H21.6549C19.7136 27 18.0567 26.268 16.684 24.8038C15.3114 23.3396 14.625 21.5721 14.625 19.5015V16.4985C14.625 14.4279 15.3114 12.6604 16.684 11.1963C18.0567 9.73208 19.7136 9 21.6549 9H34.875V8.99888C34.875 7.44588 34.3259 6.12033 33.2278 5.02219C32.1297 3.92407 30.8041 3.375 29.2511 3.375ZM33.75 11.25H22.4989C20.9459 11.25 19.6203 11.7991 18.5222 12.8972C17.4241 13.9953 16.875 15.3209 16.875 16.8739V19.1261C16.875 20.6791 17.4241 22.0047 18.5222 23.1028C19.6203 24.2009 20.9459 24.75 22.4989 24.75H33.75C34.0606 24.75 34.3258 24.6402 34.5455 24.4205C34.7652 24.2008 34.875 23.9356 34.875 23.625V12.375C34.875 12.0644 34.7652 11.7992 34.5455 11.5795C34.3258 11.3598 34.0606 11.25 33.75 11.25ZM23.625 14.625C21.375 14.625 20.25 15.75 20.25 18C20.25 20.25 21.375 21.375 23.625 21.375C25.875 21.375 27 20.25 27 18C27 15.75 25.875 14.625 23.625 14.625Z" fill="#F56308"/>
</svg>
