<svg width="45" height="45" viewBox="0 0 45 45" fill="none" xmlns="http://www.w3.org/2000/svg">
<path d="M40.3125 38.9062V16.1938L22.5 4.7755L4.6875 16.1938V40.3125H10.3125V23.9062C10.3125 23.7819 10.3619 23.6627 10.4498 23.5748C10.5377 23.4869 10.6569 23.4375 10.7812 23.4375H31.875C31.9993 23.4375 32.1185 23.4869 32.2065 23.5748C32.2944 23.6627 32.3438 23.7819 32.3438 23.9062C32.3438 24.0305 32.2944 24.1498 32.2065 24.2377C32.1185 24.3256 31.9993 24.375 31.875 24.375H11.25V40.3125H15.4688V35.625C15.4688 35.5006 15.5181 35.3814 15.606 35.2935C15.694 35.2056 15.8132 35.1562 15.9375 35.1562H18.75V30.4687C18.75 30.3444 18.7994 30.2252 18.8873 30.1373C18.9752 30.0494 19.0944 30 19.2188 30H25.7812C25.9056 30 26.0248 30.0494 26.1127 30.1373C26.2006 30.2252 26.25 30.3444 26.25 30.4687V33.75C26.25 33.8743 26.2006 33.9935 26.1127 34.0814C26.0248 34.1693 25.9056 34.2187 25.7812 34.2187C25.6569 34.2187 25.5377 34.1693 25.4498 34.0814C25.3619 33.9935 25.3125 33.8743 25.3125 33.75V30.9375H19.6875V35.1562H22.5C22.6243 35.1562 22.7435 35.2056 22.8315 35.2935C22.9194 35.3814 22.9688 35.5006 22.9688 35.625V38.9062C22.9688 39.0305 22.9194 39.1498 22.8315 39.2377C22.7435 39.3256 22.6243 39.375 22.5 39.375C22.3757 39.375 22.2565 39.3256 22.1685 39.2377C22.0806 39.1498 22.0313 39.0305 22.0312 38.9062V36.0937H16.4062V40.3125H28.5938V36.0937H24.375C24.2507 36.0937 24.1315 36.0443 24.0435 35.9564C23.9556 35.8685 23.9063 35.7493 23.9062 35.625C23.9063 35.5006 23.9556 35.3814 24.0435 35.2935C24.1315 35.2056 24.2507 35.1562 24.375 35.1562H29.0625C29.1868 35.1562 29.306 35.2056 29.394 35.2935C29.4819 35.3814 29.5312 35.5006 29.5312 35.625V40.3125H33.75V23.9062C33.75 23.7819 33.7994 23.6627 33.8873 23.5748C33.9752 23.4869 34.0944 23.4375 34.2188 23.4375C34.3431 23.4375 34.4623 23.4869 34.5502 23.5748C34.6381 23.6627 34.6875 23.7819 34.6875 23.9062V40.3125H40.7812C40.9056 40.3125 41.0248 40.3618 41.1127 40.4498C41.2006 40.5377 41.25 40.6569 41.25 40.7812C41.25 40.9055 41.2006 41.0248 41.1127 41.1127C41.0248 41.2006 40.9056 41.25 40.7812 41.25H4.21875C4.09443 41.25 3.9752 41.2006 3.88729 41.1127C3.79939 41.0248 3.75 40.9055 3.75 40.7812V15.9375C3.74998 15.8589 3.76972 15.7816 3.8074 15.7126C3.84508 15.6436 3.89949 15.5853 3.96562 15.5428L22.2469 3.82408C22.3224 3.77571 22.4102 3.75 22.4999 3.75C22.5895 3.75 22.6773 3.77571 22.7528 3.82408L41.0341 15.5428C41.1003 15.5852 41.1548 15.6436 41.1925 15.7126C41.2302 15.7815 41.25 15.8589 41.25 15.9375V38.9062C41.25 39.0305 41.2006 39.1498 41.1127 39.2377C41.0248 39.3256 40.9056 39.375 40.7812 39.375C40.6569 39.375 40.5377 39.3256 40.4498 39.2377C40.3619 39.1498 40.3125 39.0305 40.3125 38.9062ZM26.25 14.0625H18.75C18.6257 14.0625 18.5065 14.1119 18.4185 14.1998C18.3306 14.2877 18.2813 14.4069 18.2812 14.5312C18.2813 14.6555 18.3306 14.7748 18.4185 14.8627C18.5065 14.9506 18.6257 15 18.75 15H26.25C26.3743 15 26.4935 14.9506 26.5815 14.8627C26.6694 14.7748 26.7188 14.6555 26.7188 14.5312C26.7188 14.4069 26.6694 14.2877 26.5815 14.1998C26.4935 14.1119 26.3743 14.0625 26.25 14.0625V14.0625ZM26.25 15.9375H18.75C18.6257 15.9375 18.5065 15.9869 18.4185 16.0748C18.3306 16.1627 18.2813 16.2819 18.2812 16.4062C18.2813 16.5305 18.3306 16.6498 18.4185 16.7377C18.5065 16.8256 18.6257 16.875 18.75 16.875H26.25C26.3743 16.875 26.4935 16.8256 26.5815 16.7377C26.6694 16.6498 26.7188 16.5305 26.7188 16.4062C26.7188 16.2819 26.6694 16.1627 26.5815 16.0748C26.4935 15.9869 26.3743 15.9375 26.25 15.9375V15.9375ZM26.25 17.8125H18.75C18.6257 17.8125 18.5065 17.8619 18.4185 17.9498C18.3306 18.0377 18.2813 18.1569 18.2812 18.2812C18.2813 18.4055 18.3306 18.5248 18.4185 18.6127C18.5065 18.7006 18.6257 18.75 18.75 18.75H26.25C26.3743 18.75 26.4935 18.7006 26.5815 18.6127C26.6694 18.5248 26.7188 18.4055 26.7188 18.2812C26.7188 18.1569 26.6694 18.0377 26.5815 17.9498C26.4935 17.8619 26.3743 17.8125 26.25 17.8125V17.8125Z" fill="black"/>
</svg>
