<svg width="17" height="17" viewBox="0 0 17 17" fill="none" xmlns="http://www.w3.org/2000/svg">
<path d="M8.5 0.25C4.08 0.25 0.5 3.83 0.5 8.25C0.5 10.01 1.06 11.63 2.02 12.95L0.92 15.85L4.1 14.93C5.36 15.77 6.88 16.25 8.5 16.25C12.92 16.25 16.5 12.67 16.5 8.25C16.5 3.83 12.92 0.25 8.5 0.25ZM12.76 11.57L11.9 12.41C11 13.31 8.62 12.33 6.52 10.21C4.42 8.11 3.48 5.73 4.32 4.85L5.18 3.99C5.5 3.67 6.04 3.67 6.38 3.99L7.64 5.25C8.08 5.69 7.9 6.45 7.32 6.63C6.92 6.77 6.64 7.21 6.78 7.61C7 8.55 8.22 9.71 9.12 9.93C9.52 10.03 9.98 9.79 10.1 9.39C10.28 8.81 11.04 8.63 11.48 9.07L12.74 10.33C13.06 10.67 13.06 11.21 12.76 11.57Z" fill="black"/>
</svg>
