<svg width="20" height="20" viewBox="0 0 20 20" fill="none" xmlns="http://www.w3.org/2000/svg">
<path d="M9.6 0.399902C4.296 0.399902 0 4.6959 0 9.9999C0 12.1119 0.672 14.0559 1.824 15.6399L0.504 19.1199L4.32 18.0159C5.832 19.0239 7.656 19.5999 9.6 19.5999C14.904 19.5999 19.2 15.3039 19.2 9.9999C19.2 4.6959 14.904 0.399902 9.6 0.399902ZM14.712 13.9839L13.68 14.9919C12.6 16.0719 9.744 14.8959 7.224 12.3519C4.704 9.8319 3.576 6.9759 4.584 5.9199L5.616 4.8879C6 4.5039 6.648 4.5039 7.056 4.8879L8.568 6.3999C9.096 6.9279 8.88 7.8399 8.184 8.0559C7.704 8.2239 7.368 8.7519 7.536 9.2319C7.8 10.3599 9.264 11.7519 10.344 12.0159C10.824 12.1359 11.376 11.8479 11.52 11.3679C11.736 10.6719 12.648 10.4559 13.176 10.9839L14.688 12.4959C15.072 12.9039 15.072 13.5519 14.712 13.9839Z"/>
</svg>
