<svg width="33" height="25" viewBox="0 0 33 25" fill="none" xmlns="http://www.w3.org/2000/svg">
<g clip-path="url(#clip0_4_136)">
<path d="M30.3 18.8C30.7 18.8 31 18.9 31.3 19.2C31.6 19.5 31.7 19.8 31.7 20.2V23.6H1.4V20.2C1.4 19.8 1.5 19.5 1.8 19.2C2.1 18.9 2.4 18.8 2.8 18.8H30.3ZM30.3 17.5H2.8C2.1 17.5 1.4 17.8 0.9 18.3C0.3 18.8 0 19.5 0 20.2V24.3C0 24.5 0.1 24.7 0.2 24.8C0.3 24.9 0.5 25 0.7 25H32.3C32.5 25 32.7 24.9 32.8 24.8C32.9 24.7 33 24.5 33 24.3V20.2C33 19.5 32.7 18.8 32.2 18.3C31.7 17.7 31 17.5 30.3 17.5Z" fill="#0A244A"/>
<path d="M16.5 18.8C16.1 18.8 15.8 18.5 15.8 18.1V9.2C15.8 8.8 16.1 8.5 16.5 8.5C16.9 8.5 17.2 8.8 17.2 9.2V18.1C17.2 18.3 17.1 18.5 17 18.6C16.9 18.7 16.7 18.8 16.5 18.8Z" fill="#0A244A"/>
<path d="M16.5 7.10005C16.6 7.10005 16.8 7.20005 16.8 7.30005C16.9 7.40005 16.8 7.60005 16.7 7.70005C16.6 7.80005 16.5 7.80005 16.3 7.80005C16.2 7.70005 16.1 7.60005 16.1 7.50005C16.2 7.30005 16.3 7.10005 16.5 7.10005ZM16.5 5.80005C16 5.80005 15.6 6.00005 15.3 6.30005C15 6.60005 14.8 7.00005 14.8 7.50005C14.8 8.00005 15 8.40005 15.3 8.70005C15.6 9.00005 16.1 9.20005 16.5 9.20005C17 9.20005 17.4 9.00005 17.7 8.70005C18 8.40005 18.2 7.90005 18.2 7.50005C18.2 7.10005 18 6.60005 17.7 6.30005C17.4 5.90005 17 5.80005 16.5 5.80005Z" fill="#0A244A"/>
<path d="M11.6 13C11.4 13 11.2 12.9 11.1 12.8C9.70003 11.4 8.90002 9.5 8.90002 7.5C8.90002 5.5 9.70003 3.6 11.1 2.2C11.2 2.1 11.4 2 11.6 2C11.8 2 12 2.1 12.1 2.2C12.2 2.3 12.3 2.5 12.3 2.7C12.3 2.9 12.2 3.1 12.1 3.2C10.9 4.4 10.3 5.9 10.3 7.6C10.3 9.3 11 10.8 12.1 12C12.3 12.2 12.4 12.5 12.2 12.7C12.2 12.9 11.9 13 11.6 13Z" fill="#0A244A"/>
<path d="M9.69995 15.0001C9.49995 15.0001 9.29995 14.9001 9.19995 14.8001C7.29995 12.9001 6.19995 10.2001 6.19995 7.5001C6.19995 4.8001 7.29995 2.1001 9.19995 0.200098C9.49995 -0.0999023 9.89995 -0.0999023 10.2 0.200098C10.5 0.500098 10.5 0.900098 10.2 1.2001C8.49995 2.8001 7.59995 5.1001 7.59995 7.5001C7.59995 9.9001 8.49995 12.1001 10.2 13.8001C10.4 14.0001 10.5 14.3001 10.3 14.5001C10.2 14.8001 9.99995 15.0001 9.69995 15.0001Z" fill="#0A244A"/>
<path d="M21.4 13.0001C21.1 13.0001 20.8999 12.8001 20.7999 12.6001C20.6999 12.3001 20.8 12.0001 20.9 11.9001C22.1 10.7001 22.7 9.20015 22.7 7.50015C22.7 5.80015 22 4.30015 20.9 3.10015C20.8 3.00015 20.7 2.80015 20.7 2.60015C20.7 2.40015 20.8 2.20015 20.9 2.10015C21 2.00015 21.2 1.90015 21.4 1.90015C21.6 1.90015 21.8 2.00015 21.9 2.10015C23.3 3.50015 24.1 5.40015 24.1 7.40015C24.1 9.40015 23.3 11.3001 21.9 12.7001C21.7 13.0001 21.5 13.0001 21.4 13.0001Z" fill="#0A244A"/>
<path d="M23.3 15.0002C23 15.0002 22.8 14.8002 22.7 14.6002C22.6 14.3002 22.7 14.0002 22.8 13.9002C24.5 12.2002 25.4 10.0002 25.4 7.6002C25.4 5.2002 24.5 3.0002 22.8 1.3002C22.5 1.0002 22.5 0.600195 22.8 0.300195C23.1 0.00019531 23.5 0.00019531 23.8 0.300195C25.7 2.2002 26.8 4.9002 26.8 7.6002C26.8 10.3002 25.7 13.0002 23.8 14.9002C23.7 14.9002 23.5 15.0002 23.3 15.0002Z" fill="#0A244A"/>
<path d="M11.6 13C11.4 13 11.2 12.9 11.1 12.8C9.70003 11.4 8.90002 9.5 8.90002 7.5C8.90002 5.5 9.70003 3.6 11.1 2.2C11.2 2.1 11.4 2 11.6 2C11.8 2 12 2.1 12.1 2.2C12.2 2.3 12.3 2.5 12.3 2.7C12.3 2.9 12.2 3.1 12.1 3.2C10.9 4.4 10.3 5.9 10.3 7.6C10.3 9.3 11 10.8 12.1 12C12.3 12.2 12.4 12.5 12.2 12.7C12.2 12.9 11.9 13 11.6 13Z" fill="#0A244A"/>
<path d="M13.6 11.1C13.4 11.1 13.2 11 13.1 10.9C12.2 10 11.7 8.8 11.7 7.5C11.7 6.2 12.2 5 13.1 4.1C13.4 3.8 13.8 3.8 14.1 4.1C14.4 4.4 14.4 4.8 14.1 5.1C13.5 5.7 13.1 6.6 13.1 7.5C13.1 8.4 13.5 9.3 14.1 9.9C14.3 10.1 14.4 10.4 14.3 10.6C14.1 10.9 13.9 11.1 13.6 11.1Z" fill="#0A244A"/>
<path d="M19.4 11.1001C19.1 11.1001 18.9 10.9001 18.8 10.7001C18.7 10.4001 18.8 10.1001 19 10.0001C19.6 9.4001 20 8.5001 20 7.6001C20 6.7001 19.6 5.8001 19 5.2001C18.7 4.9001 18.7 4.5001 19 4.2001C19.3 3.9001 19.7 3.9001 20 4.2001C20.9 5.1001 21.4 6.3001 21.4 7.6001C21.4 8.9001 20.9 10.1001 20 11.0001C19.8 11.0001 19.6 11.1001 19.4 11.1001Z" fill="#0A244A"/>
<path d="M21.4 13.0001C21.1 13.0001 20.8999 12.8001 20.7999 12.6001C20.6999 12.3001 20.8 12.0001 20.9 11.9001C22.1 10.7001 22.7 9.20015 22.7 7.50015C22.7 5.80015 22 4.30015 20.9 3.10015C20.8 3.00015 20.7 2.80015 20.7 2.60015C20.7 2.40015 20.8 2.20015 20.9 2.10015C21 2.00015 21.2 1.90015 21.4 1.90015C21.6 1.90015 21.8 2.00015 21.9 2.10015C23.3 3.50015 24.1 5.40015 24.1 7.40015C24.1 9.40015 23.3 11.3001 21.9 12.7001C21.7 13.0001 21.5 13.0001 21.4 13.0001Z" fill="#0A244A"/>
<path d="M19.4 11.1001C19.1 11.1001 18.9 10.9001 18.8 10.7001C18.7 10.4001 18.8 10.1001 19 10.0001C19.6 9.4001 20 8.5001 20 7.6001C20 6.7001 19.6 5.8001 19 5.2001C18.7 4.9001 18.7 4.5001 19 4.2001C19.3 3.9001 19.7 3.9001 20 4.2001C20.9 5.1001 21.4 6.3001 21.4 7.6001C21.4 8.9001 20.9 10.1001 20 11.0001C19.8 11.0001 19.6 11.1001 19.4 11.1001Z" fill="#0A244A"/>
<path d="M13.6 11.1C13.4 11.1 13.2 11 13.1 10.9C12.2 10 11.7 8.8 11.7 7.5C11.7 6.2 12.2 5 13.1 4.1C13.4 3.8 13.8 3.8 14.1 4.1C14.4 4.4 14.4 4.8 14.1 5.1C13.5 5.7 13.1 6.6 13.1 7.5C13.1 8.4 13.5 9.3 14.1 9.9C14.3 10.1 14.4 10.4 14.3 10.6C14.1 10.9 13.9 11.1 13.6 11.1Z" fill="#0A244A"/>
<path d="M12.7 20.9C12.9 20.9 13 21.1 13 21.2C13 21.3 12.8 21.5 12.7 21.5H5.79995C5.59995 21.5 5.49995 21.3 5.49995 21.2C5.49995 21.1 5.69995 20.9 5.79995 20.9H12.7ZM12.7 19.5H5.79995C5.19995 19.5 4.59995 19.8 4.29995 20.4C3.99995 20.9 3.99995 21.6 4.29995 22.1C4.69995 22.6 5.19995 23 5.79995 23H12.7C13.3 23 13.9 22.7 14.2 22.1C14.5 21.6 14.5 20.9 14.2 20.4C13.9 19.8 13.3 19.5 12.7 19.5Z" fill="#0A244A"/>
<path d="M18.9 20.9C19 20.9 19.2 21 19.2 21.1C19.3 21.2 19.2 21.4 19.1 21.5C19 21.6 18.9 21.6 18.7 21.6C18.6 21.5 18.5 21.4 18.5 21.3C18.6 21 18.6999 20.9 18.9 20.9ZM18.9 19.5C18.4 19.5 18 19.7 17.7 20C17.4 20.3 17.2 20.8 17.2 21.2C17.2 21.7 17.4 22.1 17.7 22.4C18 22.7 18.5 22.9 18.9 22.9C19.4 22.9 19.8 22.7 20.1 22.4C20.4 22.1 20.6 21.6 20.6 21.2C20.6 20.7 20.4 20.3 20.1 20C19.8 19.7 19.4 19.5 18.9 19.5Z" fill="#0A244A"/>
<path d="M23.4 20.9C23.5 20.9 23.7 21 23.7 21.1C23.8 21.2 23.7 21.4 23.6 21.5C23.5 21.6 23.4 21.6 23.2 21.6C23.1 21.5 23 21.4 23 21.3C23 21 23.1999 20.9 23.4 20.9ZM23.4 19.5C22.9 19.5 22.5 19.7 22.2 20C21.9 20.3 21.7 20.8 21.7 21.2C21.7 21.7 21.9 22.1 22.2 22.4C22.5 22.7 23 22.9 23.4 22.9C23.9 22.9 24.3 22.7 24.6 22.4C24.9 22.1 25.1 21.6 25.1 21.2C25.1 20.7 24.9 20.3 24.6 20C24.3 19.7 23.8 19.5 23.4 19.5Z" fill="#0A244A"/>
<path d="M27.8 20.9C27.9 20.9 28.1 21 28.1 21.1C28.2 21.2 28.1 21.4 28 21.5C27.9 21.6 27.8 21.6 27.6 21.6C27.5 21.5 27.4 21.4 27.4 21.3C27.5 21 27.7 20.9 27.8 20.9ZM27.8 19.5C27.3 19.5 26.9 19.7 26.6 20C26.3 20.3 26.1 20.8 26.1 21.2C26.1 21.7 26.3 22.1 26.6 22.4C26.9 22.7 27.4 22.9 27.8 22.9C28.3 22.9 28.7 22.7 29 22.4C29.3 22.1 29.5 21.6 29.5 21.2C29.5 20.7 29.3 20.3 29 20C28.7 19.7 28.3 19.5 27.8 19.5Z" fill="#0A244A"/>
</g>
<defs>
<clipPath id="clip0_4_136">
<rect width="33" height="25" fill="white"/>
</clipPath>
</defs>
</svg>
