<svg width="45" height="37" viewBox="0 0 45 37" fill="none" xmlns="http://www.w3.org/2000/svg">
<g clip-path="url(#clip0_0_220)">
<path d="M18.9 29.1C17.1 30.9 17.1 33.7 18.9 35.5C19.8 36.4 20.9 36.7999 22.1 36.7999C23.3 36.7999 24.4 36.4 25.3 35.5C27.1 33.7 27.1 30.9 25.3 29.1C23.5 27.4 20.7 27.4 18.9 29.1ZM24.8 32.3C24.8 32.9999 24.5 33.7 24 34.2C23 35.2 21.2 35.2 20.2 34.2C19.2 33.2 19.2 31.5 20.2 30.4C20.7 29.9 21.4 29.6 22.1 29.6C22.8 29.6 23.5 29.9 24 30.4C24.5 30.9 24.8 31.6 24.8 32.3Z" fill="#0A244A"/>
<path d="M43.5 8.9C37.8 3.1 30.2 0 22.1 0C14 0 6.4 3.1 0.6 8.9L0 9.5L3.9 13.4L4.5 12.8C14.2 3 30 3 39.7 12.7L40.3 13.3L44.2 9.4L43.5 8.9ZM41.6 9.5L40.3 10.8C30 1.2 14.2 1.2 3.9 10.8L2.6 9.5C13.6 -0.8 30.6 -0.8 41.6 9.5Z" fill="#0A244A"/>
<path d="M22.1 9.19995C16.5 9.19995 11.1 11.4 7.2 15.4L6.5 16L10.4 19.9L11 19.3C17.1 13.2 27.1 13.2 33.2 19.3L33.8 19.9L37.7 16L37 15.4C33 11.4 27.7 9.19995 22.1 9.19995ZM35.1 16L33.8 17.3C30.5 14.3 26.3 12.8 22.1 12.8C17.9 12.8 13.7 14.3 10.4 17.3L9.1 16C16.5 9.29995 27.7 9.39995 35.1 16Z" fill="#0A244A"/>
<path d="M13.7 21.9L13 22.5L16.9 26.4L17.5 25.8C18.7 24.6 20.3 23.9 22.1 23.9C23.8 23.9 25.5 24.6 26.7 25.8L27.4 26.4L31.3 22.5L30.7 21.9C25.9 17.2 18.3 17.2 13.7 21.9ZM28.6 22.6L27.3 23.9C25.8 22.7 23.9 22.1 22.1 22.1C20.3 22.1 18.4 22.7 16.9 23.9L15.6 22.6C19.4 19.4 24.8 19.4 28.6 22.6Z" fill="#0A244A"/>
</g>
<defs>
<clipPath id="clip0_0_220">
<rect width="44.2" height="36.8" fill="white"/>
</clipPath>
</defs>
</svg>
