<svg width="1900" height="585" viewBox="0 0 1900 585" fill="none" xmlns="http://www.w3.org/2000/svg">
<g opacity="0.6">
<path d="M-1.29031 584.751C-1.8909 583.591 -2.37137 582.513 -2.85184 581.602C-6.33531 575.8 -10.1791 570.08 -14.3833 564.444C-22.1911 553.917 -32.161 544.22 -45.0138 536.428C-54.6234 530.626 -66.9957 525.653 -79.8485 529.549C-90.5392 532.781 -95.9445 541.153 -100.749 547.95C-108.797 559.554 -113.362 572.318 -117.926 584.834H-122.251C-116.605 569.997 -110.959 555.161 -100.749 541.484C-94.2629 532.781 -79.0077 520.514 -62.4312 525.736C-45.1339 531.124 -32.2811 540.075 -21.4704 550.602C-15.4644 556.57 -10.5395 563.035 -5.97496 569.583C-3.93293 572.484 -2.13112 575.385 -0.329323 578.369C0.751755 580.027 1.59258 582.762 3.03401 584.834H-1.29031V584.751Z" fill="#0F0703" fill-opacity="0.15"/>
<path d="M792.94 2.88531C775.763 5.45477 758.106 6.86389 740.688 8.68738C724.833 10.3451 706.815 11.7542 691.679 15.567C674.983 19.7942 658.166 22.2808 641.83 27.5856C628.857 31.8128 616.244 36.123 604.232 41.5935C580.689 52.3688 560.389 66.4595 541.17 80.6332C504.173 107.903 470.059 138.074 423.453 157.884C395.465 169.737 363.873 174.876 333.363 182.501C316.786 186.646 297.567 188.138 280.27 190.956C260.931 194.105 241.351 197.172 221.892 200.156C166.397 208.611 113.304 222.453 67.5382 245.993C20.5715 270.113 -16.6656 303.433 -35.8848 341.727C-46.9358 363.609 -51.0198 387.978 -45.2541 410.855C-39.7286 432.903 -27.5965 453.956 -14.1431 474.18C-1.65067 492.996 12.4033 511.314 25.136 530.046C31.2621 539.081 36.9077 548.364 41.9527 557.73C46.7575 566.516 49.4001 575.8 53.6043 584.669H49.1599C45.196 576.048 42.4332 567.097 37.8687 558.476C31.7426 546.789 24.2952 535.434 16.4874 524.161C2.55353 503.854 -12.8218 483.961 -25.6746 463.322C-37.6865 444.01 -47.6565 423.536 -51.0198 402.566C-54.6234 380.27 -48.3772 357.227 -37.4463 336.257C-18.4674 299.952 18.4093 268.206 62.7334 244.915C110.781 219.635 166.517 205.627 225.135 196.675C243.153 193.94 261.411 191.122 279.309 188.138C298.168 185.071 318.468 183.164 336.606 178.606C353.543 174.378 370.84 171.146 387.777 166.67C402.432 162.857 416.486 157.635 429.579 151.75C476.786 130.365 511.02 97.7908 549.818 70.1895C568.197 57.1763 588.016 45.0747 610.359 35.4598C622.13 30.4037 634.863 26.5081 647.355 22.6124C662.25 17.9707 678.226 15.8986 693.481 12.0029C707.655 8.35583 724.833 7.44409 739.727 5.78632C758.106 3.71417 776.724 2.22217 794.862 -0.430176C820.208 -4.24298 843.511 -11.1226 858.045 -26.6224C889.396 -60.0259 864.411 -108.929 834.502 -138.354C801.949 -170.348 751.499 -191.65 701.409 -208.394C675.463 -217.014 648.557 -224.308 622.13 -232.265C585.854 -243.123 549.458 -253.816 512.221 -262.85C478.107 -271.056 440.75 -280.256 404.714 -272.216C377.567 -266.166 354.023 -253.733 331.201 -242.211C309.579 -231.353 287.597 -220.744 262.372 -214.279C234.024 -207.15 202.793 -207.399 173.604 -211.212C140.931 -215.522 112.463 -227.789 84.5952 -239.559C54.4452 -252.241 25.136 -265.834 -5.25424 -278.35C-35.4043 -290.783 -67.8365 -299.569 -98.3469 -311.339C-128.977 -323.275 -160.329 -333.884 -189.998 -347.063C-218.947 -359.911 -246.454 -374.333 -272.16 -390.164C-295.103 -404.255 -317.085 -422.822 -329.097 -442.3C-352.64 -480.594 -341.229 -524.69 -314.802 -560.829C-289.697 -595.227 -247.656 -623.325 -199.608 -642.555C-148.317 -663.111 -88.4971 -672.477 -45.6144 -702.151C-0.569611 -733.234 4.95593 -781.64 -0.449463 -822.917C-0.56958 -823.746 0.151123 -824.161 0.991943 -824.243H1.95294C2.91388 -824.161 3.63461 -823.663 3.75473 -822.917C8.91986 -783.297 3.87485 -739.865 -33.3622 -707.373C-71.8005 -673.887 -135.344 -662.448 -188.076 -643.633C-244.532 -623.491 -291.499 -590.088 -317.565 -550.053C-333.181 -526.016 -340.268 -499.327 -336.544 -473.051C-333.061 -448.02 -314.802 -426.635 -291.019 -408.151C-243.692 -371.349 -180.989 -344.577 -118.527 -321.451C-87.8965 -310.096 -55.5844 -300.978 -25.074 -289.374C5.91687 -277.687 35.3462 -264.176 65.1358 -251.163C79.4301 -244.864 93.8444 -238.813 108.499 -232.928C124.475 -226.546 141.652 -219.086 159.91 -216.351C177.087 -213.781 193.183 -211.129 210.961 -211.129C227.778 -211.046 245.195 -213.118 261.171 -216.848C314.024 -229.198 350.78 -261.938 403.633 -274.703C433.062 -281.831 467.777 -276.692 496.005 -269.315C530.479 -260.364 565.073 -251.992 599.067 -242.046C653.001 -226.214 708.496 -211.626 758.226 -189.91C801.949 -170.846 841.349 -144.736 861.048 -111.167C878.465 -81.6594 886.153 -41.7908 852.159 -16.2616C836.544 -4.98895 814.322 -0.264404 792.94 2.88531Z" fill="#0F0703" fill-opacity="0.15"/>
<path d="M903.209 36.2884C883.87 50.4621 851.077 49.1359 825.371 48.9701C786.813 48.6385 748.255 45.406 709.936 50.2963C683.63 53.6947 658.525 59.2481 634.982 68.2828C585.372 87.2639 550.778 120.833 511.979 148.352C493.481 161.448 473.421 173.632 450.478 182.915C439.547 187.391 427.295 191.287 415.163 194.022C399.307 197.669 382.49 200.487 366.875 204.466C350.899 208.527 331.319 209.688 314.503 211.76C294.923 214.081 275.584 216.899 256.125 219.551C224.413 223.862 192.581 230.658 162.912 239.527C109.819 255.359 62.8523 280.805 34.5041 315.949C-0.450745 359.382 4.1138 409.694 24.7744 455.696C35.2248 478.822 49.2787 501.201 62.2516 523.664C68.4979 534.439 74.5038 545.38 80.0294 556.404C84.714 565.521 89.8792 575.136 91.9212 584.751H87.717C85.4347 574.473 79.5489 564.112 74.7441 554.415C68.8582 542.479 62.0114 530.792 55.1646 519.105C42.0716 496.56 28.4981 474.18 18.2879 450.972C-0.450745 407.953 -2.25256 362.034 26.2158 320.839C80.6299 242.097 213.722 220.297 327.115 207.367C360.268 203.554 393.301 197.255 424.292 188.303C452.04 180.263 475.223 168.659 496.964 154.402C536.844 128.293 569.036 96.7959 613.601 74.1678C662.249 49.5504 721.348 43.4167 780.206 44.8257C798.224 45.2402 816.122 45.9862 834.14 45.9862C851.798 45.9862 872.098 46.0691 888.194 40.3499C917.984 29.9061 923.629 1.72455 925.431 -18.5828C929.515 -63.6732 907.893 -111.582 869.936 -148.135C835.341 -181.538 785.852 -206.073 733.72 -225.054C673.3 -247.102 610.237 -265.917 554.382 -293.436C528.796 -306.117 505.253 -320.871 488.556 -339.438C471.859 -358.088 470.538 -378.809 473.661 -400.111C477.145 -424.48 491.679 -447.854 493.241 -472.472C494.082 -485.816 486.995 -497.669 469.457 -504.051C453.601 -509.771 434.502 -509.936 416.965 -509.108C363.872 -506.538 300.689 -491.121 273.182 -457.635C256.485 -437.41 256.605 -412.544 259.848 -390.082C263.212 -366.874 271.14 -341.842 259.848 -319.131C252.281 -303.88 233.662 -292.69 212.161 -287.219C187.777 -281.003 161.11 -285.976 137.567 -291.695C101.771 -300.398 67.7772 -312.748 32.7023 -322.778C-2.13242 -332.724 -37.3275 -341.842 -71.9219 -352.12C-127.297 -368.531 -181.711 -391.408 -221.951 -422.739C-241.17 -437.659 -258.107 -455.894 -265.915 -475.207C-274.083 -495.514 -270.84 -515.241 -265.314 -535.548C-260.39 -554.115 -241.771 -572.267 -223.753 -585.944C-205.255 -599.952 -182.432 -611.058 -158.768 -620.508C-108.678 -640.566 -50.5406 -650.43 -11.8621 -682.01C10.6003 -700.411 16.8465 -723.204 25.4951 -745.667C34.9845 -770.284 31.8614 -798.549 28.0176 -823.581C28.0176 -823.829 28.0176 -824.078 28.1377 -824.244H31.9815C32.1017 -824.078 32.2218 -823.829 32.3419 -823.581C39.1887 -778.739 36.3058 -727.598 0.149872 -688.392C-31.4416 -654.16 -89.099 -642.307 -138.588 -624.818C-164.774 -615.534 -189.639 -604.51 -211.14 -590.668C-235.285 -575.003 -250.66 -556.353 -261.23 -534.802C-283.933 -488.303 -246.576 -441.472 -198.528 -410.389C-149.159 -378.395 -85.2552 -357.507 -22.6729 -340.93C12.4021 -331.647 46.7562 -321.7 81.2306 -311.505C113.182 -302.056 145.855 -289.706 181.05 -287.302C211.32 -285.313 240.029 -297.663 253.362 -315.981C269.818 -338.692 258.647 -369.029 255.164 -392.983C252.161 -413.29 253.722 -434.426 265.374 -453.408C274.503 -468.244 291.44 -479.931 310.779 -488.635C332.04 -498.249 356.905 -503.803 381.289 -508.03C407.836 -512.589 437.986 -514.744 464.292 -508.527C491.079 -502.228 499.127 -485.568 496.844 -467.416C493.841 -442.632 480.028 -419.009 477.025 -394.226C475.583 -382.456 476.904 -371.184 479.787 -359.58C482.67 -347.644 496.604 -335.128 507.535 -326.093C530.598 -306.946 561.349 -292.524 591.979 -279.677C648.195 -256.054 709.696 -239.145 765.912 -215.688C813.239 -195.878 855.521 -170.1 884.951 -137.608C917.863 -101.387 934.079 -54.7214 928.794 -12.2833C926.992 5.20581 921.227 23.1094 903.209 36.2884Z" fill="#0F0703" fill-opacity="0.15"/>
<path d="M1062.61 584.751C1027.65 545.463 991.017 506.755 962.909 464.814C935.642 424.033 920.988 380.352 914.141 335.925C910.057 309.732 909.576 283.374 908.615 257.099C908.135 244.5 907.414 231.819 906.333 219.22C905.252 206.372 905.612 191.121 899.967 178.854C897.925 174.378 897.805 169.073 896.003 164.432C893.961 159.127 890.958 154.071 887.474 149.18C880.507 139.317 870.537 130.697 859.366 122.988C838.105 108.483 810.357 98.7022 781.168 94.5579C747.054 89.5847 710.778 90.0821 677.866 98.1221C652.16 104.421 630.058 116.274 610.358 128.956C572.401 153.325 541.77 182.915 498.887 203.554C443.512 230.244 372.522 232.067 307.897 238.284C246.396 244.169 184.655 254.281 133.724 280.059C103.334 295.476 79.1896 316.446 64.535 340.401C47.8384 367.753 47.2378 398.339 54.2047 427.266C67.2977 481.971 109.46 530.792 126.997 584.751H122.673C96.1264 504.351 11.4421 424.116 60.4509 339.655C80.5109 305.174 121.111 278.733 168.318 261.907C225.015 241.682 290.36 236.792 352.822 231.57C390.419 228.42 425.975 223.53 461.41 214.164C487.476 207.284 509.578 195.514 529.758 182.335C567.356 157.884 598.106 128.293 641.229 107.986C731.799 65.3817 886.633 94.6408 903.57 175.621C911.138 212.174 912.219 248.811 913.901 285.695C915.462 322 921.228 357.724 931.919 393.2C953.3 463.736 1013.72 524.41 1067.53 584.751H1062.61V584.751Z" fill="#0F0703" fill-opacity="0.15"/>
<path d="M1037.5 584.751C1000.27 543.639 959.425 503.937 928.434 460.255C895.761 414.253 879.425 364.272 861.527 314.954C847.353 275.832 841.948 233.642 814.32 197.421C801.828 180.926 783.45 166.918 758.705 159.044C727.234 149.015 691.318 155.729 663.21 167.581C613.841 188.469 579.366 222.535 528.316 242.014C469.457 264.476 401.589 262.155 336.605 263.73C274.383 265.305 213.122 272.516 162.071 298.46C138.407 310.478 118.948 326.227 105.615 344.213C89.9992 365.267 86.8761 389.138 88.6779 412.512C93.4826 473.103 144.173 526.565 163.993 584.834H159.669C131.32 503.025 34.7442 410.937 113.663 329.045C142.371 299.206 189.819 278.981 239.308 269.615C305.854 257.016 375.884 262.901 443.631 257.348C475.103 254.778 507.655 247.319 534.802 236.046C560.628 225.354 582.489 210.517 604.471 196.509C624.651 183.661 645.312 170.98 669.336 161.614C693.84 152.082 720.747 149.346 748.375 153.325C796.302 160.204 822.609 197.669 835.822 226.431C844.47 245.081 849.996 264.642 855.762 283.789C863.089 308.241 871.617 332.526 880.506 356.729C896.242 399.582 917.143 441.274 947.893 480.231C976.362 516.287 1010.84 550.022 1042.31 584.834H1037.5V584.751Z" fill="#0F0703" fill-opacity="0.15"/>
<path d="M1015.64 584.751C996.782 566.765 979.485 547.535 961.707 529.051C941.767 508.412 922.668 487.359 905.371 465.56C870.536 421.713 847.954 373.887 819.366 328.133C796.903 292.243 762.789 239.279 696.123 239.362C661.769 239.362 626.814 254.696 597.505 265.471C569.157 275.915 541.289 285.447 509.818 290.337C447.355 300.035 383.692 288.679 320.749 288.348C260.089 288.016 199.669 300.366 158.227 332.195C112.822 367.007 114.624 415.082 131.681 457.686C149.098 501.201 182.251 540.904 198.467 584.751H194.143C177.206 539.329 142.732 498.134 125.435 452.878C110.3 413.424 110.42 368.914 148.738 335.593C185.014 304.096 237.747 289.923 294.563 286.193C365.434 281.468 439.067 300.283 508.736 287.602C542.37 281.468 571.919 271.687 602.55 260.415C628.375 250.883 658.405 238.781 688.195 236.875C716.183 235.051 737.084 241.434 757.744 254.115C779.005 267.212 794.02 284.701 806.753 302.107C838.104 345.042 858.525 391.21 887.594 434.892C917.744 480.065 958.945 521.177 999.185 562.289C1006.51 569.749 1013.36 577.457 1020.93 584.834H1015.64V584.751Z" fill="#0F0703" fill-opacity="0.15"/>
<path d="M988.494 584.751C968.915 563.781 946.693 543.805 925.432 523.746C903.69 503.356 884.711 481.723 866.453 459.758C848.195 437.876 830.777 415.579 812.279 393.78C793.78 371.98 774.201 350.015 745.492 333.935C685.072 300.117 611.919 324.32 547.055 337.582C514.262 344.296 482.911 345.622 449.278 341.561C414.082 337.334 380.569 327.719 345.254 323.989C296.846 318.85 246.275 321.419 207.237 343.467C170.96 363.94 160.51 393.946 164.234 424.945C170.72 482.8 227.056 530.709 252.281 584.751H247.837C229.579 546.126 197.507 511.479 176.606 473.517C156.786 437.461 147.297 393.2 180.21 359.382C215.164 323.326 277.867 315.617 336.485 320.342C370.839 323.077 403.872 331.863 437.506 337.085C476.184 343.136 511.74 341.727 549.577 334.018C598.466 324.072 645.313 309.65 697.445 314.623C746.093 319.264 781.048 352.751 804.591 379.357C835.102 413.838 861.768 449.977 892.399 484.458C923.269 519.271 961.828 550.436 993.539 584.751H988.494V584.751Z" fill="#0F0703" fill-opacity="0.15"/>
<path d="M958.465 584.751C915.222 544.634 871.378 504.848 829.937 463.819C789.937 424.199 747.655 371.815 668.977 370.074C601.71 368.582 545.374 399.333 480.749 406.296C423.693 412.429 377.206 379.689 325.315 369.991C295.405 364.355 260.931 368.251 239.189 384.165C209.279 406.047 220.931 440.528 236.666 464.897C266.336 510.816 323.633 544.717 366.155 584.751H360.87C325.555 551.845 282.192 523.332 250.36 488.602C222.853 458.514 197.387 412.927 236.066 382.01C269.219 355.569 325.315 364.189 364.594 377.368C391.38 386.403 416.726 397.675 446.155 402.317C478.707 407.456 511.62 398.339 541.65 390.298C582.851 379.357 623.692 366.759 668.737 367.007C714.382 367.256 748.976 386.237 777.565 409.114C812.279 436.881 839.907 469.124 870.898 498.88C901.048 527.808 932.639 556.072 963.51 584.668H958.465V584.751Z" fill="#0F0703" fill-opacity="0.15"/>
<path d="M925.791 584.751C909.455 569.5 890.596 555.244 873.539 540.49C853.839 523.498 834.02 506.589 813.719 490.012C776.723 459.758 736.122 420.635 673.66 418.397C620.207 416.408 567.474 440.445 534.441 467.798C515.583 483.381 501.889 502.362 498.886 522.669C495.763 543.639 500.928 564.858 510.417 584.834H505.973C496.604 564.693 492.279 543.805 494.682 522.669C496.964 503.273 510.057 485.453 526.634 470.036C556.423 442.352 606.273 419.06 656.843 415.745C721.588 411.435 763.269 445.667 801.948 476.252C825.611 494.985 848.314 514.297 870.896 533.693C890.716 550.685 912.458 567.179 931.076 584.834H925.791V584.751Z" fill="#0F0703" fill-opacity="0.15"/>
<path d="M884.711 584.751C881.107 581.85 877.864 578.618 874.501 575.965C867.654 570.495 860.567 565.024 853.6 559.719C838.465 548.198 822.729 536.926 806.873 525.819C791.378 514.961 776.002 503.771 758.946 494.073C742.729 484.873 723.03 474.097 701.889 471.196C680.267 468.212 659.366 468.71 639.427 475.838C622.009 482.054 608.556 492.747 598.586 504.019C576.244 529.217 579.127 557.067 586.214 584.751H581.889C578.166 570.661 575.163 557.399 576.724 542.728C577.925 530.046 583.211 518.11 591.499 506.838C609.036 482.966 641.469 466.223 680.988 466.306C725.552 466.472 761.108 490.177 790.777 510.485C808.915 522.918 826.813 535.517 844.23 548.447C853.48 555.244 862.609 562.206 871.498 569.251C877.624 574.059 883.51 580.11 890.236 584.834H884.711V584.751Z" fill="#0F0703" fill-opacity="0.15"/>
<path d="M841.109 584.751C825.974 575.468 812.28 564.693 797.025 555.575C777.806 544.054 756.905 533.859 733.962 526.15C708.497 517.53 681.83 519.271 662.251 533.776C644.473 546.872 642.431 567.677 646.395 584.751H642.071C638.347 568.174 640.629 549.773 654.563 535.682C666.095 524.078 688.076 515.292 708.857 517.944C737.205 521.591 761.59 532.367 784.052 544.551C795.944 551.016 807.235 557.896 818.406 564.941C828.256 571.241 837.385 578.618 847.475 584.751H841.109Z" fill="#0F0703" fill-opacity="0.15"/>
<path d="M2393.53 338.66C2371.43 322.911 2349.21 307.163 2325.67 292.492C2300.92 277.075 2274.13 261.575 2243.02 252.789C2171.79 232.565 2092.15 251.463 2021.88 264.891C1985.01 271.936 1948.13 279.147 1910.65 284.866C1872.69 290.586 1834.14 294.398 1795.94 298.791C1764.47 302.438 1733.48 307.329 1701.88 310.064C1664.77 313.214 1630.41 310.976 1595.34 301.941C1527.71 284.535 1464.17 260.663 1400.02 238.035C1332.76 214.247 1262.97 191.038 1190.42 175.787C1156.42 168.659 1122.43 160.702 1087.23 157.22C1056.24 154.154 1023.57 153.325 1002.91 172.14C990.776 183.081 985.011 197.089 980.326 210.351C973.599 229.581 969.876 249.556 966.512 269.201C959.665 309.235 956.903 349.933 966.512 389.801C975.401 426.686 992.578 460.918 1016.96 494.404C1039.67 525.321 1066.81 554.912 1092.76 584.751H1087.83C1054.44 546.375 1019.12 508.495 994.02 467.135C966.632 421.961 954.861 373.97 956.302 325.066C957.023 300.035 960.987 275.086 965.792 250.302C969.996 229.249 974.801 207.367 986.092 187.474C993.9 173.715 1006.63 160.867 1027.29 155.397C1053.24 148.6 1083.27 153.739 1109.45 157.055C1144.41 161.448 1179.72 169.736 1213.12 178.108C1247.47 186.728 1281.59 195.929 1314.98 206.207C1382.13 226.928 1446.15 252.043 1512.34 274.008C1546.09 285.198 1581.16 296.968 1617.32 304.096C1635.94 307.743 1655.28 308.904 1674.62 308.572C1693.72 308.24 1711.97 305.339 1730.71 303.847C1745.85 302.687 1761.1 299.952 1776.24 298.045C1796.18 295.642 1816.12 293.404 1836.18 291.166C1874.38 286.856 1912.21 281.882 1949.69 275.334C2013.35 264.145 2075.94 249.556 2141.04 242.594C2165.67 239.942 2198.1 238.118 2222 244.5C2234.49 247.899 2248.55 249.639 2260.2 254.53C2271.73 259.42 2282.9 264.642 2293.71 270.278C2378.52 314.291 2438.82 377.451 2527.95 417.817V421.298C2477.26 398.753 2435.33 368.416 2393.53 338.66Z" fill="#0F0703" fill-opacity="0.15"/>
<path d="M1573.6 584.751H1569.27C1555.46 536.511 1550.05 487.939 1554.74 438.787C1557.26 413.01 1561.22 386.32 1550.29 361.205C1539.72 337.085 1514.14 319.679 1486.75 304.179C1432.46 273.428 1371.43 248.645 1307.17 229.083C1291.07 224.193 1274.86 219.8 1258.4 215.573C1241.83 211.346 1223.33 205.461 1205.79 203.886C1193.18 202.725 1180.81 199.824 1168.19 198.498C1146.45 196.26 1124.71 195.017 1103.09 198.747C1081.11 202.56 1064.65 208.776 1050.11 221.043C1036.18 232.813 1027.65 247.484 1020.93 261.824C1004.95 295.642 998.223 332.361 998.584 367.836C999.425 448.485 1060.21 517.447 1117.86 584.668H1112.94C1079.3 545.546 1044.83 506.672 1021.41 463.985C995.701 416.988 989.695 367.753 998.944 318.187C1005.19 284.452 1016.24 246.49 1047.11 219.054C1062.73 205.212 1082.31 199.41 1106.21 195.266C1122.19 192.53 1139.24 193.276 1155.34 194.437C1169.87 195.514 1186.81 196.343 1200.5 199.907C1213.24 203.14 1227.17 205.129 1240.14 208.113C1255.64 211.677 1270.89 215.656 1286.03 219.883C1314.14 227.674 1341.53 236.543 1368.19 246.407C1396.18 256.768 1423.21 268.372 1449.15 280.971C1474.5 293.321 1503.33 306.748 1523.27 323.243C1540.8 337.831 1554.14 354.574 1558.46 373.472C1563.63 396.266 1560.62 419.06 1558.46 441.937C1554.14 489.929 1559.9 537.671 1573.6 584.751Z" fill="#0F0703" fill-opacity="0.15"/>
<path d="M1538.16 584.751C1522.06 536.18 1518.7 487.111 1512.45 437.627C1509.33 412.927 1505.49 388.061 1492.03 364.852C1480.62 345.042 1461.52 327.719 1439.66 312.799C1395.7 282.629 1338.16 260.415 1281.1 244.583C1224.89 228.918 1147.41 215.905 1097.56 247.485C1070.41 264.642 1056.36 290.337 1046.99 314.291C1035.58 343.882 1031.26 374.633 1035.94 405.218C1045.79 470.699 1094.8 529.88 1144.05 584.917H1139.12C1105.25 546.955 1073.18 508.081 1051.92 465.809C1041.11 444.341 1034.02 422.127 1031.02 399.582C1029.45 388.144 1029.45 376.622 1030.54 365.184C1031.38 355.403 1031.98 343.468 1036.42 334.101C1040.14 326.227 1041.47 317.524 1044.71 309.401C1048.07 300.947 1052.28 292.492 1057.32 284.452C1067.17 268.786 1080.14 254.115 1099 242.76C1116.18 232.482 1137.2 228.006 1159.3 226.1C1176.12 224.691 1192.7 225.851 1209.39 227.509C1226.93 229.332 1243.39 233.974 1260.68 236.212C1273.9 237.953 1287.47 243.257 1299.84 246.904C1312.1 250.468 1323.87 254.364 1335.52 258.757C1355.58 266.3 1375.04 274.423 1393.9 283.292C1431.25 301.112 1465.13 323.077 1487.11 350.762C1513.18 383.668 1515.46 423.122 1519.3 459.675C1523.75 501.865 1528.79 543.64 1542.6 584.917H1538.16V584.751Z" fill="#0F0703" fill-opacity="0.15"/>
<path d="M1506.45 584.751C1499.48 559.885 1492.76 535.019 1487.95 509.904C1482.67 482.137 1477.62 454.37 1471.62 426.686C1462.37 383.833 1436.18 346.451 1390.78 316.446C1349.33 289.011 1295.88 270.03 1240.15 260.829C1206.39 255.276 1168.31 258.011 1139.37 271.687C1114.98 283.209 1099.73 302.273 1089.16 320.756C1064.05 364.686 1063.93 412.264 1082.19 457.354C1100.57 502.942 1135.64 544.385 1170.48 584.751H1165.55C1132.88 546.872 1101.17 508.329 1081.59 466.223C1061.77 423.619 1059.01 378.777 1077.38 335.676C1091.44 302.687 1118.1 269.035 1169.03 258.84C1224.29 247.733 1285.79 264.559 1333.48 283.374C1393.18 306.997 1442.55 344.048 1463.93 389.635C1477.62 418.812 1481.35 450.557 1486.87 480.811C1493.36 515.706 1501.17 550.187 1510.77 584.751H1506.45V584.751Z" fill="#0F0703" fill-opacity="0.15"/>
<path d="M1478.7 584.751C1471.25 559.72 1465.61 534.439 1460.08 509.159C1454.44 483.298 1450.11 456.857 1440.98 431.494C1433.06 409.114 1425.13 387.646 1408.43 367.422C1393.3 349.187 1372.76 333.19 1349.33 319.845C1303.45 293.653 1228.97 271.19 1171.92 293.155C1117.26 314.209 1098.88 366.427 1098.52 406.047C1097.8 471.362 1147.29 531.124 1196.06 584.917H1191.02C1126.27 513.22 1059.85 423.951 1112.94 339.158C1134.56 304.594 1175.64 277.987 1233.54 281.883C1289.03 285.613 1340.08 306.914 1377.92 334.433C1395.94 347.529 1410.59 362.78 1421.89 379.026C1435.1 398.09 1441.47 419.226 1448.07 439.699C1463.33 487.608 1468.73 536.843 1483.03 584.917H1478.7V584.751Z" fill="#0F0703" fill-opacity="0.15"/>
<path d="M1440.86 584.751C1428.73 535.931 1421.41 486.613 1405.07 438.373C1391.74 399.085 1361.59 359.962 1312.58 336.588C1285.31 323.575 1250.96 316.198 1218.04 321.337C1189.21 325.813 1168.67 342.804 1155.58 360.045C1121.95 404.307 1136.6 457.023 1162.91 501.201C1180.57 530.792 1205.07 558.31 1230.66 584.917H1225.61C1188.61 546.375 1154.62 505.677 1139.24 460.255C1126.03 421.298 1128.91 375.876 1166.03 343.136C1181.41 329.625 1201.35 319.845 1226.33 317.441C1254.44 314.706 1282.31 320.839 1306.45 330.537C1353.06 349.187 1383.09 383.253 1400.5 417.403C1413.12 442.02 1419.24 468.793 1425.25 494.487C1432.34 524.575 1437.62 554.912 1445.07 585H1440.86V584.751Z" fill="#0F0703" fill-opacity="0.15"/>
<path d="M1387.65 584.751C1388.37 538.832 1382.61 492.167 1363.63 448.071C1348.73 413.341 1320.38 376.208 1266.33 365.515C1233.9 359.133 1206.03 376.705 1192.58 395.189C1176.48 416.988 1179.24 443.512 1186.69 466.555C1201.11 511.065 1239.3 550.022 1280.74 584.834H1275.34C1236.66 552.094 1202.43 516.453 1185.61 475.423C1170.72 439.119 1170.48 390.299 1222.37 367.588C1266.57 348.275 1316.42 377.617 1339.36 402.317C1369.87 435.14 1380.44 476.667 1387.05 514.629C1391.13 537.92 1392.34 561.377 1391.98 584.834H1387.65V584.751Z" fill="#0F0703" fill-opacity="0.15"/>
<path d="M1932.87 584.751C1926.51 577.457 1921.7 568.588 1916.42 561.211C1908.37 550.022 1900.56 538.749 1893.47 527.311C1881.82 508.661 1869.33 490.26 1854.8 472.522C1826.93 438.29 1789.81 406.047 1737.8 388.392C1709.21 378.694 1676.9 379.109 1652.15 393.863C1630.89 406.544 1617.68 425.857 1609.15 443.926C1588.13 488.603 1593.42 539.164 1605.79 584.751H1601.46C1589.21 538.998 1585.13 490.26 1604.23 445.17C1618.04 412.595 1651.07 375.545 1706.93 379.026C1731.91 380.601 1755.22 390.713 1774.8 400.825C1796.66 412.181 1814.8 426.354 1831.01 441.523C1869.57 477.661 1891.43 519.934 1920.14 559.802C1925.79 567.677 1930.83 577.209 1937.92 584.834H1932.87V584.751Z" fill="#0F0703" fill-opacity="0.15"/>
<path d="M1889.51 584.751C1886.99 580.607 1882.78 576.214 1880.14 572.484C1875.94 566.267 1871.73 560.134 1867.41 553.917C1858.76 541.401 1849.75 528.968 1839.54 516.95C1819.72 493.41 1794.26 471.611 1758.94 458.514C1739.12 451.137 1715.34 449.065 1693.84 454.37C1673.18 459.426 1659.36 473.434 1650.59 486.53C1630.17 517.115 1637.5 552.425 1642.55 584.751H1638.34C1633.18 551.348 1627.05 516.867 1646.99 485.121C1663.57 458.597 1703.45 440.279 1745.85 451.22C1785.37 461.415 1814.2 483.795 1836.42 507.666C1848.43 520.68 1858.52 534.439 1868.25 548.281C1873.05 555.161 1877.74 562.04 1882.42 568.92C1885.67 573.727 1891.31 579.364 1893.96 584.668H1889.51V584.751Z" fill="#0F0703" fill-opacity="0.15"/>
<path d="M1836.42 584.751C1833.3 579.364 1827.17 573.644 1823.45 569.169C1818.16 562.621 1812.39 556.321 1806.15 550.27C1799.42 543.722 1791.73 537.672 1783.21 532.201C1775.52 527.228 1762.06 519.188 1750.89 518.359C1740.32 517.53 1731.79 516.618 1721.46 519.685C1712.09 522.503 1705.85 528.637 1700.92 534.522C1688.91 549.027 1688.19 568.34 1690.11 584.834H1685.91C1682.67 555.161 1692.28 509.822 1748.97 514.878C1770.11 516.784 1790.41 532.035 1802.91 542.645C1811.43 549.773 1818.52 557.647 1825.37 565.604C1829.93 571.075 1837.74 578.286 1840.98 584.834H1836.42V584.751Z" fill="#0F0703" fill-opacity="0.15"/>
<path d="M2462.96 436.218C2440.14 417.651 2417.56 398.919 2394.13 380.684C2371.07 362.78 2347.05 345.374 2321.58 329.045C2294.8 311.97 2264.04 293.652 2229.57 284.452C2196.18 275.583 2163.86 272.102 2127.95 274.423C2090.95 276.744 2053.84 284.12 2018.52 292.16C1983.69 300.118 1949.45 309.069 1916.42 320.176C1888.79 329.46 1862 343.053 1857.92 365.433C1854.44 384.165 1870.17 405.384 1879.54 422.459C1890.35 442.103 1902.12 461.581 1913.54 481.06C1934.56 517.033 1953.54 553.337 1987.17 584.834H1982C1941.28 546.043 1919.78 499.461 1893.96 455.531C1879.9 431.742 1863.33 407.125 1855.52 381.927C1849.99 364.106 1857.2 348.441 1875.58 335.51C1895.28 321.751 1924.23 314.043 1949.57 306.583C1982.12 296.968 2016.12 289.757 2049.87 282.628C2112.69 269.367 2186.21 263.067 2245.79 286.69C2305.97 310.478 2354.37 345.457 2400.02 380.932C2423.44 399.168 2446.03 417.9 2468.85 436.467C2480.62 446.082 2492.51 455.614 2504.4 465.063C2511.85 470.948 2520.5 476.501 2528.07 482.469V486.945C2519.18 479.236 2507.89 472.274 2498.64 464.98C2486.51 455.365 2474.73 445.75 2462.96 436.218Z" fill="#0F0703" fill-opacity="0.15"/>
<path d="M1263.21 463.405C1267.41 454.702 1277.02 454.038 1286.03 459.841C1296.84 466.72 1300.44 478.324 1298.04 487.939C1297.08 491.752 1294.92 495.067 1289.15 496.145C1285.07 496.891 1278.94 493.244 1276.18 491.669C1265.13 485.287 1261.77 473.185 1263.21 463.819C1263.45 461.996 1267.77 461.996 1267.41 463.819C1266.57 469.29 1267.53 474.429 1269.93 479.65C1271.86 483.629 1281.71 495.731 1289.87 492.581C1298.16 489.431 1294.44 477.164 1292.4 472.605C1289.87 466.72 1273.66 451.055 1267.29 464.234C1266.45 465.974 1262.37 465.228 1263.21 463.405Z" fill="#0F0703" fill-opacity="0.15"/>
<path d="M2527.95 379.109C2514.85 375.296 2501.52 366.759 2490.83 361.205C2475.09 353.082 2461.16 343.716 2446.27 335.013C2417.68 318.353 2393.41 297.631 2368.19 278.567C2343.56 260 2317.98 241.517 2287.23 227.674C2250.11 211.014 2209.75 210.102 2167.23 214.744C2125.55 219.303 2084.47 229.498 2043.99 237.538C2002.78 245.744 1961.46 252.375 1919.06 256.768C1834.14 265.554 1746.81 257.514 1661.4 257.68C1640.38 257.68 1619.12 258.011 1598.22 256.436C1578.88 254.944 1560.14 252.623 1541.04 250.385C1504.05 246.158 1467.05 234.72 1432.7 224.608C1351.38 200.819 1271.74 174.212 1190.42 150.59C1137.56 135.256 1082.19 117.932 1040.51 90.0822C988.975 55.6841 985.371 5.86902 969.996 -39.7188C960.387 -68.0661 949.456 -96.4134 930.477 -122.523C912.099 -147.803 888.315 -171.426 859.006 -191.236C806.513 -226.795 740.448 -247.848 678.586 -273.957C621.169 -298.16 563.391 -330.652 555.464 -379.472C551.139 -405.996 564.593 -433.017 576.604 -457.718C589.337 -483.993 609.157 -517.313 590.659 -544.251C573.722 -568.952 526.154 -568.289 493.121 -565.553C451.56 -562.155 410.719 -554.944 369.879 -548.893C351.741 -546.241 333.603 -543.34 315.825 -539.859C294.804 -535.714 271.861 -532.647 252.282 -525.685C245.195 -523.198 237.267 -521.623 230.18 -518.888C222.011 -515.738 214.684 -511.843 207.597 -507.781C193.063 -499.244 181.291 -488.552 171.681 -477.279C155.705 -458.464 147.778 -436.913 131.321 -418.18C124.474 -410.389 116.186 -403.344 106.096 -397.459C95.6457 -391.325 84.1142 -389.336 71.6218 -386.269C57.4477 -382.788 38.9492 -383.782 24.2947 -384.28C5.556 -384.943 -14.6241 -386.766 -32.4018 -390.911C-60.8701 -397.542 -87.5367 -404.338 -113.242 -415.362C-159.488 -435.089 -199.848 -467.332 -203.212 -506.124C-206.695 -546.655 -163.813 -576.66 -116.485 -595.476C-63.1524 -616.695 1.59204 -625.812 31.1414 -667.339C47.2375 -689.884 53.1234 -715.828 56.727 -740.528C58.769 -754.536 59.2494 -768.626 58.769 -782.717C58.4086 -796.476 54.9251 -810.153 54.5648 -823.829C54.5648 -824.078 54.6849 -824.326 54.805 -824.492H58.6488C58.769 -824.326 58.8891 -824.078 58.8891 -823.829C59.1293 -810.153 62.4927 -796.476 63.0933 -782.717C63.6939 -767.466 62.7329 -752.215 60.4506 -737.047C56.9672 -713.589 50.4807 -690.133 36.5468 -668.499C8.91933 -625.646 -56.4257 -614.788 -111.08 -594.149C-139.548 -583.374 -165.494 -569.366 -182.671 -550.136C-204.653 -525.685 -202.611 -496.426 -184.954 -471.145C-170.299 -450.175 -144.954 -433.515 -117.326 -420.584C-92.2213 -408.814 -61.2305 -397.625 -31.2006 -393.563C6.8773 -388.341 45.0753 -382.622 83.2733 -391.491C114.865 -398.785 131.922 -422.574 144.534 -442.052C157.988 -462.608 168.318 -482.501 190.18 -499.824C213.123 -517.976 242.192 -526.182 273.903 -534.554C310.54 -544.169 351.02 -548.893 389.218 -554.612C426.815 -560.249 464.653 -566.382 502.971 -569.118C531.319 -571.19 562.671 -569.532 584.412 -555.358C607.836 -540.107 603.511 -514.827 597.505 -495.348C589.097 -468.078 571.8 -442.549 563.511 -415.197C554.262 -384.777 560.869 -352.617 590.538 -328.414C637.505 -289.954 702.37 -268.404 764.111 -243.538C794.021 -231.519 821.889 -217.843 848.195 -202.26C877.624 -184.854 900.927 -163.883 920.747 -141.089C963.149 -92.269 973.6 -36.9006 991.978 17.4732C999.906 41.096 1010.84 62.315 1034.14 80.8817C1054.32 97.0446 1080.63 109.229 1107.41 119.673C1171.08 144.456 1240.99 162.111 1307.65 182.667C1347.05 194.768 1386.21 207.533 1425.85 219.303C1446.27 225.354 1466.81 231.073 1487.59 236.46C1505.61 241.102 1524.47 243.506 1542.73 247.567C1561.95 251.877 1584.05 252.375 1603.99 253.867C1626.57 255.524 1649.87 254.696 1672.58 254.696C1716.42 254.696 1760.38 256.353 1804.23 257.099C1842.42 257.762 1880.62 257.431 1918.58 253.867C1955.94 250.303 1992.45 244.418 2028.73 237.538C2096.12 224.608 2166.99 203.886 2237.98 210.434C2295.76 215.822 2341.28 253.287 2378.04 280.971C2400.5 297.88 2422.48 315.037 2446.75 330.703C2459.6 338.992 2472.69 347.115 2486.51 354.657C2493.95 358.719 2501.64 362.614 2509.45 366.344C2515.09 369.08 2521.94 373.058 2528.79 375.545V379.109H2527.95Z" fill="#0F0703" fill-opacity="0.15"/>
<path d="M2527.95 340.815C2517.02 337.334 2506.09 330.04 2497.2 325.232C2481.46 316.778 2466.69 307.329 2452.51 297.548C2425.73 279.064 2402.42 258.425 2379.12 237.869C2358.46 219.551 2339.84 199.658 2312.69 185.568C2280.74 168.99 2243.86 169.985 2207.11 177.196C2129.27 192.447 2056.36 217.728 1976.48 228.42C1937.92 233.642 1899.6 236.377 1860.2 235.963C1820.08 235.631 1780.8 231.819 1740.8 229.332C1662.49 224.525 1583.69 227.011 1506.33 216.899C1467.29 211.76 1429.69 201.399 1392.94 191.204C1355.82 180.843 1319.3 169.405 1283.15 157.552C1223.09 137.991 1163.03 118.429 1112.46 88.0098C1089.16 74.0019 1068.98 57.6732 1053.24 39.438C1035.7 19.2965 1025.49 -3.99469 1014.8 -26.1255C1001.71 -53.2295 991.258 -81.1624 973.72 -107.106C958.105 -130.314 941.408 -152.611 919.547 -173.416C875.583 -215.273 814.802 -242.875 752.941 -270.559C724.833 -283.075 697.566 -296.337 673.181 -312.168C649.638 -327.419 627.656 -345.655 621.049 -368.034C606.154 -418.346 643.992 -462.608 659.608 -510.351C667.896 -535.714 669.458 -565.056 646.875 -587.104C621.77 -611.639 578.767 -611.804 539.969 -608.157C499.248 -604.345 459.368 -594.15 419.369 -587.684C379.609 -581.302 339.729 -575.583 299.249 -572.102C257.808 -568.537 216.006 -567.46 174.325 -564.973C156.187 -563.896 137.088 -563.233 119.55 -559.42C97.9286 -554.695 88.1989 -541.351 82.0728 -527.426C67.298 -493.774 41.5925 -455.231 -15.7046 -452.579C-64.353 -450.341 -116.725 -477.279 -114.683 -512.672C-112.641 -547.484 -51.8606 -563.15 -11.3803 -570.195C13.965 -574.588 42.073 -576.661 60.3311 -590.917C70.7816 -599.04 74.0247 -613.379 75.4662 -623.906C77.3881 -637.499 80.0307 -651.01 81.5923 -664.604C87.7184 -717.402 86.5172 -770.699 78.9497 -823.415C78.8296 -823.912 79.1899 -824.327 79.6704 -824.492H82.1929C82.6734 -824.244 83.1539 -823.912 83.1539 -823.415C91.4421 -766.057 91.8025 -708.285 84.1148 -650.927C81.4722 -631.2 81.7124 -605.257 63.3341 -588.845C47.118 -574.423 16.968 -571.853 -7.05595 -567.957C-35.6444 -563.316 -64.5932 -556.851 -86.6952 -543.008C-115.884 -524.69 -116.965 -498.167 -91.7403 -477.694C-68.3169 -458.712 -29.0378 -451.253 5.43648 -457.966C37.0279 -464.1 54.4453 -487.06 66.0969 -506.372C75.9467 -522.535 80.0307 -545.661 102.133 -556.27C127.598 -568.62 164.715 -567.46 194.385 -569.035C237.387 -571.356 280.63 -572.682 323.273 -577.406C365.315 -581.965 406.876 -588.348 448.077 -595.642C507.536 -606.251 592.101 -630.454 643.271 -594.647C691.68 -560.829 663.572 -503.72 644.713 -465.426C632.581 -440.892 621.29 -416.523 621.41 -390.331C621.53 -361.237 641.35 -338.361 670.178 -318.302C719.788 -283.572 785.253 -262.685 840.748 -233.177C897.565 -203.006 939.727 -163.386 970.958 -119.208C1004.35 -71.962 1015.76 -18.5828 1049.64 28.497C1079.31 69.7747 1133.6 99.4482 1190.18 122.076C1220.93 134.426 1253.36 144.539 1285.43 154.982C1324.47 167.664 1363.63 179.849 1403.63 190.955C1422.37 196.177 1441.35 201.482 1460.81 205.461C1478.34 209.025 1496.48 211.428 1513.9 215.075C1532.16 218.888 1552.94 219.22 1571.92 220.297C1593.42 221.541 1614.92 222.121 1636.54 222.701C1677.98 223.779 1719.3 224.525 1760.5 227.674C1800.38 230.658 1840.02 233.311 1880.26 232.979C1951.13 232.399 2020.08 219.634 2086.27 203.14C2118.46 195.183 2150.17 186.562 2182.6 179.185C2207.71 173.466 2240.02 165.178 2267.05 169.156C2293.11 172.969 2313.41 180.677 2332.51 193.442C2353.17 207.284 2369.03 224.359 2386.81 239.859C2407.71 258.177 2428.61 276.246 2452.03 293.072C2463.8 301.527 2476.3 309.484 2489.27 317.026C2496.12 321.005 2503.2 324.818 2510.29 328.465C2515.34 331.034 2521.46 334.847 2527.71 337.251V340.815H2527.95Z" fill="#0F0703" fill-opacity="0.15"/>
<path d="M799.186 -61.8496C786.814 -48.0075 763.631 -40.299 742.009 -35.4087C725.193 -31.5959 708.256 -27.7002 691.319 -24.0532C671.859 -19.9917 649.998 -15.35 632.34 -8.38751C618.046 -2.75119 603.391 1.97336 589.457 8.18988C573.001 15.5668 557.866 24.1042 543.692 33.5533C519.428 49.7991 498.407 68.2 475.944 85.6062C454.083 102.515 430.059 118.015 402.792 130.697C374.083 144.042 342.131 150.755 309.939 158.464C293.242 162.525 275.585 164.598 258.408 167.581C240.03 170.731 219.849 172.057 202.192 176.616C194.985 178.44 186.937 178.854 179.489 180.263C171.081 181.921 162.793 183.496 154.384 185.071C136.246 188.386 118.709 192.945 101.291 197.586C31.9824 216.236 -18.8282 250.137 -69.3985 286.524C-87.8969 299.786 -111.56 315.369 -139.789 315.949C-167.897 316.612 -195.764 300.201 -216.785 289.425C-268.437 263.15 -314.082 231.239 -354.923 197.172V192.613C-311.68 229.001 -263.271 262.57 -208.016 290.337C-195.044 296.885 -181.71 303.516 -166.936 307.909C-148.557 313.462 -132.341 314.291 -114.083 307.909C-83.6927 297.299 -61.9511 276.246 -38.2875 259.917C-14.624 243.589 11.0816 228.586 39.1896 215.987C68.6189 202.808 101.051 194.271 133.844 186.148C166.396 178.025 201.351 173.549 234.984 168.327C270.66 162.857 306.336 157.055 340.81 148.517C376.485 139.649 407.837 126.221 436.305 109.146C461.65 93.8949 482.911 75.6598 504.893 58.1707C526.755 40.7644 549.458 24.2699 576.484 10.7593C604.713 -3.41431 635.583 -13.1121 668.016 -21.7323C700.087 -30.2697 735.403 -34.414 766.033 -45.6038C798.465 -57.4566 810.838 -78.9243 800.988 -103.21C784.652 -143.742 727.234 -166.702 675.583 -183.279C642.911 -193.806 608.556 -202.509 573.962 -209.637C541.65 -216.268 508.617 -221.656 474.623 -221.324C408.918 -220.744 355.224 -188.418 297.807 -170.763C240.27 -153.108 171.561 -153.274 113.063 -168.691C47.7181 -185.931 -9.69907 -215.936 -71.3204 -238.482C-94.8639 -247.102 -119.368 -254.562 -142.912 -263.182C-166.695 -271.885 -189.999 -281.086 -213.302 -290.452C-236.605 -299.818 -259.908 -309.184 -283.331 -318.302C-306.755 -327.419 -330.659 -335.294 -354.923 -343.168V-346.318C-321.77 -335.542 -289.578 -324.27 -257.746 -311.588C-225.314 -298.74 -193.122 -285.561 -160.329 -273.046C-127.897 -260.695 -94.023 -250.252 -61.3505 -238.15C-29.1584 -226.214 1.71228 -212.704 33.1836 -200.022C63.5739 -187.838 95.4055 -174.907 129.279 -167.945C162.913 -161.065 196.786 -158.993 231.621 -161.48C297.447 -166.204 347.777 -195.546 406.635 -212.953C435.344 -221.49 465.013 -225.22 496.124 -223.645C527.836 -222.07 557.385 -215.771 587.656 -209.72C619.367 -203.42 650.838 -194.22 680.748 -184.605C705.493 -176.648 729.517 -167.613 751.018 -156.009C789.336 -135.619 828.615 -94.9215 799.186 -61.8496Z" fill="#0F0703" fill-opacity="0.15"/>
<path d="M2527.95 308.821C2517.98 305.257 2507.53 297.466 2500.08 292.99C2485.67 284.369 2472.57 274.755 2460.2 264.808C2438.22 246.904 2419.12 228.006 2402.54 207.45C2385.85 186.729 2371.07 165.261 2352.69 145.202C2343.8 135.422 2333.11 125.807 2316.66 121.745C2298.88 117.352 2282.66 120.419 2265.97 125.392C2233.05 135.173 2201.94 147.523 2170.59 159.376C2139 171.312 2106.69 181.009 2073.9 191.122C2012.63 210.02 1943.33 218.972 1876.42 218.806C1837.5 218.723 1798.58 214.744 1760.02 211.263C1721.1 207.782 1682.07 204.964 1642.91 203.638C1603.87 202.311 1564.95 201.897 1526.15 198.499C1495.04 195.763 1464.65 190.127 1434.62 183.993C1399.42 176.782 1365.07 165.841 1331.56 155.646C1303.45 147.109 1275.7 137.991 1248.67 127.879C1197.62 108.732 1149.34 85.275 1111.38 54.6897C1068.49 20.1259 1049.04 -23.3069 1025.37 -64.9161C996.783 -115.311 965.192 -163.303 913.3 -204.581C889.877 -223.23 862.49 -239.227 834.262 -254.23C806.394 -269.067 776.124 -281.831 748.857 -297.248C725.433 -310.51 702.731 -324.518 685.674 -341.924C669.578 -358.336 663.211 -376.239 662.611 -395.718C661.289 -443.461 698.526 -487.557 708.977 -534.139C714.502 -558.839 712.22 -585.115 694.442 -607.328C677.025 -629.045 645.313 -641.229 609.878 -642.555C571.8 -643.881 533.842 -633.935 498.287 -625.978C462.371 -618.021 426.456 -610.063 389.459 -604.676C354.864 -599.62 319.549 -596.553 284.234 -596.221C252.402 -595.89 218.168 -597.548 188.499 -606.002C144.655 -618.518 124.595 -648.026 117.868 -678.694C113.064 -700.742 110.541 -723.121 108.379 -745.335C107.058 -758.099 105.976 -770.947 104.535 -783.712C103.814 -790.094 103.094 -796.476 102.253 -802.859C101.532 -808.661 102.373 -816.949 99.0095 -822.337C98.4089 -823.249 99.2497 -824.078 100.211 -824.409H101.772C102.133 -824.326 102.373 -824.078 102.613 -823.829C104.775 -820.348 104.535 -816.203 105.136 -812.473C106.097 -806.091 106.937 -799.709 107.658 -793.409C109.34 -779.567 110.541 -765.725 111.862 -751.8C114.265 -726.851 116.907 -701.902 122.313 -677.119C126.397 -658.718 135.526 -640.566 153.544 -626.392C172.282 -611.638 199.189 -605.09 226.456 -601.941C302.012 -593.237 380.93 -604.344 453.242 -619.264C489.999 -626.89 526.035 -635.758 563.272 -642.058C592.221 -646.948 624.533 -647.363 652.16 -638.659C708.136 -620.922 721.229 -574.422 713.541 -536.128C703.812 -487.391 665.493 -442.383 666.935 -392.568C668.256 -344.245 726.034 -311.422 778.646 -285.644C793.181 -278.516 807.715 -271.47 822.009 -264.176C837.385 -256.385 851.439 -247.35 867.054 -239.808C878.345 -234.42 888.435 -226.629 898.165 -220.08C911.859 -210.797 924.111 -200.519 936.123 -190.158C981.168 -151.616 1011.2 -103.044 1034.5 -56.5446C1056.72 -12.2001 1083.27 31.2327 1131.2 65.3821C1173 95.1385 1225.37 116.938 1278.7 135.422C1310.3 146.363 1342.85 156.143 1375.64 165.427C1410.11 175.207 1446.51 185.651 1483.39 190.127C1519.06 194.437 1554.02 198.167 1590.41 199.245C1630.05 200.405 1669.57 201.482 1709.09 204.135C1785.85 209.191 1860.56 219.552 1937.92 213.418C2009.03 207.782 2078.7 189.298 2142 166.587C2173.84 155.149 2204.83 142.633 2236.9 131.526C2258.28 124.149 2290.23 110.638 2315.1 118.015C2338.64 124.978 2349.93 136.002 2363.02 150.839C2378.76 168.659 2391.85 187.557 2406.39 205.875C2421.52 224.939 2438.82 244.501 2460.56 260.332C2471.73 268.455 2481.82 277.075 2493.59 284.784C2498.88 288.265 2504.28 291.498 2509.81 294.813C2515.09 297.88 2521.46 302.605 2528.07 305.423V308.821H2527.95Z" fill="#0F0703" fill-opacity="0.15"/>
<path d="M2527.95 263.15V266.714C2519.3 260.498 2509.45 255.027 2501.16 248.562C2491.07 240.605 2482.18 232.068 2473.89 223.199C2457.44 205.461 2445.3 185.982 2436.06 166.09C2415.03 120.999 2411.79 73.5049 2422.48 26.9225C2428.13 2.63663 2447.23 -25.8765 2437.02 -50.4939C2434.25 -57.2077 2425.84 -61.9323 2416.72 -64.0873C2407.71 -66.2424 2399.66 -63.9216 2391.37 -61.9323C2370.35 -56.7933 2356.66 -44.9405 2343.8 -32.9219C2323.38 -13.9408 2307.41 7.11252 2289.99 27.4198C2272.69 47.7271 2252.99 67.1227 2230.89 85.1091C2145.37 154.9 2019.12 199.742 1885.67 199.327C1810.95 199.079 1738.28 185.651 1664.05 181.672C1591.73 177.777 1516.9 179.103 1446.99 164.598C1381.53 151.087 1318.7 132.852 1259.6 109.063C1203.15 86.3524 1156.3 57.8393 1119.06 20.7888C1098.28 0.23288 1084.59 -22.9754 1069.58 -45.6864C1054.08 -69.2263 1041.11 -93.5122 1025.49 -117.052C997.623 -159.076 960.266 -198.198 914.621 -232.099C870.777 -264.674 816.003 -288.462 769.636 -319.213C759.787 -325.761 750.657 -332.807 742.489 -340.349C734.561 -347.643 724.231 -357.673 721.228 -366.708C717.985 -376.571 713.901 -385.357 712.94 -395.635C711.859 -407.488 713.541 -419.589 716.904 -431.193C731.558 -481.257 766.753 -529.249 765.913 -581.219C765.192 -625.563 728.676 -668.416 663.931 -680.103C633.781 -685.491 602.91 -679.523 574.202 -673.058C540.568 -665.598 508.136 -655.651 475.223 -646.782C411.079 -629.542 342.131 -618.187 272.942 -623.989C222.852 -628.216 182.372 -646.285 159.909 -677.782C148.138 -694.359 142.372 -712.843 138.288 -730.995C132.522 -756.608 129.159 -782.385 124.955 -808.08C124.114 -812.971 122.792 -817.944 122.672 -822.917C122.672 -823.663 123.393 -824.16 124.234 -824.243H125.315C126.156 -824.078 126.877 -823.663 126.877 -822.917C127.237 -810.567 130.84 -797.802 132.762 -785.452C135.045 -770.532 137.327 -755.613 140.57 -740.776C145.015 -720.386 150.06 -700.079 162.312 -681.181C173.002 -664.769 189.699 -650.761 211.681 -640.98C239.068 -628.879 272.582 -625.895 304.413 -625.315C374.803 -624.071 441.35 -640.317 505.614 -658.221C557.385 -672.643 617.805 -693.448 674.502 -680.932C726.513 -669.411 759.546 -635.675 767.835 -599.785C779.246 -550.965 749.096 -502.393 729.997 -456.391C724.952 -444.372 720.507 -432.105 718.465 -419.672C716.303 -406.245 718.465 -394.226 719.907 -380.881C720.988 -370.437 730.237 -358.999 737.925 -350.13C746.573 -340.101 758.105 -331.232 769.997 -322.943C815.282 -291.612 870.417 -268.072 914.981 -236.078C959.786 -203.752 995.942 -165.955 1024.17 -125.838C1056.12 -80.4989 1077.26 -31.347 1115.7 11.8371C1152.34 53.1148 1205.07 83.7001 1265.13 107.903C1293.6 119.341 1323.15 129.454 1353.42 138.323C1371.92 143.793 1390.65 148.932 1409.51 153.657C1425.97 157.801 1444.11 162.194 1461.28 164.1C1479.06 166.007 1496.24 169.571 1514.26 171.146C1533.84 172.886 1553.42 173.881 1573 174.793C1610.95 176.616 1648.91 177.611 1686.63 180.098C1760.62 184.905 1832.45 197.918 1907.41 196.26C1978.28 194.686 2047.11 178.274 2107.89 153.657C2168.91 129.039 2217.08 94.3096 2258.52 55.3527C2279.06 36.0401 2295.28 14.6553 2313.05 -5.9007C2328.31 -23.6385 2345.97 -45.9351 2371.07 -57.8708C2391.37 -67.4857 2418.4 -73.2878 2435.81 -57.7879C2443.38 -51.157 2443.26 -42.1223 2443.02 -34.1652C2442.66 -22.1466 2438.34 -10.2108 2434.25 1.4762C2402.9 91.1599 2425 198.333 2527.95 263.15Z" fill="#0F0703" fill-opacity="0.15"/>
<path d="M693.961 -98.4857C691.198 -87.9591 678.346 -80.7479 666.934 -74.6143C641.229 -60.8551 612.04 -50.5771 584.772 -38.4756C553.782 -24.7164 527.475 -6.97856 502.971 12.0025C479.067 30.5692 458.647 51.1252 434.503 69.5261C412.641 86.2693 387.416 100.857 358.827 111.964C297.807 135.67 227.897 141.472 160.63 151.916C122.672 157.801 85.3151 163.354 48.9189 172.803C14.2043 181.838 -16.5463 194.685 -47.5372 208.693C-61.3509 214.91 -75.2848 221.126 -89.6992 226.763C-103.633 232.233 -117.567 235.963 -132.221 240.025C-157.447 247.07 -191.801 239.859 -214.624 231.653C-269.518 211.76 -313.362 178.605 -346.034 142.798C-349.278 139.151 -352.16 135.09 -355.163 131.111V125.06C-349.878 131.028 -345.674 137.825 -340.389 143.627C-330.779 154.154 -320.089 164.183 -308.557 173.798C-287.416 191.453 -262.671 207.118 -235.164 219.883C-220.75 226.514 -205.855 231.321 -189.639 235.549C-170.54 240.522 -152.882 239.196 -133.423 237.289C-118.167 235.797 -101.471 228.089 -88.2577 222.95C-72.6422 216.816 -57.7473 209.937 -42.7324 203.14C-13.7835 190.044 15.4055 178.688 47.7177 170.151C84.1139 160.536 121.591 154.982 159.429 149.263C229.098 138.654 300.69 132.189 363.512 106.908C426.455 81.4618 463.211 37.2002 511.62 1.22725C534.923 -16.0961 560.388 -31.0987 589.337 -43.6975C618.886 -56.545 649.877 -67.7347 676.544 -83.4832C710.417 -103.625 676.784 -129.9 650.358 -141.836C623.931 -153.771 593.541 -162.557 562.791 -167.199C526.034 -172.67 492.16 -173.664 455.524 -167.033C421.89 -160.982 390.539 -150.041 359.308 -139.929C305.494 -122.606 250.84 -111.748 191.381 -109.924C124.474 -107.852 61.4113 -121.031 -2.13193 -133.215C-61.5911 -144.654 -122.972 -148.881 -183.633 -156.175C-213.663 -159.822 -242.371 -167.448 -270.599 -175.073C-284.773 -178.886 -298.947 -182.865 -313.242 -186.429C-325.734 -189.578 -340.989 -194.469 -354.803 -195.712V-198.613C-343.031 -197.536 -330.779 -193.806 -319.968 -191.236C-302.911 -187.175 -286.215 -182.45 -269.518 -177.891C-237.206 -169.105 -204.654 -160.982 -170.179 -157.667C-151.801 -155.926 -133.423 -153.44 -115.044 -151.616C-96.1856 -149.71 -76.7262 -148.218 -58.2278 -144.985C-45.1348 -142.664 -31.5612 -141.504 -18.3481 -139.183C0.510712 -135.868 19.1292 -132.055 37.8679 -128.408C74.9848 -121.114 112.582 -114.98 151.261 -113.074C189.339 -111.167 226.215 -114.483 263.452 -119.29C329.999 -127.993 386.335 -155.844 450.719 -169.023C483.512 -175.653 515.704 -176.068 549.217 -172.255C577.325 -169.105 609.277 -162.226 633.901 -152.114C655.042 -143.41 677.385 -134.707 689.276 -119.125C694.442 -112.742 695.883 -105.946 693.961 -98.4857Z" fill="#0F0703" fill-opacity="0.15"/>
<path d="M-333.902 16.2303C-331.86 6.11807 -327.776 -3.41391 -321.049 -12.4486C-313.722 -22.395 -304.112 -28.4458 -289.938 -33.5847C-262.911 -43.4483 -230.959 -45.106 -201.049 -47.5097C-161.77 -50.7423 -122.371 -52.8974 -83.2121 -56.7931C-50.4194 -60.0257 -17.0262 -64.2529 16.1268 -64.17C34.2649 -64.0871 52.7633 -65.7448 71.0215 -65.9935C91.2016 -66.3251 111.502 -66.4908 131.682 -67.4026C158.589 -68.6459 185.255 -69.8892 212.042 -72.3758C247.717 -75.7742 283.273 -80.7474 318.107 -87.1297C352.942 -93.512 387.296 -100.889 422.612 -105.945C449.158 -109.758 477.266 -112.079 501.05 -101.718C525.794 -90.9425 505.134 -67.2368 494.563 -54.638C476.185 -32.7559 456.966 -11.0395 437.506 10.4282C429.098 19.7115 420.93 30.5697 410.239 38.6097C402.912 44.0803 396.906 52.8663 387.897 57.0107C382.492 59.5801 376.245 64.1389 371.681 67.5373C367.236 70.8528 360.75 73.588 355.465 76.3233C341.891 83.2029 326.996 88.7564 311.621 93.6467C283.393 102.598 253.123 107.986 222.732 112.048C192.102 116.109 160.991 118.513 130 121.248C96.8472 124.149 63.0936 125.227 30.421 130.863C-18.3475 139.235 -63.6326 155.48 -108.077 171.146C-146.395 184.657 -189.037 183.247 -225.794 168.991C-300.028 140.229 -336.905 72.9249 -333.902 16.6447C-333.782 14.7383 -329.577 14.7383 -329.697 16.6447C-332.22 65.7138 -305.553 113.457 -256.785 149.015C-233.241 166.256 -198.046 177.86 -163.572 178.026C-125.254 178.191 -88.9778 160.868 -55.4644 150.01C-24.1133 139.815 8.31906 131.194 42.1928 126.055C72.3428 121.497 103.574 120.668 134.084 118.015C199.91 112.296 267.537 107.074 326.996 85.2751C387.056 63.3101 422.011 23.3586 455.885 -15.6812C473.903 -36.4029 496.966 -57.5391 507.536 -80.7474C516.065 -99.4799 481.35 -108.1 460.329 -105.945C445.554 -104.453 430.78 -104.204 416.125 -102.049C380.57 -96.7446 345.975 -89.119 310.78 -82.8196C277.267 -76.8517 242.913 -72.2101 208.679 -69.2261C182.853 -66.9882 157.868 -65.9107 131.922 -64.5845C113.304 -63.5898 94.5649 -63.5069 75.9464 -63.2582C56.1266 -63.0096 36.1868 -61.6005 16.3671 -61.3519C-49.2182 -60.523 -114.203 -49.4162 -179.788 -46.1836C-209.938 -44.6916 -241.289 -42.5365 -270.118 -36.2371C-287.656 -32.4243 -303.031 -26.4565 -313.361 -15.7641C-322.731 -6.06628 -327.415 5.45502 -329.697 16.8934C-330.178 18.8827 -334.262 18.0538 -333.902 16.2303Z" fill="#0F0703" fill-opacity="0.15"/>
<path d="M2527.95 -133.464C2517.26 -140.177 2501.64 -144.653 2488.79 -147.803C2472.09 -151.865 2454.31 -153.274 2436.78 -153.274C2404.46 -153.357 2371.43 -146.891 2345 -134.21C2292.51 -109.012 2270.53 -63.7557 2251.91 -23.7213C2232.69 17.5564 2206.87 57.5079 2167.11 91.4086C2129.15 123.735 2079.66 147.523 2024.53 163.935C1960.38 183.164 1887.83 183.33 1819.72 177.197C1785.49 174.13 1751.85 169.074 1717.86 165.012C1679.66 160.536 1640.98 158.796 1602.31 156.889C1532.16 153.491 1462.37 149.181 1396.18 131.94C1332.16 115.28 1270.78 93.6465 1217.68 63.4757C1111.5 3.134 1080.75 -93.9266 1013.36 -172.586C978.764 -213.035 936.122 -250.334 884.591 -281.168C861.287 -295.093 838.224 -309.681 816.843 -324.932C797.144 -338.94 779.005 -355.352 769.636 -374.002C747.654 -417.517 775.402 -465.26 796.783 -506.123C809.156 -529.746 821.648 -553.203 830.657 -577.572C840.507 -604.179 844.831 -629.293 826.092 -654.491C811.198 -674.55 788.615 -691.707 762.549 -705.135C737.324 -718.148 705.252 -729.172 673.18 -729.338C639.306 -729.504 605.192 -717.651 575.403 -707.704C546.454 -698.007 518.466 -687.065 489.637 -677.119C448.677 -662.945 406.875 -652.336 361.23 -648.192C317.746 -644.213 270.419 -646.036 232.582 -662.78C158.107 -695.769 157.627 -769.289 147.177 -822.669C147.056 -823.58 147.897 -824.16 148.858 -824.409H150.3C150.78 -824.243 151.261 -823.995 151.381 -823.415C159.789 -780.728 161.591 -733.897 193.783 -695.686C227.176 -656.066 290.479 -646.202 352.821 -650.429C420.809 -654.988 479.547 -676.539 539.007 -698.089C591.138 -716.988 650.958 -741.439 711.018 -727.349C765.192 -714.667 810.597 -684.496 834.621 -649.103C848.435 -628.713 844.471 -606.831 837.744 -585.612C830.056 -561.077 817.564 -537.372 805.312 -513.832C782.609 -470.565 748.856 -418.097 775.282 -372.261C799.065 -331.066 856.963 -303.133 902.729 -273.957C951.137 -243.206 990.416 -206.073 1023.21 -166.95C1057.08 -126.501 1080.99 -83.0684 1110.42 -41.1276C1141.41 2.96828 1183.33 42.6711 1240.63 72.096C1254.2 79.0585 1268.61 85.4408 1283.15 91.4915C1298.76 97.9567 1316.42 106.577 1333.84 110.307C1339.84 111.55 1346.33 114.451 1352.22 116.275C1361.59 119.176 1370.95 121.994 1380.56 124.563C1397.86 129.205 1416.12 132.355 1433.06 137.245C1446.63 141.058 1463.69 142.798 1477.98 144.705C1498.28 147.357 1518.82 149.015 1539.48 150.507C1576.84 153.076 1614.44 154.32 1651.79 156.475C1724.59 160.785 1795.46 174.461 1868.49 177.445C1941.4 180.429 2011.19 169.074 2073.89 143.296C2127.11 121.497 2169.51 89.5022 2200.38 52.7004C2225.61 22.5296 2243.5 -11.7856 2258.16 -45.0233C2269.69 -71.2155 2287.23 -96.6619 2312.93 -117.632C2338.64 -138.686 2374.43 -151.865 2414.07 -155.18C2435.93 -157.004 2457.8 -156.423 2479.3 -152.942C2495.27 -150.29 2514.61 -145.151 2528.31 -137.442V-133.464H2527.95Z" fill="#0F0703" fill-opacity="0.15"/>
<path d="M2527.95 -198.364C2496.24 -206.404 2459.6 -208.725 2426.21 -208.559C2391.49 -208.393 2355.7 -204.415 2324.94 -192.977C2272.33 -173.415 2244.46 -133.795 2227.65 -96.0817C2207.47 -50.9913 2198.7 -3.74567 2170.11 39.5213C2147.05 74.4167 2111.01 104.919 2065.61 126.967C2016.36 150.838 1956.54 162.277 1896.84 162.94C1820.32 163.769 1746.09 147.357 1670.77 140.726C1597.26 134.344 1523.39 132.686 1450.83 121.745C1384.41 111.716 1319.18 89.4192 1264.41 61.735C1212.16 35.2941 1171.8 0.315796 1140.93 -38.6411C1123.03 -61.1863 1108.73 -84.892 1092.16 -107.935C1076.06 -130.314 1059.73 -152.694 1042.55 -174.659C1007.11 -220.081 961.708 -261.11 909.215 -297.911C866.693 -327.751 819.486 -358.916 813.841 -402.929C812.519 -413.124 812.88 -424.646 816.723 -434.592C821.048 -445.533 822.729 -457.883 830.537 -468.078C843.27 -484.573 852.639 -501.979 869.936 -516.733C886.393 -530.824 906.453 -541.102 933.48 -541.185C963.029 -541.267 993.179 -527.508 1018.28 -518.059C1048.43 -506.786 1078.46 -495.182 1111.86 -489.132C1144.29 -483.247 1176.12 -479.848 1209.87 -481.174C1273.78 -483.661 1334.44 -501.896 1388.37 -524.773C1461.04 -555.607 1522.79 -598.625 1567.95 -648.523C1590.41 -673.389 1608.07 -700.162 1620.68 -728.095C1627.65 -743.594 1633.18 -759.343 1639.3 -775.008C1642.91 -784.126 1646.15 -793.161 1648.79 -802.444C1650.71 -809.489 1655.28 -816.618 1656.24 -823.746C1656.24 -823.995 1656.36 -824.243 1656.6 -824.409H1660.44C1660.56 -824.243 1660.56 -823.995 1660.56 -823.746C1659.36 -814.38 1654.08 -804.765 1651.19 -795.482C1647.23 -782.302 1642.06 -769.123 1636.9 -756.11C1628.97 -735.886 1620.32 -715.579 1608.43 -696.183C1585.01 -658.138 1552.22 -623.326 1512.22 -592.492C1435.1 -533.062 1323.51 -482.666 1205.55 -478.025C1139.72 -475.455 1080.03 -491.452 1023.33 -512.837C993.419 -524.027 960.867 -539.112 925.792 -538.118C893.84 -537.206 871.017 -514.412 856.603 -497.337C822.249 -456.64 802.069 -406.908 835.943 -363.06C851.678 -342.753 875.462 -325.844 898.645 -309.516C923.269 -292.275 946.813 -274.62 969.155 -255.888C1015.76 -216.931 1049.15 -173.167 1081.95 -128.325C1098.76 -105.448 1114.38 -82.2396 1130.6 -59.1141C1138.28 -48.0902 1146.57 -37.3149 1155.7 -26.7882C1164.23 -16.8418 1174.8 -7.9729 1183.57 1.80775C1201.11 21.3691 1228.85 38.5267 1254.56 52.7832C1280.87 67.4542 1310.17 79.6386 1340.2 90.331C1374.44 102.515 1410.71 110.804 1447.47 118.264C1484.11 125.641 1523.27 127.63 1561.1 130.2C1599.3 132.686 1637.38 134.841 1675.46 138.157C1711.85 141.306 1747.41 146.86 1783.45 151.419C1856.96 160.702 1930.35 164.763 2001.82 146.777C2057.8 132.686 2105.13 105.416 2138.88 71.8472C2178.64 32.3102 2193.41 -14.3552 2209.51 -60.2746C2225.49 -105.862 2246.63 -157.335 2303.8 -186.843C2333.59 -202.177 2368.31 -208.476 2404.82 -210.714C2444.34 -213.201 2490.11 -210.963 2528.07 -201.431V-198.364H2527.95Z" fill="#0F0703" fill-opacity="0.15"/>
<path d="M2527.95 -258.292C2490.95 -262.353 2453.71 -265.005 2416.23 -264.84C2380.68 -264.674 2344.52 -262.104 2311.97 -251.826C2260.2 -235.498 2227.77 -201.348 2207.23 -166.039C2183.56 -125.424 2175.63 -82.3227 2163.62 -39.8017C2156.9 -15.7645 2149.93 8.10689 2136 30.735C2125.42 48.0584 2111.25 64.2214 2094.43 78.9752C2058.28 110.721 2010.47 130.282 1954.25 139.897C1884.58 151.833 1811.67 139.566 1743.2 130.034C1705.49 124.812 1667.53 120.17 1629.33 117.02C1592.81 113.954 1556.3 111.881 1519.9 108.483C1452.51 102.184 1387.89 88.4244 1328.91 64.9674C1272.58 42.5879 1222.25 11.1737 1187.05 -26.7056C1147.17 -69.5582 1116.66 -116.141 1083.63 -161.563C1051.44 -205.741 1014.92 -248.097 971.316 -287.302C932.757 -321.949 878.824 -357.424 875.58 -403.675C872.938 -442.466 911.496 -481.092 971.316 -479.268C1006.03 -478.191 1039.78 -468.907 1073.3 -463.271C1111.26 -456.806 1150.05 -454.319 1188.97 -456.226C1318.34 -462.608 1439.78 -516.733 1527.11 -580.307C1569.27 -611.058 1604.35 -646.368 1629.45 -684.994C1642.06 -704.389 1653.96 -726.106 1659.48 -747.076C1662.6 -758.68 1668.61 -770.367 1672.69 -781.971C1674.86 -788.271 1676.9 -794.57 1678.82 -800.87C1681.1 -808.081 1686.03 -816.204 1686.27 -823.581C1686.27 -823.829 1686.39 -824.078 1686.51 -824.244H1690.35C1690.47 -824.078 1690.59 -823.829 1690.59 -823.581C1690.47 -818.856 1687.71 -813.966 1686.15 -809.407C1683.99 -803.19 1682.06 -796.891 1680.02 -790.674C1675.82 -777.744 1672.45 -763.653 1665.61 -751.303C1660.56 -742.103 1658.04 -731.742 1653.96 -722.293C1649.39 -711.683 1643.87 -701.239 1637.74 -690.961C1615.16 -652.999 1581.88 -618.435 1542.6 -587.684C1502.96 -556.602 1456.24 -529.912 1405.91 -507.533C1381.52 -496.674 1355.82 -486.314 1328.91 -478.605C1312.46 -473.881 1295.88 -469.57 1279.18 -465.509C1267.29 -462.608 1252.52 -459.375 1240.02 -458.381C1222.97 -457.055 1206.27 -454.402 1189.09 -453.407C1169.39 -452.247 1149.57 -452.413 1129.99 -453.656C1094.32 -455.894 1059.84 -462.691 1025.49 -469.156C990.775 -475.704 952.337 -482.252 920.505 -466.835C891.556 -452.827 879.544 -427.049 880.025 -403.675C880.505 -378.478 900.445 -355.684 921.466 -336.122C942.367 -316.644 964.829 -298.077 986.211 -278.765C1029.57 -239.642 1063.69 -196.044 1095.4 -152.031C1111.86 -129.237 1127.83 -106.277 1144.89 -83.6489C1162.19 -60.6893 1179.96 -36.8178 1203.03 -16.3447C1245.55 21.5346 1296.72 50.9595 1358.82 72.6758C1425.01 95.8842 1497.56 104.256 1570.59 109.643C1644.95 115.114 1717.62 123.071 1790.77 133.846C1860.68 144.207 1937.56 146.694 2003.86 125.723C2058.76 108.4 2100.44 75.2453 2126.63 38.3606C2156.9 -4.24326 2161.34 -52.815 2174.79 -98.7343C2185.96 -136.945 2203.14 -176.234 2234.97 -208.808C2260.68 -235.083 2297.68 -254.064 2342.24 -262.353C2371.91 -267.824 2404.22 -268.155 2434.73 -267.741C2466.08 -267.326 2497.43 -264.674 2528.43 -261.276V-258.292H2527.95Z" fill="#0F0703" fill-opacity="0.15"/>
<path d="M2527.95 -362.066C2523.62 -355.932 2516.78 -350.711 2509.21 -346.318C2489.99 -335.128 2465.24 -331.066 2441.46 -327.088C2423.92 -324.187 2406.15 -321.866 2388.49 -319.545C2370.83 -317.141 2353.77 -313.66 2336.24 -310.925C2307.89 -306.449 2280.74 -294.43 2259.12 -281.417C2214.68 -254.728 2187.77 -216.434 2169.99 -178.389C2149.93 -135.536 2142.24 -91.1087 2133.23 -46.7642C2125.07 -6.48119 2110.41 32.8072 2075.22 66.1278C2045.43 94.3922 2002.66 114.285 1953.66 123.154C1882.54 136.084 1810.83 123.154 1740.92 113.456C1702.37 108.151 1663.45 103.758 1624.53 99.697C1605.79 97.7077 1587.05 95.8842 1568.19 94.1436C1548.25 92.2372 1526.63 91.9056 1507.05 88.4244C1490.83 85.6062 1474.26 83.9485 1458.16 80.8816C1439.3 77.3175 1421.17 73.3389 1402.79 68.4486C1371.56 60.1599 1342.13 49.1359 1314.5 36.1227C1260.69 10.7593 1216.36 -24.3847 1184.29 -63.2587C1147.41 -107.935 1115.46 -154.517 1081.71 -200.271C1064.77 -223.148 1047.35 -245.859 1028.73 -268.155C1010.24 -290.369 989.456 -311.588 971.678 -334.05C947.894 -364.304 925.792 -411.881 987.534 -427.961C1001.23 -431.525 1017.44 -430.945 1031.74 -431.194C1052.04 -431.608 1072.46 -431.194 1092.76 -431.028C1131.44 -430.779 1169.03 -433.017 1206.99 -437.825C1331.2 -453.739 1447.83 -503.969 1536.84 -564.808C1583.81 -596.885 1623.33 -634.101 1651.55 -675.296C1666.81 -697.592 1676.78 -721.049 1686.51 -744.672C1692.16 -758.183 1696.96 -771.859 1701.64 -785.535C1704.17 -792.912 1706.69 -800.372 1709.09 -807.749C1710.77 -812.971 1714.14 -818.524 1714.86 -823.746C1714.86 -823.995 1714.98 -824.244 1715.22 -824.409H1719.06C1719.18 -824.244 1719.18 -823.995 1719.18 -823.746C1717.86 -814.131 1712.34 -803.853 1709.09 -794.321C1704.53 -780.562 1699.72 -766.886 1694.44 -753.292C1685.91 -731.244 1676.9 -709.279 1664.41 -688.143C1641.95 -650.264 1608.91 -615.7 1570.11 -584.866C1530.71 -553.618 1484.47 -526.514 1434.86 -503.223C1410.11 -491.618 1384.41 -481.092 1357.86 -471.56C1345.49 -467.084 1332.88 -462.857 1320.14 -458.878C1304.53 -453.988 1286.51 -448.268 1269.69 -445.948C1262.97 -445.036 1256.12 -442.798 1249.27 -441.72C1241.11 -440.394 1232.94 -438.737 1224.65 -437.327C1207.11 -434.426 1189.21 -432.603 1171.44 -430.779C1134.44 -427.132 1097.2 -428.044 1059.97 -428.293C1024.77 -428.541 981.648 -431.774 958.945 -409.229C938.765 -389.17 957.624 -359.745 971.318 -340.847C987.894 -317.97 1009.16 -296.834 1027.89 -274.786C1046.75 -252.655 1064.29 -229.944 1081.23 -207.068C1115.34 -161.314 1147.29 -114.814 1183.57 -69.8896C1217.92 -27.4515 1264.41 9.76468 1323.27 36.8687C1385.49 65.5476 1457.44 81.0474 1531.07 87.8442C1607.83 94.9724 1684.59 102.432 1760.5 113.373C1832.58 123.734 1906.33 133.598 1977.56 114.948C2029.93 101.272 2069.81 72.4272 2094.8 38.4436C2125.79 -3.82875 2128.79 -51.9861 2139.36 -97.9054C2156.18 -171.095 2187.89 -256.137 2285.31 -298.409C2330.35 -317.97 2385.01 -321.203 2435.82 -329.077C2457.92 -332.558 2479.66 -336.205 2499.12 -344.66C2509.21 -349.136 2517.5 -355.104 2523.26 -362.315C2525.3 -364.801 2526.75 -367.371 2527.83 -369.94V-362.066H2527.95Z" fill="#0F0703" fill-opacity="0.15"/>
<path d="M2527.95 -572.516C2488.31 -534.637 2472.33 -488.22 2440.74 -447.274C2426.21 -428.376 2407.47 -411.467 2382.84 -398.453C2355.7 -384.031 2324.71 -374.002 2295.16 -362.315C2232.69 -337.614 2191.37 -298.989 2163.26 -253.899C2135.88 -209.969 2119.18 -163.883 2108.97 -116.555C2099.12 -70.387 2099.24 -21.4837 2072.81 22.1977C2053 55.1038 2017.2 82.8709 1969.63 97.3761C1914.98 114.036 1856 108.4 1798.94 102.847C1781.77 101.189 1764.59 97.8734 1747.65 95.3868C1728.55 92.5687 1708.73 90.5794 1689.87 87.0981C1653.48 80.3014 1614.44 77.6491 1577.2 73.6705C1510.9 66.5422 1443.27 57.7562 1383.21 36.1227C1352.7 25.0987 1323.75 12.2513 1297.56 -3.1657C1273.42 -17.4222 1252.52 -34.5799 1233.54 -52.1519C1194.14 -88.4564 1164.95 -129.485 1137.32 -170.349C1108.01 -213.616 1075.1 -256.717 1054.08 -302.305C1045.31 -321.369 1037.02 -344.411 1051.56 -363.061C1062.61 -377.234 1084.47 -385.357 1105.49 -390.994C1133 -398.288 1162.07 -402.598 1190.06 -408.649C1226.69 -416.523 1262.85 -424.397 1298.4 -434.344C1357.62 -451.004 1413 -473.963 1465.25 -499.41C1515.82 -524.027 1562.91 -552.292 1603.99 -584.286C1644.95 -616.197 1678.94 -652.336 1702.49 -691.79C1727.95 -734.477 1737.8 -780.562 1759.78 -824.078C1759.78 -824.161 1759.9 -824.244 1760.02 -824.326H1763.75C1763.99 -824.078 1763.99 -823.663 1763.87 -823.332C1741.53 -778.987 1731.19 -732.239 1705.25 -688.641C1682.79 -651.093 1650.11 -616.778 1611.8 -586.027C1572.88 -554.612 1527.47 -527.177 1479.18 -502.725C1430.05 -477.776 1377.08 -454.982 1321.23 -437.908C1257.56 -418.429 1190.66 -406.245 1124.23 -392.32C1097.56 -386.684 1070.3 -378.892 1055.28 -361.652C1036.3 -339.77 1055.52 -307.112 1067.05 -285.561C1080.15 -261.027 1096.84 -237.487 1112.82 -213.864C1126.75 -193.308 1140.33 -172.587 1154.62 -152.114C1183.45 -110.67 1215.76 -70.0555 1259 -34.7457C1307.41 4.70853 1369.63 31.481 1439.42 49.2189C1504.41 65.7134 1575.04 69.8577 1642.91 78.0635C1712.58 86.4351 1781.52 100.692 1851.91 105.002C1917.02 108.98 1980.56 99.3654 2027.05 66.2107C2071.49 34.5479 2085.91 -8.80199 2093.48 -51.0743C2098.04 -76.272 2101.28 -101.47 2107.05 -126.501C2109.81 -138.603 2112.81 -150.704 2116.78 -162.723C2120.26 -173.25 2125.43 -183.776 2128.19 -194.386C2130.83 -205.078 2137.68 -216.019 2142.84 -226.297C2148.25 -237.073 2154.74 -247.433 2161.22 -257.794C2173.96 -278.185 2189.81 -297.994 2209.75 -315.484C2230.29 -333.47 2254.32 -348.307 2282.42 -360.408C2311.37 -372.841 2342.6 -382.373 2370.71 -395.801C2459.72 -438.239 2466.21 -520.463 2527.95 -577.323V-572.516Z" fill="#0F0703" fill-opacity="0.15"/>
<path d="M1111.38 -314.489C1118.46 -358.833 1191.86 -378.975 1243.15 -394.723C1274.98 -404.504 1307.29 -413.539 1338.4 -424.314C1369.99 -435.338 1400.38 -448.103 1430.17 -461.199C1546.57 -512.091 1661.64 -575.914 1730.83 -659.464C1748.13 -680.435 1762.78 -702.483 1776.84 -724.531C1783.69 -735.14 1790.41 -745.832 1797.14 -756.442C1800.5 -761.747 1803.99 -767.052 1807.47 -772.356C1811.31 -778.158 1816.48 -782.883 1821.4 -788.188C1827.53 -794.819 1839.42 -803.024 1850.95 -804.599C1866.45 -806.671 1878.34 -803.605 1891.43 -798.466C1903.93 -793.492 1915.1 -785.121 1925.91 -778.573C1939.96 -770.036 1953.89 -761.581 1968.79 -753.872C1998.22 -738.787 2035.22 -728.592 2072.09 -728.675C2079.54 -728.675 2086.63 -728.178 2094.19 -728.592C2103.08 -729.089 2111.97 -729.752 2120.86 -730.581C2139.96 -732.239 2158.94 -734.228 2178.04 -735.886C2242.18 -741.44 2310.65 -741.605 2370.83 -723.453C2397.38 -715.496 2428.49 -704.057 2446.51 -687.812C2456.23 -679.026 2461.76 -670.405 2465.72 -659.879C2467.41 -655.403 2465.84 -649.103 2465.84 -644.462C2465.84 -637.997 2464.28 -632.277 2462.36 -625.978C2454.79 -601.029 2443.14 -576.66 2429.45 -552.955C2416.36 -530.244 2401.7 -507.284 2382 -486.977C2364.46 -468.824 2342.84 -453.242 2317.98 -439.897C2291.55 -425.723 2262.72 -413.953 2236.78 -399.365C2180.08 -367.454 2148.37 -317.887 2124.95 -271.305C2099.84 -221.324 2082.06 -169.52 2072.69 -116.969C2064.04 -68.5633 2063.08 -15.9302 2028.97 27.9999C2015.16 45.8206 1992.09 62.1493 1966.75 72.1786C1939.72 82.871 1908.13 86.6839 1877.5 87.4298C1843.5 88.2587 1809.87 83.8657 1776.6 79.3898C1738.4 74.3337 1700.56 68.1172 1662.6 62.5638C1588.37 51.6227 1512.94 44.5773 1441.58 25.7619C1377.8 9.01878 1324.59 -18.0023 1278.22 -51.986C1231.14 -86.4669 1199.54 -130.977 1170.11 -173.25C1140.93 -215.19 1110.66 -261.607 1110.9 -308.77C1111.26 -310.593 1111.38 -312.5 1111.38 -314.489C1111.5 -316.395 1115.7 -316.395 1115.58 -314.489C1113.54 -263.431 1146.21 -214.196 1177.8 -169.105C1209.39 -124.015 1244.47 -80.9135 1294.56 -44.1946C1343.93 -7.97301 1408.79 16.4786 1477.14 31.3983C1549.81 47.2297 1626.21 54.1093 1700.44 65.4648C1771.67 76.323 1847.95 91.9886 1920.98 81.2133C1937.68 78.7267 1953.65 74.3337 1968.43 68.5316C1985.01 61.9836 1996.3 52.2858 2009.03 43.0025C2033.77 24.8502 2044.22 -1.75651 2051.31 -25.4622C2059.36 -52.3175 2062.72 -79.7531 2067.05 -107.023C2071.13 -132.386 2077.02 -157.501 2084.83 -182.45C2099.96 -231.436 2121.46 -280.422 2153.17 -325.596C2167.35 -345.903 2184.76 -367.039 2207.11 -383.617C2229.45 -400.194 2256.12 -413.041 2283.02 -425.806C2297.2 -432.52 2311.25 -439.399 2324.58 -446.859C2330.95 -450.423 2337.2 -454.153 2342.72 -458.298C2348.61 -462.608 2357.26 -467.25 2361.22 -472.471C2364.7 -476.947 2371.55 -481.34 2375.87 -485.65C2380.92 -490.707 2385.72 -495.845 2390.17 -501.15C2399.78 -512.589 2407.47 -524.939 2415.27 -536.957C2430.77 -561.078 2443.62 -586.026 2453.23 -611.556C2458.04 -624.486 2461.64 -636.919 2461.64 -650.264C2461.64 -666.095 2452.87 -678.694 2437.38 -690.05C2413.95 -707.207 2379.36 -718.811 2347.41 -726.188C2315.45 -733.565 2281.58 -736.218 2248.07 -735.803C2209.75 -735.306 2172.39 -732.322 2134.55 -728.675C2102.24 -725.608 2071.37 -723.453 2039.3 -728.26C2006.75 -733.068 1979.24 -744.009 1953.53 -758.183C1940.92 -765.145 1928.91 -772.688 1916.78 -780.065C1901.28 -789.431 1885.19 -801.118 1863.44 -802.113C1841.7 -803.19 1827.17 -789.763 1816.72 -778.241C1807.23 -767.88 1801.1 -755.53 1793.9 -744.258C1779.84 -722.127 1765.91 -699.913 1750.17 -678.363C1721.22 -638.66 1682.78 -601.443 1636.66 -570.278C1559.06 -517.728 1471.61 -473.3 1377.44 -435.835C1331.19 -417.434 1282.19 -403.841 1233.78 -388.59C1187.17 -373.919 1121.95 -354.44 1115.58 -314.406C1115.34 -312.665 1111.14 -312.665 1111.38 -314.489Z" fill="#0F0703" fill-opacity="0.15"/>
<path d="M1165.55 -293.685C1176 -341.344 1243.99 -366.128 1299.72 -387.098C1330.11 -398.536 1361.11 -409.312 1390.78 -421.745C1421.77 -434.675 1452.28 -448.186 1482.31 -462.028C1545.01 -490.872 1604.95 -522.37 1662.25 -556.187C1702.73 -580.059 1740.32 -606.251 1778.64 -631.532C1800.5 -645.954 1824.05 -659.713 1853.12 -666.51C1884.47 -673.887 1918.94 -665.93 1949.09 -659.547C1983.32 -652.336 2017.2 -644.545 2053.47 -644.296C2088.55 -644.048 2123.98 -654.077 2156.78 -661.537C2209.75 -673.555 2286.51 -686.486 2330.83 -654.408C2374.31 -622.911 2356.3 -572.599 2327.11 -539.113C2291.07 -497.918 2223.2 -478.854 2181.76 -441.389C2137.2 -401.106 2115.34 -348.97 2095.4 -300.978C2074.26 -250.169 2055.88 -198.862 2043.99 -146.56C2037.86 -119.539 2033.78 -92.1863 2028.49 -65.0823C2023.81 -41.0451 2017.68 -17.3394 2002.9 4.87429C1989.33 25.4302 1966.75 43.0023 1937.44 53.3631C1910.17 63.0609 1878.34 65.4646 1848.19 64.0555C1834.98 63.3924 1822.36 63.4754 1809.27 62.0663C1789.21 59.9112 1769.27 57.2588 1749.45 54.4407C1711.25 48.9701 1673.42 42.6707 1635.34 37.1173C1503.09 17.6388 1365.91 -11.8689 1281.35 -89.5339C1249.39 -118.959 1221.65 -150.704 1200.27 -184.439C1189.81 -201.017 1181.29 -218.174 1174.68 -235.664C1171.2 -244.864 1168.43 -254.147 1166.15 -263.514C1163.87 -273.046 1165.31 -283.489 1165.55 -293.104C1165.67 -295.011 1169.88 -295.011 1169.76 -293.104C1169.27 -279.511 1169.39 -266.415 1173.12 -253.07C1176.6 -240.968 1181.29 -229.116 1186.69 -217.346C1197.38 -194.054 1212.16 -171.758 1229.09 -150.29C1245.43 -129.568 1264.53 -109.924 1284.83 -90.943C1303.33 -73.7854 1326.63 -60.0262 1348.73 -45.4381C1361.83 -36.8178 1379.12 -30.2698 1394.14 -23.556C1409.15 -16.8421 1426.09 -11.6202 1442.31 -6.39836C1477.62 4.95715 1514.5 13.0801 1552.22 20.0426C1626.45 33.8847 1702.37 45.406 1777.92 55.3524C1811.31 59.7454 1845.79 62.8122 1879.78 61.0716C1897.68 60.1599 1915.34 57.0102 1931.67 51.9541C1949.45 46.4835 1962.66 38.029 1975.88 28.4141C2003.38 8.18974 2013.6 -20.3234 2020.32 -46.8472C2027.05 -73.7025 2030.77 -100.972 2035.94 -127.993C2045.67 -179.549 2062.84 -230.359 2082.78 -280.423C2101.88 -328.58 2122.42 -377.732 2157.86 -421.579C2172.87 -440.146 2192.09 -456.723 2215.64 -470.317C2243.98 -486.645 2274.25 -500.487 2299.6 -519.137C2323.74 -536.792 2340.32 -558.591 2348.25 -582.214C2352.21 -594.15 2353.89 -607.577 2351.25 -619.762C2348.25 -633.935 2338.76 -644.462 2324.7 -654.657C2300.44 -672.229 2257.44 -672.809 2225.13 -670.24C2189.93 -667.505 2156.42 -658.055 2122.78 -650.761C2091.79 -644.047 2060.32 -639.323 2027.77 -642.556C1993.66 -645.871 1961.34 -654.326 1928.19 -660.708C1909.81 -664.272 1892.39 -666.178 1873.3 -666.095C1854.32 -666.013 1835.82 -658.884 1820.56 -651.922C1806.51 -645.457 1793.9 -637.417 1781.64 -629.377C1773.72 -624.155 1765.79 -617.524 1756.9 -613.214C1752.09 -610.81 1746.57 -606.665 1742.49 -603.599C1738.16 -600.449 1733.48 -597.631 1729.15 -594.481C1720.38 -588.016 1710.05 -582.38 1700.92 -576.163C1675.82 -559.088 1648.07 -543.506 1620.68 -528.255C1564.35 -496.84 1505.25 -467.83 1443.99 -441.057C1414.2 -428.044 1384.29 -415.031 1353.3 -403.344C1322.91 -391.905 1291.92 -381.13 1262.25 -368.697C1219.6 -350.794 1177.68 -328.994 1169.76 -292.69C1169.27 -291.032 1165.19 -291.778 1165.55 -293.685Z" fill="#0F0703" fill-opacity="0.15"/>
<path d="M1214.8 -269.896C1217.44 -314.986 1269.33 -343.582 1319.54 -366.708C1349.21 -380.384 1380.2 -392.568 1410.47 -405.582C1442.66 -419.507 1474.5 -433.929 1506.09 -448.351C1565.55 -475.455 1623.44 -503.802 1682.18 -531.735C1711.01 -545.412 1740.56 -558.425 1771.43 -569.698C1798.1 -579.478 1827.41 -588.347 1858.16 -588.513C1924.1 -588.762 1987.65 -569.366 2040.02 -542.759C2065.12 -529.995 2081.1 -513.003 2086.87 -491.867C2089.63 -481.506 2089.75 -470.814 2089.63 -460.287C2089.51 -449.014 2086.39 -437.907 2086.39 -426.801C2086.39 -416.274 2081.94 -405.084 2079.42 -394.723C2076.06 -380.964 2072.45 -367.288 2068.61 -353.611C2061.28 -327.419 2053.23 -301.227 2045.18 -275.117C2029.09 -222.816 2012.99 -170.431 2001.94 -117.384C1992.57 -72.7905 1988.73 -21.4006 1941.76 12.9146C1902.48 41.5935 1836.18 42.8368 1783.44 35.7085C1643.5 16.7274 1492.75 -3.3312 1376.24 -63.6729C1331.31 -86.9641 1295.64 -118.461 1266.81 -151.45C1235.58 -187.34 1214.92 -227.706 1214.8 -269.896C1214.8 -271.802 1219 -271.802 1219 -269.896C1219.12 -221.241 1246.99 -176.565 1285.55 -136.613C1323.51 -97.2421 1373.96 -62.9269 1434.86 -40.5475C1500.44 -16.4274 1571.67 -0.513039 1643.63 11.92C1678.94 18.0536 1714.62 23.2755 1750.29 28.2487C1780.44 32.4759 1810.71 36.123 1841.46 35.8743C1877.86 35.6256 1913.17 29.6578 1938.88 10.9254C1963.62 -7.144 1974.67 -29.0262 1982.6 -53.0634C1991.13 -78.6754 1994.97 -104.951 2000.74 -130.894C2006.63 -157.335 2013.71 -183.693 2021.4 -209.968C2036.54 -262.353 2053.95 -314.406 2068.13 -366.956C2071.61 -379.638 2074.73 -392.237 2077.74 -404.918C2080.5 -416.854 2084.22 -429.867 2084.22 -441.969C2084.1 -466.669 2088.91 -491.038 2071.85 -514.08C2055.76 -535.963 2019.6 -550.136 1989.33 -561.326C1958.46 -572.682 1924.95 -580.39 1890.47 -584.451C1818.4 -592.823 1751.49 -560.497 1694.8 -534.139C1665.61 -520.546 1637.14 -506.206 1608.31 -492.115C1579.24 -477.942 1549.21 -464.846 1519.66 -451.086C1458.28 -422.573 1394.74 -396.547 1332.4 -369.028C1280.02 -345.903 1221.76 -316.892 1218.88 -269.896C1218.88 -268.072 1214.68 -267.989 1214.8 -269.896Z" fill="#0F0703" fill-opacity="0.15"/>
<path d="M212.041 24.7673C215.885 15.3182 227.296 9.01882 241.23 7.60974C247.716 6.94664 254.083 7.94126 259.728 10.0134C267.056 12.6658 265.134 18.2192 262.852 22.4465C257.927 31.564 247.837 35.5426 234.263 36.5372C222.611 37.3661 213.122 33.3047 212.041 25.0989C211.801 23.1925 216.005 23.2753 216.245 25.0989C217.206 32.0614 225.374 33.9677 234.263 33.6362C244.954 33.2218 252.401 29.6577 257.566 23.3583C266.815 12.0856 250.479 9.01881 237.987 10.9252C227.296 12.583 219.008 18.385 216.125 25.5133C215.404 27.3368 211.32 26.5909 212.041 24.7673Z" fill="#0F0703" fill-opacity="0.15"/>
<path d="M1266.09 -266.083C1276.06 -312.831 1332.64 -340.93 1384.65 -366.542C1444.71 -396.133 1507.77 -423.071 1570.47 -449.926C1628.25 -474.627 1686.75 -501.15 1750.41 -518.059C1809.99 -533.891 1873.17 -535.383 1929.63 -512.837C1985.49 -490.541 2014.44 -452.413 2021.16 -409.146C2024.53 -388.093 2020.68 -367.122 2020.8 -346.152C2020.8 -336.703 2018.04 -326.342 2016.24 -316.893C2013.83 -304.045 2010.83 -291.198 2007.71 -278.433C1994.74 -226.132 1980.44 -173.83 1966.15 -121.694C1954.5 -79.0072 1944.17 -22.6441 1882.3 0.0668859C1856.48 9.59888 1825.49 10.0962 1796.9 9.59888C1764.71 9.01868 1731.91 3.54814 1700.44 -1.17642C1631.13 -11.5373 1563.39 -26.6227 1499.48 -47.8418C1388.97 -84.4778 1279.3 -151.865 1266.33 -241.134C1265.13 -249.34 1265.25 -257.546 1265.97 -265.751C1266.09 -267.658 1270.41 -267.658 1270.17 -265.751C1265.85 -217.926 1294.8 -174.493 1337.08 -137.691C1380.44 -99.8947 1435.22 -73.0394 1497.68 -51.7374C1563.51 -29.2751 1634.14 -14.1067 1705.73 -3.41432C1739.36 1.64178 1773.84 6.5321 1808.31 6.78076C1842.42 6.94653 1879.78 3.05082 1904.29 -14.8528C1931.43 -34.7456 1941.76 -59.6117 1950.77 -85.5553C1959.54 -111.084 1966.03 -137.028 1972.39 -162.889C1979 -189.081 1986.21 -215.273 1993.41 -241.383C2000.86 -268.155 2010.71 -295.922 2012.75 -323.192C2014.2 -342.919 2017.92 -362.315 2018.4 -382.208C2019 -405.167 2015.04 -428.293 2003.38 -449.843C1977.56 -497.752 1907.65 -525.685 1835.94 -527.757C1822.48 -528.089 1807.59 -526.265 1794.5 -524.359C1781.16 -522.369 1768.07 -519.468 1755.22 -516.319C1728.07 -509.605 1702.36 -500.404 1677.26 -490.707C1626.57 -471.062 1576.72 -450.009 1527.95 -428.293C1476.78 -405.582 1425.01 -383.451 1375.76 -358.834C1328.07 -334.962 1279.06 -308.273 1270.05 -265.503C1269.81 -263.431 1265.73 -264.26 1266.09 -266.083Z" fill="#0F0703" fill-opacity="0.15"/>
</g>
</svg>
