<svg width="1894" height="301" viewBox="0 0 1894 301" fill="none" xmlns="http://www.w3.org/2000/svg">
<path d="M281.558 300.354H241.139L204.874 258.045C184.728 268.37 162.566 273.533 138.39 273.533C98.5998 273.533 65.6094 260.564 39.4185 234.624C13.2276 208.685 0.132151 176.199 0.132151 137.164C0.132151 97.8778 13.2276 65.2651 39.4185 39.3261C65.6094 13.1352 98.5998 0.0397573 138.39 0.0397573C178.432 0.0397573 211.548 13.0093 237.739 38.9483C263.93 64.8874 277.025 97.5001 277.025 136.786C277.025 157.941 272.87 177.458 264.559 195.338C256.501 213.218 245.168 228.454 230.562 241.046L281.558 300.354ZM138.39 241.046C154.004 241.046 168.61 238.15 182.209 232.358L120.258 160.207H161.055L208.652 215.737C219.481 206.167 227.917 194.583 233.961 180.984C240.005 167.384 243.027 152.652 243.027 136.786C243.027 106.818 233.08 82.0122 213.185 62.369C193.542 42.474 168.61 32.5265 138.39 32.5265C108.421 32.5265 83.4897 42.474 63.5947 62.369C43.9515 82.264 34.1299 107.07 34.1299 136.786C34.1299 166.503 43.9515 191.309 63.5947 211.204C83.4897 231.099 108.421 241.046 138.39 241.046ZM432.32 273.533C402.352 273.533 377.42 263.837 357.525 244.446C337.882 225.055 328.06 200.375 328.06 170.406V4.57278H361.68V168.14C361.68 189.798 368.228 207.426 381.323 221.025C394.419 234.373 411.418 241.046 432.32 241.046C452.719 241.046 469.466 234.373 482.561 221.025C495.657 207.426 502.204 189.798 502.204 168.14V4.57278H535.824V170.406C535.824 200.375 526.003 225.055 506.36 244.446C486.717 263.837 462.037 273.533 432.32 273.533ZM604.815 269V4.57278H637.679V269H604.815ZM827.801 273.155C788.515 273.155 756.028 260.312 730.341 234.624C704.905 208.937 692.188 176.325 692.188 136.786C692.188 97.2482 704.905 64.6355 730.341 38.9483C756.028 13.2611 788.515 0.417506 827.801 0.417506C847.948 0.417506 866.584 4.32096 883.709 12.1279C901.085 19.6829 915.692 30.5118 927.528 44.6146C939.616 58.7174 948.053 75.2126 952.837 94.1003H919.217C912.166 74.9608 900.582 59.9766 884.464 49.1477C868.347 38.3187 849.459 32.9043 827.801 32.9043C798.084 32.9043 773.656 42.7259 754.517 62.369C735.629 81.7603 726.185 106.692 726.185 137.164C726.185 167.384 735.629 192.19 754.517 211.582C773.656 230.973 798.084 240.669 827.801 240.669C849.963 240.669 869.228 235.002 885.597 223.67C901.967 212.085 913.551 196.094 920.351 175.695H954.348C946.793 205.663 931.557 229.462 908.64 247.09C885.975 264.467 859.029 273.155 827.801 273.155ZM1164.9 269L1071.97 147.741H1036.46V269H1003.59V4.57278H1036.46V116.765H1071.59L1156.21 4.57278H1198.52L1101.81 131.876L1207.2 269H1164.9ZM1421.68 4.57278H1454.17V269H1426.21L1275.49 62.7468V269H1243.38V4.57278H1273.22L1421.68 208.559V4.57278ZM1559.19 237.269H1680.07V269H1526.33V4.57278H1675.92V35.9263H1559.19V117.899H1666.09V148.497H1559.19V237.269ZM1900.96 4.57278V35.5485H1820.5V269H1787.25V35.5485H1706.79V4.57278H1900.96Z" fill="#8F0FE9"/>
</svg>
