<svg xmlns="http://www.w3.org/2000/svg" xmlns:xlink="http://www.w3.org/1999/xlink"><symbol fill="none" viewBox="0 0 6 10" id="arr" xmlns="http://www.w3.org/2000/svg"><path d="M.47.227a.75.75 0 000 1.06L4.182 5 .47 8.712a.75.75 0 001.06 1.06L5.773 5.53a.75.75 0 000-1.06L1.53.227a.75.75 0 00-1.06 0z" fill="#fff"/></symbol><symbol fill="none" viewBox="0 0 61 40" id="blockquote" xmlns="http://www.w3.org/2000/svg"><path d="M53.525 15.066c2.258.761 4.065 2.13 5.42 4.11 1.355 1.825 2.032 3.88 2.032 6.163.151 2.282-.451 4.565-1.806 6.848-1.205 2.13-3.162 3.957-5.872 5.478-4.367 2.283-8.206 2.892-11.518 1.827-3.313-1.218-5.646-3.044-7.001-5.479-.753-1.218-1.355-2.891-1.807-5.022a47.258 47.258 0 01-.452-6.62c.15-2.435.452-4.794.904-7.077.451-2.282 1.129-4.185 2.032-5.706a44.775 44.775 0 012.71-3.425 31.475 31.475 0 013.162-3.195A33.321 33.321 0 0145.846 0l7.905.457a443.765 443.765 0 00-2.936 3.424c-.753.913-1.43 1.75-2.033 2.51a24.82 24.82 0 01-1.807 2.055c-1.054 1.065-1.882 2.13-2.484 3.196a18.473 18.473 0 00-1.581 2.968 5.766 5.766 0 000 3.195c1.957-2.13 4.216-3.195 6.775-3.195 1.205 0 2.485.152 3.84.456zm-31.167 1.141c2.108 1.218 3.614 2.892 4.517 5.023 1.054 1.978 1.43 4.108 1.13 6.391-.302 2.283-1.28 4.414-2.936 6.392-1.506 1.978-3.764 3.5-6.776 4.566-4.667 1.521-8.506 1.445-11.518-.229-3.011-1.826-5.044-4.033-6.097-6.62C.226 30.36 0 28.61 0 26.48s.226-4.337.678-6.62a47.545 47.545 0 011.806-6.62c.753-2.13 1.732-3.88 2.936-5.25a19.821 19.821 0 013.162-2.968c1.054-.76 2.258-1.598 3.613-2.511A38.054 38.054 0 0117.165 0l7.904 2.054a44.458 44.458 0 01-3.387 2.74c-.904.76-1.732 1.446-2.484 2.054l-2.259 1.826c-1.054.914-1.957 1.827-2.71 2.74-.753.76-1.43 1.674-2.033 2.739-.602.913-.828 1.902-.677 2.968 1.204-.913 2.409-1.446 3.613-1.598 1.355-.305 2.56-.38 3.614-.229 1.204.153 2.409.457 3.613.913z" fill="#F56308"/></symbol><symbol fill="none" viewBox="0 0 32 30" id="brush" xmlns="http://www.w3.org/2000/svg"><path d="M30.743 1.583a4.297 4.297 0 00-6.386.348l-9.125 11.052-.597-.596a4.694 4.694 0 00-6.63 0l-2.653 2.652a.939.939 0 01-1.326-1.326.937.937 0 10-1.329-1.323l-1.323 1.323a4.686 4.686 0 000 6.63L9.331 28.3a4.686 4.686 0 006.63 0l3.978-3.979a4.686 4.686 0 000-6.63l-.596-.597L30.395 7.97a4.297 4.297 0 00.348-6.386zm-16.108 25.39a2.811 2.811 0 01-3.978 0l-.002-.001a4.663 4.663 0 002.654-1.324.938.938 0 10-1.326-1.326 2.816 2.816 0 01-3.978 0l-1.328-1.328a4.663 4.663 0 002.654-1.325.938.938 0 00-1.326-1.326 2.816 2.816 0 01-3.978 0L2.7 19.018a2.814 2.814 0 01-.493-3.315 2.816 2.816 0 004.471.663l1.99-1.989 9.282 9.283-3.315 3.315zm4.529-4.753l-9.057-9.056a2.818 2.818 0 013.202.549l5.304 5.304a2.815 2.815 0 01.55 3.203zM29.218 6.51l-.012.008-11.195 9.244-1.447-1.446L25.808 3.12l.009-.011a2.418 2.418 0 013.6-.2 2.418 2.418 0 01-.2 3.6z" fill="#F56308"/></symbol><symbol fill="none" viewBox="0 0 27 23" id="cart" xmlns="http://www.w3.org/2000/svg"><path d="M26.572 5.933a2.324 2.324 0 00-1.891-.975H5.168L4.633 3.12a2.32 2.32 0 00-1.495-1.552L1.073.88a.814.814 0 10-.515 1.548l2.066.688c.214.071.38.243.442.46l.702 2.407.01.036 2.896 9.958a2.331 2.331 0 002.228 1.671h12.97a2.32 2.32 0 002.188-1.555l2.812-8.053a2.328 2.328 0 00-.3-2.107zm-1.241 1.57l-2.812 8.054a.69.69 0 01-.65.461H8.901a.692.692 0 01-.66-.495l-2.6-8.934h19.04a.68.68 0 01.56.29c.132.182.164.41.09.624zM11.021 22.246a1.672 1.672 0 100-3.344 1.672 1.672 0 000 3.344zM20.096 22.246a1.672 1.672 0 100-3.344 1.672 1.672 0 000 3.344z" fill="#000"/></symbol><symbol fill="none" viewBox="0 0 24 24" id="catalog" xmlns="http://www.w3.org/2000/svg"><g clip-path="url(#eclip0_308_32)"><path d="M4.64 15.765h-.426c-1.867 0-3.413-1.493-3.413-3.365V4.165C.8 2.298 2.347.8 4.219.8h8.304c1.872 0 3.42 1.498 3.42 3.365v.299c2.394 0 3.818 1.274 3.818 3.765 1.893 0 3.44 1.472 3.44 3.366v8.207a3.394 3.394 0 01-3.392 3.393h-8.384c-1.846 0-3.366-1.52-3.366-3.393v-.4c-1.946-.175-3.418-1.274-3.418-3.344v-.293zm13.846-7.53v-.4c0-1.174-.97-2.097-2.123-2.097h-8.33c-1.174 0-2.144.923-2.144 2.096v8.23c0 1.35.922 1.947 2.17 2.07V11.6a3.382 3.382 0 013.366-3.366h7.061zm1.323 1.247h-8.384c-1.147 0-2.096.95-2.096 2.123v8.208c0 1.174.95 2.123 2.096 2.123h8.378c1.174 0 2.123-.95 2.123-2.123V11.6a2.112 2.112 0 00-2.117-2.118zM14.667 4.47V4.17c0-1.173-.97-2.096-2.144-2.096H4.22c-1.173 0-2.144.923-2.144 2.096v8.23c0 1.173.971 2.096 2.144 2.096h.427V7.834c0-1.872 1.547-3.365 3.392-3.365h6.63z" fill="#584C3B"/></g><defs><clipPath id="eclip0_308_32"><path fill="#fff" d="M0 0h24v24H0z"/></clipPath></defs></symbol><symbol fill="none" viewBox="0 0 20 20" id="checked" xmlns="http://www.w3.org/2000/svg"><g clip-path="url(#fclip0_308_57)" fill="#584C3B"><path d="M19.43 2.734a.754.754 0 00-1.066-.001L9.32 11.752 6.058 8.208A.754.754 0 004.95 9.23l3.794 4.12a.753.753 0 001.087.024L19.428 3.8a.754.754 0 00.001-1.066z"/><path d="M19.246 9.246a.754.754 0 00-.753.754c0 4.683-3.81 8.492-8.493 8.492S1.508 14.682 1.508 10c0-4.683 3.81-8.492 8.492-8.492A.754.754 0 1010 0C4.486 0 0 4.486 0 10s4.486 10 10 10 10-4.486 10-10a.754.754 0 00-.754-.754z"/></g><defs><clipPath id="fclip0_308_57"><path fill="#fff" d="M0 0h20v20H0z"/></clipPath></defs></symbol><symbol fill="none" viewBox="0 0 30 30" id="clean" xmlns="http://www.w3.org/2000/svg"><g clip-path="url(#gclip0_304_322)" fill="#F56308"><path d="M29.12 20.723a6.65 6.65 0 01-4.717-1.938 6.554 6.554 0 01-1.95-4.683.88.88 0 00-1.758 0 6.554 6.554 0 01-1.95 4.683 6.65 6.65 0 01-4.718 1.938.879.879 0 000 1.758c3.677 0 6.668 2.979 6.668 6.64a.879.879 0 101.758 0c0-3.661 2.99-6.64 6.667-6.64a.879.879 0 100-1.758zm-7.546 4.665a8.47 8.47 0 00-3.787-3.781 8.425 8.425 0 002.196-1.574 8.373 8.373 0 001.59-2.191c.402.801.936 1.54 1.591 2.19a8.428 8.428 0 002.196 1.575 8.469 8.469 0 00-3.786 3.781zM12.025 13.85c-2.588 0-4.694-2.09-4.694-4.66a.879.879 0 00-1.758 0c0 2.57-2.106 4.66-4.694 4.66a.879.879 0 000 1.758c2.588 0 4.694 2.098 4.694 4.675a.879.879 0 001.758 0c0-2.578 2.106-4.675 4.694-4.675a.879.879 0 100-1.757zm-5.573 3.195a6.49 6.49 0 00-2.318-2.314 6.484 6.484 0 002.318-2.31 6.484 6.484 0 002.319 2.31 6.488 6.488 0 00-2.319 2.314zM13.457 6.074c1.904 0 3.453 1.537 3.453 3.426a.879.879 0 001.757 0 3.449 3.449 0 013.453-3.437.879.879 0 000-1.758c-1.904 0-3.453-1.537-3.453-3.426a.879.879 0 10-1.758 0 3.449 3.449 0 01-3.452 3.437.879.879 0 100 1.758zm4.334-2.314a5.24 5.24 0 001.43 1.425 5.246 5.246 0 00-1.435 1.433 5.241 5.241 0 00-1.43-1.424A5.244 5.244 0 0017.79 3.76z"/></g><defs><clipPath id="gclip0_304_322"><path fill="#fff" d="M0 0h30v30H0z"/></clipPath></defs></symbol><symbol fill="none" viewBox="0 0 30 28" id="eco" xmlns="http://www.w3.org/2000/svg"><path d="M24.756 17.197c-2.892 0-5.244 2.361-5.244 5.264.288 6.984 10.2 6.982 10.488 0 0-2.903-2.352-5.264-5.244-5.264zm0 8.77c-1.922 0-3.485-1.573-3.485-3.506.192-4.65 6.779-4.649 6.97 0 0 1.933-1.564 3.505-3.485 3.505zM13.63 18.956c1.017 0 1.98.445 2.644 1.221a.88.88 0 101.337-1.143c-3.148-3.688-9.225-1.424-9.224 3.428-.012 4.65 5.685 7.029 8.953 3.72a.88.88 0 00-1.247-1.24c-2.175 2.2-5.955.613-5.947-2.48 0-1.933 1.563-3.506 3.485-3.506zM6.203 18.956c1.167-.046 1.166-1.713 0-1.76H.88a.88.88 0 00-.88.88v8.77c0 .486.394.88.88.88h5.323c1.167-.047 1.166-1.714 0-1.76H1.759V23.36H4.74c1.167-.047 1.166-1.714 0-1.76H1.76v-2.644h4.443v0zM10.03 14.693h7.333c5.372 0 9.742-4.37 9.742-9.742V1.154a.88.88 0 00-.88-.88h-3.797c-4.135 0-7.676 2.59-9.087 6.232a7.003 7.003 0 00-5.898-3.231H3.907a.88.88 0 00-.88.88V7.69a7.01 7.01 0 007.003 7.003zm4.415-4.677c0-4.402 3.581-7.983 7.983-7.983h2.918v2.918c0 4.402-3.581 7.983-7.983 7.983H15.69l6.065-6.064a.88.88 0 00-1.244-1.244l-6.064 6.064v-1.674zM4.787 5.034h2.656a5.25 5.25 0 015.243 5.221v1.435l-4.27-4.271c-.859-.792-2.037.387-1.245 1.244l4.271 4.27H10.03A5.25 5.25 0 014.787 7.69V5.034z" fill="#F56308" stroke="#F56308" stroke-width=".4"/></symbol><symbol fill="none" viewBox="0 0 57 57" id="eco-big" xmlns="http://www.w3.org/2000/svg"><g clip-path="url(#iclip0_304_337)"><path d="M28.5 0a28.274 28.274 0 00-15.03 4.3V1.67a1.67 1.67 0 00-3.34 0v5.86a1.67 1.67 0 002.715 1.303C17.328 5.24 22.742 3.34 28.5 3.34c13.873 0 25.16 11.287 25.16 25.16 0 5.37-1.818 10.746-5.119 15.14a1.67 1.67 0 102.67 2.007C54.944 40.677 57 34.587 57 28.5 57 12.807 44.192 0 28.5 0zM28.5 57a28.273 28.273 0 0015.03-4.3v2.63a1.67 1.67 0 003.34 0v-5.86a1.67 1.67 0 00-2.715-1.303c-4.483 3.594-9.897 5.493-15.655 5.493-13.873 0-25.16-11.286-25.16-25.16 0-5.369 1.818-10.746 5.119-15.14a1.67 1.67 0 10-2.67-2.006C2.056 16.323 0 22.412 0 28.5 0 44.193 12.808 57 28.5 57z" fill="#584C3B"/><path d="M28.5 50.32a1.67 1.67 0 001.67-1.67v-5.029c3.472-.086 6.306-.495 8.604-1.807 3.2-1.826 4.755-5.089 4.755-9.974 0-7.832-8.779-19.26-13.81-24.632a1.67 1.67 0 00-2.438 0c-4.968 5.305-13.81 16.764-13.81 24.632 0 4.885 1.555 8.148 4.755 9.974 2.297 1.312 5.132 1.72 8.604 1.807v5.03c0 .922.748 1.67 1.67 1.67zm-8.619-11.407c-1.318-.752-3.07-2.304-3.07-7.073 0-6.889 8.483-17.297 11.696-20.99 4.125 4.715 11.683 14.663 11.683 20.99 0 4.77-1.753 6.321-3.071 7.073-1.766 1.009-4.306 1.298-6.95 1.368v-4.41l6.191-6.19A1.67 1.67 0 1034 27.319l-3.83 3.83v-5.297l2.852-2.85a1.67 1.67 0 00-2.362-2.362L28.5 22.799l-2.16-2.16a1.67 1.67 0 10-2.36 2.362l2.85 2.85v5.297l-3.829-3.829a1.67 1.67 0 00-2.361 2.362l6.19 6.19v4.41c-2.643-.07-5.183-.36-6.949-1.367z" fill="#F56308"/></g><defs><clipPath id="iclip0_304_337"><path fill="#fff" d="M0 0h57v57H0z"/></clipPath></defs></symbol><symbol fill="none" viewBox="0 0 12 12" id="gal" xmlns="http://www.w3.org/2000/svg"><path d="M10.814 1.183v6.6h-6.6v-6.6h6.6zm0-1.1h-6.6c-.605 0-1.1.495-1.1 1.1v6.6c0 .605.495 1.1 1.1 1.1h6.6c.605 0 1.1-.495 1.1-1.1v-6.6c0-.605-.495-1.1-1.1-1.1zM6.14 5.402l.93 1.243L8.433 4.94l1.831 2.293h-5.5L6.14 5.402zM.914 2.283v7.7c0 .605.495 1.1 1.1 1.1h7.7v-1.1h-7.7v-7.7h-1.1z" fill="#555557"/></symbol><symbol fill="none" viewBox="0 0 27 27" id="instagram" xmlns="http://www.w3.org/2000/svg"><g clip-path="url(#kclip0_301_69)" fill="#000"><path d="M13.499 16.269a2.769 2.769 0 100-5.538 2.769 2.769 0 000 5.538z"/><path d="M13.5.316C6.219.316.316 6.22.316 13.5S6.22 26.684 13.5 26.684 26.684 20.78 26.684 13.5 20.78.316 13.5.316zm8.145 16.535c-.063 1.253-.415 2.49-1.329 3.393-.922.912-2.164 1.252-3.43 1.315h-6.773c-1.265-.063-2.507-.403-3.43-1.315-.913-.904-1.265-2.14-1.328-3.393v-6.702c.063-1.253.415-2.49 1.329-3.393.922-.912 2.164-1.252 3.43-1.315h6.773c1.265.063 2.507.403 3.43 1.315.913.904 1.265 2.14 1.328 3.393v6.702z"/><path d="M16.8 6.968c-1.65-.045-4.951-.045-6.601 0-.859.024-1.832.237-2.444.89-.635.68-.876 1.5-.9 2.418-.043 1.611 0 6.447 0 6.447.028.918.265 1.739.9 2.418.612.654 1.585.867 2.444.89 1.65.046 4.952.046 6.602 0 .858-.023 1.832-.237 2.443-.89.636-.68.876-1.5.9-2.418v-6.447c-.024-.918-.264-1.738-.9-2.417-.612-.654-1.585-.867-2.443-.891zm-3.3 10.823a4.291 4.291 0 110-8.583 4.291 4.291 0 010 8.583zm4.31-7.697a.858.858 0 110-1.716.858.858 0 010 1.716z"/></g><defs><clipPath id="kclip0_301_69"><path fill="#fff" d="M0 0h27v27H0z"/></clipPath></defs></symbol><symbol fill="none" viewBox="0 0 12 12" id="li" xmlns="http://www.w3.org/2000/svg"><path d="M12 6A6 6 0 110 6a6 6 0 0112 0zM9.023 3.728a.562.562 0 00-.81.016L5.607 7.063l-1.57-1.57a.563.563 0 00-.795.794l1.985 1.986a.563.563 0 00.809-.015L9.03 4.514a.563.563 0 00-.008-.787z" fill="#fff"/></symbol><symbol fill="none" viewBox="0 0 277 50" id="logo" xmlns="http://www.w3.org/2000/svg"><path d="M261.926 38.655V16.233l4.687-4.687h10.386v27.109h-5.25V32.13h-4.574v6.524h-5.249zm5.249-20.997V27.78h4.574V16.233h-3.124l-1.45 1.425zM227.09 38.655V16.233l4.687-4.687h10.386v27.109h-5.249V32.13h-4.575v6.524h-5.249zm5.249-20.997V27.78h4.575V16.233h-3.125l-1.45 1.425zM215.718 38.655h-5.249v-27.11h9.973l4.237 3.675v10.461l-4.237 3.712h-4.724v9.262zm0-13.836h3.712v-8.511h-3.712v8.511zM198.995 38.655h-5.249v-27.11h9.974l4.237 3.675v10.461l-4.237 3.712h-4.725v9.262zm0-13.836h3.712v-8.511h-3.712v8.511zM126.41 38.655V16.233l4.687-4.687h10.386v27.109h-5.249V32.13h-4.575v6.524h-5.249zm5.249-20.997V27.78h4.575V16.233h-3.125l-1.45 1.425zM83.602 38.655V16.233l4.686-4.687h10.386v27.109h-5.249V32.13h-4.574v6.524H83.6zm5.249-20.997V27.78h4.574V16.233h-3.124l-1.45 1.425zM77.334 38.655H66.535v-27.11h10.499l3.712 3.525v7.012l-2.475 2.325 2.887 2.474v8.062l-3.824 3.712zm-5.55-15.936h4.125v-6.411h-4.125v6.411zm0 4.162v7.012h4.125V26.88h-4.125zM33.48 27.516l6.906 6.908v-.01l9.03 9.034v6.36H0V.393h6.375l9.027 9.03h-.01l6.9 6.9v11.193H33.48zm-8.832 3.9l-9.358 9.362h18.716l-9.358-9.361zM9.03 34.306l9.252-9.256-9.252-9.256v18.512z" fill="#584C3B"/><path d="M49.414 39.91l-9.03-9.033V15.674l-9.331 9.334h-6.255V18.53l9.104-9.107H18.937L9.91.392h39.504V39.91z" fill="#F56308"/><path d="M249.4 11.546h5.324l4.725 4.762v3.937h-5.25v-3.937h-4.274v17.585h4.274v-4.05h5.25v4.05l-4.725 4.762H249.4l-4.724-4.762V16.308l4.724-4.762zM191.275 38.655h-11.548v-27.11h11.548v4.763h-6.299v6.111h5.249v4.35h-5.249v7.124h6.299v4.762zM173.197 38.655h-5.249V16.308h-4.05v-4.762h13.311v4.762h-4.012v22.347zM101.18 11.546h5.249v22.76h3.749V17.657h4.537v16.647h3.825v-22.76h5.249v27.11H101.18v-27.11z" fill="#584C3B"/><path d="M154.715 19.932l-5.168 5.168 5.168 5.168 5.168-5.168-5.168-5.168z" fill="#F56308"/></symbol><symbol fill="none" viewBox="0 0 10 12" id="play" xmlns="http://www.w3.org/2000/svg"><path d="M8.75 5.567a.5.5 0 010 .866l-7.5 4.33a.5.5 0 01-.75-.433V1.67a.5.5 0 01.75-.433l7.5 4.33z" stroke="#F56308"/></symbol><symbol fill="none" viewBox="0 0 27 28" id="runner" xmlns="http://www.w3.org/2000/svg"><path d="M6.521 4.891a3.264 3.264 0 00-3.26-3.26A3.264 3.264 0 000 4.89a3.264 3.264 0 003.26 3.26 3.264 3.264 0 003.261-3.26zM14.67 13.997l-4.21-4.21 3.557-3.53V0h-3.26v4.9l-8.804 8.823v5.84h3.26v-4.5l2.94-2.97 4.886 4.886v4.838l-5.62 2.81 1.458 2.916 7.423-3.711v-6.853l3.18-3.182 5.687 3.855 1.83-2.698-7.917-5.367-4.41 4.41z" fill="#F56308"/></symbol><symbol fill="none" viewBox="0 0 24 24" id="scale" xmlns="http://www.w3.org/2000/svg"><g clip-path="url(#pclip0_308_23)" fill="#584C3B" stroke="#fff" stroke-width=".2"><path d="M10.609 0h-7.5a.75.75 0 00-.75.75v22.5c0 .414.336.75.75.75h7.5a.75.75 0 00.75-.75V.75a.75.75 0 00-.75-.75zm-.75 22.5h-6v-2.25h3.75v-1.5H3.86V16.5h2.25V15H3.86v-2.25h3.75v-1.5H3.86V9h2.25V7.5H3.86V5.25h3.75v-1.5H3.86V1.5h6v21zM20.585 18.975l-2.475 2.467V2.558l2.468 2.467 1.057-1.057-3.75-3.75a.75.75 0 00-1.057 0l-3.75 3.75 1.058 1.057 2.474-2.467v18.884l-2.467-2.467-1.057 1.057 3.75 3.75a.75.75 0 001.057 0l3.75-3.75-1.058-1.057z"/></g><defs><clipPath id="pclip0_308_23"><path fill="#fff" d="M0 0h24v24H0z"/></clipPath></defs></symbol><symbol fill="none" viewBox="0 0 26 28" id="secure" xmlns="http://www.w3.org/2000/svg"><path d="M25 5.563a.9.9 0 00-.657-.844L13.28.875h-.562L1.562 4.625c-.282.188-.563.469-.563.938C.718 14.842 4.468 21.78 12.53 27.03c.282.188.657.282 1.032 0 7.968-5.25 11.812-12.281 11.437-21.468zm-12 19.5c-3.75-2.532-6.47-5.532-8.157-9l3.187 1.03c.47.188 1.032-.093 1.22-.562.187-.468-.095-1.031-.563-1.218l-4.688-1.5c-.281-.75-.469-1.5-.656-2.25l4.687 1.5c.47.187 1.032-.094 1.22-.563.187-.469-.095-1.031-.563-1.219L3.062 9.5c-.094-.656-.094-1.313-.188-2.063l5.25 1.688c.563.188 1.031-.188 1.219-.563.187-.468-.094-1.03-.563-1.218l-4.875-1.5 9.094-3 10.125 3.469c.094 7.968-3.187 14.156-10.125 18.75z" fill="#F56308"/></symbol><symbol fill="none" viewBox="0 0 26 26" id="shield" xmlns="http://www.w3.org/2000/svg"><path fill-rule="evenodd" clip-rule="evenodd" d="M17.035 10.12a.824.824 0 010 1.184l-4.572 4.467a.872.872 0 01-1.213 0l-2.286-2.233a.824.824 0 010-1.185.872.872 0 011.213 0l1.68 1.641 3.966-3.874a.872.872 0 011.212 0z" fill="#584C3B"/><path fill-rule="evenodd" clip-rule="evenodd" d="M13.43 3.906a1.461 1.461 0 00-.861 0l-7.69 2.372a1.394 1.394 0 00-.976 1.573l1.204 6.69c.442 2.454 1.725 4.654 3.792 5.919.76.464 1.55.898 2.288 1.213.755.322 1.374.485 1.812.485.439 0 1.058-.163 1.813-.485.737-.315 1.528-.749 2.287-1.213 2.067-1.265 3.35-3.465 3.792-5.92l1.205-6.689a1.394 1.394 0 00-.977-1.573l-7.69-2.372zM12.053 2.31a3.215 3.215 0 011.893 0l7.69 2.372c1.503.464 2.422 1.944 2.149 3.46l-1.205 6.69c-.506 2.808-2.002 5.477-4.57 7.049-.8.488-1.669.967-2.511 1.327-.825.353-1.705.626-2.5.626-.795 0-1.674-.273-2.499-.626-.843-.36-1.712-.839-2.51-1.328-2.57-1.571-4.066-4.24-4.571-7.048l-1.205-6.69c-.273-1.516.646-2.996 2.15-3.46l7.689-2.372z" fill="#584C3B"/></symbol><symbol fill="none" viewBox="0 0 30 30" id="sun" xmlns="http://www.w3.org/2000/svg"><g clip-path="url(#sclip0_304_238)" fill="#F56308"><path d="M7.928 6.161L6.161 4.394A1.25 1.25 0 104.393 6.16L6.161 7.93c.244.244.564.366.884.366a1.25 1.25 0 00.884-2.134zM3.75 13.75h-2.5a1.25 1.25 0 000 2.5h2.5a1.25 1.25 0 000-2.5zM7.928 22.071a1.25 1.25 0 00-1.767 0L4.393 23.84a1.25 1.25 0 101.768 1.767l1.767-1.767a1.25 1.25 0 000-1.768zM15 25c-.69 0-1.25.56-1.25 1.25v2.5a1.25 1.25 0 002.5 0v-2.5c0-.69-.56-1.25-1.25-1.25zM25.608 23.839l-1.767-1.768a1.25 1.25 0 10-1.768 1.768l1.768 1.767c.243.244.563.366.883.366a1.25 1.25 0 00.884-2.134zM28.75 13.75h-2.5a1.25 1.25 0 000 2.5h2.5a1.25 1.25 0 000-2.5zM25.608 4.394a1.25 1.25 0 00-1.767 0L22.073 6.16a1.25 1.25 0 101.768 1.768l1.767-1.768a1.25 1.25 0 000-1.767zM15 0c-.69 0-1.25.56-1.25 1.25v2.5a1.25 1.25 0 002.5 0v-2.5C16.25.56 15.69 0 15 0zM15 6.875c-4.48 0-8.125 3.645-8.125 8.125S10.52 23.125 15 23.125 23.125 19.48 23.125 15 19.48 6.875 15 6.875zm0 13.75A5.632 5.632 0 019.375 15 5.632 5.632 0 0115 9.375 5.632 5.632 0 0120.625 15 5.632 5.632 0 0115 20.625z"/></g><defs><clipPath id="sclip0_304_238"><path fill="#fff" d="M0 0h30v30H0z"/></clipPath></defs></symbol><symbol fill="none" viewBox="0 0 25 24" id="up" xmlns="http://www.w3.org/2000/svg"><path d="M24.5 12a12 12 0 10-24 0 12 12 0 0024 0zm-11.25 5.25a.75.75 0 11-1.5 0V8.56l-3.219 3.221a.751.751 0 01-1.062-1.062l4.5-4.5a.75.75 0 011.062 0l4.5 4.5a.75.75 0 01-1.062 1.062l-3.219-3.22v8.689z" fill="#0042A4"/></symbol><symbol fill="none" viewBox="0 0 17 17" id="whatsapp" xmlns="http://www.w3.org/2000/svg"><path d="M8.5.25c-4.42 0-8 3.58-8 8 0 1.76.56 3.38 1.52 4.7l-1.1 2.9 3.18-.92c1.26.84 2.78 1.32 4.4 1.32 4.42 0 8-3.58 8-8s-3.58-8-8-8zm4.26 11.32l-.86.84c-.9.9-3.28-.08-5.38-2.2-2.1-2.1-3.04-4.48-2.2-5.36l.86-.86c.32-.32.86-.32 1.2 0l1.26 1.26c.44.44.26 1.2-.32 1.38-.4.14-.68.58-.54.98.22.94 1.44 2.1 2.34 2.32.4.1.86-.14.98-.54.18-.58.94-.76 1.38-.32l1.26 1.26c.32.34.32.88.02 1.24z" fill="#000"/></symbol></svg>